<?xml version="1.0" encoding="utf-8"?>
<!-- Generator: Adobe Illustrator 21.1.0, SVG Export Plug-In . SVG Version: 6.00 Build 0)  -->
<svg version="1.1" id="Layer_1" xmlns="http://www.w3.org/2000/svg" xmlns:xlink="http://www.w3.org/1999/xlink" x="0px" y="0px"
	 viewBox="0 0 100 100"  preserveaspectratio="xMaxyMax" style="enable-background:new 0 0 100 100;" xml:space="preserve">
<g>
	<path d="M91.8,52.8c0-7.3-1.9-14.2-5.3-20.2v-7.3H84v3.3c-0.9-1.2-1.8-2.4-2.8-3.5v-5.4h-2.5v2.8c-1.1-1-2.2-2-3.3-2.9v-4.5h-2.5
		v2.7c-0.8-0.5-1.6-1-2.4-1.5v-3H68V15c-0.7-0.3-1.3-0.6-2-0.9v-1.9h-2.5v1c-0.8-0.3-1.6-0.5-2.4-0.8V7.5h-2.5v4.2
		c-2.6-0.6-5.2-0.9-8-0.9V7.3h-2.5v3.5c-2.5,0.1-5,0.4-7.4,0.9V7.3h-2.5v5c-0.8,0.2-1.6,0.5-2.4,0.8V12h-2.5v2
		c-0.7,0.3-1.4,0.6-2,0.9v-1.8h-2.5v3.1c-0.8,0.5-1.7,1-2.5,1.5V15h-2.5v4.6c-1.2,0.9-2.3,1.9-3.3,2.9v-2.9h-2.5V25
		c-1,1.1-2,2.3-2.8,3.6v-3.4h-2.5v7.3h0C9.2,38.6,7.3,45.6,7.3,53c0,0.7,0.6,1.2,1.3,1.2c0.6,0,1.2-0.5,1.2-1.1
		c0.6-5.4,6-9.6,12.4-9.6c6.1,0,11.2,3.7,12.3,8.8c0.1,0.6,0.6,1,1.2,1s1.1-0.4,1.2-1c0.9-4.8,5.5-8.3,11.1-8.8v4.7h-0.8
		c-0.7,0-1.2,0.6-1.2,1.2s0.6,1.2,1.2,1.2h0.8v31h-0.8c-0.7,0-1.2,0.6-1.2,1.2s0.6,1.2,1.2,1.2h0.8V89c0,1.5-1.2,2.8-2.8,2.8
		c-1.5,0-2.8-1.2-2.8-2.8h-2.5c0,2.9,2.4,5.2,5.2,5.2s5.2-2.4,5.2-5.2v-4.8h1.1c0.7,0,1.2-0.6,1.2-1.2s-0.6-1.2-1.2-1.2h-1.1v-31
		h1.1c0.7,0,1.2-0.6,1.2-1.2s-0.6-1.2-1.2-1.2h-1.1v-4.7c5.8,0.5,10.5,4.5,11,9.5c0.1,0.6,0.6,1.1,1.2,1.1h0.4
		c0.6,0,1.2-0.5,1.2-1.1c0.6-5.4,6-9.6,12.4-9.6c6.4,0,11.8,4.2,12.4,9.6c0.1,0.6,0.6,1.1,1.2,1.1h0.1c0,0,0,0,0,0
		c0.7,0,1.2-0.6,1.2-1.2C91.8,52.9,91.8,52.8,91.8,52.8z M10.4,46.1c2.7-15.3,14.1-27.6,29-31.5c-8.9,5-15.7,14.5-18.4,26.5
		C16.7,41.4,12.9,43.3,10.4,46.1z M23.6,41.1c3.2-13.5,11.9-23.6,22.8-26.8C37.5,25.1,35.1,35.1,34.8,47
		C32.4,43.7,28.2,41.4,23.6,41.1z M37.3,46.1c0.4-10.9,2.7-20.1,10.7-29.9v24.8C43.7,41.3,39.9,43.2,37.3,46.1z M50.6,41.1V15.9
		c8.4,10.1,10.7,19.7,11,31C59.2,43.6,55.2,41.5,50.6,41.1z M64.1,47.2c-0.3-12-2.7-22.1-11.6-32.9c11,3.2,19.6,13.3,22.8,26.8
		C70.6,41.5,66.5,43.8,64.1,47.2z M78,41.1c-2.7-12-9.5-21.6-18.5-26.6C74.4,18.4,86,30.7,88.7,46.1C86.2,43.2,82.3,41.4,78,41.1z"
		/>
	<rect x="7.3" y="7.3" width="2.5" height="22.2"/>
	<rect x="7.3" y="33.3" width="2.5" height="3.7"/>
	<rect x="12.6" y="7.3" width="2.5" height="7.7"/>
	<rect x="12.6" y="17" width="2.5" height="5"/>
	<rect x="17.9" y="7.3" width="2.5" height="9.6"/>
	<rect x="23.8" y="7.3" width="2.5" height="5.8"/>
	<rect x="28.7" y="7.3" width="2.5" height="3.8"/>
	<rect x="33.2" y="7.3" width="2.5" height="2.9"/>
	<rect x="43.2" y="7.3" width="2.5" height="1.9"/>
	<rect x="89.3" y="7.5" width="2.5" height="22.2"/>
	<rect x="89.3" y="33.5" width="2.5" height="3.7"/>
	<rect x="84" y="7.5" width="2.5" height="7.7"/>
	<rect x="84" y="17.1" width="2.5" height="5"/>
	<rect x="78.7" y="7.5" width="2.5" height="9.6"/>
	<rect x="72.9" y="7.5" width="2.5" height="5.8"/>
	<rect x="68" y="7.5" width="2.5" height="3.8"/>
	<rect x="63.4" y="7.5" width="2.5" height="2.9"/>
	<rect x="53.5" y="7.5" width="2.5" height="1.9"/>
</g>
</svg>
