<?xml version="1.0" encoding="utf-8"?>
<!-- Generator: Adobe Illustrator 21.1.0, SVG Export Plug-In . SVG Version: 6.00 Build 0)  -->
<svg version="1.1" id="Layer_1" xmlns="http://www.w3.org/2000/svg" xmlns:xlink="http://www.w3.org/1999/xlink" x="0px" y="0px"
	 viewBox="0 -100 600 600" style="enable-background:new 0 0 600 435;" xml:space="preserve">
<g>
	<g>
		<g>
			<g>
				<path d="M475.1,276.5c-1.1,0-2.2-0.2-3.2-0.6c-2.3-0.9-4.1-2.8-4.9-5.1l-44.2-124c-1.4-4,0.2-8.4,3.9-10.4l37-20.7
					c4.1-2.3,9.4-0.8,11.7,3.3s0.8,9.4-3.3,11.7l-30.7,17.2l38.5,107.9l28.9-14.6c4.2-2.1,9.4-0.4,11.6,3.8
					c2.1,4.2,0.4,9.4-3.8,11.6l-37.6,19C477.7,276.2,476.4,276.5,475.1,276.5z"/>
			</g>
			<g>
				<path d="M519,275.4c-1.2,0-2.4-0.3-3.6-0.8c-2.1-1-3.8-2.8-4.5-4.9l-51.1-143.6c-1.5-4.2,0.4-8.8,4.4-10.7l81.2-38.2
					c4.3-2,9.4-0.2,11.5,4.1c2,4.3,0.2,9.4-4.1,11.5l-74.1,34.8l45.5,127.8l44.1-17.4c4.4-1.7,9.4,0.4,11.2,4.9
					c1.7,4.4-0.4,9.4-4.9,11.2l-52.4,20.6C521.1,275.2,520.1,275.4,519,275.4z"/>
			</g>
			<g>
				<path d="M542.4,230.9c-4.2,0-8.4-1.3-11.9-3.8c-4.6-3.2-7.6-8-8.6-13.5c-1-5.5,0.3-11,3.5-15.6c3.2-4.6,8-7.6,13.5-8.6
					c5.5-1,11,0.3,15.6,3.5c4.6,3.2,7.6,8,8.6,13.5c2,11.3-5.6,22.2-16.9,24.2C544.9,230.8,543.7,230.9,542.4,230.9z M542.5,206.4
					c-0.2,0-0.4,0-0.6,0.1c-1.3,0.2-2,1-2.4,1.5c-0.3,0.5-0.8,1.4-0.6,2.7c0.2,1.3,1,2,1.5,2.4c0.5,0.3,1.4,0.8,2.7,0.6
					c2-0.4,3.3-2.3,3-4.2c-0.2-1.3-1-2-1.5-2.4C544.2,206.8,543.5,206.4,542.5,206.4z"/>
			</g>
		</g>
		<g>
			<g>
				<path d="M123.6,275.6c-1.3,0-2.7-0.3-3.9-0.9l-37.6-19c-4.2-2.1-5.9-7.3-3.8-11.6c2.1-4.2,7.3-5.9,11.6-3.8l28.9,14.6L157.3,147
					l-30.7-17.2c-4.2-2.3-5.6-7.6-3.3-11.7c2.3-4.1,7.6-5.6,11.7-3.3l37,20.7c3.7,2.1,5.3,6.4,3.9,10.4l-44.2,124
					c-0.8,2.3-2.6,4.2-4.9,5.1C125.8,275.4,124.7,275.6,123.6,275.6z"/>
			</g>
			<g>
				<path d="M79.7,274.5c-1.1,0-2.3-0.2-3.4-0.7L29.7,254c-4.4-1.9-6.4-6.9-4.6-11.3c1.9-4.4,6.9-6.4,11.3-4.6l38.2,16.2l45.4-127.6
					L61.2,98.6c-4.3-2-6.1-7.2-4.1-11.5c2-4.3,7.2-6.1,11.5-4.1l65.9,31.5c4,1.9,5.9,6.5,4.4,10.7L87.8,268.7c-0.8,2.2-2.5,4-4.7,5
					C82,274.2,80.9,274.5,79.7,274.5z"/>
			</g>
		</g>
	</g>
	<g>
		<g>
			<path d="M456.7,259.4c0.2-0.2,0.3-0.4,0.3-0.4l-14.5-9.3c1.1-1.7,5.8-7.8,19.6-13c4.4-1.7,9.4,0.5,11.1,5c1.7,4.4-0.5,9.4-5,11.1
				C459.4,256.1,456.7,259.3,456.7,259.4z"/>
		</g>
		<g>
			<path d="M246.1,250.7c-10.1,0-19.8-4.8-27.1-13.6c-2.7-3.3-2.6-8.1,0.2-11.2c11.3-12.6,12.3-28.7,13.1-40.5
				c0.6-8.3,1-14.9,4.9-19.4c4.8-5.6,11.4-9.6,19-14.2c5-3,10.7-6.5,16.9-11c5.4-3.9,9.8-7.8,14.1-11.6c8.1-7.2,15.1-13.4,24.3-15.1
				c22.6-4.2,77.4,5.6,122.2,21.9c4.5,1.6,6.8,6.6,5.2,11c-1.6,4.5-6.6,6.8-11,5.2c-45.3-16.4-96-24.3-113.2-21.1
				c-4.4,0.8-9.5,5.3-16,11.1c-4.4,3.9-9.4,8.4-15.5,12.7c-6.8,4.9-12.8,8.5-18,11.7c-6.4,3.9-11.5,7-14.6,10.4
				c-0.5,1.6-0.8,6.2-1.1,9.6c-0.8,11.8-1.9,28.7-12.3,44.2c2.8,1.9,6.4,3.2,10.6,2.7c9.8-1.2,20.2-12.1,29.3-30.6
				c1.1-3.9,5.1-5.7,9.9-7.8c2.7-1.2,6.5-2.8,11.2-4.8c8.1-3.4,16.3-6.8,16.3-6.8c4.4-1.8,9.4,0.3,11.2,4.7
				c1.8,4.4-0.3,9.4-4.7,11.2c-11.5,4.7-24.1,10-29.2,12.3c-8.5,17-22.4,36.4-42,38.8C248.7,250.6,247.4,250.7,246.1,250.7z
				 M250.7,176.6L250.7,176.6z"/>
		</g>
		<g>
			<path d="M415.5,300.4c-7.3,0-15.6-1.2-25-3.9c-25.6-7.5-42-18.5-42.7-19c-3.9-2.7-5-8-2.3-12c2.7-3.9,8-5,12-2.3l0,0
				c0.1,0.1,15,10,37.9,16.7c23.9,7,38.7,1.4,42.4-6.8c0.5-1.1,1.8-4.6-0.8-7.2c-53.3-7.2-70.7-26.9-84.7-42.8
				c-9.7-11-17.4-19.7-36-23.3c-4.7-0.9-7.7-5.4-6.8-10.1c0.9-4.7,5.4-7.7,10.1-6.8c24.4,4.7,35.2,17,45.7,28.8
				c13.6,15.4,27.6,31.3,76.3,37.4c1.3,0.2,2.5,0.6,3.5,1.3c10.1,6.4,13.6,18.7,8.5,29.8C448.8,290.7,436.4,300.4,415.5,300.4z"/>
		</g>
		<g>
			<path d="M394.1,335.5c-4.3,0-8.9-0.6-13.9-1.8c-29.1-7.4-51.8-23.8-52.7-24.5c-3.8-2.8-4.7-8.2-1.9-12c2.8-3.8,8.2-4.7,12-1.9
				l0,0c0.2,0.1,21,15.1,46.8,21.7c14.3,3.6,23.2-1,26.8-6.5c2.6-4,2.6-8.3,0-11.6c-2.9-3.7-2.3-9.2,1.5-12.1
				c3.7-2.9,9.2-2.3,12.1,1.5c7.1,9.1,7.5,21.5,0.9,31.6C420.3,328.1,409.6,335.5,394.1,335.5z"/>
		</g>
		<g>
			<path d="M363.3,361.8c-2.7,0-5.4-0.3-8.2-0.8c-17.7-3.6-39-15.5-39.9-16c-4.2-2.3-5.6-7.6-3.3-11.7c2.3-4.2,7.6-5.6,11.7-3.3
				c0.3,0.2,20,11.1,35,14.1c7.3,1.5,14.5-0.6,19.3-5.5c3-3.1,4.4-6.9,3.7-9.6c-1.2-4.6,1.6-9.3,6.3-10.5c4.6-1.2,9.3,1.6,10.5,6.3
				c2.2,8.6-0.8,18.2-8,25.7C383.3,357.8,373.5,361.8,363.3,361.8z"/>
		</g>
		<g>
			<path d="M324.2,376.1c-13.4,0-28.8-4.8-42.1-13.5c-4-2.6-5.1-8-2.4-11.9c2.6-4,8-5.1,11.9-2.4c14.2,9.4,33,13.3,42.7,8.9
				c3.5-1.6,5.3-4,5.8-7.9c0.6-4.7,5-8,9.7-7.4c4.7,0.6,8,5,7.4,9.7c-1.3,9.7-6.9,17.2-15.7,21.2C336.6,375,330.6,376.1,324.2,376.1
				z"/>
		</g>
		<g>
			<path d="M157.2,272.3c-2.3,0-4.6-0.9-6.3-2.7c-9.5-10-21.6-10.6-21.7-10.6c-4.8-0.1-8.5-4.1-8.3-8.9c0.1-4.8,4.1-8.5,8.9-8.3
				c0.8,0,19.2,0.8,33.7,16c3.3,3.5,3.1,8.9-0.3,12.2C161.5,271.5,159.4,272.3,157.2,272.3z"/>
		</g>
		<g>
			<path d="M190.9,158.6c-8.1,0-17.2-2.1-27.5-8.1c-4.1-2.4-5.5-7.7-3-11.8c2.4-4.1,7.7-5.5,11.8-3c16.5,9.7,27.1,5.4,39.3,0.3
				c2-0.8,4.1-1.7,6.2-2.5c27.6-10.2,67.1-14.1,81.2-7.9c4.4,1.9,6.3,7,4.4,11.3c-1.9,4.4-7,6.4-11.3,4.4c-7.4-3.2-40.6-2-68.3,8.3
				c-1.8,0.7-3.7,1.4-5.7,2.3C210.7,154.9,201.7,158.6,190.9,158.6z"/>
		</g>
		<g>
			<path d="M457.4,245.5"/>
		</g>
		<g>
			<path d="M272,370.5c-1,0-2,0-3.1-0.1c-13.5-1.2-23.8-9.9-25.1-21.1c-0.6-4.7,2.8-9,7.5-9.6c4.7-0.5,9,2.8,9.6,7.5
				c0.3,2.8,4.7,5.5,9.6,5.9c2.8,0.2,9.5,0.1,11.6-6.8c1.8-6,1.1-11.5-1.9-13.9c-2.6-2.1-6.9-1.7-11.7,1c-4.2,2.3-9.4,0.8-11.7-3.3
				c-2.3-4.2-0.8-9.4,3.3-11.7c11.1-6.2,22.7-6,30.9,0.7c8.6,7,11.6,19.4,7.6,32.4C294.9,363.3,284.7,370.5,272,370.5z"/>
		</g>
		<g>
			<path d="M167.6,306.7c-9.1,0-18.1-5.6-23-14.2c-4.8-8.4-4.8-18.2,0-26.3c6.5-10.8,15.7-17.4,27.4-19.6c11.6-2.2,23,1.9,29.8,10.6
				c5.8,7.5,7,17.1,3,25.6l-7.8-3.6l7.8,3.6c-7.1,15.2-20.2,23.7-36.9,23.9C167.8,306.7,167.7,306.7,167.6,306.7z M178.1,263.2
				c-0.9,0-1.9,0.1-3,0.3c-6.8,1.3-11.9,5-15.8,11.5c-2.1,3.4-1,6.7,0.2,8.9c1.9,3.2,5.3,5.6,8.1,5.6c0,0,0,0,0.1,0
				c10.1-0.1,17.2-4.7,21.4-13.9c1.6-3.4,0.4-6.1-1-7.8C186.4,265.5,182.9,263.2,178.1,263.2z"/>
		</g>
		<g>
			<path d="M234.6,362.4c-6.1,0-12.4-1.6-17.7-4.9c-10.8-6.7-15.1-18.5-11.5-31.4c1.3-4.6,6.1-7.2,10.6-5.9
				c4.6,1.3,7.2,6.1,5.9,10.6c-1.6,5.5-0.3,9.5,4,12.1c5.3,3.3,12.8,2.9,15.7,0.3c7.3-6.6,11.8-15.6,13.5-26.8
				c0.7-4.6-1.5-9.7-5.2-12.1c-2.7-1.8-5.5-1.7-8.7,0.2c-4.1,2.4-9.4,1.1-11.8-3c-2.4-4.1-1.1-9.4,3-11.8c8.9-5.3,18.8-5.2,27.1,0.3
				c9.2,6.1,14.3,17.8,12.7,28.9c-2.2,15.3-8.6,27.8-18.9,37.1C248.5,360.2,241.7,362.4,234.6,362.4z"/>
		</g>
		<g>
			<path d="M202.3,340.4c-6.5,0-13.3-2.3-19.4-7.8c-5.3-4.8-8.7-11.1-9.5-17.9c-0.9-7.6,1.4-15.3,6.6-22.1
				c7.7-9.9,14.5-17.4,25-23.8l0,0c10.7-6.5,23.7-5,32.4,3.7c9.2,9.2,10.4,22.9,3.1,35l-0.7,1.2c-4,6.6-9.4,15.6-18.6,24.2
				C216.4,337.4,209.6,340.4,202.3,340.4z M214.1,283.4c-8.3,5-13.7,11-20.4,19.6c-6.8,8.8-1.1,15,0.8,16.7c3,2.7,9.4,5.8,15,0.5
				c7.5-7.1,12-14.6,15.7-20.6l0.8-1.3c4.7-7.7,0.7-12.5-0.6-13.8C222.9,282.2,218.7,280.6,214.1,283.4L214.1,283.4z"/>
		</g>
	</g>
</g>
</svg>
