<?xml version="1.0" encoding="utf-8"?>
<!-- Generator: Adobe Illustrator 21.1.0, SVG Export Plug-In . SVG Version: 6.00 Build 0)  -->
<svg version="1.1" id="Layer_1" xmlns="http://www.w3.org/2000/svg" xmlns:xlink="http://www.w3.org/1999/xlink" x="0px" y="0px"
	 viewBox="0 0 64 64" style="enable-background:new 0 0 64 64;" xml:space="preserve">
<g>
	<circle cx="9" cy="20" r="1"/>
	<circle cx="13" cy="20" r="1"/>
	<circle cx="17" cy="20" r="1"/>
	<path d="M8,56h12.9L8,43.9V56z M10,48.5l5.8,5.5H10V48.5z"/>
	<path d="M63,7V1h-6v2H37V1h-6v6h6V5h3.4C37.1,7.2,35,10.8,35,15H7c-1.7,0-3,1.3-3,3v12.5c-0.9-0.8-1.7-0.6-2-0.5
		c-0.3,0.1-1,0.6-1,1.9v28c0,1.7,1.3,3,3,3h30c1.3,0,1.8-0.6,1.9-1c0.2-0.4,0.3-1.2-0.7-2.1l-1-0.9H60c1.7,0,3-1.3,3-3V18
		c0-1.7-1.3-3-3-3h-1c0-4.2-2.1-7.8-5.4-10H57v2H63z M33,5V3h2v2H33z M7,17h28.2c0,0.2,0.1,0.4,0.1,0.6c0,0.2,0.1,0.4,0.1,0.6
		c0.1,0.4,0.3,0.9,0.4,1.3c0.1,0.1,0.1,0.3,0.2,0.4c0.1,0.3,0.3,0.6,0.5,0.9c0.1,0.2,0.2,0.3,0.3,0.4c0.2,0.3,0.3,0.5,0.5,0.8
		c0.1,0.1,0.2,0.3,0.3,0.4c0.1,0.2,0.3,0.3,0.4,0.5H6v-5C6,17.4,6.4,17,7,17z M47,17c-1.1,0-2-0.9-2-2s0.9-2,2-2s2,0.9,2,2
		S48.1,17,47,17z M51.5,28c0.3,0,0.5,0.2,0.5,0.5S51.8,29,51.5,29h-9c-0.3,0-0.5-0.2-0.5-0.5s0.2-0.5,0.5-0.5H51.5z M52,31.5
		c0,0.3-0.2,0.5-0.5,0.5h-9c-0.3,0-0.5-0.2-0.5-0.5s0.2-0.5,0.5-0.5h9C51.8,31,52,31.2,52,31.5z M4,61c-0.6,0-1-0.4-1-1v-1h2v-2H3
		v-2h2v-2H3v-2h2v-2H3v-2h2v-2H3v-2h2v-2H3v-2h2v-2H3v-4.7l10.5,9.8l3,2.8l0,0l17,16H4z M10,36.2V29h22v14H17.3L10,36.2z M60,57
		H32.1L19.4,45H34V27H8v7.3l-2-1.9V25h34.4c0.2,0.1,0.4,0.3,0.6,0.4v1.1c-0.6,0.5-1,1.2-1,2c0,0.6,0.2,1.1,0.5,1.5
		c-0.3,0.4-0.5,0.9-0.5,1.5c0,1.4,1.1,2.5,2.5,2.5h9c1.4,0,2.5-1.1,2.5-2.5c0-0.6-0.2-1.1-0.5-1.5c0.3-0.4,0.5-0.9,0.5-1.5
		c0-0.8-0.4-1.5-1-2v-1.1c0.2-0.1,0.4-0.3,0.6-0.4H61v31C61,56.6,60.6,57,60,57z M58.8,17H60c0.6,0,1,0.4,1,1v5h-5.1
		c0.1-0.2,0.3-0.3,0.4-0.5c0.1-0.1,0.2-0.3,0.3-0.4c0.2-0.3,0.4-0.5,0.5-0.8c0.1-0.1,0.2-0.3,0.3-0.4c0.2-0.3,0.3-0.6,0.5-0.9
		c0.1-0.1,0.1-0.3,0.2-0.4c0.2-0.4,0.3-0.9,0.4-1.3c0.1-0.2,0.1-0.4,0.1-0.6C58.7,17.4,58.8,17.2,58.8,17z M57,15
		c0,0.4,0,0.7-0.1,1.1c0,0.2-0.1,0.5-0.1,0.7c0,0.2-0.1,0.4-0.1,0.6c-0.1,0.2-0.1,0.4-0.2,0.7c-0.1,0.2-0.1,0.4-0.2,0.6
		c-0.1,0.2-0.2,0.4-0.3,0.6c-0.1,0.2-0.2,0.4-0.3,0.6c-0.1,0.2-0.2,0.3-0.3,0.5c-0.1,0.2-0.3,0.4-0.4,0.6c-0.1,0.1-0.2,0.3-0.3,0.4
		c-0.2,0.2-0.4,0.4-0.5,0.6c-0.1,0.1-0.2,0.2-0.4,0.4c-0.2,0.2-0.5,0.4-0.7,0.6c-0.1,0.1-0.2,0.2-0.3,0.3c-0.4,0.3-0.7,0.5-1.2,0.7
		L51,24.2V26h-3v-7.1c1.7-0.4,3-2,3-3.9c0-2.2-1.8-4-4-4s-4,1.8-4,4c0,1.9,1.3,3.4,3,3.9V26h-3v-1.8l-0.5-0.3
		c-0.4-0.2-0.8-0.4-1.2-0.7c-0.1-0.1-0.2-0.2-0.3-0.3c-0.2-0.2-0.5-0.4-0.7-0.6c-0.1-0.1-0.2-0.2-0.4-0.4c-0.2-0.2-0.4-0.4-0.5-0.6
		c-0.1-0.1-0.2-0.3-0.3-0.4c-0.2-0.2-0.3-0.4-0.4-0.6c-0.1-0.2-0.2-0.3-0.3-0.5c-0.1-0.2-0.2-0.4-0.3-0.6c-0.1-0.2-0.2-0.4-0.3-0.6
		c-0.1-0.2-0.2-0.4-0.2-0.6c-0.1-0.2-0.1-0.4-0.2-0.7c0-0.2-0.1-0.4-0.1-0.6c0-0.2-0.1-0.5-0.1-0.7c0-0.4-0.1-0.7-0.1-1.1
		c0-5.5,4.5-10,10-10S57,9.5,57,15z M61,3v2h-2V3H61z"/>
	<rect x="36" y="37" width="23" height="2"/>
	<rect x="36" y="41" width="23" height="2"/>
	<rect x="36" y="45" width="23" height="2"/>
	<rect x="36" y="49" width="23" height="2"/>
</g>
</svg>
