<?xml version="1.0" encoding="utf-8"?>
<!-- Generator: Adobe Illustrator 21.1.0, SVG Export Plug-In . SVG Version: 6.00 Build 0)  -->
<svg version="1.1" id="Layer_1" xmlns="http://www.w3.org/2000/svg" xmlns:xlink="http://www.w3.org/1999/xlink" x="0px" y="0px"
	 viewBox="0 0 100 100" style="enable-background:new 0 0 100 100;" xml:space="preserve">
<g>
	<path d="M24.9,80.6c2.6,0,4.7-2.1,4.7-4.7c0-1-0.3-1.8-0.8-2.6l9.8-14.1c0.6,0.3,1.2,0.4,1.9,0.4c2.1,0,3.8-1.4,4.5-3.2h16
		c0.6,1.9,2.4,3.3,4.5,3.3c2.6,0,4.7-2.1,4.7-4.7c0-0.9-0.3-1.8-0.8-2.6l10.1-14.5c0.5,0.2,1.1,0.3,1.6,0.3c2.6,0,4.7-2.1,4.7-4.7
		s-2.1-4.7-4.7-4.7s-4.7,2.1-4.7,4.7c0,0.9,0.3,1.8,0.8,2.6L67.1,50.6c-0.5-0.2-1-0.3-1.6-0.3c-2.1,0-3.8,1.3-4.4,3.2H45
		c-0.6-1.9-2.4-3.2-4.5-3.2c-2.6,0-4.7,2.1-4.7,4.7c0,0.8,0.2,1.6,0.6,2.2l-9.9,14.3c-0.5-0.2-1-0.3-1.6-0.3c-2.6,0-4.7,2.1-4.7,4.7
		S22.3,80.6,24.9,80.6z M81.1,31.8c1,0,1.7,0.8,1.7,1.7s-0.8,1.7-1.7,1.7s-1.7-0.8-1.7-1.7S80.2,31.8,81.1,31.8z M65.4,53.3
		c1,0,1.7,0.8,1.7,1.7s-0.8,1.7-1.7,1.7S63.7,56,63.7,55S64.5,53.3,65.4,53.3z M40.6,53.2c1,0,1.7,0.8,1.7,1.7s-0.8,1.7-1.7,1.7
		s-1.7-0.8-1.7-1.7S39.6,53.2,40.6,53.2z M24.9,74.2c1,0,1.7,0.8,1.7,1.7s-0.8,1.7-1.7,1.7s-1.7-0.8-1.7-1.7S23.9,74.2,24.9,74.2z"
		/>
	<path d="M91.5,84.9H15.2v-64c0-0.8-0.7-1.5-1.5-1.5s-1.5,0.7-1.5,1.5v64H8.5c-0.8,0-1.5,0.7-1.5,1.5s0.7,1.5,1.5,1.5h3.7v3.3
		c0,0.8,0.7,1.5,1.5,1.5s1.5-0.7,1.5-1.5v-3.3h76.3c0.8,0,1.5-0.7,1.5-1.5S92.3,84.9,91.5,84.9z"/>
</g>
</svg>
