<?xml version="1.0" encoding="utf-8"?>
<!-- Generator: Adobe Illustrator 21.1.0, SVG Export Plug-In . SVG Version: 6.00 Build 0)  -->
<svg version="1.1" id="Layer_1" xmlns="http://www.w3.org/2000/svg" xmlns:xlink="http://www.w3.org/1999/xlink" x="0px" y="0px"
	 viewBox="0 0 64 64" style="enable-background:new 0 0 64 64;" xml:space="preserve">
<g>
	<path d="M52,39c-1.5,0-2.8,0.6-3.7,1.6l-8.2-4.9c0.5-1.1,0.8-2.4,0.8-3.7c0-2.1-0.7-4.1-2-5.6l4.8-4.8C45,22.5,46.4,23,48,23
		c3.9,0,7-3.1,7-7s-3.1-7-7-7s-7,3.1-7,7c0,1.6,0.5,3,1.4,4.2L37.6,25c-1.5-1.2-3.5-2-5.6-2c-2.1,0-4.1,0.7-5.6,2L16.2,14.8
		C16.7,14,17,13,17,12c0-2.8-2.2-5-5-5s-5,2.2-5,5s2.2,5,5,5c1,0,2-0.3,2.8-0.8L25,26.4c-1.2,1.5-2,3.5-2,5.6c0,2.8,1.2,5.2,3.2,6.9
		l-0.9,1.4c-1,1.5-1.9,2.8-2.3,3.4c-0.9-0.4-1.9-0.7-3-0.7c-3.9,0-7,3.1-7,7s3.1,7,7,7s7-3.1,7-7c0-2.1-0.9-3.9-2.4-5.2
		c0.4-0.6,1.1-1.6,2.3-3.4l0.9-1.4c1.2,0.6,2.6,1,4.1,1c2.9,0,5.5-1.4,7.1-3.5l8.2,4.9C47.1,42.9,47,43.4,47,44c0,2.8,2.2,5,5,5
		s5-2.2,5-5S54.8,39,52,39z"/>
</g>
</svg>
