<?xml version="1.0" encoding="utf-8"?>
<!-- Generator: Adobe Illustrator 21.1.0, SVG Export Plug-In . SVG Version: 6.00 Build 0)  -->
<svg version="1.1" id="Layer_1" xmlns="http://www.w3.org/2000/svg" xmlns:xlink="http://www.w3.org/1999/xlink" x="0px" y="0px"
	 viewBox="0 0 91 91" style="enable-background:new 0 0 91 91;" xml:space="preserve">
<g>
	<path d="M12,90.3c5.5,0,10.2-3.9,11.3-9.1c1.1,5.2,5.8,9.1,11.3,9.1c5.5,0,10.2-3.9,11.3-9.1c1.1,5.2,5.8,9.1,11.3,9.1
		c5.2,0,9.6-3.4,11-8.1c1.5,4.7,5.9,8.1,11,8.1c6.4,0,11.6-5.2,11.6-11.6c0-6-4.6-11-10.5-11.5c-0.8-5.6-5.6-9.9-11.4-9.9
		c-5.5,0-10.2,3.9-11.3,9.1c-1.1-5.2-5.8-9.1-11.3-9.1c-5.5,0-10.2,3.9-11.3,9.1c-1.1-5.2-5.8-9.1-11.3-9.1
		c-5.8,0-10.6,4.3-11.4,9.9c-0.1,0-0.2,0-0.3,0c-6.4,0-11.6,5.2-11.6,11.6C0.4,85.1,5.6,90.3,12,90.3z M79.2,70.6
		c4.5,0,8.2,3.7,8.2,8.2s-3.7,8.2-8.2,8.2s-8.1-3.7-8.1-8.2S74.7,70.6,79.2,70.6z M68.8,60.7c4,0,7.3,2.9,8,6.7
		c-4.1,0.9-7.4,3.9-8.7,7.9c-1.1-3.5-3.9-6.3-7.4-7.5C61.4,63.8,64.7,60.7,68.8,60.7z M57.2,70.6c4.5,0,8.2,3.7,8.2,8.2
		s-3.7,8.2-8.2,8.2c-4.5,0-8.2-3.7-8.2-8.2S52.7,70.6,57.2,70.6z M46.3,60.7c4,0,7.4,3,8,6.8c-4.2,1.1-7.5,4.5-8.4,8.7
		c-0.9-4-3.8-7.2-7.6-8.5C38.8,63.8,42.2,60.7,46.3,60.7z M34.6,70.6c4.5,0,8.1,3.7,8.1,8.2s-3.7,8.2-8.1,8.2
		c-4.5,0-8.2-3.7-8.2-8.2S30.1,70.6,34.6,70.6z M23.7,60.7c4,0,7.4,3,8,6.8c-4.2,1.1-7.5,4.5-8.4,8.7c-0.9-4-3.8-7.2-7.6-8.5
		C16.2,63.8,19.6,60.7,23.7,60.7z M12,70.6c4.5,0,8.1,3.7,8.1,8.2s-3.7,8.2-8.1,8.2c-4.5,0-8.2-3.7-8.2-8.2S7.5,70.6,12,70.6z"/>
	<path d="M35.3,52.8c0,0.9,0.8,1.7,1.7,1.7h43.7c0.9,0,1.7-0.8,1.7-1.7V2.2c0-0.9-0.8-1.7-1.7-1.7H22.3c-0.9,0-1.7,0.8-1.7,1.7v9.7
		c-0.7-0.1-1.5-0.2-2.2-0.2C11,11.7,5,17.7,5,25.1c0,3.8,1.6,7.4,4.3,9.8C7,36.7,5,39.4,3.9,41.5C3.7,41.9-1.2,51.8,2,58.4
		c0.4,0.9,1.2,1.5,2.2,1.7c0.3,0.1,0.6,0.1,0.9,0.1c1.2,0,2.5-0.5,3.6-1.3c1.1-0.9,1.5-2.7,2.3-6.1c0.4-1.9,0.9-4,1.5-5.2
		c0.4-0.9,0-1.9-0.8-2.3c-0.8-0.4-1.9,0-2.3,0.8c-0.7,1.6-1.2,3.8-1.7,6c-0.3,1.5-0.8,3.8-1.1,4.2C6,56.9,5.6,57,5,56.8
		C3.3,53,5.2,46.5,6.9,43c1.2-2.4,3.5-4.9,5.5-6c0.8,0.4,1.7,0.8,2.6,1c0.1,0,0.3,0.1,0.4,0.1c0.8,0,1.4-0.5,1.6-1.3
		c0.2-0.9-0.3-1.8-1.2-2.1c-4.4-1.1-7.5-5.1-7.5-9.7c0-5.5,4.5-10,10-10c5.5,0,10,4.5,10,10c0,3.9-2.3,7.5-5.9,9.1
		c-0.7,0.3-1.1,1.1-0.9,1.9c0,0.1-0.1,0.2-0.1,0.3c0,0.9,0.8,1.7,1.7,1.7h9.1c1.6,0,4.5-0.8,5.5-4c0.8-2.3,1.4-3.8,1.7-4.5
		c0.4-0.2,1-0.6,1.7-0.4c0.5,0.2,0.8,0.6,0.9,0.9l-3.4,9.1c-0.1,0.2-1,2-3.5,2l-9.2,0c-0.9,0-1.7,0.8-1.7,1.7v8.5
		c0,0.9,0.8,1.7,1.7,1.7s1.7-0.8,1.7-1.7v-6.8l7.5,0c4.8,0,6.5-3.8,6.6-4.1l3.6-9.7c0.1-0.3,0.1-0.5,0.1-0.8
		c-0.2-1.2-1.1-3.4-3.4-4.1c-2.3-0.7-4.4,0.6-5.2,1.4c-0.2,0.2-0.3,0.4-0.4,0.6c0,0.1-0.8,1.8-1.9,5.1c-0.5,1.6-2.2,1.7-2.3,1.7
		h-4.5c2.6-2.5,4.1-5.9,4.1-9.6c0-5.4-3.3-10.1-7.9-12.2c0.1-0.2,0.2-0.5,0.2-0.7V3.9h55v47.1H37C36.1,51.1,35.3,51.8,35.3,52.8z"/>
	<path d="M55.3,40.5c-0.6,0.3-0.9,0.9-0.9,1.5s0.4,1.2,0.9,1.5l9.1,4.7c0.2,0.1,0.5,0.2,0.8,0.2s0.5-0.1,0.8-0.2l9.1-4.7
		c0.6-0.3,0.9-0.9,0.9-1.5c0-0.6-0.4-1.2-0.9-1.5l-8.2-4.3v-1.9c2.6-0.7,4.5-3.1,4.5-5.9c0-2.8-1.9-5.1-4.5-5.9v-3.4h5.5
		c0.9,0,1.7-0.8,1.7-1.7v-7.2c0-0.9-0.8-1.7-1.7-1.7H57.9c-0.9,0-1.7,0.8-1.7,1.7v7.2c0,0.9,0.8,1.7,1.7,1.7h5.5v3.4
		c-2.6,0.7-4.5,3.1-4.5,5.9s1.9,5.1,4.5,5.9v1.9L55.3,40.5z M59.6,15.8V12h11.1v3.8H59.6z M62.4,28.5c0-1.5,1.2-2.7,2.7-2.7
		s2.8,1.2,2.8,2.7s-1.2,2.8-2.8,2.8S62.4,30,62.4,28.5z M65.1,39.2l5.4,2.8l-5.4,2.8L59.7,42L65.1,39.2z"/>
	<path d="M42.4,11.7h6.5c0.9,0,1.7-0.8,1.7-1.7s-0.8-1.7-1.7-1.7h-6.5c-0.9,0-1.7,0.8-1.7,1.7S41.4,11.7,42.4,11.7z"/>
	<path d="M39.3,17.3c0,0.9,0.8,1.7,1.7,1.7h9.3c0.9,0,1.7-0.8,1.7-1.7s-0.8-1.7-1.7-1.7H41C40,15.6,39.3,16.4,39.3,17.3z"/>
	<path d="M42.9,25.5h5.4c0.9,0,1.7-0.8,1.7-1.7c0-0.9-0.8-1.7-1.7-1.7h-5.4c-0.9,0-1.7,0.8-1.7,1.7C41.2,24.7,42,25.5,42.9,25.5z"/>
	<path d="M13.6,47.2c-0.2,0.6-0.1,1.3,0.3,1.8l3.2,3.6c0.3,0.4,0.8,0.6,1.3,0.6l0,0c0.5,0,1-0.2,1.3-0.6l3.2-3.6
		c0.4-0.5,0.5-1.1,0.3-1.7l-3.1-8.4c-0.2-0.7-0.9-1.1-1.6-1.1c-0.7,0.1-1.3,0.4-1.6,1.1L13.6,47.2z M18.5,44.2l1.2,3.2l-1.2,1.4
		l-1.2-1.4L18.5,44.2z"/>
	<path d="M20.4,30.1c1.2,0,2.6-0.3,3.9-1.3c0.8-0.5,0.9-1.6,0.4-2.4c-0.5-0.8-1.6-0.9-2.4-0.4c-2,1.4-3.8,0.2-4,0
		c-0.7-0.6-1.8-0.4-2.4,0.3c-0.6,0.7-0.5,1.8,0.3,2.4C17.1,29.3,18.6,30.1,20.4,30.1z"/>
	<path d="M19.1,22.3c0-1.1-0.9-1.9-1.9-1.9c-1,0-1.9,0.9-1.9,1.9c0,1,0.9,1.9,1.9,1.9C18.2,24.2,19.1,23.4,19.1,22.3z"/>
	<path d="M25.5,22.3c0-1.1-0.9-1.9-1.9-1.9c-1,0-1.9,0.9-1.9,1.9c0,1,0.9,1.9,1.9,1.9C24.6,24.2,25.5,23.4,25.5,22.3z"/>
</g>
</svg>
