<?xml version="1.0" encoding="utf-8"?>
<!-- Generator: Adobe Illustrator 21.1.0, SVG Export Plug-In . SVG Version: 6.00 Build 0)  -->
<svg version="1.1"
	 id="Layer_1" xmlns:cc="http://creativecommons.org/ns#" xmlns:dc="http://purl.org/dc/elements/1.1/" xmlns:inkscape="http://www.inkscape.org/namespaces/inkscape" xmlns:rdf="http://www.w3.org/1999/02/22-rdf-syntax-ns#" xmlns:sodipodi="http://sodipodi.sourceforge.net/DTD/sodipodi-0.dtd" xmlns:svg="http://www.w3.org/2000/svg"
	 xmlns="http://www.w3.org/2000/svg" xmlns:xlink="http://www.w3.org/1999/xlink" x="0px" y="0px" viewBox="0 0 100 100"
	 style="enable-background:new 0 0 100 100;" xml:space="preserve">
<g transform="translate(0,-952.36218)">
	<path d="M26.9,979.4c-0.6,0-1.1,0.3-1.5,0.8l-11,15c-0.6,0.8-0.5,2,0.3,2.7l10,8.5c-1.6,1.1-2.8,2.9-2.8,5c0,3.3,2.7,6,6,6
		c0.5,0,0.9-0.1,1.4-0.2c0.7,1.9,2.5,3.2,4.6,3.2c0,0,0.1,0,0.1,0c0.5,2.3,2.5,4,4.9,4c0.5,0,0.9-0.1,1.3-0.2
		c0.7,1.9,2.5,3.2,4.7,3.2c1,0,1.9-0.3,2.7-0.8c1,0.6,2.1,0.8,3.3,0.8c1.7,0,3.1-0.8,4.1-1.8c0.7-0.7,1.2-1.4,1.6-2.3
		c0.4,0.1,0.9,0.2,1.3,0.2c2.2,0,4-1.3,4.9-3.1c0.4,0.1,0.7,0.1,1.1,0.1c2.3,0,4.2-1.4,5-3.4c0.8,0.3,1.5,0.4,2.2,0.4
		c1.4,0,2.9-0.5,4-1.5c1.1-1,1.7-2.6,1.7-4.3c0,0,0,0,0,0c0-2.1-1.2-3.6-2.8-4.7v0l-0.1-0.1l-18.9-14.9c-0.7-0.6-1.8-0.6-2.5,0
		c0,0-1.4,1.2-3.1,2.3c-0.8,0.6-1.7,1.2-2.5,1.6s-1.5,0.6-1.3,0.6c-0.5,0-1.2,0-1.7-0.2c-0.3-0.1-0.5-0.3-0.7-0.5l7.5-8.3
		c0.5-0.2,0.9-0.5,1.1-0.9c1.3-0.8,2.4-1.1,4-1.1c6.4,0,10.5,0,16.2-1.7l9.1,12.4l-4.6,3.8c-0.9,0.7-1,2-0.3,2.8
		c0.7,0.9,2,1,2.8,0.3l0,0l6-5c0.8-0.7,1-1.9,0.3-2.7l-11-15c-0.4-0.6-1.2-0.9-1.9-0.8c-0.1,0-0.2,0.1-0.3,0.1
		c-5.9,2-9.3,1.9-16.3,1.9c-2.2,0-4.2,0.6-6,1.7c-1.8-1.1-3.8-1.7-6-1.7c-7,0-10.4,0.1-16.3-1.9C27.4,979.4,27.1,979.3,26.9,979.4z
		 M27.8,983.6c5.6,1.7,9.8,1.7,16.2,1.7c1.1,0,2,0.2,2.8,0.5l-7.3,8.2c-0.5,0.5-0.6,1.3-0.4,2c0.7,2,2.1,3.3,3.5,3.9
		s2.7,0.5,3.6,0.5c1.2-0.1,2-0.6,2.9-1.1s1.9-1.2,2.8-1.8c1.1-0.8,1.5-1.1,2.1-1.6l17.8,14.1c0,0,0.1,0,0.1,0.1
		c0.6,0.4,1.1,1.5,1.2,1.6c0,0.8-0.2,1.1-0.5,1.3c-0.3,0.2-0.7,0.4-1.2,0.4c-0.3,0-1-0.3-1-0.2c0.3,0.2-0.2-0.1-0.6-0.4
		c-0.4-0.3-0.9-0.8-1.6-1.2c-1.3-1-2.9-2.3-4.5-3.6c-3.2-2.6-6.4-5.1-6.4-5.1c-0.9-0.7-2.1-0.6-2.8,0.3c-0.7,0.9-0.6,2.1,0.3,2.8
		c0,0,3.2,2.5,6.4,5.1c1.6,1.2,3.1,2.5,4.4,3.5c0,0.1,0,0.2,0,0.3c0,0.9-0.7,1.6-1.5,1.6c-0.3,0-0.6-0.1-0.8-0.3
		c0.2,0.1-0.1-0.1-0.4-0.3c-0.3-0.2-0.6-0.5-1.1-0.9c-0.9-0.7-2-1.6-3.1-2.5c-2.2-1.8-4.3-3.6-4.3-3.6c-0.4-0.4-1-0.5-1.5-0.5
		c-1.1,0.1-1.9,1.1-1.8,2.2c0,0.5,0.3,1.1,0.8,1.4c0,0,2.2,1.8,4.4,3.6c1.1,0.9,2.2,1.8,3.1,2.5c0.1,0.1,0.2,0.1,0.2,0.2
		c-0.2,0.7-0.8,1.2-1.4,1.2c-0.3,0-0.6-0.1-0.8-0.3c0,0-4.4-3.2-6.9-5.3c-0.4-0.4-1-0.5-1.5-0.5c-1.1,0.1-1.9,1.1-1.8,2.2
		c0,0.5,0.3,1.1,0.8,1.4c1.8,1.4,3.8,2.9,5.3,4.1v0.4c0,0.3-0.2,0.9-0.7,1.3s-1,0.7-1.3,0.7c-0.6,0-0.8,0-1.1-0.1
		c0.1-0.3,0.1-0.6,0.1-0.9c0-2.7-2.3-5-5-5c-0.5,0-0.9,0.1-1.3,0.2c-0.7-1.9-2.5-3.2-4.7-3.2c0,0-0.1,0-0.1,0c-0.5-2.3-2.5-4-4.9-4
		c0,0-0.1,0-0.1,0c-0.4-2-1.8-3.7-3.6-4.5L18.7,996L27.8,983.6z M28,1009.4c1.1,0,2,0.9,2,2c0,1.1-0.9,2-2,2s-2-0.9-2-2
		C26,1010.2,26.9,1009.4,28,1009.4z M34,1014.4c0.6,0,1,0.4,1,1s-0.4,1-1,1s-1-0.4-1-1S33.4,1014.4,34,1014.4z M39,1018.4
		c0.6,0,1,0.4,1,1s-0.4,1-1,1s-1-0.4-1-1S38.4,1018.4,39,1018.4z M45,1021.4c0.6,0,1,0.4,1,1s-0.4,1-1,1s-1-0.4-1-1
		S44.4,1021.4,45,1021.4z"/>
</g>
</svg>
