<?xml version="1.0" encoding="utf-8"?>
<!-- Generator: Adobe Illustrator 21.1.0, SVG Export Plug-In . SVG Version: 6.00 Build 0)  -->
<svg version="1.1" id="Layer_1" xmlns="http://www.w3.org/2000/svg" xmlns:xlink="http://www.w3.org/1999/xlink" x="0px" y="0px"
	 viewBox="0 0 100 100" style="enable-background:new 0 0 100 100;" xml:space="preserve">
<title>Artboard 1</title>
<path d="M96.2,53.3L74.1,18.8c-1.6-2.6-4.5-4.3-7.6-4.4c-5-0.1-9.1,3.8-9.2,8.8c0,0.1,0,0.1,0,0.2v5.5c0,0.7-0.6,1.3-1.3,1.3H44
	c-0.7,0-1.3-0.6-1.3-1.3v-5.2c0-4.2-2.8-7.9-6.9-9c-3.8-0.9-7.7,0.6-9.8,3.9L3.8,53.3l0,0c-6.2,9.9-3.2,22.9,6.6,29.1
	s22.9,3.2,29.1-6.6c0.9-1.5,1.6-3,2.2-4.7c0.3-0.8,1-1.3,1.8-1.3h13c0.8,0,1.6,0.5,1.8,1.3c3.6,11.1,15.5,17.1,26.6,13.6
	c11.1-3.6,17.1-15.5,13.6-26.6C97.9,56.4,97.2,54.8,96.2,53.3z M21.6,76.4c-6.5,0-11.8-5.3-11.8-11.9s5.3-11.8,11.9-11.8
	c6.5,0,11.8,5.3,11.8,11.8C33.5,71.1,28.2,76.4,21.6,76.4C21.6,76.4,21.6,76.4,21.6,76.4z M50,62.6c-2.1,0-3.8-1.7-3.8-3.8
	c0-2.1,1.7-3.8,3.8-3.8c2.1,0,3.8,1.7,3.8,3.8l0,0C53.8,60.9,52.1,62.6,50,62.6z M78.4,76.4c-6.5,0-11.8-5.3-11.9-11.8
	c0-6.5,5.3-11.9,11.8-11.9c6.5,0,11.9,5.3,11.9,11.8S84.9,76.4,78.4,76.4L78.4,76.4z"/>
</svg>
