<?xml version="1.0" encoding="utf-8"?>
<!-- Generator: Adobe Illustrator 21.1.0, SVG Export Plug-In . SVG Version: 6.00 Build 0)  -->
<svg version="1.1" id="Layer_1" xmlns="http://www.w3.org/2000/svg" xmlns:xlink="http://www.w3.org/1999/xlink" x="0px" y="0px"
	 viewBox="0 0 96 96" style="enable-background:new 0 0 96 96;" xml:space="preserve">
<path d="M55.9,30h-16c-1.1,0-2-0.9-2-2V12c0-1.1,0.9-2,2-2h16c1.1,0,2,0.9,2,2v16C57.9,29.1,57,30,55.9,30z M41.9,26h12V14h-12V26z"
	/>
<path d="M13.9,18h24v4h-24V18z"/>
<path d="M57.9,18h24v4h-24V18z"/>
<path d="M84,26c-3.3,0-6-2.7-6-6s2.7-6,6-6c3.3,0,6,2.7,6,6S87.3,26,84,26z M84,18c-1.1,0-2,0.9-2,2s0.9,2,2,2c1.1,0,2-0.9,2-2
	S85.1,18,84,18z"/>
<path d="M12,26c-3.3,0-6-2.7-6-6s2.7-6,6-6c3.3,0,6,2.7,6,6S15.3,26,12,26z M12,18c-1.1,0-2,0.9-2,2s0.9,2,2,2c1.1,0,2-0.9,2-2
	S13.1,18,12,18z"/>
<path d="M87.3,56.8c-1.1,0-2-0.9-2-2c0-16.2-11.6-30-27.5-32.8c-1.1-0.2-1.8-1.2-1.6-2.3c0.2-1.1,1.2-1.8,2.3-1.6
	c17.9,3.1,30.8,18.6,30.8,36.8C89.3,55.9,88.4,56.8,87.3,56.8z"/>
<path d="M8.6,56.8c-1.1,0-2-0.9-2-2c0-18.2,13-33.6,30.8-36.8c1.1-0.2,2.1,0.5,2.3,1.6c0.2,1.1-0.5,2.1-1.6,2.3
	c-16,2.8-27.5,16.6-27.5,32.8C10.6,55.9,9.7,56.8,8.6,56.8z"/>
<path d="M60.9,83.3c-0.2,0-0.3,0-0.5-0.1c-1.1-0.3-1.7-1.4-1.4-2.4l4.8-18.9L47.9,37.6L32.1,61.9l4.8,18.9c0.3,1.1-0.4,2.2-1.4,2.4
	c-1.1,0.3-2.2-0.4-2.4-1.4L28,62c-0.1-0.5,0-1.1,0.3-1.6l18-27.5c0.7-1.1,2.6-1.1,3.3,0l18,27.5c0.3,0.5,0.4,1,0.3,1.6l-5,19.8
	C62.6,82.6,61.8,83.3,60.9,83.3z"/>
<path d="M47.9,72c-1.1,0-2-0.9-2-2V38c0-1.1,0.9-2,2-2s2,0.9,2,2v32C49.9,71.1,49,72,47.9,72z"/>
<path d="M47.9,79.8c-3.3,0-6-2.7-6-6c0-3.3,2.7-6,6-6c3.3,0,6,2.7,6,6C53.9,77.1,51.2,79.8,47.9,79.8z M47.9,71.8c-1.1,0-2,0.9-2,2
	c0,1.1,0.9,2,2,2s2-0.9,2-2S49,71.8,47.9,71.8z"/>
<path d="M65.9,86h-36c-1.1,0-2-0.9-2-2s0.9-2,2-2h36c1.1,0,2,0.9,2,2S67,86,65.9,86z"/>
</svg>
