<?xml version="1.0" encoding="utf-8"?>
<!-- Generator: Adobe Illustrator 21.1.0, SVG Export Plug-In . SVG Version: 6.00 Build 0)  -->
<svg version="1.1" id="Layer_1" xmlns="http://www.w3.org/2000/svg" xmlns:xlink="http://www.w3.org/1999/xlink" x="0px" y="0px"
	 viewBox="0 0 100 100" style="enable-background:new 0 0 100 100;" xml:space="preserve">
<title>49 all</title>
<path d="M83.3,80.2H16.6V64.3h-4v17.9c0,1.1,0.9,2,2,2h70.7c1.1,0,2-0.9,2-2V64.3h-4V80.2z"/>
<path d="M80.5,47.5c-0.5,0-1,0.2-1.4,0.6L64.8,62.4V51.5h-4v15.8c0,1.1,0.9,2,2,2h15.8v-4H67.6l13.8-13.8H93v-4H80.5z"/>
<path d="M32.4,65.2H21.5v4h15.8c1.1,0,2-0.9,2-2V51.5h-4v10.9L20.9,48.1c-0.4-0.4-0.9-0.6-1.4-0.6H7v4h11.7L32.4,65.2z"/>
<path d="M50,51.9c0.5,0,1-0.2,1.4-0.6l11.1-11.1l-2.8-2.8L52,45.1V15.8h-4v29.3l-7.7-7.7l-2.8,2.8l11.1,11.1
	C49,51.7,49.5,51.9,50,51.9z"/>
</svg>
