<?xml version="1.0" encoding="utf-8"?>
<!-- Generator: Adobe Illustrator 21.1.0, SVG Export Plug-In . SVG Version: 6.00 Build 0)  -->
<svg version="1.1" id="Layer_1" xmlns="http://www.w3.org/2000/svg" xmlns:xlink="http://www.w3.org/1999/xlink" x="0px" y="0px"
	 viewBox="0 0 100 100" style="enable-background:new 0 0 100 100;" xml:space="preserve">
<g>
	<path d="M80.6,19.4C72.4,11.2,61.6,6.7,50,6.7c-11.6,0-22.5,4.5-30.6,12.7c-5,5-8.5,10.8-10.7,17.5c-0.2,0.5,0.1,1.1,0.6,1.3
		c0.5,0.2,1.1-0.1,1.3-0.7c0.4-1.2,0.9-2.4,1.3-3.6h29.2c1.6,0,3-1.3,3-3V19.1c0-1.6-1.3-3-3-3h-3.2c-2.8-1.8-6.6-1.8-9.4,0h-2.2
		c6.9-4.8,15-7.4,23.6-7.4c11,0,21.4,4.3,29.2,12.1c11.7,11.7,14.9,28.7,9.6,43.3V37.5h-43v27.4h18.7v1.8
		c-3.4,0.2-10.6,0.9-10.6,3.8c0,3.8,12.1,3.9,13.4,3.9s13.4-0.1,13.4-3.9c0-2.9-7.2-3.7-10.6-3.8v-1.8h18.4
		c-2,5.2-5.1,10.1-9.3,14.4c-0.8,0.8-1.6,1.5-2.4,2.2c-3.2-3.8-8-6.1-13.1-6.1c-9,0-16.3,7-16.9,15.8c-1-0.1-2-0.2-3-0.3v-14
		c0-1.3-1-2.3-2.3-2.3h-0.2c-1.3,0-2.3,1-2.3,2.3v13c-6.7-1.8-13-5.4-18.2-10.6c-8.4-8.4-12.8-20-12-31.9c0-0.6-0.4-1-0.9-1.1
		c-0.6,0-1,0.4-1.1,0.9C6,59.7,10.6,71.8,19.4,80.6c8.2,8.2,19.1,12.7,30.6,12.7s22.4-4.5,30.6-12.7C97.5,63.7,97.5,36.3,80.6,19.4z
		 M13.3,31.1h15.5v0.8H12.9C13,31.6,13.1,31.3,13.3,31.1z M35.8,31.1v0.8h-5v-0.8H35.8z M41.1,31.9h-3.4v-0.8h4.3
		C42,31.5,41.6,31.9,41.1,31.9z M29.2,18.1l0.3-0.2c2.3-1.6,5.4-1.6,7.6,0l0.3,0.2h3.8c0.5,0,1,0.4,1,1v10H14.4
		c1.8-3,3.9-5.8,6.4-8.3c0.9-0.9,1.9-1.8,3-2.7C23.7,18.1,29.2,18.1,29.2,18.1z M78.7,70.5c-0.7,0.7-4.8,1.9-11.4,1.9
		S56.7,71.3,56,70.5c0.6-0.6,3.4-1.6,8.6-1.8v1.8h5.6v-1.8C75.3,69,78.2,69.9,78.7,70.5z M68.2,68.5h-1.6v-3.6h1.6V68.5z M86.8,62.9
		H70.2h-5.6H47.9V39.5h39C86.8,39.5,86.8,62.9,86.8,62.9z M41,76.9c0-0.2,0.1-0.3,0.3-0.3h0.2c0.2,0,0.3,0.1,0.3,0.3v13.6
		c-0.3-0.1-0.5-0.1-0.8-0.2V76.9z M48.8,91.3c0.5-7.8,7-14,14.9-14c4.4,0,8.6,2,11.5,5.4c-2.2,1.7-4.6,3.2-7.1,4.4
		c-1.2-1-2.8-1.6-4.4-1.6c-3.1,0-5.8,2.2-6.6,5.2c-1.2,0.2-2.4,0.4-3.6,0.5c0.6-5.1,4.9-9.1,10.2-9.1v-2c-6.4,0-11.7,4.9-12.2,11.2
		C50.6,91.3,49.7,91.3,48.8,91.3z M66,88.1c-2.1,0.9-4.3,1.6-6.5,2.1c0.8-1.6,2.4-2.7,4.3-2.7C64.5,87.5,65.3,87.7,66,88.1z"/>
	<path d="M8,44.6c0.1,0,0.1,0,0.2,0c0.5,0,0.9-0.4,1-0.8c0.1-0.8,0.3-1.6,0.4-2.4c0.1-0.5-0.2-1.1-0.8-1.2c-0.5-0.1-1.1,0.2-1.2,0.8
		c-0.2,0.8-0.3,1.7-0.5,2.5C7.1,44,7.5,44.5,8,44.6z"/>
	<path d="M86.3,40.1H48.4v22h37.8V40.1z M84.3,60.1H50.4v-18h33.8V60.1z"/>
	<rect x="58.5" y="48.4" transform="matrix(0.7531 -0.6579 0.6579 0.7531 -16.3583 55.2616)" width="14" height="2"/>
	<rect x="62" y="51.9" transform="matrix(0.7532 -0.6578 0.6578 0.7532 -17.7691 58.4579)" width="14" height="2"/>
	<path d="M70.4,22H48.9c-1,0-1.8,0.8-1.8,1.8V34c0,1,0.8,1.8,1.8,1.8h21.5c1,0,1.8-0.8,1.8-1.8v-0.3h8.2v-9.6h-8.2v-0.3
		C72.2,22.8,71.4,22,70.4,22z M70.2,33.8H49V24h21.2L70.2,33.8L70.2,33.8z M78.5,26.1v5.6h-6.2v-5.6H78.5z"/>
	<path d="M69.3,25H50v7.9h19.3V25z M67.3,30.9H52V27h15.3V30.9z"/>
	<rect x="74.3" y="29" width="2.1" height="2"/>
	<rect x="74.3" y="26.8" width="2.1" height="2"/>
	<path d="M23.7,38.9c-6.1,0-11.1,5-11.1,11.1v7v6.3c0,6.1,5,11.1,11.1,11.1s11.1-5,11.1-11.1V57v-7C34.8,43.9,29.8,38.9,23.7,38.9z
		 M22.9,49.4v-3.8c0-0.4,0.4-0.8,0.8-0.8s0.8,0.4,0.8,0.8v3.8c0,0.4-0.4,0.8-0.8,0.8S22.9,49.9,22.9,49.4z M23.7,72.4
		c-5,0-9.1-4.1-9.1-9.1c2,2.9,5.4,4.8,9.1,4.8s7.1-1.9,9.1-4.8C32.8,68.4,28.7,72.4,23.7,72.4z M32.8,57c0,5-4.1,9.1-9.1,9.1
		S14.6,62,14.6,57v-7c0-4.7,3.6-8.6,8.1-9.1V43c-1.1,0.4-1.8,1.4-1.8,2.6v3.8c0,1.2,0.8,2.2,1.8,2.6v4.7h2V52c1-0.4,1.8-1.4,1.8-2.6
		v-3.8c0-1.2-0.7-2.2-1.8-2.6V41c4.6,0.5,8.1,4.4,8.1,9.1V57z"/>
	<rect x="20.9" y="60.7" width="5.7" height="2"/>
	<path d="M36.2,75.6c0-2.8,2.3-5.1,5.1-5.1c2.8,0,5.1,2.3,5.1,5.1h2c0-3.9-3.2-7.1-7.1-7.1s-7.1,3.2-7.1,7.1H36.2z"/>
	<path d="M33.2,28.7c2.9,0,5.3-2.4,5.3-5.3s-2.4-5.3-5.3-5.3s-5.3,2.4-5.3,5.3S30.3,28.7,33.2,28.7z M33.2,20.1
		c1.8,0,3.3,1.5,3.3,3.3s-1.5,3.3-3.3,3.3s-3.3-1.5-3.3-3.3S31.4,20.1,33.2,20.1z"/>
	<path d="M33.2,25.8c1.3,0,2.4-1.1,2.4-2.4S34.6,21,33.2,21s-2.4,1.1-2.4,2.4C30.9,24.7,31.9,25.8,33.2,25.8z M33.2,23
		c0.2,0,0.4,0.2,0.4,0.4s-0.2,0.4-0.4,0.4s-0.4-0.2-0.4-0.4S33,23,33.2,23z"/>
	<rect x="23.5" y="22.2" width="2.1" height="2"/>
	<path d="M40.7,27c0.6,0,1-0.4,1-1v-4.7c0-0.6-0.4-1-1-1s-1,0.4-1,1V26C39.7,26.6,40.1,27,40.7,27z"/>
</g>
</svg>
