<?xml version="1.0" encoding="utf-8"?>
<!-- Generator: Adobe Illustrator 21.1.0, SVG Export Plug-In . SVG Version: 6.00 Build 0)  -->
<svg version="1.1" id="Layer_1" xmlns="http://www.w3.org/2000/svg" xmlns:xlink="http://www.w3.org/1999/xlink" x="0px" y="0px"
	 viewBox="0 0 100 100" style="enable-background:new 0 0 100 100;" xml:space="preserve">
<path d="M93,32.5l-8.7-6.3c-0.3-0.2-0.8-0.4-1.2-0.4H67.8v-5c0-1.1-0.9-2-2-2h-9.1c-0.6-7.3-6.7-13-14.1-13s-13.5,5.7-14.1,13h-9
	c-1.1,0-2,0.9-2,2v30.3c0,0.5,0.2,1,0.6,1.4l5.3,5.3c0.8,0.8,2,0.8,2.8,0c1.5-1.5,3.4-2.3,5.5-2.3c4.3,0,7.7,3.5,7.7,7.7
	c0,2.1-0.8,4-2.3,5.5c-0.4,0.4-0.6,0.9-0.6,1.4s0.2,1,0.6,1.4l6.1,6.1c0.4,0.4,0.9,0.6,1.4,0.6h21.2c1.1,0,2-0.9,2-2v-4.9h24
	c1.1,0,2-0.9,2-2V34.1C93.9,33.5,93.5,32.9,93,32.5z M86.7,32.8v34.5h-1.9V31.5L86.7,32.8z M83.8,30.7v36.6H82V29.8h0.6L83.8,30.7z
	 M72.4,61.4v5.9h-1.9v-5.2C71.2,61.9,71.8,61.7,72.4,61.4z M73.4,60.9c0.6-0.4,1.3-0.8,1.9-1.2v7.6h-1.9V60.9z M76.3,58.9
	c0.7-0.6,1.3-1.3,1.9-2.1v10.5h-1.9V58.9z M70.5,34.8v-5.1h1.9v5.7C71.8,35.3,71.2,35,70.5,34.8z M73.4,29.8h1.9v7.4
	c-0.6-0.4-1.2-0.8-1.9-1.2V29.8z M76.3,29.8h1.9v10.4c-0.6-0.8-1.2-1.5-1.9-2.1V29.8z M79.1,55.2c1.1-2,1.7-4.3,1.7-6.7
	s-0.6-4.7-1.7-6.7v-12H81v37.6h-1.9V55.2z M69.5,29.8v4.8c-0.6-0.1-1.1-0.2-1.7-0.3v-4.6H69.5z M63.8,74.3H45.5L41.2,70
	c1.4-2,2.1-4.3,2.1-6.8c0-6.5-5.3-11.7-11.7-11.7c-2.5,0-4.8,0.7-6.8,2.1l-3.4-3.4V22.8h8.9c0.6,0,1.5-0.1,1.5-0.6
	c0-7.1,5.1-12.3,10.7-12.3S53.3,15,53.3,22.2c0,0.6,0.9,0.6,1.5,0.6h9.1v13.5c0,0.6,0.1,1.5,0.6,1.5c6.5,0,12.3,5.1,12.3,10.7
	S71,59.2,64.5,59.2c-0.6,0-0.6,0.9-0.6,1.5L63.8,74.3L63.8,74.3z M67.8,62.6c0.6,0,1.1-0.1,1.7-0.3v5h-1.7V62.6z M89.9,67.3h-2.2
	V33.5l2.2,1.6V67.3z M30.3,77.7c1.1-1.7,1.7-3.6,1.7-5.7c0-5.8-4.7-10.5-10.5-10.5c-2.2,0-4.3,0.7-6,1.9l-5.9-5.7
	c-0.6-0.6-1.4-0.7-2.2-0.4c-0.7,0.3-1.2,1-1.2,1.8v32.7c0,1.1,0.9,2,2,2h25.2c1.1,0,2-0.9,2-2v-8.4c0-0.5-0.2-1.1-0.6-1.4L30.3,77.7
	z M25.8,76.9c-0.4,0.6-0.3,1.4,0,2v11h-1.8V66.1c0.7,0.3,1.2,0.7,1.8,1.2V76.9z M26.8,80l1.5,1.4v8.5h-1.5V80z M26.8,75.6v-7.2
	c0.7,1,1.1,2.3,1.1,3.6C27.9,73.4,27.5,74.6,26.8,75.6z M23.1,65.8v24.1h-1.8V65.6c0,0,0.1,0,0.1,0C22,65.6,22.6,65.7,23.1,65.8z
	 M20.3,89.9h-1.8V66.2c0.6-0.3,1.1-0.5,1.8-0.6V89.9z M17.6,66.9v23h-1.8V68.1C16.2,68,17.3,67.1,17.6,66.9z M14.8,68.1v21.8H13
	V66.7C13,66.7,14.5,68,14.8,68.1z M10.1,63.9l1.9,1.8v24.1h-1.9V63.9z M31.3,89.9h-2v-7.5l2,1.9V89.9z"/>
</svg>
