<?xml version="1.0" encoding="utf-8"?>
<!-- Generator: Adobe Illustrator 21.1.0, SVG Export Plug-In . SVG Version: 6.00 Build 0)  -->
<svg version="1.1" id="Layer_1" xmlns="http://www.w3.org/2000/svg" xmlns:xlink="http://www.w3.org/1999/xlink" x="0px" y="0px"
	 viewBox="0 0 64 64" style="enable-background:new 0 0 64 64;" xml:space="preserve">
<rect x="8" y="21" width="13" height="2"/>
<path d="M16,34.6l-1.3-1.3l-1.4,1.4l2,2c0.2,0.2,0.5,0.3,0.7,0.3c0.3,0,0.5-0.1,0.7-0.3l4-4l-1.4-1.4L16,34.6z"/>
<rect x="52" y="37" width="2" height="2"/>
<path d="M52,43h-3c-0.6,0-1,0.4-1,1v2h-2v-2h-2v2h-1c-0.6,0-1,0.4-1,1v7h-2v2h2v5c0,0.6,0.4,1,1,1h10c0.6,0,1-0.4,1-1v-2h5
	c0.6,0,1-0.4,1-1V44c0-0.6-0.4-1-1-1h-5v-2h-2V43z M52,60h-8V48h8V60z M58,57h-4v-3h2v-2h-2v-2h2v-2h-2v-1c0-0.6-0.4-1-1-1h-3v-1h8
	V57z"/>
<path d="M3,49h9v9c0,2.2,1.8,4,4,4s4-1.8,4-4v-2h2v-2h-2v-5h11c0.6,0,1-0.4,1-1V27h2v-2h-2v-6.6l8-8l1.6,1.6l-4.3,4.3l1.4,1.4l5-5
	c0.4-0.4,0.4-1,0-1.4L41.4,9l2.3-2.3c0.4-0.4,0.4-1,0-1.4l-3-3c-0.4-0.4-1-0.4-1.4,0l-3,3L32,9.6V7c0-0.6-0.4-1-1-1h-7V5
	c0-0.6-0.4-1-1-1h-2.4l-0.7-1.4C19.7,2.2,19.4,2,19,2h-4c-0.4,0-0.7,0.2-0.9,0.6L13.4,4H11c-0.6,0-1,0.4-1,1v1H3C2.4,6,2,6.4,2,7v41
	C2,48.6,2.4,49,3,49z M16,41c-3.9,0-7-3.1-7-7s3.1-7,7-7s7,3.1,7,7S19.9,41,16,41z M18,58c0,1.1-0.9,2-2,2s-2-0.9-2-2V47.2l0.9-1.8
	C15,45.3,15,45.2,15,45v-2h2v2c0,0.2,0,0.3,0.1,0.4l0.9,1.8V58z M27,17.4l1.6,1.6l-1.1,1.1l-2.1,0.5l0.5-2.1L27,17.4z M30,17.6
	L28.4,16L37,7.4L38.6,9L30,17.6z M40,4.4L41.6,6L40,7.6L38.4,6L40,4.4z M12,6h2c0.4,0,0.7-0.2,0.9-0.6L15.6,4h2.8l0.7,1.4
	C19.3,5.8,19.6,6,20,6h2v3H12V6z M4,8h6v2c0,0.6,0.4,1,1,1h12c0.6,0,1-0.4,1-1V8h6v3.6l-5.7,5.7c-0.1,0.1-0.2,0.3-0.3,0.5l-1,4
	c-0.1,0.3,0,0.7,0.3,0.9c0.1,0.1,0.2,0.1,0.3,0.2c0,0,0,0,0.1,0c0.1,0,0.2,0.1,0.3,0.1c0,0,0,0,0,0c0.1,0,0.2,0,0.2,0l4-1
	c0.2,0,0.3-0.1,0.5-0.3l1.3-1.3V47H20c0-0.2,0-0.3-0.1-0.4L19,44.8v-2.3c3.5-1.2,6-4.6,6-8.5c0-5-4-9-9-9s-9,4-9,9
	c0,3.9,2.5,7.2,6,8.5v2.3l-0.9,1.8C12,46.7,12,46.8,12,47H4V8z"/>
<rect x="24" y="54" width="2" height="2"/>
<rect x="28" y="54" width="2" height="2"/>
<rect x="32" y="54" width="2" height="2"/>
<rect x="36" y="54" width="2" height="2"/>
<rect x="36" y="25" width="2" height="2"/>
<rect x="36" y="29" width="2" height="2"/>
<rect x="36" y="33" width="2" height="2"/>
<rect x="36" y="37" width="2" height="2"/>
<rect x="40" y="37" width="2" height="2"/>
<rect x="44" y="37" width="2" height="2"/>
<rect x="52" y="2" width="2" height="3"/>
<rect x="57.6" y="6" transform="matrix(0.7071 -0.7071 0.7071 0.7071 12.3306 43.7694)" width="2.8" height="2"/>
<rect x="46" y="5.6" transform="matrix(0.7071 -0.7071 0.7071 0.7071 8.8159 35.2841)" width="2" height="2.8"/>
<rect x="46" y="51" width="4" height="2"/>
<rect x="46" y="55" width="4" height="2"/>
<rect x="8" y="14" width="15" height="2"/>
<rect x="52" y="33" width="2" height="2"/>
<rect x="44" y="41" width="2" height="2"/>
<path d="M62,21c0-2.2-1.8-4-4-4c-0.3,0-0.7,0.1-1,0.1V16c0-0.2-0.1-0.4-0.2-0.6l-1.1-1.6c0.8-0.7,1.2-1.7,1.2-2.9c0-2.2-1.8-4-4-4
	s-4,1.8-4,4c0,1.1,0.5,2.1,1.2,2.9l-1.1,1.6C49.1,15.6,49,15.8,49,16v1.1c-0.3-0.1-0.7-0.1-1-0.1c-2.2,0-4,1.8-4,4
	c0,1.1,0.5,2.1,1.2,2.9l-1.1,1.6C44.1,25.6,44,25.8,44,26v4c0,0.6,0.4,1,1,1h6c0.6,0,1-0.4,1-1v-4c0-0.2-0.1-0.4-0.2-0.6l-1.1-1.6
	c0.3-0.3,0.5-0.5,0.7-0.9h3.1c0.2,0.3,0.4,0.6,0.7,0.9l-1.1,1.6C54.1,25.6,54,25.8,54,26v4c0,0.6,0.4,1,1,1h6c0.6,0,1-0.4,1-1v-4
	c0-0.2-0.1-0.4-0.2-0.6l-1.1-1.6C61.5,23.1,62,22.1,62,21z M60,21c0,0.8-0.4,1.4-1,1.7c0,0,0,0,0,0c-0.6,0.3-1.3,0.3-1.9,0
	c0,0,0,0,0,0c-0.4-0.2-0.7-0.6-0.9-1c0,0,0,0,0,0c0-0.1-0.1-0.2-0.1-0.3c0-0.1,0-0.2,0-0.3c0-0.1,0-0.3,0-0.4c0,0,0,0,0,0
	c0.1-0.4,0.3-0.8,0.6-1c0,0,0,0,0,0C57,19.2,57.5,19,58,19C59.1,19,60,19.9,60,21z M53,9c1.1,0,2,0.9,2,2c0,0.8-0.4,1.4-1,1.7
	c0,0,0,0,0,0c-0.6,0.3-1.3,0.3-1.9,0c0,0,0,0,0,0c-0.6-0.3-1-1-1-1.7C51,9.9,51.9,9,53,9z M48,19c0.5,0,1,0.2,1.3,0.5c0,0,0,0,0,0
	c0.3,0.3,0.5,0.6,0.6,1c0,0,0,0,0,0c0,0.1,0,0.3,0,0.4c0,0.1,0,0.2,0,0.3c0,0.1-0.1,0.2-0.1,0.3c0,0,0,0,0,0c-0.2,0.4-0.5,0.8-0.9,1
	c0,0,0,0,0,0c-0.6,0.3-1.3,0.3-1.9,0c0,0,0,0,0,0c-0.6-0.3-1-1-1-1.7C46,19.9,46.9,19,48,19z M49,24.9l1,1.4V29h-4v-2.7l1-1.4
	c0,0,0.1,0,0.1,0c0.1,0,0.2,0,0.3,0.1c0.2,0,0.4,0.1,0.7,0.1c0,0,0,0,0,0s0,0,0,0c0.2,0,0.4,0,0.7-0.1c0.1,0,0.2,0,0.3-0.1
	C49,24.9,49,24.9,49,24.9z M52,21c0-0.3,0-0.5-0.1-0.8c0-0.1-0.1-0.3-0.1-0.4c0-0.1-0.1-0.2-0.1-0.3c-0.1-0.2-0.1-0.3-0.2-0.5
	c0-0.1-0.1-0.1-0.1-0.2c-0.1-0.2-0.2-0.3-0.3-0.4c0,0,0-0.1-0.1-0.1v-2.1l1-1.4c0,0,0.1,0,0.1,0c0.1,0,0.2,0,0.3,0.1
	c0.2,0,0.4,0.1,0.7,0.1c0,0,0,0,0,0s0,0,0,0c0.2,0,0.4,0,0.7-0.1c0.1,0,0.2,0,0.3-0.1c0,0,0.1,0,0.1,0l1,1.4v2.1c0,0,0,0.1-0.1,0.1
	c-0.1,0.1-0.2,0.3-0.3,0.4c0,0.1-0.1,0.1-0.1,0.2c-0.1,0.1-0.2,0.3-0.2,0.5c0,0.1-0.1,0.2-0.1,0.3c0,0.1-0.1,0.3-0.1,0.4
	c0,0.2-0.1,0.5-0.1,0.8H52z M59,24.9l1,1.4V29h-4v-2.7l1-1.4c0,0,0.1,0,0.1,0c0.1,0,0.2,0,0.3,0.1c0.2,0,0.4,0.1,0.7,0.1
	c0,0,0,0,0,0s0,0,0,0c0.2,0,0.4,0,0.7-0.1c0.1,0,0.2,0,0.3-0.1C59,24.9,59,24.9,59,24.9z"/>
</svg>
