<?xml version="1.0" encoding="UTF-8"?>
<svg width="100pt" height="100pt" version="1.1" viewBox="0 0 100 100" xmlns="http://www.w3.org/2000/svg">
 <path d="m87.07 21h-49.25c-3.8008 0-6.8203 2.957-6.8203 6.7578v15.242h-19.309c-2.5664 0-4.6914 2.2109-4.6914 4.7773v20.129c0 2.5664 2.125 5.0938 4.6914 5.0938h1.5508l-2.9648 8.6562c-0.15234 0.45312 0.007812 0.84375 0.39453 1.125 0.19531 0.14453 0.42188 0.15625 0.65234 0.15625 0.22656 0 0.45312 0.125 0.64453-0.015625l13.965-9.9219h15.953c2.5625 0 4.6484-3 4.6523-5h17.555l25.562 16.621c0.18359 0.11719 0.39453 0.15625 0.60156 0.15625 0.26172 0 0.51953-0.10547 0.73047-0.28516 0.37109-0.32813 0.47656-0.82422 0.26172-1.2695l-7.4453-15.223h3.2656c3.8008 0 6.9297-3.1797 6.9297-6.9805v-33.262c0-3.8008-3.1289-6.7578-6.9297-6.7578zm-45.184 50h-16.312c-0.23047 0-0.45703 0.25391-0.64453 0.39062l-11.48 7.4062 2.3633-7.0312c0.11328-0.33594 0.054688 0.13672-0.15234-0.14844-0.20312-0.28906-0.53516-0.61719-0.89062-0.61719h-3.0781c-1.3516 0-2.6914-1.7422-2.6914-3.0938v-20.129c0-1.3516 1.3398-2.7773 2.6914-2.7773h19.309v16.02c0 3.8008 3.0195 6.9805 6.8203 6.9805h6.5195c-0.003906 1-1.1016 3-2.4531 3z"/>
</svg>
