<?xml version="1.0" encoding="UTF-8"?>
<svg fill="#FFFFFF" width="100pt" height="100pt" version="1.1" viewBox="0 0 100 100" xmlns="http://www.w3.org/2000/svg">
 <path d="m42.898 26.398v-5.3984h-6.3984v5.3984z"/>
 <path d="m36.398 72.301h6.3984v4.5h-6.3984z"/>
 <path d="m36.398 27.398h6.3984v43.898h-6.3984z"/>
 <path d="m10.602 66.102h10.801v1.1016h-10.801z"/>
 <path d="m21.5 32.398v-11.398h-10.801v11.398z"/>
 <path d="m10.602 33.398h10.801v1.1016h-10.801z"/>
 <path d="m10.602 35.5h10.801v29.602h-10.801z"/>
 <path d="m10.602 68.301h10.801v8.5h-10.801z"/>
 <path d="m69.699 35.398l0.80078 2.5 8.3008-2.5-0.80078-2.3984z"/>
 <path d="m79.898 39.102l-0.89844-2.7031-8.1992 2.4023 0.80078 2.8008z"/>
 <path d="m89 68.602l-8.8008-28.5-8.3008 2.3984 8.8008 28.5z"/>
 <path d="m77.699 32.102l-1.6016-5.1992c-4.1992 0.60156-6.8008 1.6016-8.1992 2.8008l1.5 4.8008z"/>
 <path d="m81 72l1.5 4.8008 8.1992-2.8008-1.3984-4.5z"/>
 <path d="m74.199 69.801l-6.3984-35.199-8.5 1.5977 6.5 35.199z"/>
 <path d="m67.602 33.602l-1.3008-7.1992c-1.8984 0.39844-4.3008 0.80078-8.5 1.6016l1.3008 7.1992z"/>
 <path d="m66 72.398l0.80078 4.4023 8.3984-1.6992-0.80078-4.3008z"/>
 <path d="m23.5 68.301h10.801v8.5h-10.801z"/>
 <path d="m34.398 67.301v-34.402h-10.801v34.398zm-5.5-9.9023c1.3984 0 2.5 1.8008 2.5 4.1016s-1.1016 4.1016-2.5 4.1016c-1.3984 0-2.5-1.8008-2.5-4.1016s1.2031-4.1016 2.5-4.1016z"/>
 <path d="m55.699 65.102v-44.102h-10.801v44.102zm-5.3984-30.102c1.3008 0 2.3008 6.3984 2.3008 14.199s-1 14.199-2.3008 14.199-2.3008-6.3984-2.3008-14.199 1-14.199 2.3008-14.199z"/>
 <path d="m44.898 68.301h10.801v8.5h-10.801z"/>
 <path d="m44.898 66.102h10.801v1.1016h-10.801z"/>
 <path d="m93 80h-85.199" fill="none" stroke="#FFFFFF" stroke-miterlimit="10" stroke-width="2"/>
</svg>
