<?xml version="1.0" encoding="UTF-8"?>
<svg fill="#FFFFFF" width="100pt" height="100pt" version="1.1" viewBox="0 0 100 100" xmlns="http://www.w3.org/2000/svg">
 <path d="m50 4c-4.0664 0-7.4727 2.4961-9.0312 6h-8.9688v4h-16v82h68v-82h-16v-4h-8.9688c-1.5586-3.5039-4.9648-6-9.0312-6zm0 4c3 0 6 2 6 6h8v6h-28v-6h8c0-4 3-6 6-6zm-30 10h12v6h36v-6h12v74h-60zm23.469 9.7188l-8.5938 10.312-4.4688-4.4688-2.8125 2.8438 7.5312 7.5312c3.832-4.5273 7.6094-9.1016 11.406-13.656zm7.5312 8.2812v4h22v-4zm-7.5312 13.719l-8.5938 10.312-4.4688-4.4688-2.8125 2.8438 7.5312 7.5312c3.832-4.5273 7.6094-9.1016 11.406-13.656zm7.5312 8.2812v4h22v-4zm-7.5312 13.719l-8.5938 10.312-4.4688-4.4688-2.8125 2.8438 7.5312 7.5312c3.832-4.5273 7.6094-9.1016 11.406-13.656zm7.5312 8.2812v4h22v-4z"/>
</svg>
