<?xml version="1.0" encoding="UTF-8"?>
<svg width="100pt" height="100pt" version="1.1" viewBox="0 0 100 100" xmlns="http://www.w3.org/2000/svg">
 <path d="m93.199 40.484l-22.82-22.824-7.8008 7.8008 1.2266 1.2266-6.0859 6.0859 3.8047 3.8008-1.1172 1.1172 0.1875 0.1875c-1.9258-1.9297-5.0547-1.9297-6.9805 0l-2.7539 2.7539-2.5586-2.5586c-1.1602-1.1602-2.7031-1.8008-4.3438-1.8008-1.1289 0-2.2227 0.30859-3.1719 0.87891l-1.4375-1.4375 2.9375-2.9375-6.0859-6.0859 1.2266-1.2266-7.8008-7.8008-22.824 22.82 7.8008 7.8008 1.2305-1.2266 6.0859 6.0859 2.9375-2.9375 1.4336 1.4375c-1.4453 2.3789-1.125 5.4961 0.91016 7.5352l2.5391 2.5391c-1.6523 1.9375-1.5664 4.8555 0.26562 6.6875l12.395 12.395c1.8438 1.8438 4.7852 1.9219 6.7266 0.23438 1.0781 0.84766 2.3984 1.3125 3.7891 1.3125 1.6445 0 3.1875-0.64062 4.3516-1.8047l12.395-12.395c1.1641-1.1602 1.8047-2.707 1.8047-4.3516 0-1.3711-0.45312-2.6719-1.2734-3.7422l2.7969-2.793c1.9297-1.9297 1.9297-5.0547 0-6.9805l0.18359 0.1875 1.1172-1.1172 3.8008 3.8008 6.0898-6.0859 1.2266 1.2266zm-75.648 4.8477l16.922-16.918 4.3633 4.3633-16.918 16.922zm50.387 21.086l-12.395 12.395c-0.70312 0.69922-1.6367 1.0898-2.6289 1.0898-0.73437 0-1.4336-0.21094-2.0312-0.60547l0.050782-0.054687 1.5508-1.5508c1.9297-1.9297 1.9297-5.0547 0-6.9805l-12.395-12.395c-1.9258-1.9258-5.0547-1.9258-6.9805 0l-1.5508 1.5547-0.10938 0.10547-2.5273-2.5273c-1.3984-1.3984-1.4531-3.6445-0.125-5.1133l0.77734-0.85938-2.9961-2.9961 11.039-11.039 2.9922 2.9922 0.85938-0.76953c0.68359-0.61328 1.5625-0.94922 2.4805-0.94922 0.98828 0 1.9219 0.38672 2.6211 1.0859l2.5586 2.5586-6.2305 6.2305 2.0898 2.0898c1.9297 1.9297 5.0547 1.9297 6.9805 0l2.7383-2.7383 13.23 13.219c0.70312 0.69922 1.0898 1.6367 1.0898 2.6289-0.003906 0.99219-0.38672 1.9258-1.0898 2.6289zm10.148-16.723l-16.922-16.918 4.3633-4.3633 16.918 16.922z"/>
</svg>
