<?xml version="1.0" encoding="UTF-8"?>
<svg fill="#FFFFFF" width="100pt" height="100pt" version="1.1" viewBox="0 0 100 100" xmlns="http://www.w3.org/2000/svg">
 <g>
  <path d="m52.441 15.582v-8.1406c0-1.3477-1.0938-2.4414-2.4414-2.4414s-2.4414 1.0938-2.4414 2.4414v8.1406c0.80469-0.0625 1.6172-0.10547 2.4414-0.10547 0.82031 0.003907 1.6367 0.042969 2.4414 0.10547z"/>
  <path d="m32.285 20.977c1.3359-0.92187 2.7461-1.7422 4.2227-2.4492l-4.0625-7.0391c-0.67578-1.168-2.1719-1.5664-3.3359-0.89453-1.168 0.67578-1.5664 2.168-0.89453 3.3359z"/>
  <path d="m14.715 29.223l7.0391 4.0625c0.70703-1.4766 1.5273-2.8867 2.4492-4.2227l-7.0469-4.0664c-1.1641-0.67578-2.6602-0.27344-3.3359 0.89453-0.67187 1.1641-0.27344 2.6602 0.89453 3.332z"/>
  <path d="m84.062 68.887c0.84375 0 1.6641-0.4375 2.1172-1.2227 0.67578-1.168 0.27344-2.6602-0.89453-3.3359l-7.0391-4.0625c-0.70703 1.4766-1.5273 2.8867-2.4492 4.2227l7.0469 4.0664c0.38672 0.22656 0.80469 0.33203 1.2188 0.33203z"/>
  <path d="m10.664 49.219h8.1445c-0.0625-0.80469-0.10547-1.6172-0.10547-2.4414 0-0.82031 0.042969-1.6367 0.10547-2.4414h-8.1445c-1.3477 0-2.4414 1.0938-2.4414 2.4414s1.0938 2.4414 2.4414 2.4414z"/>
  <path d="m81.297 46.777c0 0.82031-0.042969 1.6367-0.10547 2.4414h8.1445c1.3477 0 2.4414-1.0938 2.4414-2.4414s-1.0938-2.4414-2.4414-2.4414h-8.1445c0.0625 0.80469 0.10547 1.6172 0.10547 2.4414z"/>
  <path d="m21.754 60.266l-7.0391 4.0625c-1.168 0.67578-1.5664 2.168-0.89453 3.3359 0.45313 0.78125 1.2734 1.2227 2.1172 1.2227 0.41406 0 0.83594-0.10547 1.2188-0.32812l7.0469-4.0664c-0.92188-1.3398-1.7422-2.75-2.4492-4.2266z"/>
  <path d="m85.285 29.223c1.168-0.67578 1.5664-2.168 0.89453-3.3359-0.67578-1.168-2.168-1.5664-3.3359-0.89453l-7.0469 4.0664c0.92188 1.3359 1.7422 2.7461 2.4492 4.2227z"/>
  <path d="m71.781 13.93c0.67578-1.168 0.27344-2.6602-0.89453-3.3359-1.1641-0.67188-2.6602-0.27344-3.3359 0.89453l-4.0625 7.0391c1.4766 0.70703 2.8867 1.5273 4.2227 2.4492z"/>
  <path d="m37.461 74.477c0.070312 0.34375 0.19531 0.65625 0.34766 0.96094 0.21875 0.4375 0.50781 0.82812 0.85938 1.1562 0.97266 0.91406 2.582 0.13281 2.582-1.1992v-1.9336c-1.2422-5.8398-3.8516-11.777-7.7656-17.664-1.9648-2.9531-3.0039-6.3672-3.0039-9.8789 0-5.3555 2.4102-10.465 6.6133-14.012 3.6016-3.0391 8.1797-4.6641 12.945-4.6641 1.1797 0 2.3711 0.10156 3.5625 0.30078 8.0391 1.3672 14.336 7.4844 15.656 15.227 0.82813 4.832-0.28906 9.668-3.1406 13.613-3.6953 5.1133-6.1602 10.344-7.3594 15.559v3.1016c0 1.4805 1.9297 2.1875 2.7969 0.98438 0.007812-0.007813 0.011718-0.019532 0.019531-0.027344 0.32812-0.46094 0.57031-0.98828 0.67188-1.5742 0.91016-5.2305 3.2812-10.527 7.0508-15.742 3.4766-4.8086 4.8359-10.691 3.8281-16.57-1.6055-9.3789-9.1836-16.781-18.863-18.43-7.1406-1.2148-14.32 0.69141-19.695 5.2305-5.0859 4.293-8.0039 10.492-8.0039 17.008 0 4.2852 1.2656 8.4531 3.6602 12.051 3.6797 5.5352 6.1172 11.09 7.2383 16.504z"/>
  <path d="m59.094 78.168h-18.434c-1.2031 0-2.1914 0.98438-2.1914 2.1914 0 1.2031 0.98438 2.1914 2.1914 2.1914h18.434c1.2031 0 2.1914-0.98438 2.1914-2.1914s-0.98828-2.1914-2.1914-2.1914z"/>
  <path d="m61.531 87.23c0-1.2031-0.98438-2.1914-2.1914-2.1914h-18.43c-1.2031 0-2.1914 0.98438-2.1914 2.1914 0 1.2031 0.98438 2.1914 2.1914 2.1914h18.43c1.207 0 2.1914-0.98828 2.1914-2.1914z"/>
  <path d="m56.078 93.121c0-1.0312-0.84375-1.8789-1.8789-1.8789h-8.8906c-1.0312 0-1.8789 0.84375-1.8789 1.8789 0 1.0312 0.84375 1.8789 1.8789 1.8789h8.8906c1.0312 0 1.8789-0.84375 1.8789-1.8789z"/>
 </g>
</svg>
