<?xml version="1.0" encoding="UTF-8"?>
<svg fill="#FFFFFF" width="100pt" height="100pt" version="1.1" viewBox="0 0 100 100" xmlns="http://www.w3.org/2000/svg">
 <path d="m87.5 75v-8.332c0-11.488-9.3477-20.836-20.832-20.836h-12.5v-12.5h12.5c1.5352 0 2.9492-0.84375 3.6719-2.1992 0.72656-1.3594 0.64844-3-0.20703-4.2773l-16.668-25c-1.543-2.3164-5.3867-2.3164-6.9297 0l-16.668 25c-0.85547 1.2773-0.93359 2.918-0.20703 4.2773 0.72266 1.3555 2.1367 2.1992 3.6719 2.1992h12.5v12.5h-12.5c-11.484 0-20.832 9.3477-20.832 20.836v8.332c-4.5977 0-8.332 3.7383-8.332 8.332v8.3359c0 4.5938 3.7344 8.332 8.332 8.332h8.332c4.5977 0 8.3359-3.7383 8.3359-8.332v-8.3359c0-4.5938-3.7383-8.332-8.3359-8.332v-8.332c0-6.8945 5.6094-12.5 12.5-12.5h12.5v20.832c-4.5938 0-8.332 3.7383-8.332 8.332v8.3359c0 4.5938 3.7383 8.332 8.332 8.332h8.3359c4.5938 0 8.332-3.7383 8.332-8.332v-8.3359c0-4.5938-3.7383-8.332-8.332-8.332v-20.832h12.5c6.8906 0 12.5 5.6055 12.5 12.5v8.332c-4.5977 0-8.3359 3.7383-8.3359 8.332v8.3359c0 4.5938 3.7383 8.332 8.3359 8.332h8.332c4.5977 0 8.332-3.7383 8.332-8.332v-8.3359c0-4.5938-3.7344-8.332-8.332-8.332" fill-rule="evenodd"/>
</svg>
