<?xml version="1.0" encoding="UTF-8"?>
<svg width="100pt" height="100pt" version="1.1" viewBox="0 0 100 100" xmlns="http://www.w3.org/2000/svg">
 <path d="m49.156 0c-1.9219 0-3.4688 1.5859-3.4688 3.5078v9.1641c0.007812 1.7109 1.2617 3.0781 2.8906 3.3633 0 0.027344-0.019531 0.09375-0.019531 0.125v4.1914h2.8906v-4.1914c0-0.027344 0-0.09375-0.019531-0.125 1.6484-0.28516 2.9102-1.6523 2.9102-3.3633v-9.1641c0-1.9219-1.5859-3.5078-3.5078-3.5078h-1.6719zm-24.855 23.266v15.316h6.4414v6.1094h9.7031v39.555h-9.7031v6.1094h-6.4414v9.6406h51.402v-9.6406h-6.4219v-6.1094h-9.7031v-39.555h9.7031v-6.1094h6.4219v-15.316zm21.926 28.219c0.80469 0 1.4648 0.66406 1.4648 1.4648v23.039c0 0.80469-0.66406 1.4453-1.4648 1.4453-0.80469 0-1.4453-0.65234-1.4453-1.4453v-23.039c0-0.80469 0.64062-1.4648 1.4453-1.4648zm7.2891 0c0.80469 0 1.4453 0.66406 1.4453 1.4648v23.039c0 0.80469-0.64063 1.4453-1.4453 1.4453s-1.4648-0.65234-1.4648-1.4453v-23.039c0-0.80469 0.66406-1.4648 1.4648-1.4648z"/>
</svg>
