<?xml version="1.0" encoding="UTF-8"?>
<svg fill="#FFFFFF" width="100pt" height="100pt" version="1.1" viewBox="0 0 100 100" xmlns="http://www.w3.org/2000/svg">
 <g>
  <path d="m97.5 40.102c0-13.699-15.301-24.801-34.102-24.801-9.6016 0-18.199 2.8984-24.398 7.5 9 0.39844 17.398 3.1992 23.898 7.8984 7.5 5.3984 11.602 12.801 11.602 20.699 0 5.1992-1.8008 10.102-5.1016 14.398 5 2.8984 12 6.3008 18.801 7.6016 1.6992 0.30078 2.8984-1.8008 1.6992-3.1016-3.5-3.6992-5.3008-7.5-6.1992-10.301 8.4023-4.4961 13.801-11.797 13.801-19.895z"/>
  <path d="m36.602 26.602c-18.801 0-34.102 11.102-34.102 24.801 0 8.1992 5.3984 15.398 13.801 19.898-0.89844 2.8984-2.6992 6.6992-6.1992 10.398-1.1992 1.3008-0.10156 3.3984 1.6992 3.1016 7.6992-1.5 15.602-5.6992 20.699-8.6992 1.3008 0.10156 2.6992 0.19922 4.1016 0.19922 18.801 0 34.102-11.102 34.102-24.801-0.003906-13.801-15.305-24.898-34.102-24.898zm-16.301 29.598c-2.6992 0-4.8008-2.1992-4.8008-4.8008 0-2.6992 2.1992-4.8008 4.8008-4.8008 2.6992 0 4.8008 2.1992 4.8008 4.8008 0 2.6016-2.2031 4.8008-4.8008 4.8008zm16.301 0c-2.6992 0-4.8008-2.1992-4.8008-4.8008 0-2.6992 2.1992-4.8008 4.8008-4.8008 2.6016 0 4.8008 2.1992 4.8008 4.8008-0.003906 2.6016-2.1016 4.8008-4.8008 4.8008zm16.297 0c-2.6992 0-4.8008-2.1992-4.8008-4.8008 0-2.6992 2.1992-4.8008 4.8008-4.8008 2.6992 0 4.8008 2.1992 4.8008 4.8008 0 2.6016-2.0977 4.8008-4.8008 4.8008z"/>
 </g>
</svg>
