<svg xmlns="http://www.w3.org/2000/svg" viewBox="0 0 144 144"><title>cds-logo-fr</title><rect x="0.38" width="143.44" height="143.44" style="fill:#231f20"/><path d="M.38,0V143.44H143.82V0ZM137,137.48H7.18V7.65H137Z" style="fill:#fff"/><path d="M112.91,44.47s-.25-4.56-.25-5.07.41-.53.87-.37,4.7.88,4.7.87-.31-.92-.62-1.61c-.16-.65.15-.75.25-.87s4.8-4.16,4.82-4.2l-.74-.37c-.46-.21-.41-.57-.37-.87s.89-2.9.87-2.84-2,.41-2.47.49-.5-.13-.62-.37-.55-1.41-.5-1.36-2.52,2.63-2.59,2.72c-.44.37-.91.06-.74-.49,0-.42,1.18-5.78,1.24-5.81s-1.35.8-1.73,1.11-.7.16-.87-.25-1.9-3.62-1.85-3.59-1.59,3.16-1.85,3.59-.45.45-.87.25-1.7-1.08-1.73-1.11,1.16,5.39,1.24,5.81-.33.87-.74.49c-.1-.09-2.58-2.77-2.6-2.72a14.43,14.43,0,0,0-.49,1.36c-.16.24-.31.44-.62.37-.51-.08-2.58-.55-2.6-.49s.85,2.63.87,2.84.18.66-.25.87l-.74.37s4.58,4,4.7,4.2.5.22.25.87-.53,1.62-.5,1.61,4.25-.81,4.7-.87.84,0,.87.37-.24,5.09-.25,5.07Z" style="fill:#fff"/><path d="M61,76.13a5.78,5.78,0,0,0,3.3,1A5.16,5.16,0,0,0,67.6,76,3.76,3.76,0,0,0,69,73C69,70.48,66.89,69.68,65,69c-1.37-.53-2.55-1-2.55-2a1.5,1.5,0,0,1,1.67-1.41,2.39,2.39,0,0,1,2.14,1.42v0l2-1.23h0v0a4.51,4.51,0,0,0-4.09-2.36,4.63,4.63,0,0,0-2.95,1A3.44,3.44,0,0,0,60.05,67c0,2.44,2,3.23,3.8,3.93,1.44.57,2.68,1.06,2.68,2.27,0,1-.86,1.68-2.19,1.68a2.54,2.54,0,0,1-2.75-2.39v0l-2.41.61h0v0A4.4,4.4,0,0,0,61,76.13Z" style="fill:#fff"/><path d="M75,77.15a5,5,0,0,0,3.9-1.71v0L77.34,74h0v0a2.84,2.84,0,0,1-2.26,1,2.17,2.17,0,0,1-2.34-2H79.2a3.71,3.71,0,0,0,.09-.92c0-2.21-1.15-4.8-4.41-4.8s-4.66,2.5-4.66,5a5.16,5.16,0,0,0,1.18,3.41A4.65,4.65,0,0,0,75,77.15Zm-.17-7.91a2,2,0,0,1,2.11,2H72.71C73,69.9,73.67,69.24,74.86,69.24Z" style="fill:#fff"/><path d="M83.65,72.94a4.32,4.32,0,0,1,.69-2.59,1.86,1.86,0,0,1,1.49-.79,1.81,1.81,0,0,1,1,.32h0L87.94,68h0a2.45,2.45,0,0,0-1.75-.69,2.72,2.72,0,0,0-2.52,1.7v-1.5h-2.3V77h2.28Z" style="fill:#fff"/><polygon points="92.09 76.96 94.02 76.96 97.89 67.48 97.9 67.45 95.34 67.45 93.06 73.89 90.78 67.47 90.78 67.45 88.21 67.45 92.08 76.94 92.09 76.96" style="fill:#fff"/><rect x="99.33" y="67.45" width="2.33" height="9.5" style="fill:#fff"/><rect x="99.27" y="63.53" width="2.45" height="2.17" style="fill:#fff"/><path d="M108.31,67.25a4.29,4.29,0,0,0-3.46,1.55,5.39,5.39,0,0,0-1.13,3.42,5.31,5.31,0,0,0,1.14,3.41,4.35,4.35,0,0,0,3.47,1.52,4.09,4.09,0,0,0,4-2.82v0l-2.12-.8h0v0A1.94,1.94,0,0,1,108.31,75c-2,0-2.2-2.14-2.2-2.79,0-1.31.57-2.83,2.2-2.83a1.93,1.93,0,0,1,1.87,1.54v0l2.22-.86h0v0A4.15,4.15,0,0,0,108.31,67.25Z" style="fill:#fff"/><path d="M118.23,77.15a5,5,0,0,0,3.9-1.71v0L120.53,74h0v0a2.84,2.84,0,0,1-2.26,1,2.17,2.17,0,0,1-2.34-2h6.49a3.87,3.87,0,0,0,.09-.92c0-2.21-1.15-4.8-4.41-4.8s-4.66,2.5-4.66,5a5.16,5.16,0,0,0,1.18,3.41A4.66,4.66,0,0,0,118.23,77.15Zm-.17-7.91a2,2,0,0,1,2.11,2H115.9C116.16,69.9,116.87,69.24,118.05,69.24Z" style="fill:#fff"/><path d="M37.74,90.53A3.65,3.65,0,0,0,35,91.79V90.73H32.64v9.5H35V95c0-1.52.73-2.33,2.11-2.33,1.1,0,1.79.81,1.79,2.12v5.41h2.32v-5.7C41.19,92.6,40.29,90.53,37.74,90.53Z" style="fill:#fff"/><path d="M49.42,99.17v1.07h2.39v-9.5H49.42V95c0,2.2-.71,3.28-2.17,3.28s-1.69-1-1.69-2.48V90.73H43.17v5A6,6,0,0,0,44,99.15a3,3,0,0,0,2.64,1.27A3.4,3.4,0,0,0,49.42,99.17Z" style="fill:#fff"/><path d="M68.25,100.23v-5.7a4.53,4.53,0,0,0-.84-2.75,3.23,3.23,0,0,0-2.67-1.25,3.6,3.6,0,0,0-3.14,1.65,3,3,0,0,0-5-.51v-.94H54.18v9.5h2.37V95a2.06,2.06,0,0,1,2-2.29c1,0,1.48.67,1.48,2.06v5.45H62.4V95a2,2,0,0,1,2-2.29c1,0,1.5.69,1.5,2.1v5.41Z" style="fill:#fff"/><polygon points="73.38 89.59 75.12 89.59 78.03 86.84 78.07 86.81 75.55 86.81 73.41 89.55 73.38 89.59" style="fill:#fff"/><path d="M74.89,100.42a5,5,0,0,0,3.9-1.71v0l-1.61-1.41h0v0a2.84,2.84,0,0,1-2.26,1,2.17,2.17,0,0,1-2.34-2h6.49a3.75,3.75,0,0,0,.09-.92c0-2.21-1.15-4.79-4.41-4.79s-4.66,2.5-4.66,5a5.14,5.14,0,0,0,1.18,3.41A4.65,4.65,0,0,0,74.89,100.42Zm-.17-7.91a2,2,0,0,1,2.11,2H72.56C72.82,93.18,73.53,92.51,74.71,92.51Z" style="fill:#fff"/><path d="M85.51,90.53A2.72,2.72,0,0,0,83,92.23v-1.5H80.7v9.5H83v-4a4.32,4.32,0,0,1,.69-2.59,1.86,1.86,0,0,1,1.49-.79,1.81,1.81,0,0,1,1,.32h0l1.06-1.91h0A2.44,2.44,0,0,0,85.51,90.53Z" style="fill:#fff"/><rect x="88.09" y="90.73" width="2.33" height="9.5" style="fill:#fff"/><rect x="88.03" y="86.81" width="2.45" height="2.17" style="fill:#fff"/><path d="M101.15,104.38V90.73H98.78v.91a3.43,3.43,0,0,0-2.67-1.11,3.68,3.68,0,0,0-3,1.49,6.21,6.21,0,0,0,0,6.92,3.72,3.72,0,0,0,3.06,1.48,3.34,3.34,0,0,0,2.63-1.1v5.06ZM99,95.48c0,1.76-.83,2.77-2.27,2.77s-2.29-1-2.29-2.77.86-2.81,2.29-2.81S99,93.72,99,95.48Z" style="fill:#fff"/><path d="M109.5,95c0,2.2-.71,3.28-2.17,3.28s-1.69-1-1.69-2.48V90.73h-2.38v5a6,6,0,0,0,.83,3.42,3,3,0,0,0,2.64,1.27,3.4,3.4,0,0,0,2.77-1.26v1.07h2.39v-9.5H109.5Z" style="fill:#fff"/><path d="M118.07,90.53c-3.22,0-4.66,2.5-4.66,5a5.15,5.15,0,0,0,1.18,3.41,4.66,4.66,0,0,0,3.63,1.5,5,5,0,0,0,3.9-1.71v0l-1.61-1.41h0v0a2.84,2.84,0,0,1-2.26,1,2.17,2.17,0,0,1-2.34-2h6.49a3.85,3.85,0,0,0,.09-.92C122.48,93.11,121.33,90.53,118.07,90.53Zm0,2a2,2,0,0,1,2.11,2H115.9C116.16,93.18,116.87,92.51,118.05,92.51Z" style="fill:#fff"/><path d="M52.65,113.81a4.29,4.29,0,0,0-3.46,1.55,5.39,5.39,0,0,0-1.13,3.42,5.3,5.3,0,0,0,1.14,3.41,4.34,4.34,0,0,0,3.47,1.52,4.09,4.09,0,0,0,4-2.82v0l-2.12-.8h0v0a1.94,1.94,0,0,1-1.87,1.49c-2,0-2.2-2.14-2.2-2.79,0-1.31.57-2.83,2.2-2.83a1.93,1.93,0,0,1,1.87,1.54v0l2.22-.86h0v0A4.15,4.15,0,0,0,52.65,113.81Z" style="fill:#fff"/><path d="M61.6,113.81a4.64,4.64,0,0,0-4,2.08v0l1.79,1.29h0v0a2.54,2.54,0,0,1,2.21-1.33,1.76,1.76,0,0,1,1.85,2H61a5.06,5.06,0,0,0-2.69.6,2.38,2.38,0,0,0-1.1,2.16,2.93,2.93,0,0,0,1,2.31,3.73,3.73,0,0,0,2.46.81,3.33,3.33,0,0,0,2.93-1.51l.15,1.32h1.94v-5.76A3.78,3.78,0,0,0,61.6,113.81Zm1.86,5.72A2.41,2.41,0,0,1,61,121.71c-.85,0-1.38-.4-1.38-1s.4-1.12,1.51-1.12Z" style="fill:#fff"/><path d="M72.91,113.81a3.66,3.66,0,0,0-2.77,1.26V114H67.8v9.5h2.33v-5.2c0-1.52.73-2.33,2.11-2.33,1.1,0,1.79.81,1.79,2.12v5.41h2.32v-5.7C76.36,115.87,75.45,113.81,72.91,113.81Z" style="fill:#fff"/><path d="M82,113.81a4.63,4.63,0,0,0-4,2.08v0l1.79,1.29h0v0A2.53,2.53,0,0,1,82,115.87a1.75,1.75,0,0,1,1.84,2H81.41a5.07,5.07,0,0,0-2.69.6,2.38,2.38,0,0,0-1.1,2.16,2.93,2.93,0,0,0,1,2.31,3.73,3.73,0,0,0,2.46.81A3.32,3.32,0,0,0,84,122.19l.15,1.32H86.1v-5.76A3.78,3.78,0,0,0,82,113.81Zm1.86,5.72a2.42,2.42,0,0,1-2.44,2.17c-.85,0-1.38-.4-1.38-1s.4-1.12,1.51-1.12Z" style="fill:#fff"/><path d="M94.1,114.92a3.43,3.43,0,0,0-2.67-1.11,3.68,3.68,0,0,0-3,1.49,6.2,6.2,0,0,0,0,6.92,3.73,3.73,0,0,0,3.07,1.48,3.32,3.32,0,0,0,2.73-1.21l.1,1v0H96.5V110.09H94.1Zm-2.07,1c1.42,0,2.27,1.05,2.27,2.81s-.83,2.81-2.27,2.81-2.29-1.05-2.29-2.81S90.6,115.94,92,115.94Z" style="fill:#fff"/><rect x="98.89" y="114.01" width="2.33" height="9.5" style="fill:#fff"/><rect x="98.83" y="110.08" width="2.45" height="2.17" style="fill:#fff"/><path d="M107.41,113.81c-3.22,0-4.66,2.5-4.66,5a5.15,5.15,0,0,0,1.18,3.41,4.65,4.65,0,0,0,3.63,1.5,5,5,0,0,0,3.9-1.71v0l-1.61-1.41h0v0a2.84,2.84,0,0,1-2.26,1,2.17,2.17,0,0,1-2.34-2h6.49a3.75,3.75,0,0,0,.09-.92C111.81,116.39,110.66,113.81,107.41,113.81Zm0,2a2,2,0,0,1,2.11,2h-4.26C105.49,116.46,106.2,115.79,107.39,115.79Z" style="fill:#fff"/><path d="M118.48,113.81a3.65,3.65,0,0,0-2.77,1.26V114h-2.34v9.5h2.34v-5.2c0-1.52.73-2.33,2.11-2.33,1.1,0,1.79.81,1.79,2.12v5.41h2.32v-5.7C121.93,115.87,121,113.81,118.48,113.81Z" style="fill:#fff"/></svg>