<svg xmlns="http://www.w3.org/2000/svg" viewBox="0 0 144 144"><title>cds_logo</title><rect width="144" height="144" style="fill:#000000"/><path d="M0,0V144H144V0ZM137.17,137.17H6.83V6.83H137.17Z" style="fill:#fff"/><path d="M54.58,72v0a3.51,3.51,0,0,1-3.62,2.48c-2.6,0-4.09-1.71-4.09-4.7,0-2.83,1.51-4.51,4-4.51,1.94,0,3.16.82,3.62,2.44v0l2.28-.9h0v0a6.13,6.13,0,0,0-5.9-3.87A6.17,6.17,0,0,0,46,65a8.2,8.2,0,0,0,0,9.71,6.21,6.21,0,0,0,4.93,2.08,6.39,6.39,0,0,0,3.55-1,6.29,6.29,0,0,0,2.34-2.89v0L54.6,72Z" style="fill:#fff"/><path d="M64.19,75.32l.15,1.3v0h2V70.85a3.79,3.79,0,0,0-4.13-4,4.65,4.65,0,0,0-4,2.09v0l1.8,1.3h0v0A2.55,2.55,0,0,1,62.18,69a1.76,1.76,0,0,1,1.85,2H61.59a5.09,5.09,0,0,0-2.7.6,2.39,2.39,0,0,0-1.1,2.17,2.94,2.94,0,0,0,1,2.32,3.74,3.74,0,0,0,2.47.81A3.34,3.34,0,0,0,64.19,75.32ZM64,72.64a2.42,2.42,0,0,1-2.45,2.18c-.86,0-1.39-.4-1.39-1.05s.4-1.13,1.52-1.13Z" style="fill:#fff"/><path d="M70.87,71.42c0-1.53.73-2.34,2.12-2.34,1.11,0,1.8.82,1.8,2.13v5.43h2.33V70.91c0-1.94-.91-4-3.46-4a3.67,3.67,0,0,0-2.78,1.27V67.1H68.53v9.54h2.34Z" style="fill:#fff"/><path d="M79.49,71.53a2.39,2.39,0,0,0-1.1,2.17,2.94,2.94,0,0,0,1,2.32,3.74,3.74,0,0,0,2.47.81,3.34,3.34,0,0,0,2.94-1.51l.15,1.3v0h2V70.85a3.79,3.79,0,0,0-4.13-4,4.65,4.65,0,0,0-4,2.09v0l1.8,1.3h0v0A2.55,2.55,0,0,1,82.79,69a1.76,1.76,0,0,1,1.85,2H82.19A5.09,5.09,0,0,0,79.49,71.53Zm2.83,1.11h2.32a2.42,2.42,0,0,1-2.45,2.18c-.85,0-1.39-.4-1.39-1.05S81.2,72.64,82.32,72.64Z" style="fill:#fff"/><path d="M92.35,76.83a3.33,3.33,0,0,0,2.74-1.22l.1,1v0h2.2V63.16H95V68a3.44,3.44,0,0,0-2.68-1.11,3.69,3.69,0,0,0-3,1.5,6.23,6.23,0,0,0,0,6.95A3.74,3.74,0,0,0,92.35,76.83Zm-1.74-5c0-1.77.86-2.82,2.3-2.82s2.28,1.06,2.28,2.82-.83,2.82-2.28,2.82S90.62,73.63,90.62,71.86Z" style="fill:#fff"/><rect x="99.8" y="67.1" width="2.34" height="9.54" style="fill:#fff"/><rect x="99.74" y="63.16" width="2.46" height="2.18" style="fill:#fff"/><path d="M104.77,71.53a2.39,2.39,0,0,0-1.1,2.17,2.94,2.94,0,0,0,1,2.32,3.74,3.74,0,0,0,2.47.81,3.34,3.34,0,0,0,2.94-1.51l.15,1.3v0h2V70.85a3.79,3.79,0,0,0-4.13-4A4.65,4.65,0,0,0,104,69v0l1.79,1.3h0v0A2.54,2.54,0,0,1,108.08,69a1.76,1.76,0,0,1,1.85,2h-2.45A5.09,5.09,0,0,0,104.77,71.53Zm2.84,1.11h2.32a2.42,2.42,0,0,1-2.45,2.18c-.85,0-1.39-.4-1.39-1.05S106.49,72.64,107.61,72.64Z" style="fill:#fff"/><path d="M116.63,71.42c0-1.53.73-2.34,2.12-2.34,1.11,0,1.79.82,1.79,2.13v5.43h2.33V70.91c0-1.94-.91-4-3.46-4a3.67,3.67,0,0,0-2.78,1.27V67.1h-2.34v9.54h2.34Z" style="fill:#fff"/><path d="M73.92,86.53H70V100h3.9a7.29,7.29,0,0,0,5.21-1.75,6.47,6.47,0,0,0,1.82-4.89,6.82,6.82,0,0,0-1.79-5.06A7.17,7.17,0,0,0,73.92,86.53Zm-1.46,2.26h1.42a4.81,4.81,0,0,1,3.53,1,4.56,4.56,0,0,1,1.06,3.43c0,3.06-1.53,4.49-4.81,4.49H72.46Z" style="fill:#fff"/><rect x="82.66" y="86.53" width="2.46" height="2.18" style="fill:#fff"/><rect x="82.72" y="90.46" width="2.34" height="9.54" style="fill:#fff"/><path d="M88.36,103.54a6.09,6.09,0,0,0,6.28.18,2.81,2.81,0,0,0,1.23-2.41c0-2.15-1.84-2.58-3.72-2.83l-.62-.07c-1.34-.15-2.22-.25-2.22-.91a.54.54,0,0,1,.26-.48,4.49,4.49,0,0,0,1.81.37,4.18,4.18,0,0,0,2.72-.95,3.29,3.29,0,0,0,1.16-2.55,3.36,3.36,0,0,0-.4-1.65l1.37-1.1h0L95,89.64v0l-1.46,1.25a4.31,4.31,0,0,0-2.24-.6,4.19,4.19,0,0,0-2.75,1,3.31,3.31,0,0,0-1.17,2.53A3.42,3.42,0,0,0,88.15,96a2.5,2.5,0,0,0-.88,2,2.12,2.12,0,0,0,.92,1.88l-1,.88h0a1.81,1.81,0,0,0,0,.41A3,3,0,0,0,88.36,103.54Zm3.3-.9c-1.43,0-2.36-.55-2.49-1.48l.47-.78a12.48,12.48,0,0,0,1.39.22l.29,0c1.48.17,2.3.26,2.3.95S92.89,102.64,91.66,102.64Zm-1.85-8.84a1.53,1.53,0,0,1,1.56-1.69,1.5,1.5,0,0,1,1.54,1.69,1.47,1.47,0,0,1-1.54,1.65A1.49,1.49,0,0,1,89.81,93.79Z" style="fill:#fff"/><rect x="97.7" y="86.53" width="2.46" height="2.18" style="fill:#fff"/><rect x="97.75" y="90.46" width="2.34" height="9.54" style="fill:#fff"/><path d="M107.93,99.91h0V97.75h0a3.35,3.35,0,0,1-1.31.34c-.71,0-1.05-.38-1.05-1.16V92.45h2.4v-2h-2.4v-4l-2.3,1.68h0v2.35h-1.57v2h1.53v4.91a2.77,2.77,0,0,0,.8,2.07,3.13,3.13,0,0,0,2.21.76A5.52,5.52,0,0,0,107.93,99.91Z" style="fill:#fff"/><path d="M109.5,92.36v0l1.8,1.3h0v0a2.54,2.54,0,0,1,2.22-1.33,1.76,1.76,0,0,1,1.85,2h-2.45a5.09,5.09,0,0,0-2.7.6,2.39,2.39,0,0,0-1.1,2.16,2.94,2.94,0,0,0,1,2.32,3.73,3.73,0,0,0,2.47.81,3.34,3.34,0,0,0,2.94-1.51l.15,1.3v0h2V94.22a3.79,3.79,0,0,0-4.13-4A4.66,4.66,0,0,0,109.5,92.36ZM113.06,96h2.32a2.42,2.42,0,0,1-2.45,2.18c-.85,0-1.39-.4-1.39-1.05S111.94,96,113.06,96Z" style="fill:#fff"/><path d="M123.55,98a4.66,4.66,0,0,1-.63.06c-.49,0-.74-.21-.74-.62V86.53h-2.36V98.09c0,1.44.64,2.1,2,2.1a10,10,0,0,0,1.73-.19h0V98Z" style="fill:#fff"/><path d="M67.87,115.36c-1.37-.53-2.56-1-2.56-2.06A1.51,1.51,0,0,1,67,111.89a2.4,2.4,0,0,1,2.15,1.42v0l2-1.24h0v0a4.53,4.53,0,0,0-4.11-2.37,4.64,4.64,0,0,0-3,1,3.45,3.45,0,0,0-1.26,2.76c0,2.45,2,3.24,3.81,3.95,1.44.57,2.69,1.06,2.69,2.28,0,1-.86,1.69-2.19,1.69a2.54,2.54,0,0,1-2.76-2.4v0l-2.42.61h0v0a4.41,4.41,0,0,0,1.85,3,5.81,5.81,0,0,0,3.31,1,5.18,5.18,0,0,0,3.31-1.09,3.77,3.77,0,0,0,1.38-3C71.82,116.88,69.72,116.07,67.87,115.36Z" style="fill:#fff"/><path d="M77.74,113.63c-3.23,0-4.68,2.51-4.68,5a5.17,5.17,0,0,0,1.18,3.43,4.67,4.67,0,0,0,3.65,1.5,5,5,0,0,0,3.92-1.72v0l-1.61-1.41h0v0a2.86,2.86,0,0,1-2.27,1,2.17,2.17,0,0,1-2.35-2h6.52a3.74,3.74,0,0,0,.09-.92C82.17,116.23,81,113.63,77.74,113.63Zm0,2a2,2,0,0,1,2.12,2H75.56C75.82,116.29,76.53,115.62,77.72,115.62Z" style="fill:#fff"/><path d="M88.57,113.63a2.73,2.73,0,0,0-2.53,1.7v-1.5h-2.3v9.54H86v-4a4.33,4.33,0,0,1,.7-2.6,1.87,1.87,0,0,1,1.5-.8,1.83,1.83,0,0,1,1,.32h0l1.07-1.92h0A2.46,2.46,0,0,0,88.57,113.63Z" style="fill:#fff"/><polygon points="95.46 120.29 93.18 113.85 93.18 113.83 90.6 113.83 94.48 123.36 94.49 123.37 96.43 123.37 100.31 113.86 100.32 113.83 97.76 113.83 95.46 120.29" style="fill:#fff"/><rect x="101.24" y="113.83" width="2.34" height="9.54" style="fill:#fff"/><rect x="101.18" y="109.9" width="2.46" height="2.18" style="fill:#fff"/><path d="M109.73,113.63a4.31,4.31,0,0,0-3.47,1.56,5.41,5.41,0,0,0-1.13,3.43,5.33,5.33,0,0,0,1.14,3.42,4.36,4.36,0,0,0,3.48,1.53,4.11,4.11,0,0,0,4-2.83v0l-2.13-.81h0v0a1.94,1.94,0,0,1-1.88,1.5c-2,0-2.2-2.14-2.2-2.8,0-1.31.58-2.84,2.2-2.84a1.94,1.94,0,0,1,1.88,1.54v0l2.23-.86h0v0A4.17,4.17,0,0,0,109.73,113.63Z" style="fill:#fff"/><path d="M119,113.63c-3.23,0-4.68,2.51-4.68,5a5.17,5.17,0,0,0,1.18,3.43,4.67,4.67,0,0,0,3.65,1.5,5,5,0,0,0,3.91-1.72v0l-1.61-1.41h0v0a2.85,2.85,0,0,1-2.27,1,2.17,2.17,0,0,1-2.35-2h6.52a3.79,3.79,0,0,0,.09-.92C123.43,116.23,122.27,113.63,119,113.63Zm0,2a2,2,0,0,1,2.12,2h-4.28C117.08,116.29,117.79,115.62,119,115.62Z" style="fill:#fff"/><path d="M115.18,40.62s-.21-3.95-.21-4.39.36-.45.75-.32,4.06.76,4.06.75-.27-.79-.53-1.39.13-.65.21-.75,4.15-3.6,4.17-3.64l-.64-.32c-.4-.18-.35-.49-.32-.75s.77-2.51.75-2.46-1.72.36-2.14.43-.43-.12-.54-.32-.47-1.22-.43-1.18-2.18,2.27-2.25,2.35c-.38.32-.78.05-.64-.43,0-.37,1-5,1.07-5s-1.17.7-1.5,1-.61.13-.75-.21-1.64-3.13-1.6-3.1-1.37,2.74-1.6,3.1-.39.39-.75.21-1.47-.94-1.5-1,1,4.66,1.07,5-.29.75-.64.43c-.09-.08-2.23-2.4-2.25-2.35a12.49,12.49,0,0,0-.43,1.18c-.13.2-.27.38-.54.32-.45-.07-2.23-.47-2.25-.43s.73,2.27.75,2.46.16.57-.21.75l-.64.32s4,3.47,4.07,3.64.43.19.21.75-.45,1.4-.43,1.39,3.67-.7,4.07-.75.72,0,.75.32-.21,4.4-.21,4.39Z" style="fill:#fff"/></svg>