<?xml version="1.0" encoding="UTF-8"?>
<svg fill="#FFFFFF" width="100pt" height="100pt" version="1.1" viewBox="0 0 100 100" xmlns="http://www.w3.org/2000/svg">
 <path d="m82.254 8.4883c-8.2148 7.1523-16.43 14.309-24.648 21.465 0.019531 0.054687 0.039062 0.10156 0.050781 0.15234 4.8398-0.66406 9.6758-1.3242 14.762-2.0234-9.1875 9.5898-18.238 19.027-27.418 28.605 4.207-0.84375 8.2227-1.6523 12.234-2.4531 0.019531 0.042969 0.050781 0.082031 0.070313 0.125-13.121 12.504-26.242 25.008-39.367 37.512-0.03125-0.03125-0.066406-0.0625-0.10156-0.089844 6.9102-9.0312 13.82-18.062 20.852-27.246-2.6523 0.40625-5.1094 0.78125-7.7969 1.1953 6.8555-9.2266 13.598-18.301 20.484-27.562-3.2305 0.54688-6.2461 1.0586-9.4375 1.6016 1.0664-1.3789 2.0352-2.6289 3.0078-3.875 7.0078-8.9805 14.023-17.957 21.02-26.945 0.36719-0.48047 0.74609-0.65234 1.3398-0.64844 4.7109 0.023438 9.4219 0.015625 14.137 0.015625h0.74219c0.023437 0.050782 0.046875 0.10938 0.070312 0.17188z" fill-rule="evenodd"/>
</svg>
