<?xml version="1.0" encoding="UTF-8"?>
<svg fill="#FFFFFF" width="100pt" height="100pt" version="1.1" viewBox="0 0 100 100" xmlns="http://www.w3.org/2000/svg">
 <g>
  <path d="m21.738 58.801c5.8125 0 10.539-4.7266 10.539-10.539 0-5.8086-4.7266-10.539-10.539-10.539-5.8086 0-10.539 4.7266-10.539 10.539 0.003906 5.8125 4.7305 10.539 10.539 10.539z"/>
  <path d="m38.48 90.156v-19.453c0-4.8008-2.9141-8.9297-7.0664-10.719-2.6289 2.1758-6.0039 3.4844-9.6719 3.4844-3.6719 0-7.043-1.3086-9.6719-3.4844-4.1562 1.7891-7.0703 5.918-7.0703 10.719v19.453z"/>
  <path d="m67.723 48.262c0 5.8125 4.7266 10.539 10.539 10.539 5.8086 0 10.539-4.7266 10.539-10.539 0-5.8086-4.7266-10.539-10.539-10.539-5.8125 0.003906-10.539 4.7305-10.539 10.539z"/>
  <path d="m78.262 63.469c-3.6719 0-7.043-1.3086-9.6719-3.4844-4.1523 1.7891-7.0664 5.918-7.0664 10.719v19.453h33.477v-19.453c0-4.8008-2.9141-8.9297-7.0664-10.719-2.6328 2.1758-6.0039 3.4844-9.6719 3.4844z"/>
  <path d="m50 53.102c6.5195 0 11.824-5.3047 11.824-11.824 0-6.5234-5.3047-11.828-11.824-11.828s-11.824 5.3047-11.824 11.824c0 6.5195 5.3047 11.828 11.824 11.828z"/>
  <path d="m65.309 56.402c-1.2188-1.2422-2.7148-2.207-4.3828-2.8125-2.9141 2.5898-6.7344 4.1758-10.926 4.1758s-8.0117-1.5859-10.926-4.1719c-1.668 0.60156-3.1641 1.5664-4.3828 2.8125 5.0352 2.7852 8.457 8.1484 8.457 14.297v19.453h13.707v-19.453c-0.003907-6.1523 3.418-11.516 8.4531-14.301z"/>
  <path d="m57.809 26.754c4.5 2.4297 7.7344 6.8945 8.4922 12.152 2.6914-3.4336 6.8164-5.6758 11.473-5.8203 0.13672-0.67578 0.21094-1.3711 0.21094-2.0859 0-5.8086-4.7266-10.539-10.539-10.539-4.3008 0-8 2.5938-9.6367 6.293z"/>
  <path d="m33.699 38.906c0.75-5.1797 3.9023-9.5898 8.3047-12.043-1.7188-3.4883-5.3047-5.8984-9.4492-5.8984-5.8086 0-10.539 4.7266-10.539 10.539 0 0.53516 0.054687 1.0625 0.13281 1.5781 4.6875 0.12109 8.8438 2.3711 11.551 5.8242z"/>
  <path d="m46.375 25.199c1.168-0.26562 2.3789-0.41406 3.625-0.41406 1.1719 0 2.3125 0.12891 3.4141 0.35938 1.3398-3.1953 3.7344-5.8359 6.75-7.4883-1.207-4.4883-5.3008-7.8086-10.168-7.8086-5.0234 0-9.2344 3.5391-10.281 8.2539 2.9258 1.5664 5.2695 4.0664 6.6602 7.0977z"/>
 </g>
</svg>
