<?xml version="1.0" encoding="utf-8"?>
<!-- Generator: Adobe Illustrator 21.1.0, SVG Export Plug-In . SVG Version: 6.00 Build 0)  -->
<svg version="1.1" id="Layer_1" xmlns="http://www.w3.org/2000/svg" xmlns:xlink="http://www.w3.org/1999/xlink" x="0px" y="0px"
	 viewBox="0 0 150 150" style="enable-background:new 0 0 150 150;" xml:space="preserve">
<g>
	<path d="M120.1,47.3c0,0-0.3-1.3-0.4-1.7c0-0.2-0.1-0.3-0.2-0.5s-0.3-1-0.4-1.2c0-0.1,0-0.2-0.1-0.3c-0.9-3-2.4-5.5-3.5-7.5
		c-10.1-16.7-30.7-21.8-45.6-19.5c-13.5,2-23.7,8.8-29.4,19.4c0,0,0,0.1-0.1,0.1c-1.4,2.9-2.3,5.3-2.8,7.5l-0.4,1.5
		c-0.1,0.2-0.1,0.4-0.1,0.6l-0.3,1.6c-0.5,3.1-0.6,6.4-0.1,9.9v0.9c0,0.8-0.2,1.6-0.6,2.4L29,75.9c-0.9,2-0.8,4.4,0.4,6.4
		c1.2,2,3.3,3.2,5.7,3.2h2.5l-1.4,6.4c-0.4,1.8-0.3,3.7,0.4,5.4l0.3,0.7c0.9,2.4,1.1,5,0.6,7.4c-0.3,1.9,0.1,3.8,1.2,5.4
		c1.1,1.6,2.8,2.6,4.7,2.9l10.1,1.5v16.3c0,1.4,1.1,2.5,2.5,2.5s2.5-1.1,2.5-2.5v-18.4c0-1.2-0.9-2.3-2.1-2.5L44,108.8
		c-0.5-0.1-1-0.4-1.3-0.8c-0.3-0.5-0.5-1-0.4-1.6c0.6-3.4,0.3-6.8-0.9-10l-0.3-0.7c-0.3-0.8-0.4-1.7-0.2-2.6l2-9.4
		c0.2-0.7,0-1.5-0.5-2.1s-1.2-0.9-1.9-0.9H35c-0.6,0-1.1-0.3-1.4-0.8c-0.4-0.6-0.4-1.2-0.2-1.7l7.2-15.3c0.7-1.5,1-3,1-4.5v-1.1
		c0-0.1,0-0.2,0-0.3c-0.4-3.1-0.4-6,0.1-8.6l0.3-1.8c0-0.1,0-0.2,0-0.3l0.3-1.2c0.5-1.9,1.3-4,2.5-6.5c4.9-9.2,13.8-15,25.8-16.8
		c13.3-2.1,31.6,2.4,40.5,17.1c1,1.7,2.2,3.9,3,6.4c0.1,0.7,0.4,1.5,0.6,2c0.1,0.5,0.4,1.5,0.4,1.6c3.6,13.7,0.2,26-10.3,36.5
		l-0.4,0.4c-1.3,1.3-3.6,3.6-5.3,7.3c-2.8,6.5-2.3,14.2,1.3,22.9c0.5,1.3,2,1.9,3.3,1.4s1.9-2,1.4-3.3c-3.1-7.5-3.5-13.9-1.3-19
		c1.3-2.9,3-4.6,4.2-5.8l0.4-0.4C120.3,76.7,124.2,62.8,120.1,47.3z"/>
	<path d="M98.2,65.4c3.6-3.3,5.7-8.2,5.7-13.3c0-4.7-1.7-9.1-4.8-12.4c-3.1-3.3-7.3-5.2-11.7-5.2c0,0,0,0-0.1,0
		c-3.5,0-6.9,1.2-9.7,3.4c-2.8-2.1-6.2-3.3-9.6-3.3c0,0,0,0-0.1,0c-9.1,0-16.5,8-16.5,17.6c0,5.2,2.1,10,5.8,13.3l19.1,19.1
		c0.4,0.4,0.9,0.6,1.4,0.6l0,0c0.5,0,1-0.2,1.4-0.6L98,65.4L98.2,65.4z M95.3,62.7L77.8,80.5L60.1,62.8L60,62.7
		c-2.9-2.6-4.5-6.4-4.5-10.4c0-7.5,5.6-13.6,12.5-13.6l0,0c3,0,6,1.2,8.3,3.4c0.8,0.8,2,0.7,2.8,0c2.3-2.2,5.2-3.4,8.3-3.5l0,0
		c3.3,0,6.4,1.4,8.8,3.9c2.4,2.6,3.7,6,3.7,9.6c0,4-1.6,7.8-4.4,10.4C95.4,62.6,95.4,62.6,95.3,62.7z"/>
</g>
</svg>
