<?xml version="1.0" encoding="utf-8"?>
<!-- Generator: Adobe Illustrator 21.1.0, SVG Export Plug-In . SVG Version: 6.00 Build 0)  -->
<svg version="1.1" id="Layer_1" xmlns="http://www.w3.org/2000/svg" xmlns:xlink="http://www.w3.org/1999/xlink" x="0px" y="0px"
	 viewBox="0 0 100 100" style="enable-background:new 0 0 100 100;" xml:space="preserve">

<clipPath id="clipCircle">
    <circle r="50" cx="50" cy="50"/>
</clipPath>

<path d="M90.5,87.6C90.5,87.6,90.5,87.6,90.5,87.6l2.2-83.8c0.1-0.8-0.3-1.6-1-2.1c-0.1-0.1-0.3-0.1-0.5-0.2c0,0,0,0,0,0
	c-0.1,0-0.2,0-0.3-0.1c-0.1,0-0.1,0-0.2,0c0,0,0,0,0,0c-0.1,0-0.1,0-0.2,0c0,0-0.1,0-0.1,0c0,0,0,0-0.1,0c0,0,0,0,0,0
	c0,0-0.1,0-0.1,0c0,0,0,0,0,0c-0.1,0-0.1,0-0.1,0c0,0-0.1,0-0.1,0.1c-0.1,0-0.1,0.1-0.2,0.1c0,0-0.1,0-0.1,0.1c0,0,0,0,0,0L2,61.9
	C2,62,1.9,62,1.9,62.1c0,0,0,0-0.1,0c-0.1,0.1-0.2,0.2-0.2,0.2c0,0,0,0,0,0c-0.1,0.1-0.1,0.2-0.2,0.3l0,0c-0.3,0.6-0.3,1.4,0.1,2
	c0,0.1,0.1,0.1,0.1,0.1c0,0,0.1,0.1,0.1,0.1c0.1,0.1,0.1,0.1,0.2,0.2c0,0,0.1,0.1,0.1,0.1c0.1,0.1,0.2,0.1,0.2,0.1c0,0,0,0,0.1,0
	c0.1,0.1,0.2,0.1,0.4,0.1l33.1,8.5l13.3,24.3c0,0,0,0.1,0,0.1c0,0.1,0,0.1,0.1,0.2c0,0.1,0.1,0.1,0.1,0.2c0,0.1,0.1,0.1,0.1,0.2
	c0,0.1,0.1,0.1,0.1,0.2s0.1,0.1,0.1,0.2c0.1,0.1,0.1,0.1,0.2,0.2c0,0,0.1,0.1,0.1,0.1c0,0,0,0,0,0c0.2,0.1,0.3,0.2,0.5,0.2
	c0,0,0.1,0,0.1,0c0.2,0,0.3,0.1,0.5,0.1c0,0,0,0,0,0c0.1,0,0.3,0,0.4-0.1c0,0,0.1,0,0.1,0c0.1,0,0.2-0.1,0.3-0.1c0,0,0.1,0,0.1-0.1
	c0.1,0,0.2-0.1,0.2-0.2c0,0,0.1-0.1,0.1-0.1c0.1-0.1,0.2-0.2,0.2-0.2c0,0,0,0,0.1-0.1L65,82.1l22.7,7.2c0.2,0.1,0.5,0.2,0.8,0.2
	c0,0,0,0,0.1,0c0.9,0,1.6-0.6,1.9-1.4c0,0,0,0,0,0c0,0,0,0,0,0c0-0.1,0-0.2,0.1-0.3C90.5,87.7,90.5,87.7,90.5,87.6z M54.3,74.5
	l34.2-62.7l-1.9,73L54.3,74.5z M36.5,70.1L7.9,62.8l73.3-50.3L36.5,70.1z M77.1,24.3L49.6,74.7c0,0.1-0.1,0.1-0.1,0.2c0,0,0,0,0,0.1
	c0,0,0,0.1,0,0.1c0,0,0,0,0,0c0,0,0,0.1,0,0.1c-0.1,0.2-0.1,0.4-0.1,0.5l-0.2,14.5l-9.6-17.5L77.1,24.3z M53.2,91.7l0.1-13.3
	l7.6,2.4L53.2,91.7z"/>
</svg>
