<?xml version="1.0" encoding="utf-8"?>
<!-- Generator: Adobe Illustrator 21.1.0, SVG Export Plug-In . SVG Version: 6.00 Build 0)  -->
<svg version="1.1" id="Layer_1" xmlns="http://www.w3.org/2000/svg" xmlns:xlink="http://www.w3.org/1999/xlink" x="0px" y="0px"
	 viewBox="0 0 128 128" style="enable-background:new 0 0 128 128;" xml:space="preserve">
<g>
	<path d="M115.1,32.5L65.7,4c-1.1-0.6-2.4-0.6-3.5,0l-16.5,9.5c-1.1,0.6-1.7,1.8-1.7,3v13L32.8,23c-1.1-0.6-2.4-0.6-3.5,0l-16.5,9.5
		c-1.1,0.6-1.7,1.8-1.7,3v57c0,1.2,0.7,2.4,1.7,3L62.3,124c0.5,0.3,1.1,0.5,1.7,0.5c0.6,0,1.2-0.2,1.7-0.5l16.5-9.5
		c1.1-0.6,1.7-1.8,1.7-3v-13l11.3,6.5c1.1,0.6,2.4,0.6,3.5,0l16.5-9.5c1.1-0.6,1.7-1.8,1.7-3l0-57C116.8,34.3,116.2,33.1,115.1,32.5
		z M110.7,35.5l-13.8,8l-13.6-7.8l-0.1-0.2l13.7-7.9L110.7,35.5z M94.3,26l-12.3,7.1l-6.9-12l5.4-3.1L94.3,26z M82.1,38.7l-13.1,7.6
		L67,45.2l-9.4-16.3l14.2-8.2L82.1,38.7z M64,8.5l13.8,8l-4.1,2.4l-0.3-0.6c-0.2-0.3-0.5-0.5-0.8-0.6c-0.3-0.1-0.7,0-1,0.1L62,23.3
		l-11.8-6.8L64,8.5z M29.8,99.7l-13.8-8V75.8l13.8,8V99.7z M29.8,80.7l-13.8-8V56.8l13.8,8V80.7z M29.8,61.7l-13.8-8V37.8l13.8,8
		V61.7z M17.3,35.5l13.8-8l13.8,8l-13.8,8L17.3,35.5z M46.2,109.2l-13.8-8V85.3l13.8,8V109.2z M46.2,90.2l-13.8-8V66.3l13.8,8V90.2z
		 M46.2,71.2l-13.8-8V47.3l13.8,8V71.2z M33.7,45l13.8-8l13.8,8l-13.8,8L33.7,45z M62.7,118.7l-13.8-8V94.8l13.8,8V118.7z
		 M62.7,99.7l-13.8-8V75.8l13.8,8V99.7z M62.7,80.7l-13.8-8V56.8l13.8,8V80.7z M50.2,54.5l13.8-8l13.8,8l-13.8,8L50.2,54.5z
		 M79.1,110.7l-13.8,8v-15.9l13.8-8V110.7z M79.1,91.7l-13.8,8V83.8l13.8-8C79.1,75.8,79.1,91.7,79.1,91.7z M79.1,72.7l-13.8,8V64.8
		l13.8-8V72.7z M81.8,54.2C81.7,54.2,81.7,54.2,81.8,54.2c0-0.2-0.1-0.3-0.1-0.4c-0.1-0.1-0.1-0.2-0.2-0.2c0,0,0,0-0.1-0.1
		c-0.1-0.1-0.1-0.1-0.2-0.1c0,0,0,0,0,0l-9.6-5.5L83.4,41l10.3,18l-11.9,6.9V54.5c0,0,0,0,0-0.1C81.8,54.4,81.8,54.3,81.8,54.2z
		 M91.2,87.1l-9.4-16.3v-1.9L95,61.3L105.2,79L91.2,87.1z M112,91.7l-13.8,8V86.1l9.4-5.4c0.6-0.4,0.9-1.2,0.5-1.8l-0.3-0.6l4.2-2.4
		C112,75.8,112,91.7,112,91.7z M112,72.7l-5.5,3.2l-6.9-12l12.4-7.2V72.7z M98.3,61.7l-0.1-0.1V45.8l13.8-8l0,15.9L98.3,61.7z"/>
</g>
</svg>
