<?xml version="1.0" encoding="utf-8"?>
<!-- Generator: Adobe Illustrator 21.1.0, SVG Export Plug-In . SVG Version: 6.00 Build 0)  -->
<svg version="1.1" id="Layer_1" xmlns="http://www.w3.org/2000/svg" xmlns:xlink="http://www.w3.org/1999/xlink" x="0px" y="0px"
	 viewBox="0 0 100 100" style="enable-background:new 0 0 100 100;" xml:space="preserve">
<g>
	<g>
		<g>
			<g>
				<g>
					<g>
						<path d="M40,28.6c0.3,0.5,0.6,1,1,1.4c0.5,0.7,1.2,1.3,1.9,1.9c0.2,0.2,0.4,0.3,0.6,0.4l0.1-0.1c5.2-5.2,10.5-10.5,15.7-15.7
							c-1-1.4-2.2-2.6-3.7-3.5C50.9,17.6,40.6,28,40,28.6z M62.7,15.5c2.1-1.6,4.7-2.6,7.5-2.8l0,0c0.1,0,0.1,0,0.2,0c0,0,0,0,0.1,0
							l0,0c0.1,0,0.1,0,0.2,0l0,0c5.4,0.2,10.4,3.8,11.9,9.1c1.4,5.2-0.5,10.9-5,14c-4.4,3-10.5,2.9-14.7-0.4
							c-0.9-0.7-1.7-1.5-2.4-2.4c-2.6,2.7-6.2,4.4-10,4.5c-4.2,0.1-8.3-1.5-11.3-4.5c-0.8,1-1.8,2-2.9,2.7c-4.4,3-10.5,2.9-14.7-0.4
							c-4.2-3.2-6.2-9.1-4.4-14.1c1.9-5,6.4-8.3,11.7-8.6l0,0c0.1,0,0.1,0,0.2,0c0,0,0,0,0.1,0l0,0c0.1,0,0.1,0,0.2,0l0,0
							c2.8,0.1,5.4,1.1,7.6,2.7c2.7-4.3,7.4-7,12.6-7.3c0.1,0,0.2,0,0.2,0l0,0h0.1l0,0H50l0,0c5,0.1,9.7,2.7,12.3,7
							C62.5,15.2,62.6,15.4,62.7,15.5z M46.5,33.7c3.3,1,7,0.5,9.9-1.6c0.9-0.6,1.6-1.3,2.3-2.1c0.4-0.6,0.8-1.2,1.2-1.8
							c0.7-1.3,1.1-2.7,1.3-4.1c0.2-1.3,0.1-2.7-0.2-4.1c0-0.2-0.1-0.4-0.2-0.6C59.9,20.3,50.4,29.8,46.5,33.7z M52.4,11.7
							c-0.8-0.2-1.7-0.3-2.6-0.3c-4.3,0.1-8.5,2.7-10.3,6.6c-0.1,0.3-0.2,0.5-0.3,0.8c-0.2,0.4-0.3,0.9-0.4,1.3
							c-0.4,1.8-0.4,3.6,0,5.3C39.2,24.9,48.8,15.3,52.4,11.7z M37,30.3c-2-3.5-2.5-7.7-1.4-11.5c-1.7-1.6-3.9-2.6-6.4-2.6
							c-0.4,0-0.7,0-1.1,0.1c-4.9,0.9-8.6,5.1-8.1,10.1c0.5,4.9,4.9,8.7,9.8,8.3C32.8,34.4,35.5,32.7,37,30.3z"/>
					</g>
					<g>
						<path d="M70.7,12.7c-0.1,0-0.1,0-0.2,0C70.5,12.7,70.6,12.7,70.7,12.7z"/>
					</g>
					<g>
						<path d="M70.3,12.7c-0.1,0-0.1,0-0.2,0C70.2,12.7,70.3,12.7,70.3,12.7z"/>
					</g>
					<g>
						<path d="M50.1,8C50,8,50,8,50.1,8C50,8,50,8,50.1,8z"/>
					</g>
					<g>
						<path d="M50,8L50,8C49.9,8,49.9,8,50,8z"/>
					</g>
					<g>
						<path d="M49.8,8c-0.1,0-0.2,0-0.2,0S49.7,8,49.8,8z"/>
					</g>
					<g>
						<path d="M29.4,12.7c-0.1,0-0.1,0-0.2,0C29.3,12.7,29.4,12.7,29.4,12.7z"/>
					</g>
					<g>
						<path d="M29.1,12.7c-0.1,0-0.1,0-0.2,0C29,12.7,29.1,12.7,29.1,12.7z"/>
					</g>
				</g>
			</g>
		</g>
	</g>
	<g>
		<g>
			<g>
				<g>
					<g>
						<g>
							<path d="M42.2,88.2c1.4-1.4,22.1-22.1,27.3-27.3c0.1-0.1,0.1-0.1,0.2-0.2c-0.8-1.6-1.6-3.1-2.6-4.6c-3,3-29.4,29.4-31,31
								C38.1,87.6,40.2,87.9,42.2,88.2z M42.6,91.6c-2.3-0.3-4.7-0.7-6.9-1.2c-4.3-1.1-9-3.1-11.1-7c-2.1-0.2-4.2-0.5-6.2-0.9
								C13,81.3,7,78.5,6.8,72.2c-0.1-6,1.2-12.1,3.9-17.5c2.2-4.3,5.3-8.2,9.3-10.9c2.6-1.8,5.7-3.3,9-3.3c3.3-0.1,6.8,1.2,9.4,3.1
								c0.4,0.3,0.9,0.7,1.3,1c2.8-1.8,5.9-3.1,9.2-3.4c2-0.1,3.9,0.1,5.8,0.7c1.9,0.6,3.8,1.5,5.5,2.6c0.3-0.2,0.7-0.5,1-0.7
								c2.6-1.8,5.7-3.3,9-3.3c3.3-0.1,6.8,1.2,9.4,3.1c4,2.9,7.3,6.6,9.6,11c2.7,5.3,4,11.1,4,17.1v0.4c0,1.2-0.3,2.3-0.7,3.3
								c-0.4,1-1.1,2.6-2,3.3c-4.1,3.4-9.7,4.3-14.8,4.8c-0.1,0-0.2,0-0.3,0c-0.6,1.2-1.3,2.4-2.3,3.2c-2,1.6-4.4,2.7-6.9,3.4
								c-3.9,1.1-8.1,1.7-12.2,1.9c-0.8,0-1.6,0.1-2.4,0.1C48.6,92,45.6,91.9,42.6,91.6z M28,67.4c0.4-0.4,0.8-0.8,1.2-1.2
								c4.6-4.6,19.9-19.9,21.8-21.8c-1.7,0-3.5,0.1-5.3,0.7c-1.1,0.4-2.2,0.9-3.2,1.5c-0.5,0.3-1,0.6-1.4,0.9
								c-0.5,0.3-0.9,0.7-1.4,1C33.7,53.2,29.8,60.3,28,67.4z M46.4,88.5c2.4,0.1,4.7,0.2,7.1,0.1c2-2,15.7-15.7,19.1-19.1
								c-0.4-1.9-0.9-3.8-1.5-5.6c-1.1,1.1-2.2,2.2-3.2,3.2C64.1,70.7,49,85.9,46.4,88.5z M65.3,53.5c-1-1.3-2.2-2.5-3.4-3.6
								c0,0-0.1,0-0.1-0.1c-2.4,2.4-31.5,31.5-32,32c-0.4,0.4-0.8,0.8-1.2,1.2c0.1,0.2,0.3,0.3,0.5,0.5c0.7,0.7,1.5,1.3,2.5,1.8
								c0.4,0.2,0.9,0.4,1.4,0.6C33.7,85,60.7,58,65.3,53.5z M73.4,78.1c0-1.6-0.1-3.2-0.3-4.8C70.9,75.6,60,86.4,58.4,88.1
								c1.2-0.2,2.4-0.4,3.6-0.6c2.3-0.5,4.7-1,6.7-2.1c0.7-0.4,1.5-0.8,2.1-1.3c0.2-0.2,0.4-0.4,0.6-0.6c0.3-0.3,0.5-0.7,0.7-1.1
								c0.1-0.2,0.2-0.4,0.3-0.6c0.3-0.5,0.5-1.1,0.7-1.7C73.3,79.5,73.4,78.8,73.4,78.1z M59.2,47.9L59,47.7
								c-0.5-0.3-1-0.6-1.5-0.9c-1-0.6-2-1-3-1.4C53.3,46.6,32.8,67.1,27,73c-0.2,1.9-0.4,3.8-0.2,5.6c0,0.5,0.1,1.1,0.3,1.6l0,0
								C30.5,76.6,58.2,48.9,59.2,47.9z M34.3,48.9c0.8-0.8,1.7-1.6,2.6-2.4c-1.8-1.3-3.9-2.3-6.1-2.6c-2.6-0.4-5.2,0.4-7.5,1.7
								c-3.5,2.1-6.4,5.1-8.5,8.5c-3,4.9-4.5,10.6-4.7,16.4c0,1.5,0,3.1,0.9,4.4c0.8,1.2,1.9,2,3.1,2.6c2.1,1,4.5,1.6,6.9,2
								c0.8,0.1,1.6,0.3,2.5,0.4c-0.4-2.7-0.1-5.6,0.3-8.3c0.1-0.4,0.1-0.7,0.2-1.1c0.5-2.9,1.2-5.7,2.2-8.5
								C28,57.1,30.7,52.6,34.3,48.9z"/>
						</g>
					</g>
				</g>
			</g>
		</g>
	</g>
</g>
</svg>
