<?xml version="1.0" encoding="utf-8"?>
<!-- Generator: Adobe Illustrator 21.1.0, SVG Export Plug-In . SVG Version: 6.00 Build 0)  -->
<svg version="1.1"
	 id="Layer_1" xmlns:cc="http://creativecommons.org/ns#" xmlns:dc="http://purl.org/dc/elements/1.1/" xmlns:inkscape="http://www.inkscape.org/namespaces/inkscape" xmlns:rdf="http://www.w3.org/1999/02/22-rdf-syntax-ns#" xmlns:sodipodi="http://sodipodi.sourceforge.net/DTD/sodipodi-0.dtd" xmlns:svg="http://www.w3.org/2000/svg"
	 xmlns="http://www.w3.org/2000/svg" xmlns:xlink="http://www.w3.org/1999/xlink" x="0px" y="0px" viewBox="0 0 100 100"
	 style="enable-background:new 0 0 100 100;" xml:space="preserve">
<g transform="translate(0,-952.36218)">
	<path d="M9.7,972.4c-1.5,0.2-2.7,1.5-2.7,3v54c0,1.6,1.4,3,3,3h81c1.6,0,3-1.4,3-3v-30c0-1.6-1.4-3-3-3h-9c-0.1,0-0.2,0-0.3,0
		c-1.5,0.2-2.7,1.5-2.7,3v27h-3v-21c0-1.6-1.4-3-3-3h-9c-0.1,0-0.2,0-0.3,0c-1.5,0.2-2.7,1.5-2.7,3v21h-3v-33c0-1.6-1.4-3-3-3h-9
		c-0.1,0-0.2,0-0.3,0c-1.5,0.2-2.7,1.5-2.7,3v33h-3v-21c0-1.6-1.4-3-3-3h-9c-0.1,0-0.2,0-0.3,0c-1.5,0.2-2.7,1.5-2.7,3v21h-3v-51
		c0-1.6-1.4-3-3-3h-9C9.9,972.4,9.8,972.4,9.7,972.4z M73,972.4c-7.2,0-13.6,3.7-17.5,9.3c-0.7,1-0.7,2.4,0,3.4
		c3.9,5.6,10.3,9.3,17.5,9.3s13.6-3.7,17.5-9.3c0.7-1,0.7-2.4,0-3.4C86.6,976.1,80.2,972.4,73,972.4z M13,978.4h3v48h-3V978.4z
		 M68.9,979c-1.2,1.1-1.9,2.7-1.9,4.4c0,1.7,0.7,3.3,1.9,4.4c-2.7-0.8-5-2.3-7-4.4C63.9,981.3,66.2,979.8,68.9,979z M77.1,979
		c2.6,0.8,5,2.3,6.9,4.4c-1.9,2.1-4.3,3.6-7,4.4c1.2-1.1,1.9-2.7,1.9-4.4C79,981.6,78.3,980.1,77.1,979z M49,996.4h3v30h-3V996.4z
		 M85,1002.4h3v24h-3V1002.4z M31,1008.4h3v18h-3V1008.4z M67,1008.4h3v18h-3V1008.4z"/>
</g>
</svg>
