<?xml version="1.0" encoding="utf-8"?>
<!-- Generator: Adobe Illustrator 21.1.0, SVG Export Plug-In . SVG Version: 6.00 Build 0)  -->
<svg version="1.1" id="Layer_1" xmlns="http://www.w3.org/2000/svg" xmlns:xlink="http://www.w3.org/1999/xlink" x="0px" y="0px"
	 viewBox="0 0 100 100" style="enable-background:new 0 0 100 100;" xml:space="preserve">
<style type="text/css">
	.st0{clip-path:url(#SVGID_2_);}
	.st1{clip-path:url(#SVGID_4_);}
	.st2{clip-path:url(#SVGID_6_);}
	.st3{clip-path:url(#SVGID_8_);}
	.st4{clip-path:url(#SVGID_10_);}
	.st5{clip-path:url(#SVGID_12_);}
	.st6{clip-path:url(#SVGID_14_);}
	.st7{clip-path:url(#SVGID_16_);}
	.st8{clip-path:url(#SVGID_18_);}
	.st9{clip-path:url(#SVGID_20_);}
	.st10{clip-path:url(#SVGID_22_);}
	.st11{clip-path:url(#SVGID_24_);}
	.st12{clip-path:url(#SVGID_26_);}
	.st13{clip-path:url(#SVGID_28_);}
	.st14{clip-path:url(#SVGID_30_);}
	.st15{clip-path:url(#SVGID_32_);}
	.st16{clip-path:url(#SVGID_34_);}
	.st17{clip-path:url(#SVGID_36_);}
	.st18{clip-path:url(#SVGID_38_);}
	.st19{clip-path:url(#SVGID_40_);}
	.st20{clip-path:url(#SVGID_42_);}
	.st21{clip-path:url(#SVGID_44_);}
	.st22{fill:none;}
</style>
<g>
	<g>
		<g>
			<g>
				<defs>
					<path id="SVGID_1_" d="M13.4,54.3l37.4-3.9L35.5,16C20.3,22.8,11.7,37.8,13.4,54.3"/>
				</defs>
				<clipPath id="SVGID_2_">
					<use xlink:href="#SVGID_1_"  style="overflow:visible;"/>
				</clipPath>
				<g class="st0">
					<path d="M39.7,68.6c-0.3,0-0.5-0.1-0.7-0.3L-1.2,28.1c-0.4-0.4-0.4-1,0-1.4c0.4-0.4,1-0.4,1.4,0l40.2,40.2c0.4,0.4,0.4,1,0,1.4
						C40.2,68.5,40,68.6,39.7,68.6z"/>
				</g>
			</g>
		</g>
	</g>
</g>
<g>
	<g>
		<g>
			<g>
				<defs>
					<path id="SVGID_3_" d="M13.4,54.3l37.4-3.9L35.5,16C20.3,22.8,11.7,37.8,13.4,54.3"/>
				</defs>
				<clipPath id="SVGID_4_">
					<use xlink:href="#SVGID_3_"  style="overflow:visible;"/>
				</clipPath>
				<g class="st1">
					<path d="M36.2,72.2c-0.3,0-0.5-0.1-0.7-0.3L-4.7,31.7c-0.4-0.4-0.4-1,0-1.4c0.4-0.4,1-0.4,1.4,0l40.2,40.2c0.4,0.4,0.4,1,0,1.4
						C36.7,72.1,36.5,72.2,36.2,72.2z"/>
				</g>
			</g>
		</g>
	</g>
</g>
<g>
	<g>
		<g>
			<g>
				<defs>
					<path id="SVGID_5_" d="M13.4,54.3l37.4-3.9L35.5,16C20.3,22.8,11.7,37.8,13.4,54.3"/>
				</defs>
				<clipPath id="SVGID_6_">
					<use xlink:href="#SVGID_5_"  style="overflow:visible;"/>
				</clipPath>
				<g class="st2">
					<path d="M36,50.8c-0.3,0-0.5-0.1-0.7-0.3L-4.9,10.3c-0.4-0.4-0.4-1,0-1.4c0.4-0.4,1-0.4,1.4,0l40.2,40.2c0.4,0.4,0.4,1,0,1.4
						C36.6,50.7,36.3,50.8,36,50.8z"/>
				</g>
			</g>
		</g>
	</g>
</g>
<g>
	<g>
		<g>
			<g>
				<defs>
					<path id="SVGID_7_" d="M13.4,54.3l37.4-3.9L35.5,16C20.3,22.8,11.7,37.8,13.4,54.3"/>
				</defs>
				<clipPath id="SVGID_8_">
					<use xlink:href="#SVGID_7_"  style="overflow:visible;"/>
				</clipPath>
				<g class="st3">
					<path d="M43.3,65.1c-0.3,0-0.5-0.1-0.7-0.3L2.4,24.6c-0.4-0.4-0.4-1,0-1.4s1-0.4,1.4,0L44,63.4c0.4,0.4,0.4,1,0,1.4
						C43.8,65,43.5,65.1,43.3,65.1z"/>
				</g>
			</g>
		</g>
	</g>
</g>
<g>
	<g>
		<g>
			<defs>
				<path id="SVGID_9_" d="M13.4,54.3l37.4-3.9L35.5,16C20.3,22.8,11.7,37.8,13.4,54.3"/>
			</defs>
			<clipPath id="SVGID_10_">
				<use xlink:href="#SVGID_9_"  style="overflow:visible;"/>
			</clipPath>
			<g class="st4">
				<path d="M39.8,40.4c-0.3,0-0.5-0.1-0.7-0.3L-1.1-0.1c-0.4-0.4-0.4-1,0-1.4s1-0.4,1.4,0l40.2,40.2c0.4,0.4,0.4,1,0,1.4
					C40.3,40.3,40.1,40.4,39.8,40.4z"/>
			</g>
		</g>
	</g>
</g>
<g>
	<g>
		<g>
			<g>
				<defs>
					<path id="SVGID_11_" d="M13.4,54.3l37.4-3.9L35.5,16C20.3,22.8,11.7,37.8,13.4,54.3"/>
				</defs>
				<clipPath id="SVGID_12_">
					<use xlink:href="#SVGID_11_"  style="overflow:visible;"/>
				</clipPath>
				<g class="st5">
					<path d="M36,43.6c-0.3,0-0.5-0.1-0.7-0.3L-5,3.1c-0.4-0.4-0.4-1,0-1.4s1-0.4,1.4,0l40.2,40.2c0.4,0.4,0.4,1,0,1.4
						C36.5,43.5,36.2,43.6,36,43.6z"/>
				</g>
			</g>
		</g>
	</g>
</g>
<g>
	<g>
		<g>
			<g>
				<defs>
					<path id="SVGID_13_" d="M13.4,54.3l37.4-3.9L35.5,16C20.3,22.8,11.7,37.8,13.4,54.3"/>
				</defs>
				<clipPath id="SVGID_14_">
					<use xlink:href="#SVGID_13_"  style="overflow:visible;"/>
				</clipPath>
				<g class="st6">
					<path d="M61,47.4c-0.3,0-0.5-0.1-0.7-0.3L20,6.9c-0.4-0.4-0.4-1,0-1.4s1-0.4,1.4,0l40.2,40.2c0.4,0.4,0.4,1,0,1.4
						C61.5,47.3,61.2,47.4,61,47.4z"/>
				</g>
			</g>
		</g>
	</g>
</g>
<g>
	<g>
		<g>
			<g>
				<defs>
					<path id="SVGID_15_" d="M13.4,54.3l37.4-3.9L35.5,16C20.3,22.8,11.7,37.8,13.4,54.3"/>
				</defs>
				<clipPath id="SVGID_16_">
					<use xlink:href="#SVGID_15_"  style="overflow:visible;"/>
				</clipPath>
				<g class="st7">
					<path d="M41.6,35.2c-0.3,0-0.5-0.1-0.7-0.3L0.7-5.3c-0.4-0.4-0.4-1,0-1.4c0.4-0.4,1-0.4,1.4,0l40.2,40.2c0.4,0.4,0.4,1,0,1.4
						C42.2,35.1,41.9,35.2,41.6,35.2z"/>
				</g>
			</g>
		</g>
	</g>
</g>
<g>
	<g>
		<g>
			<g>
				<defs>
					<path id="SVGID_17_" d="M13.4,54.3l37.4-3.9L35.5,16C20.3,22.8,11.7,37.8,13.4,54.3"/>
				</defs>
				<clipPath id="SVGID_18_">
					<use xlink:href="#SVGID_17_"  style="overflow:visible;"/>
				</clipPath>
				<g class="st8">
					<path d="M68,40.3c-0.3,0-0.5-0.1-0.7-0.3L27.1-0.2c-0.4-0.4-0.4-1,0-1.4s1-0.4,1.4,0l40.2,40.2c0.4,0.4,0.4,1,0,1.4
						C68.5,40.2,68.3,40.3,68,40.3z"/>
				</g>
			</g>
		</g>
	</g>
</g>
<g>
	<g>
		<g>
			<g>
				<defs>
					<path id="SVGID_19_" d="M13.4,54.3l37.4-3.9L35.5,16C20.3,22.8,11.7,37.8,13.4,54.3"/>
				</defs>
				<clipPath id="SVGID_20_">
					<use xlink:href="#SVGID_19_"  style="overflow:visible;"/>
				</clipPath>
				<g class="st9">
					<path d="M64.5,43.9c-0.3,0-0.5-0.1-0.7-0.3L23.6,3.4c-0.4-0.4-0.4-1,0-1.4s1-0.4,1.4,0l40.2,40.2c0.4,0.4,0.4,1,0,1.4
						C65,43.8,64.7,43.9,64.5,43.9z"/>
				</g>
			</g>
		</g>
	</g>
</g>
<g>
	<g>
		<g>
			<g>
				<g>
					<defs>
						<path id="SVGID_21_" d="M50.7,49.5l-37.3,3.9c0.1,1.4,0.3,2.5,0.6,3.9c4.3,20.3,24.2,33.3,44.5,29"/>
					</defs>
					<clipPath id="SVGID_22_">
						<use xlink:href="#SVGID_21_"  style="overflow:visible;"/>
					</clipPath>
					<g class="st10">
						<path d="M61.1,85.9c0-0.8,0.7-1.5,1.5-1.5l0,0c0.8,0,1.5,0.7,1.5,1.5l0,0c0,0.8-0.7,1.5-1.5,1.5l0,0
							C61.8,87.4,61.1,86.7,61.1,85.9z M55.2,85.9c0-0.8,0.7-1.5,1.5-1.5l0,0c0.8,0,1.5,0.7,1.5,1.5l0,0c0,0.8-0.7,1.5-1.5,1.5l0,0
							C55.9,87.4,55.2,86.7,55.2,85.9z M49.3,85.9c0-0.8,0.7-1.5,1.5-1.5l0,0c0.8,0,1.5,0.7,1.5,1.5l0,0c0,0.8-0.7,1.5-1.5,1.5l0,0
							C49.9,87.4,49.3,86.7,49.3,85.9z M43.3,85.9c0-0.8,0.7-1.5,1.5-1.5l0,0c0.8,0,1.5,0.7,1.5,1.5l0,0c0,0.8-0.7,1.5-1.5,1.5l0,0
							C44,87.4,43.3,86.7,43.3,85.9z M37.4,85.9c0-0.8,0.7-1.5,1.5-1.5l0,0c0.8,0,1.5,0.7,1.5,1.5l0,0c0,0.8-0.7,1.5-1.5,1.5l0,0
							C38.1,87.4,37.4,86.7,37.4,85.9z M31.5,85.9c0-0.8,0.7-1.5,1.5-1.5l0,0c0.8,0,1.5,0.7,1.5,1.5l0,0c0,0.8-0.7,1.5-1.5,1.5l0,0
							C32.1,87.4,31.5,86.7,31.5,85.9z M25.5,85.9c0-0.8,0.7-1.5,1.5-1.5l0,0c0.8,0,1.5,0.7,1.5,1.5l0,0c0,0.8-0.7,1.5-1.5,1.5l0,0
							C26.2,87.4,25.5,86.7,25.5,85.9z M19.6,85.9c0-0.8,0.7-1.5,1.5-1.5l0,0c0.8,0,1.5,0.7,1.5,1.5l0,0c0,0.8-0.7,1.5-1.5,1.5l0,0
							C20.3,87.4,19.6,86.7,19.6,85.9z M13.7,85.9c0-0.8,0.7-1.5,1.5-1.5l0,0c0.8,0,1.5,0.7,1.5,1.5l0,0c0,0.8-0.7,1.5-1.5,1.5l0,0
							C14.3,87.4,13.7,86.7,13.7,85.9z M7.7,85.9c0-0.8,0.7-1.5,1.5-1.5l0,0c0.8,0,1.5,0.7,1.5,1.5l0,0c0,0.8-0.7,1.5-1.5,1.5l0,0
							C8.4,87.4,7.7,86.7,7.7,85.9z"/>
					</g>
				</g>
			</g>
		</g>
	</g>
	<g>
		<g>
			<g>
				<g>
					<defs>
						<path id="SVGID_23_" d="M50.7,49.5l-37.3,3.9c0.1,1.4,0.3,2.5,0.6,3.9c4.3,20.3,24.2,33.3,44.5,29"/>
					</defs>
					<clipPath id="SVGID_24_">
						<use xlink:href="#SVGID_23_"  style="overflow:visible;"/>
					</clipPath>
					<g class="st11">
						<path d="M68.6,87.4H3.3c-0.8,0-1.5-0.7-1.5-1.5c0-0.8,0.7-1.5,1.5-1.5h65.2c0.8,0,1.5,0.7,1.5,1.5
							C70.1,86.7,69.4,87.4,68.6,87.4z"/>
					</g>
				</g>
			</g>
		</g>
	</g>
	<g>
		<g>
			<g>
				<g>
					<defs>
						<path id="SVGID_25_" d="M50.7,49.5l-37.3,3.9c0.1,1.4,0.3,2.5,0.6,3.9c4.3,20.3,24.2,33.3,44.5,29"/>
					</defs>
					<clipPath id="SVGID_26_">
						<use xlink:href="#SVGID_25_"  style="overflow:visible;"/>
					</clipPath>
					<g class="st12">
						<path d="M61.1,90.9c0-0.8,0.7-1.5,1.5-1.5l0,0c0.8,0,1.5,0.7,1.5,1.5l0,0c0,0.8-0.7,1.5-1.5,1.5l0,0
							C61.8,92.4,61.1,91.7,61.1,90.9z M55.2,90.9c0-0.8,0.7-1.5,1.5-1.5l0,0c0.8,0,1.5,0.7,1.5,1.5l0,0c0,0.8-0.7,1.5-1.5,1.5l0,0
							C55.9,92.4,55.2,91.7,55.2,90.9z M49.3,90.9c0-0.8,0.7-1.5,1.5-1.5l0,0c0.8,0,1.5,0.7,1.5,1.5l0,0c0,0.8-0.7,1.5-1.5,1.5l0,0
							C49.9,92.4,49.3,91.7,49.3,90.9z M43.3,90.9c0-0.8,0.7-1.5,1.5-1.5l0,0c0.8,0,1.5,0.7,1.5,1.5l0,0c0,0.8-0.7,1.5-1.5,1.5l0,0
							C44,92.4,43.3,91.7,43.3,90.9z M37.4,90.9c0-0.8,0.7-1.5,1.5-1.5l0,0c0.8,0,1.5,0.7,1.5,1.5l0,0c0,0.8-0.7,1.5-1.5,1.5l0,0
							C38.1,92.4,37.4,91.7,37.4,90.9z M31.5,90.9c0-0.8,0.7-1.5,1.5-1.5l0,0c0.8,0,1.5,0.7,1.5,1.5l0,0c0,0.8-0.7,1.5-1.5,1.5l0,0
							C32.1,92.4,31.5,91.7,31.5,90.9z M25.5,90.9c0-0.8,0.7-1.5,1.5-1.5l0,0c0.8,0,1.5,0.7,1.5,1.5l0,0c0,0.8-0.7,1.5-1.5,1.5l0,0
							C26.2,92.4,25.5,91.7,25.5,90.9z M19.6,90.9c0-0.8,0.7-1.5,1.5-1.5l0,0c0.8,0,1.5,0.7,1.5,1.5l0,0c0,0.8-0.7,1.5-1.5,1.5l0,0
							C20.3,92.4,19.6,91.7,19.6,90.9z M13.7,90.9c0-0.8,0.7-1.5,1.5-1.5l0,0c0.8,0,1.5,0.7,1.5,1.5l0,0c0,0.8-0.7,1.5-1.5,1.5l0,0
							C14.3,92.4,13.7,91.7,13.7,90.9z M7.7,90.9c0-0.8,0.7-1.5,1.5-1.5l0,0c0.8,0,1.5,0.7,1.5,1.5l0,0c0,0.8-0.7,1.5-1.5,1.5l0,0
							C8.4,92.4,7.7,91.7,7.7,90.9z"/>
					</g>
				</g>
			</g>
		</g>
	</g>
	<g>
		<g>
			<g>
				<g>
					<defs>
						<path id="SVGID_27_" d="M50.7,49.5l-37.3,3.9c0.1,1.4,0.3,2.5,0.6,3.9c4.3,20.3,24.2,33.3,44.5,29"/>
					</defs>
					<clipPath id="SVGID_28_">
						<use xlink:href="#SVGID_27_"  style="overflow:visible;"/>
					</clipPath>
					<g class="st13">
						<path d="M68.6,92.4H3.3c-0.8,0-1.5-0.7-1.5-1.5c0-0.8,0.7-1.5,1.5-1.5h65.2c0.8,0,1.5,0.7,1.5,1.5
							C70.1,91.7,69.4,92.4,68.6,92.4z"/>
					</g>
				</g>
			</g>
		</g>
	</g>
	<g>
		<g>
			<g>
				<g>
					<defs>
						<path id="SVGID_29_" d="M50.7,49.5l-37.3,3.9c0.1,1.4,0.3,2.5,0.6,3.9c4.3,20.3,24.2,33.3,44.5,29"/>
					</defs>
					<clipPath id="SVGID_30_">
						<use xlink:href="#SVGID_29_"  style="overflow:visible;"/>
					</clipPath>
					<g class="st14">
						<path d="M61.1,75.9c0-0.8,0.7-1.5,1.5-1.5l0,0c0.8,0,1.5,0.7,1.5,1.5l0,0c0,0.8-0.7,1.5-1.5,1.5l0,0
							C61.8,77.4,61.1,76.7,61.1,75.9z M55.2,75.9c0-0.8,0.7-1.5,1.5-1.5l0,0c0.8,0,1.5,0.7,1.5,1.5l0,0c0,0.8-0.7,1.5-1.5,1.5l0,0
							C55.9,77.4,55.2,76.7,55.2,75.9z M49.3,75.9c0-0.8,0.7-1.5,1.5-1.5l0,0c0.8,0,1.5,0.7,1.5,1.5l0,0c0,0.8-0.7,1.5-1.5,1.5l0,0
							C49.9,77.4,49.3,76.7,49.3,75.9z M43.3,75.9c0-0.8,0.7-1.5,1.5-1.5l0,0c0.8,0,1.5,0.7,1.5,1.5l0,0c0,0.8-0.7,1.5-1.5,1.5l0,0
							C44,77.4,43.3,76.7,43.3,75.9z M37.4,75.9c0-0.8,0.7-1.5,1.5-1.5l0,0c0.8,0,1.5,0.7,1.5,1.5l0,0c0,0.8-0.7,1.5-1.5,1.5l0,0
							C38.1,77.4,37.4,76.7,37.4,75.9z M31.5,75.9c0-0.8,0.7-1.5,1.5-1.5l0,0c0.8,0,1.5,0.7,1.5,1.5l0,0c0,0.8-0.7,1.5-1.5,1.5l0,0
							C32.1,77.4,31.5,76.7,31.5,75.9z M25.5,75.9c0-0.8,0.7-1.5,1.5-1.5l0,0c0.8,0,1.5,0.7,1.5,1.5l0,0c0,0.8-0.7,1.5-1.5,1.5l0,0
							C26.2,77.4,25.5,76.7,25.5,75.9z M19.6,75.9c0-0.8,0.7-1.5,1.5-1.5l0,0c0.8,0,1.5,0.7,1.5,1.5l0,0c0,0.8-0.7,1.5-1.5,1.5l0,0
							C20.3,77.4,19.6,76.7,19.6,75.9z M13.7,75.9c0-0.8,0.7-1.5,1.5-1.5l0,0c0.8,0,1.5,0.7,1.5,1.5l0,0c0,0.8-0.7,1.5-1.5,1.5l0,0
							C14.3,77.4,13.7,76.7,13.7,75.9z M7.7,75.9c0-0.8,0.7-1.5,1.5-1.5l0,0c0.8,0,1.5,0.7,1.5,1.5l0,0c0,0.8-0.7,1.5-1.5,1.5l0,0
							C8.4,77.4,7.7,76.7,7.7,75.9z"/>
					</g>
				</g>
			</g>
		</g>
	</g>
	<g>
		<g>
			<g>
				<g>
					<defs>
						<path id="SVGID_31_" d="M50.7,49.5l-37.3,3.9c0.1,1.4,0.3,2.5,0.6,3.9c4.3,20.3,24.2,33.3,44.5,29"/>
					</defs>
					<clipPath id="SVGID_32_">
						<use xlink:href="#SVGID_31_"  style="overflow:visible;"/>
					</clipPath>
					<g class="st15">
						<path d="M61.1,80.9c0-0.8,0.7-1.5,1.5-1.5l0,0c0.8,0,1.5,0.7,1.5,1.5l0,0c0,0.8-0.7,1.5-1.5,1.5l0,0
							C61.8,82.4,61.1,81.7,61.1,80.9z M55.2,80.9c0-0.8,0.7-1.5,1.5-1.5l0,0c0.8,0,1.5,0.7,1.5,1.5l0,0c0,0.8-0.7,1.5-1.5,1.5l0,0
							C55.9,82.4,55.2,81.7,55.2,80.9z M49.3,80.9c0-0.8,0.7-1.5,1.5-1.5l0,0c0.8,0,1.5,0.7,1.5,1.5l0,0c0,0.8-0.7,1.5-1.5,1.5l0,0
							C49.9,82.4,49.3,81.7,49.3,80.9z M43.3,80.9c0-0.8,0.7-1.5,1.5-1.5l0,0c0.8,0,1.5,0.7,1.5,1.5l0,0c0,0.8-0.7,1.5-1.5,1.5l0,0
							C44,82.4,43.3,81.7,43.3,80.9z M37.4,80.9c0-0.8,0.7-1.5,1.5-1.5l0,0c0.8,0,1.5,0.7,1.5,1.5l0,0c0,0.8-0.7,1.5-1.5,1.5l0,0
							C38.1,82.4,37.4,81.7,37.4,80.9z M31.5,80.9c0-0.8,0.7-1.5,1.5-1.5l0,0c0.8,0,1.5,0.7,1.5,1.5l0,0c0,0.8-0.7,1.5-1.5,1.5l0,0
							C32.1,82.4,31.5,81.7,31.5,80.9z M25.5,80.9c0-0.8,0.7-1.5,1.5-1.5l0,0c0.8,0,1.5,0.7,1.5,1.5l0,0c0,0.8-0.7,1.5-1.5,1.5l0,0
							C26.2,82.4,25.5,81.7,25.5,80.9z M19.6,80.9c0-0.8,0.7-1.5,1.5-1.5l0,0c0.8,0,1.5,0.7,1.5,1.5l0,0c0,0.8-0.7,1.5-1.5,1.5l0,0
							C20.3,82.4,19.6,81.7,19.6,80.9z M13.7,80.9c0-0.8,0.7-1.5,1.5-1.5l0,0c0.8,0,1.5,0.7,1.5,1.5l0,0c0,0.8-0.7,1.5-1.5,1.5l0,0
							C14.3,82.4,13.7,81.7,13.7,80.9z M7.7,80.9c0-0.8,0.7-1.5,1.5-1.5l0,0c0.8,0,1.5,0.7,1.5,1.5l0,0c0,0.8-0.7,1.5-1.5,1.5l0,0
							C8.4,82.4,7.7,81.7,7.7,80.9z"/>
					</g>
				</g>
			</g>
		</g>
	</g>
	<g>
		<g>
			<g>
				<g>
					<defs>
						<path id="SVGID_33_" d="M50.7,49.5l-37.3,3.9c0.1,1.4,0.3,2.5,0.6,3.9c4.3,20.3,24.2,33.3,44.5,29"/>
					</defs>
					<clipPath id="SVGID_34_">
						<use xlink:href="#SVGID_33_"  style="overflow:visible;"/>
					</clipPath>
					<g class="st16">
						<path d="M61.1,65.9c0-0.8,0.7-1.5,1.5-1.5l0,0c0.8,0,1.5,0.7,1.5,1.5l0,0c0,0.8-0.7,1.5-1.5,1.5l0,0
							C61.8,67.4,61.1,66.7,61.1,65.9z M55.2,65.9c0-0.8,0.7-1.5,1.5-1.5l0,0c0.8,0,1.5,0.7,1.5,1.5l0,0c0,0.8-0.7,1.5-1.5,1.5l0,0
							C55.9,67.4,55.2,66.7,55.2,65.9z M49.3,65.9c0-0.8,0.7-1.5,1.5-1.5l0,0c0.8,0,1.5,0.7,1.5,1.5l0,0c0,0.8-0.7,1.5-1.5,1.5l0,0
							C49.9,67.4,49.3,66.7,49.3,65.9z M43.3,65.9c0-0.8,0.7-1.5,1.5-1.5l0,0c0.8,0,1.5,0.7,1.5,1.5l0,0c0,0.8-0.7,1.5-1.5,1.5l0,0
							C44,67.4,43.3,66.7,43.3,65.9z M37.4,65.9c0-0.8,0.7-1.5,1.5-1.5l0,0c0.8,0,1.5,0.7,1.5,1.5l0,0c0,0.8-0.7,1.5-1.5,1.5l0,0
							C38.1,67.4,37.4,66.7,37.4,65.9z M31.5,65.9c0-0.8,0.7-1.5,1.5-1.5l0,0c0.8,0,1.5,0.7,1.5,1.5l0,0c0,0.8-0.7,1.5-1.5,1.5l0,0
							C32.1,67.4,31.5,66.7,31.5,65.9z M25.5,65.9c0-0.8,0.7-1.5,1.5-1.5l0,0c0.8,0,1.5,0.7,1.5,1.5l0,0c0,0.8-0.7,1.5-1.5,1.5l0,0
							C26.2,67.4,25.5,66.7,25.5,65.9z M19.6,65.9c0-0.8,0.7-1.5,1.5-1.5l0,0c0.8,0,1.5,0.7,1.5,1.5l0,0c0,0.8-0.7,1.5-1.5,1.5l0,0
							C20.3,67.4,19.6,66.7,19.6,65.9z M13.7,65.9c0-0.8,0.7-1.5,1.5-1.5l0,0c0.8,0,1.5,0.7,1.5,1.5l0,0c0,0.8-0.7,1.5-1.5,1.5l0,0
							C14.3,67.4,13.7,66.7,13.7,65.9z M7.7,65.9c0-0.8,0.7-1.5,1.5-1.5l0,0c0.8,0,1.5,0.7,1.5,1.5l0,0c0,0.8-0.7,1.5-1.5,1.5l0,0
							C8.4,67.4,7.7,66.7,7.7,65.9z"/>
					</g>
				</g>
			</g>
		</g>
	</g>
	<g>
		<g>
			<g>
				<g>
					<defs>
						<path id="SVGID_35_" d="M50.7,49.5l-37.3,3.9c0.1,1.4,0.3,2.5,0.6,3.9c4.3,20.3,24.2,33.3,44.5,29"/>
					</defs>
					<clipPath id="SVGID_36_">
						<use xlink:href="#SVGID_35_"  style="overflow:visible;"/>
					</clipPath>
					<g class="st17">
						<path d="M61.1,70.9c0-0.8,0.7-1.5,1.5-1.5l0,0c0.8,0,1.5,0.7,1.5,1.5l0,0c0,0.8-0.7,1.5-1.5,1.5l0,0
							C61.8,72.4,61.1,71.7,61.1,70.9z M55.2,70.9c0-0.8,0.7-1.5,1.5-1.5l0,0c0.8,0,1.5,0.7,1.5,1.5l0,0c0,0.8-0.7,1.5-1.5,1.5l0,0
							C55.9,72.4,55.2,71.7,55.2,70.9z M49.3,70.9c0-0.8,0.7-1.5,1.5-1.5l0,0c0.8,0,1.5,0.7,1.5,1.5l0,0c0,0.8-0.7,1.5-1.5,1.5l0,0
							C49.9,72.4,49.3,71.7,49.3,70.9z M43.3,70.9c0-0.8,0.7-1.5,1.5-1.5l0,0c0.8,0,1.5,0.7,1.5,1.5l0,0c0,0.8-0.7,1.5-1.5,1.5l0,0
							C44,72.4,43.3,71.7,43.3,70.9z M37.4,70.9c0-0.8,0.7-1.5,1.5-1.5l0,0c0.8,0,1.5,0.7,1.5,1.5l0,0c0,0.8-0.7,1.5-1.5,1.5l0,0
							C38.1,72.4,37.4,71.7,37.4,70.9z M31.5,70.9c0-0.8,0.7-1.5,1.5-1.5l0,0c0.8,0,1.5,0.7,1.5,1.5l0,0c0,0.8-0.7,1.5-1.5,1.5l0,0
							C32.1,72.4,31.5,71.7,31.5,70.9z M25.5,70.9c0-0.8,0.7-1.5,1.5-1.5l0,0c0.8,0,1.5,0.7,1.5,1.5l0,0c0,0.8-0.7,1.5-1.5,1.5l0,0
							C26.2,72.4,25.5,71.7,25.5,70.9z M19.6,70.9c0-0.8,0.7-1.5,1.5-1.5l0,0c0.8,0,1.5,0.7,1.5,1.5l0,0c0,0.8-0.7,1.5-1.5,1.5l0,0
							C20.3,72.4,19.6,71.7,19.6,70.9z M13.7,70.9c0-0.8,0.7-1.5,1.5-1.5l0,0c0.8,0,1.5,0.7,1.5,1.5l0,0c0,0.8-0.7,1.5-1.5,1.5l0,0
							C14.3,72.4,13.7,71.7,13.7,70.9z M7.7,70.9c0-0.8,0.7-1.5,1.5-1.5l0,0c0.8,0,1.5,0.7,1.5,1.5l0,0c0,0.8-0.7,1.5-1.5,1.5l0,0
							C8.4,72.4,7.7,71.7,7.7,70.9z"/>
					</g>
				</g>
			</g>
		</g>
	</g>
	<g>
		<g>
			<g>
				<g>
					<defs>
						<path id="SVGID_37_" d="M50.7,49.5l-37.3,3.9c0.1,1.4,0.3,2.5,0.6,3.9c4.3,20.3,24.2,33.3,44.5,29"/>
					</defs>
					<clipPath id="SVGID_38_">
						<use xlink:href="#SVGID_37_"  style="overflow:visible;"/>
					</clipPath>
					<g class="st18">
						<path d="M61.1,55.9c0-0.8,0.7-1.5,1.5-1.5l0,0c0.8,0,1.5,0.7,1.5,1.5l0,0c0,0.8-0.7,1.5-1.5,1.5l0,0
							C61.8,57.4,61.1,56.7,61.1,55.9z M55.2,55.9c0-0.8,0.7-1.5,1.5-1.5l0,0c0.8,0,1.5,0.7,1.5,1.5l0,0c0,0.8-0.7,1.5-1.5,1.5l0,0
							C55.9,57.4,55.2,56.7,55.2,55.9z M44.8,57.4L44.8,57.4 M38.9,57.4L38.9,57.4c-0.8,0-1.5-0.7-1.5-1.5 M31.5,55.9
							c0-0.8,0.7-1.5,1.5-1.5l0,0c0.8,0,1.5,0.7,1.5,1.5l0,0c0,0.8-0.7,1.5-1.5,1.5l0,0C32.1,57.4,31.5,56.7,31.5,55.9z M25.5,55.9
							c0-0.8,0.7-1.5,1.5-1.5l0,0c0.8,0,1.5,0.7,1.5,1.5l0,0c0,0.8-0.7,1.5-1.5,1.5l0,0C26.2,57.4,25.5,56.7,25.5,55.9z M19.6,55.9
							c0-0.8,0.7-1.5,1.5-1.5l0,0c0.8,0,1.5,0.7,1.5,1.5l0,0c0,0.8-0.7,1.5-1.5,1.5l0,0C20.3,57.4,19.6,56.7,19.6,55.9z M13.7,55.9
							c0-0.8,0.7-1.5,1.5-1.5l0,0c0.8,0,1.5,0.7,1.5,1.5l0,0c0,0.8-0.7,1.5-1.5,1.5l0,0C14.3,57.4,13.7,56.7,13.7,55.9z M7.7,55.9
							c0-0.8,0.7-1.5,1.5-1.5l0,0c0.8,0,1.5,0.7,1.5,1.5l0,0c0,0.8-0.7,1.5-1.5,1.5l0,0C8.4,57.4,7.7,56.7,7.7,55.9z"/>
					</g>
				</g>
			</g>
		</g>
	</g>
	<g>
		<g>
			<g>
				<g>
					<defs>
						<path id="SVGID_39_" d="M50.7,49.5l-37.3,3.9c0.1,1.4,0.3,2.5,0.6,3.9c4.3,20.3,24.2,33.3,44.5,29"/>
					</defs>
					<clipPath id="SVGID_40_">
						<use xlink:href="#SVGID_39_"  style="overflow:visible;"/>
					</clipPath>
					<g class="st19">
						<path d="M61.1,60.9c0-0.8,0.7-1.5,1.5-1.5l0,0c0.8,0,1.5,0.7,1.5,1.5l0,0c0,0.8-0.7,1.5-1.5,1.5l0,0
							C61.8,62.4,61.1,61.7,61.1,60.9z M55.2,60.9c0-0.8,0.7-1.5,1.5-1.5l0,0c0.8,0,1.5,0.7,1.5,1.5l0,0c0,0.8-0.7,1.5-1.5,1.5l0,0
							C55.9,62.4,55.2,61.7,55.2,60.9z M44.8,62.4L44.8,62.4c-0.8,0-1.5-0.7-1.5-1.5 M37.4,60.9c0-0.8,0.7-1.5,1.5-1.5l0,0
							c0.8,0,1.5,0.7,1.5,1.5l0,0c0,0.8-0.7,1.5-1.5,1.5l0,0C38.1,62.4,37.4,61.7,37.4,60.9z M31.5,60.9c0-0.8,0.7-1.5,1.5-1.5l0,0
							c0.8,0,1.5,0.7,1.5,1.5l0,0c0,0.8-0.7,1.5-1.5,1.5l0,0C32.1,62.4,31.5,61.7,31.5,60.9z M25.5,60.9c0-0.8,0.7-1.5,1.5-1.5l0,0
							c0.8,0,1.5,0.7,1.5,1.5l0,0c0,0.8-0.7,1.5-1.5,1.5l0,0C26.2,62.4,25.5,61.7,25.5,60.9z M19.6,60.9c0-0.8,0.7-1.5,1.5-1.5l0,0
							c0.8,0,1.5,0.7,1.5,1.5l0,0c0,0.8-0.7,1.5-1.5,1.5l0,0C20.3,62.4,19.6,61.7,19.6,60.9z M13.7,60.9c0-0.8,0.7-1.5,1.5-1.5l0,0
							c0.8,0,1.5,0.7,1.5,1.5l0,0c0,0.8-0.7,1.5-1.5,1.5l0,0C14.3,62.4,13.7,61.7,13.7,60.9z M7.7,60.9c0-0.8,0.7-1.5,1.5-1.5l0,0
							c0.8,0,1.5,0.7,1.5,1.5l0,0c0,0.8-0.7,1.5-1.5,1.5l0,0C8.4,62.4,7.7,61.7,7.7,60.9z"/>
					</g>
				</g>
			</g>
		</g>
	</g>
	<g>
		<g>
			<g>
				<g>
					<defs>
						<path id="SVGID_41_" d="M50.7,49.5l-37.3,3.9c0.1,1.4,0.3,2.5,0.6,3.9c4.3,20.3,24.2,33.3,44.5,29"/>
					</defs>
					<clipPath id="SVGID_42_">
						<use xlink:href="#SVGID_41_"  style="overflow:visible;"/>
					</clipPath>
					<g class="st20">
						<path d="M61.1,45.9c0-0.8,0.7-1.5,1.5-1.5l0,0c0.8,0,1.5,0.7,1.5,1.5l0,0c0,0.8-0.7,1.5-1.5,1.5l0,0
							C61.8,47.4,61.1,46.7,61.1,45.9z M55.2,45.9c0-0.8,0.7-1.5,1.5-1.5l0,0c0.8,0,1.5,0.7,1.5,1.5l0,0c0,0.8-0.7,1.5-1.5,1.5l0,0
							C55.9,47.4,55.2,46.7,55.2,45.9z M49.3,45.9c0-0.8,0.7-1.5,1.5-1.5l0,0c0.8,0,1.5,0.7,1.5,1.5l0,0c0,0.8-0.7,1.5-1.5,1.5l0,0
							C49.9,47.4,49.3,46.7,49.3,45.9z M43.3,45.9c0-0.8,0.7-1.5,1.5-1.5l0,0c0.8,0,1.5,0.7,1.5,1.5l0,0c0,0.8-0.7,1.5-1.5,1.5l0,0
							C44,47.4,43.3,46.7,43.3,45.9z M37.4,45.9c0-0.8,0.7-1.5,1.5-1.5l0,0c0.8,0,1.5,0.7,1.5,1.5l0,0c0,0.8-0.7,1.5-1.5,1.5l0,0
							C38.1,47.4,37.4,46.7,37.4,45.9z M31.5,45.9c0-0.8,0.7-1.5,1.5-1.5l0,0c0.8,0,1.5,0.7,1.5,1.5l0,0c0,0.8-0.7,1.5-1.5,1.5l0,0
							C32.1,47.4,31.5,46.7,31.5,45.9z M25.5,45.9c0-0.8,0.7-1.5,1.5-1.5l0,0c0.8,0,1.5,0.7,1.5,1.5l0,0c0,0.8-0.7,1.5-1.5,1.5l0,0
							C26.2,47.4,25.5,46.7,25.5,45.9z M19.6,45.9c0-0.8,0.7-1.5,1.5-1.5l0,0c0.8,0,1.5,0.7,1.5,1.5l0,0c0,0.8-0.7,1.5-1.5,1.5l0,0
							C20.3,47.4,19.6,46.7,19.6,45.9z M13.7,45.9c0-0.8,0.7-1.5,1.5-1.5l0,0c0.8,0,1.5,0.7,1.5,1.5l0,0c0,0.8-0.7,1.5-1.5,1.5l0,0
							C14.3,47.4,13.7,46.7,13.7,45.9z M7.7,45.9c0-0.8,0.7-1.5,1.5-1.5l0,0c0.8,0,1.5,0.7,1.5,1.5l0,0c0,0.8-0.7,1.5-1.5,1.5l0,0
							C8.4,47.4,7.7,46.7,7.7,45.9z"/>
					</g>
				</g>
			</g>
		</g>
	</g>
	<g>
		<g>
			<g>
				<g>
					<defs>
						<path id="SVGID_43_" d="M50.7,49.5l-37.3,3.9c0.1,1.4,0.3,2.5,0.6,3.9c4.3,20.3,24.2,33.3,44.5,29"/>
					</defs>
					<clipPath id="SVGID_44_">
						<use xlink:href="#SVGID_43_"  style="overflow:visible;"/>
					</clipPath>
					<g class="st21">
						<path d="M68.6,47.4H3.3c-0.8,0-1.5-0.7-1.5-1.5c0-0.8,0.7-1.5,1.5-1.5h65.2c0.8,0,1.5,0.7,1.5,1.5
							C70.1,46.7,69.4,47.4,68.6,47.4z"/>
					</g>
				</g>
			</g>
		</g>
	</g>
</g>
<path class="st22" d="M31.5,80.9"/>
<path d="M51.1,9.8c-0.1,0-0.2,0-0.3,0c-0.2,0-0.3,0-0.5,0c-0.1,0-0.3,0-0.4,0c-0.1,0-0.2,0-0.3,0C44,10,39,11.1,33.8,13.3
	c-0.3,0.1-0.6,0.3-0.9,0.6C17.4,21.5,8.6,37.3,10.4,54.6c0,0.3,0.1,0.5,0.2,0.8c0.1,0.9,0.3,1.7,0.5,2.6
	C15,76.6,31.7,90.2,50.6,90.2c2.8,0,5.7-0.3,8.5-0.9c0.3-0.1,0.6-0.2,0.9-0.4C78.1,84.4,90.5,68.6,90.5,50
	C90.5,28.3,73,10.5,51.1,9.8z M46.9,16v18.2l-7.4-16.6C41.9,16.8,44.4,16.3,46.9,16z M60.7,82.5l-3.8-17.9c-1.8,0.8-3.8,1.3-5.8,1.4
	v0c-0.2,0-0.5,0-0.7,0c0,0,0,0-0.1,0l3.9,18c-1.2,0.1-2.3,0.2-3.5,0.2c-16.1,0-30.2-11.4-33.6-27.2L35.1,55c-0.5-1.6-0.8-3.3-0.8-5
	c0-0.6,0-1.2,0.1-1.8l-18.2,1.9c0-12.5,6.5-23.7,17.4-29.8l7.6,16.5C43.8,35,47,34,50.4,34c1.2,0,2.4,0.1,3.5,0.4V16
	C71.1,18,84.5,32.5,84.5,50C84.5,65.1,74.9,77.9,60.7,82.5z"/>
<g>
	<path d="M50.4,69c-10.5,0-19-8.5-19-19c0-10.5,8.5-19,19-19c10.5,0,19,8.5,19,19C69.4,60.5,60.9,69,50.4,69z M50.4,37
		c-7.2,0-13,5.8-13,13c0,7.2,5.8,13,13,13s13-5.8,13-13C63.4,42.8,57.6,37,50.4,37z"/>
</g>
</svg>
