<?xml version="1.0" encoding="utf-8"?>
<!-- Generator: Adobe Illustrator 21.1.0, SVG Export Plug-In . SVG Version: 6.00 Build 0)  -->
<svg version="1.1" id="Layer_1" xmlns="http://www.w3.org/2000/svg" xmlns:xlink="http://www.w3.org/1999/xlink" x="0px" y="0px"
	 viewBox="0 0 100 100" style="enable-background:new 0 0 100 100;" xml:space="preserve">
<title>Artboard 39</title>
<path d="M89.2,39.9c-3.9,0-7.3,2.6-8.4,6.3h-12c-1.4,0-2.5,1.1-2.5,2.5s1.1,2.5,2.5,2.5h12c1.4,4.7,6.3,7.3,10.9,5.9
	c4.7-1.4,7.3-6.3,5.9-10.9C96.5,42.5,93.1,39.9,89.2,39.9z M89.2,52.5c-2.1,0-3.8-1.7-3.8-3.8c0-2.1,1.7-3.8,3.8-3.8
	c2.1,0,3.8,1.7,3.8,3.8C93,50.8,91.3,52.5,89.2,52.5L89.2,52.5z"/>
<path d="M66.8,33.7c0.8,1.1,2.4,1.3,3.5,0.5l5.3-4.1c1.5,1.1,3.3,1.7,5.2,1.7c4.9,0,8.8-3.9,8.8-8.8s-3.9-8.8-8.8-8.8
	c-4.9,0-8.8,3.9-8.8,8.8c0,1.1,0.2,2.1,0.6,3.1l-5.3,4.1C66.1,31,65.9,32.6,66.8,33.7C66.8,33.7,66.8,33.7,66.8,33.7z M78.8,19.7
	c0.6-0.4,1.3-0.6,2-0.6c0.3,0,0.6,0,0.9,0.1c2,0.5,3.3,2.5,2.8,4.6s-2.5,3.3-4.6,2.8c-2-0.5-3.3-2.5-2.8-4.6
	C77.3,21.1,77.9,20.2,78.8,19.7L78.8,19.7z"/>
<path d="M72.2,76.5c1.1,4.7,5.9,7.6,10.6,6.5s7.6-5.9,6.5-10.6s-5.9-7.6-10.6-6.5c-1.1,0.3-2.2,0.8-3.1,1.4l-5.3-4.1
	c-1.1-0.8-2.7-0.6-3.5,0.5c-0.8,1.1-0.6,2.7,0.5,3.5l5.3,4.1C72,73,71.8,74.8,72.2,76.5z M77.5,72.5c1.1-1.8,3.4-2.3,5.2-1.3
	s2.3,3.4,1.3,5.2c-0.5,0.9-1.4,1.5-2.3,1.7c-2,0.5-4.1-0.8-4.6-2.8C76.8,74.4,77,73.4,77.5,72.5z"/>
<path d="M10.8,57.5c3.9,0,7.3-2.6,8.4-6.3h12c1.4,0,2.5-1.1,2.5-2.5s-1.1-2.5-2.5-2.5h-12c-1.4-4.7-6.3-7.3-10.9-5.9
	C3.6,41.7,1,46.6,2.4,51.2C3.5,54.9,6.9,57.5,10.8,57.5z M10.8,44.9c2.1,0,3.8,1.7,3.8,3.8s-1.7,3.8-3.8,3.8c-2.1,0-3.8-1.7-3.8-3.8
	C7,46.6,8.7,44.9,10.8,44.9z"/>
<path d="M33.2,63.7c-0.8-1.1-2.4-1.3-3.5-0.5l-5.3,4.1c-3.9-2.9-9.4-2.1-12.3,1.8s-2.1,9.4,1.8,12.3c3.9,2.9,9.4,2.1,12.3-1.8
	c1.8-2.4,2.2-5.5,1.2-8.3l5.3-4.1C33.8,66.4,34.1,64.9,33.2,63.7C33.3,63.7,33.2,63.7,33.2,63.7z M22.9,75.3c-0.5,2-2.5,3.3-4.6,2.8
	s-3.3-2.5-2.8-4.6c0.5-2,2.5-3.3,4.6-2.8c1,0.2,1.8,0.8,2.3,1.7C23,73.3,23.2,74.4,22.9,75.3z"/>
<path d="M23.8,15.5c-4.1-2.5-9.6-1.2-12.1,2.9s-1.2,9.6,2.9,12.1c1.4,0.8,2.9,1.3,4.5,1.3c1.9,0,3.7-0.6,5.2-1.7l5.3,4.1
	c1.1,0.8,2.7,0.6,3.5-0.5c0.8-1.1,0.6-2.7-0.5-3.5l0,0l-5.3-4.1C28.9,22.2,27.4,17.7,23.8,15.5z M17.3,26.2
	c-1.8-1.1-2.4-3.4-1.3-5.2c1.1-1.8,3.4-2.4,5.2-1.3c1.8,1.1,2.4,3.4,1.3,5.2C21.4,26.7,19,27.3,17.3,26.2z"/>
<path d="M50,97c0.9,0,1.7-0.4,2.1-1.2l8.9-14.4c0.3-0.4,0.4-0.9,0.4-1.4V8c0-0.9-0.5-1.7-1.2-2.2c-6.3-3.7-14.1-3.7-20.4,0
	C39,6.3,38.6,7.1,38.6,8v72c0,0.5,0.1,0.9,0.4,1.3l8.9,14.4C48.3,96.5,49.1,97,50,97z M50,89.8l-5.6-9c3.6-1.5,7.6-1.5,11.1,0
	L50,89.8z M43.6,21c4-2.1,8.8-2.1,12.9,0v54.7c-4.2-1.5-8.7-1.5-12.9,0V21z M56.4,9.5v6.1c-4.2-1.5-8.7-1.5-12.9,0V9.5
	C47.6,7.5,52.4,7.5,56.4,9.5z"/>
</svg>
