<?xml version="1.0" encoding="utf-8"?>
<!-- Generator: Adobe Illustrator 21.1.0, SVG Export Plug-In . SVG Version: 6.00 Build 0)  -->
<svg version="1.1" id="Layer_1" xmlns="http://www.w3.org/2000/svg" xmlns:xlink="http://www.w3.org/1999/xlink" x="0px" y="0px"
	 viewBox="0 0 64 64" style="enable-background:new 0 0 64 80;" xml:space="preserve">
<path d="M58.1,10.9C57.6,10.3,56.8,10,56,10H46v2h10c0.3,0,0.5,0.1,0.7,0.3c0.2,0.2,0.3,0.4,0.3,0.7v33H7V13c0-0.3,0.1-0.5,0.3-0.7
	S7.7,12,8,12h10v-2H8c-0.8,0-1.6,0.3-2.1,0.9C5.3,11.4,5,12.2,5,13v33v2v5c0,0.8,0.3,1.6,0.9,2.1S7.2,56,8,56h16.8l-0.7,5H23
	c-0.8,0-1.6,0.3-2.1,0.9S20,63.2,20,64h2c0-0.3,0.1-0.5,0.3-0.7c0.2-0.2,0.4-0.3,0.7-0.3h0.8h16.3H41c0.3,0,0.5,0.1,0.7,0.3
	S42,63.7,42,64h2c0-0.8-0.3-1.6-0.9-2.1S41.8,61,41,61h-1.1l-0.7-5H56c0.8,0,1.6-0.3,2.1-0.9S59,53.8,59,53v-5v-2V13
	C59,12.2,58.7,11.4,58.1,10.9z M37.8,61H26.2l0.7-5h10.3L37.8,61z M57,53c0,0.3-0.1,0.5-0.3,0.7S56.3,54,56,54H38.9H25.1H8
	c-0.3,0-0.5-0.1-0.7-0.3C7.1,53.5,7,53.3,7,53v-5h50V53z M35,52h-6v-2h6V52z M9,14v30h46V14H44V0H34v14h-4V9.7L25,1l-5,8.8V14H9z
	 M11,16h9v26h-9V16z M24,15.4V42h-2V12.9L24,15.4z M28,42h-2V15.4l2-2.5V42z M53,16v26h-9V16H53z M42,2v40h-6v-2h2v-2h-2v-2h2v-2h-2
	v-2h2v-2h-2v-2h2v-2h-2v-2h2v-2h-2v-2h2v-2h-2v-2h2v-2h-2v-2h2v-2h-2V2H42z M34,16v26h-4V16H34z M27.8,9.9L25,13.4l-2.8-3.5L25,5
	L27.8,9.9z M40,7h-2V5h2V7z"/>
</svg>
