<svg xmlns="http://www.w3.org/2000/svg" xmlns:xlink="http://www.w3.org/1999/xlink" version="1.1" x="0px" y="0px" viewBox="0 0 100 100" enable-background="new 0 0 100 100" xml:space="preserve"><g><g><g><g><g><path d="M19.044,49.467l8.541,15.156l-2.752-19.568l-5.016,2.412C19.12,47.807,18.782,48.676,19.044,49.467z M31.94,70.225       c0.094,0.695,0.51,1.281,1.057,1.602c0.357,0.205,0.771,0.283,1.188,0.205l4.26-0.713l6.77-1.15l34.615-5.846       c1.072-0.189,1.828-1.301,1.658-2.488L77.603,34.27c-0.15-1.057-0.979-1.848-1.939-1.848c-0.115,0-0.209,0.018-0.322,0.039       L64.2,34.346l-1.887,0.32l-1.867,0.32l-22.605,3.809l-6.768,1.148l-1.375,0.248c-0.51,0.074-0.982,0.375-1.283,0.865       c-0.057,0.076-0.113,0.15-0.152,0.246c-0.205,0.412-0.281,0.885-0.205,1.355l0.111,0.793L31.94,70.225z M29.169,36.362       l7.693-1.299l17.91-8.6c0.623-0.301,1.301-0.471,1.998-0.471c1.924,0,3.676,1.227,4.506,3.129l0.924,1.662l12.613-2.152       c3.016-0.508,5.826,1.832,6.26,5.053l3.883,27.566c0.473,3.279-1.582,6.371-4.58,6.881l-45.645,7.73       c-0.283,0.057-0.568,0.074-0.85,0.074c-0.412,0-0.83-0.055-1.207-0.15c-0.055,0-0.111,0-0.168,0       c-1.924,0-3.676-1.225-4.506-3.131L15.839,51.106c-1.094-2.752,0.059-5.977,2.564-7.182l6.24-3       c0.17-0.754,0.49-1.506,0.924-2.146C26.435,37.456,27.718,36.61,29.169,36.362z M58.091,30.819       c-0.303-0.791-1.188-1.186-1.922-0.826l-5.771,2.787l8.031-1.355L58.091,30.819z"></path><polygon points="73.286,50.448 71.399,50.749 69.515,51.051 63.653,51.995 63.407,50.069 68.497,49.258 70.401,48.958        72.288,48.655 75.681,48.108 75.944,50.012      "></polygon><polygon points="71.079,46.526 69.194,46.827 67.31,47.129 63.104,47.807 62.841,45.885 66.29,45.338 68.177,45.036        70.062,44.733 75.134,43.924 75.38,45.829      "></polygon><polygon points="68.534,42.018 66.649,42.338 64.765,42.622 32.034,47.903 31.509,44.073 62.747,39.059 64.632,38.756        66.517,38.456 75.21,37.042 75.739,40.87      "></polygon><polygon points="70.271,53.239 72.081,52.954 73.833,52.67 76.247,52.276 76.491,54.2 73.552,54.67 71.399,55.008        66.329,55.821 64.218,56.159 63.974,54.254      "></polygon><polygon points="66.161,60.118 64.765,60.344 64.558,58.78 65.649,58.252 71.796,57.252 76.794,56.459 77.056,58.364      "></polygon><polygon points="65.649,58.252 64.558,58.78 64.519,58.422      "></polygon><polygon points="61.937,54.592 62.181,56.499 49.907,58.479 49.663,56.555      "></polygon><polygon points="61.372,50.411 61.616,52.333 49.343,54.293 49.099,52.387      "></polygon><polygon points="48.532,48.206 60.825,46.243 61.069,48.145 48.796,50.108      "></polygon><polygon points="59.522,61.192 52.942,62.249 50.454,62.645 50.21,60.741 59.032,59.327 62.483,58.78 62.616,59.704        62.747,60.684      "></polygon><polygon points="46.364,48.846 48.099,63.305 34.976,65.19 33.241,50.731      "></polygon></g></g></g></g></g></svg>