<?xml version="1.0" encoding="utf-8"?>
<!-- Generator: Adobe Illustrator 21.1.0, SVG Export Plug-In . SVG Version: 6.00 Build 0)  -->
<svg version="1.1" id="Layer_1" xmlns="http://www.w3.org/2000/svg" xmlns:xlink="http://www.w3.org/1999/xlink" x="0px" y="0px"
	 viewBox="0 0 150 150" style="enable-background:new 0 0 150 150;" xml:space="preserve">
<g>
	<path d="M104.9,100.5l-10.2-10c4.2-4.7,6.2-10.6,6.2-16.5s-2.1-11.8-6.2-16.5L105,47.4c-0.5-0.4-1-0.7-1.5-1.2s-1-1.1-1.4-1.6
		L91.8,54.7C87,50.6,81,48.6,75,48.6s-12,2-16.8,6.1L47.6,44.3c-0.4,0.6-0.9,1.1-1.4,1.6c-0.5,0.4-0.9,0.8-1.5,1.2l10.5,10.3
		C51.1,62.1,49,68,49,73.9c0,5.9,2.1,11.7,6.2,16.5l-9.7,9.5c0.2,0.2,0.4,0.3,0.6,0.5c0.8,0.8,1.4,1.6,1.9,2.6l10-9.8
		c5,4.1,11,6.2,17,6.2s12-2,16.8-6.1l10.3,10.1c0.4-0.6,0.8-1.1,1.4-1.6C103.9,101.3,104.4,100.9,104.9,100.5z M90.5,89.1
		c-4.1,4.1-9.7,6.3-15.5,6.3c-5.9,0-11.4-2.2-15.5-6.3c-4.1-4-6.4-9.4-6.4-15.1s2.3-11.1,6.4-15.1c4.1-4.1,9.7-6.3,15.5-6.3
		c5.9,0,11.4,2.2,15.5,6.3c4.1,4,6.4,9.4,6.4,15.1S94.6,85,90.5,89.1z"/>
	<path d="M90.6,21.3H59.4v22.4h31.2C90.6,43.7,90.6,21.3,90.6,21.3z M83.3,25.3L75,32.8l-8.3-7.4h16.6V25.3z M86.6,39.8H63.4v-12
		L75,38.1l11.6-10.3V39.8z"/>
	<path d="M59.4,128.7h31.2v-24.4H59.4V128.7z M63.4,108.3h23.2v16.4H63.4V108.3z"/>
	<polygon points="70.9,121.1 79.1,116.5 70.9,111.8 	"/>
	<path d="M28.3,81.8h15.9V61.3H13v20.5h4.8v10.9L28.3,81.8z M17,77.8V65.3h23.2v12.5H26.6l-4.8,5v-5H17z"/>
	<path d="M105.8,61.8v24.4H137V61.8H105.8z M133,82.2h-23.2V65.8H133V82.2z"/>
	<path d="M117.8,79.5c0.6,0.3,1.3,0.4,2,0.4h5.9c0.6,0,1.1-0.5,1.1-1c0,0,1.1-4.9,1.1-5.2c0-0.4-0.2-0.8-0.6-1l0,0
		c-0.2-0.1-0.4-0.1-0.5-0.1l0,0h-4.3l0.1-0.6c0.2-0.9,0.3-1.9,0.2-2.9V69c0-0.4-0.2-0.8-0.5-1.1l0,0c-0.2-0.2-0.5-0.3-0.7-0.3
		c-0.1,0-0.1,0-0.2,0s-0.2,0.1-0.3,0.1l-0.4,0.2c0,0,0,0.6,0,1.1c0,0.6-0.1,1.2-0.3,1.7c-0.2,0.5-0.6,1-1,1.5l-1.6,1.5v-1h-2.9v7.8
		h2.9C117.8,80.5,117.8,79.5,117.8,79.5z"/>
	<path d="M23,71.5c0-0.5-0.3-1-0.6-1.2c-0.3-0.2-0.6-0.3-1-0.3c-0.9,0-1.6,0.7-1.6,1.6s0.7,1.6,1.6,1.6c0.4,0,0.7-0.1,1-0.3
		C22.8,72.5,23,72,23,71.5z"/>
	<path d="M28.6,73.1c0.7,0,1.4-0.5,1.5-1.2c0-0.1,0.1-0.3,0.1-0.4c0-0.9-0.7-1.6-1.6-1.6S27,70.6,27,71.5S27.7,73.1,28.6,73.1z"/>
	<path d="M34.2,71.5c0,0.1,0,0.3,0.1,0.4c0.1,0.4,0.3,0.7,0.6,0.9c0.3,0.2,0.6,0.3,1,0.3c0.7,0,1.4-0.5,1.5-1.2
		c0-0.1,0.1-0.3,0.1-0.4c0-0.9-0.7-1.6-1.6-1.6c-0.4,0-0.7,0.1-1,0.3C34.4,70.6,34.2,71,34.2,71.5z"/>
	<path d="M82.1,61.3l-21,20.2l-2.3,0.9c-0.2,0.1-0.2,0.3-0.2,0.4l2.2,3.8c0,0.1,0.2,0.1,0.3,0.1s0.1,0,0.2-0.1l2-1.6l6.1-1.7
		c0.7,2.4,2.9,4,5.3,4c0.5,0,1-0.1,1.5-0.2l1.8-0.5c1.4-0.4,2.6-1.3,3.3-2.6c0.7-1.3,0.9-2.8,0.5-4.2l9.6-2.7L82.1,61.3z M77.8,82
		c-0.2,0.4-0.5,0.6-0.9,0.7l-1.8,0.5c-0.8,0.2-1.7-0.2-1.9-1l4.8-1.3C78,81.3,77.9,81.7,77.8,82z"/>
	<g>
		<path d="M45.5,38.3c0,1.8-0.7,3.5-2,4.8s-3.1,2-4.9,2c-1.8,0-3.5-0.7-4.9-2c-1.3-1.3-2-3-2-4.8s0.7-3.5,2-4.8
			c2.7-2.6,7.1-2.6,9.8,0C44.7,34.7,45.5,36.4,45.5,38.3z"/>
		<path d="M45.5,108.2c0,1.8-0.7,3.5-2,4.8s-3.1,2-4.9,2c-1.8,0-3.5-0.7-4.9-2c-1.3-1.3-2-3-2-4.8s0.7-3.5,2-4.8
			c2.7-2.6,7.1-2.6,9.8,0C44.7,104.6,45.5,106.3,45.5,108.2z"/>
		<path d="M118.1,109.4c0,1.8-0.7,3.5-2,4.8s-3.1,2-4.9,2s-3.5-0.7-4.9-2c-1.3-1.3-2-3-2-4.8s0.7-3.5,2-4.8c2.7-2.6,7.1-2.6,9.8,0
			C117.3,105.9,118.1,107.6,118.1,109.4z"/>
		<path d="M118.1,38.5c0,1.8-0.7,3.5-2,4.8s-3.1,2-4.9,2s-3.5-0.7-4.9-2c-1.3-1.3-2-3-2-4.8s0.7-3.5,2-4.8c2.7-2.6,7.1-2.6,9.8,0
			C117.3,35,118.1,36.7,118.1,38.5z"/>
	</g>
</g>
</svg>
