<?xml version="1.0" encoding="utf-8"?>
<!-- Generator: Adobe Illustrator 21.1.0, SVG Export Plug-In . SVG Version: 6.00 Build 0)  -->
<svg version="1.1"
	 id="Layer_1" xmlns:cc="http://creativecommons.org/ns#" xmlns:dc="http://purl.org/dc/elements/1.1/" xmlns:inkscape="http://www.inkscape.org/namespaces/inkscape" xmlns:rdf="http://www.w3.org/1999/02/22-rdf-syntax-ns#" xmlns:sodipodi="http://sodipodi.sourceforge.net/DTD/sodipodi-0.dtd" xmlns:svg="http://www.w3.org/2000/svg"
	 xmlns="http://www.w3.org/2000/svg" xmlns:xlink="http://www.w3.org/1999/xlink" x="0px" y="0px" viewBox="0 0 1000 1000"
	 style="enable-background:new 0 0 1000 1000;" xml:space="preserve">
<style type="text/css">
	.st0{fill:none;stroke:#000000;stroke-width:12.8797;stroke-linecap:round;stroke-linejoin:round;}
	.st1{fill:none;stroke:#000000;stroke-width:8.0926;stroke-linecap:round;stroke-linejoin:round;}
	.st2{stroke:#000000;stroke-width:4.5585;stroke-linecap:round;stroke-linejoin:round;}
	.st3{stroke:#000000;stroke-width:1.156;stroke-linecap:round;stroke-linejoin:round;}
	.st4{stroke:#000000;stroke-width:1.3555;stroke-linecap:round;stroke-linejoin:round;}
	.st5{fill:none;stroke:#000000;stroke-width:6.4398;stroke-linecap:round;stroke-linejoin:round;}
	.st6{stroke:#000000;stroke-width:2.4752;stroke-linecap:round;stroke-linejoin:round;}
	.st7{stroke:#000000;stroke-width:0.5105;}
</style>
<g transform="translate(0,-52.362161)">
	<path class="st0" d="M41.1,653.6l211.1,14.3l13.6,167.9L59.7,810.9L41.1,653.6z"/>
	<path class="st0" d="M276.7,785.5l100.5,11.9l-94.1,37.5"/>
	<path d="M372.2,313.2c-16.8-0.4-38.3,13.9-47.6,39.2c-29.8,80.6-8,147.8,15.2,215c-63.1-3.8-114-35.1-157.5-84.7
		c-35.8-11.9-46.8,38.3-14.9,70.6c51.1,51.9,109.2,66.2,168.8,74c-23.6,29-49.4,51.3-63.7,57.3c-10-0.2-3.6,62.7,4.9,59.3
		c24.1-8.5,63.8-39.3,100-74.7v93.3h214.8v-74.7c30.6,31.8,67.1,58.2,119.2,70.8c44.1,10.7,81.6-24.5,52.9-49.1
		c-60.6-11-110.8-35.7-146.2-81.4c61.4-7.7,121.5-21.2,174.1-74.6c31.8-32.3,20.9-82.6-14.9-70.6c-43.4,49.6-94.3,80.9-157.5,84.7
		c23.2-67.2,45-134.4,15.2-215c-9.3-25.3-30.8-39.6-47.6-39.2c-11.5,0.3-20.9,7.4-22.7,22.7c30.4,69.5,34.6,137.6-2.9,204.9
		c-43.5-22.4-122.5-20.9-161.4,4.3c-40.2-68.8-36.4-138.3-5.4-209.3C393.1,320.6,383.7,313.4,372.2,313.2L372.2,313.2z"/>
	<path d="M538.8,460.4c0,29.8-24.2,54-54,54l0,0c-29.8,0-54-24.2-54-54l0,0c0-29.8,24.2-54,54-54l0,0
		C514.6,406.4,538.8,430.6,538.8,460.4L538.8,460.4z"/>
	<path class="st1" d="M568.3,269.4c0,48.6-39.4,87.9-87.9,87.9l0,0c-48.6,0-87.9-39.4-87.9-87.9s39.4-87.9,87.9-87.9
		C528.9,181.5,568.3,220.8,568.3,269.4L568.3,269.4z"/>
	<path id="a" class="st2" d="M480.3,196.2c1,0,1.7,1.1,1.7,2.5v3.5c0,1.4-0.8,2.5-1.7,2.5s-1.7-1.1-1.7-2.5v-3.5
		C478.6,197.3,479.4,196.2,480.3,196.2z"/>
	<g transform="matrix(0.8660254,0.5,-0.5,0.8660254,199.05205,-204.08021)">
		<path id="a_1_" class="st2" d="M516.9,206c0.8,0.5,0.9,1.8,0.2,3l-1.8,3.1c-0.7,1.2-1.9,1.8-2.7,1.3c-0.8-0.5-0.9-1.8-0.2-3
			l1.8-3.1C514.9,206.1,516.1,205.5,516.9,206z"/>
	</g>
	<g transform="matrix(0.5,0.8660254,-0.8660254,0.5,473.47627,-281.29286)">
		<path id="a_2_" class="st2" d="M543.7,232.8c0.5,0.8-0.1,2-1.3,2.7l-3.1,1.8c-1.2,0.7-2.6,0.6-3-0.2c-0.5-0.8,0.1-2,1.3-2.7
			l3.1-1.8C541.9,231.9,543.3,232,543.7,232.8z"/>
	</g>
	<g transform="matrix(0,1,-1,0,749.74096,-210.94883)">
		<path id="a_3_" class="st2" d="M553.6,269.4c0,1-1.1,1.7-2.5,1.7h-3.5c-1.4,0-2.5-0.8-2.5-1.7s1.1-1.7,2.5-1.7h3.5
			C552.4,267.7,553.6,268.4,553.6,269.4z"/>
	</g>
	<g transform="matrix(-0.5,0.8660254,-0.8660254,-0.5,953.82113,-11.896796)">
		<path id="a_4_" class="st2" d="M543.7,306c-0.5,0.8-1.8,0.9-3,0.2l-3.1-1.8c-1.2-0.7-1.8-1.9-1.3-2.7c0.5-0.8,1.8-0.9,3-0.2
			l3.1,1.8C543.6,304,544.2,305.2,543.7,306z"/>
	</g>
	<g transform="matrix(-0.8660254,0.5,-0.5,-0.8660254,1031.0337,262.52744)">
		<path id="a_5_" class="st2" d="M516.9,332.8c-0.8,0.5-2-0.1-2.7-1.3l-1.8-3.1c-0.7-1.2-0.6-2.6,0.2-3c0.8-0.5,2,0.1,2.7,1.3
			l1.8,3.1C517.9,331,517.8,332.3,516.9,332.8z"/>
	</g>
	<g transform="matrix(-1,0,0,-1,960.68979,538.79211)">
		<path id="a_6_" class="st2" d="M480.3,342.6c-1,0-1.7-1.1-1.7-2.5v-3.5c0-1.4,0.8-2.5,1.7-2.5s1.7,1.1,1.7,2.5v3.5
			C482.1,341.5,481.3,342.6,480.3,342.6z"/>
	</g>
	<g transform="matrix(-0.8660254,-0.5,0.5,-0.8660254,761.63775,742.8723)">
		<path id="a_7_" class="st2" d="M443.7,332.8c-0.8-0.5-0.9-1.8-0.2-3l1.8-3.1c0.7-1.2,1.9-1.8,2.7-1.3c0.8,0.5,0.9,1.8,0.2,3
			l-1.8,3.1C445.8,332.7,444.6,333.3,443.7,332.8z"/>
	</g>
	<g transform="matrix(-0.5,-0.8660254,0.8660254,-0.5,487.21351,820.08504)">
		<path id="a_8_" class="st2" d="M416.9,306c-0.5-0.8,0.1-2,1.3-2.7l3.1-1.8c1.2-0.7,2.6-0.6,3,0.2c0.5,0.8-0.1,2-1.3,2.7l-3.1,1.8
			C418.8,306.9,417.4,306.8,416.9,306z"/>
	</g>
	<g transform="matrix(0,-1,1,0,210.94883,749.74096)">
		<path id="a_9_" class="st2" d="M407.1,269.4c0-1,1.1-1.7,2.5-1.7h3.5c1.4,0,2.5,0.8,2.5,1.7s-1.1,1.7-2.5,1.7h-3.5
			C408.3,271.1,407.1,270.3,407.1,269.4z"/>
	</g>
	<g transform="matrix(0.5,-0.8660254,0.8660254,0.5,6.8686204,550.68892)">
		<path id="a_10_" class="st2" d="M416.9,232.8c0.5-0.8,1.8-0.9,3-0.2l3.1,1.8c1.2,0.7,1.8,1.9,1.3,2.7c-0.5,0.8-1.8,0.9-3,0.2
			l-3.1-1.8C417.1,234.8,416.5,233.6,416.9,232.8z"/>
	</g>
	<g transform="matrix(0.8660254,-0.5,0.5,0.8660254,-70.344016,276.26468)">
		<path id="a_11_" class="st2" d="M443.7,206c0.8-0.5,2,0.1,2.7,1.3l1.8,3.1c0.7,1.2,0.6,2.6-0.2,3s-2-0.1-2.7-1.3l-1.8-3.1
			C442.8,207.8,442.9,206.5,443.7,206z"/>
	</g>
	<path class="st3" d="M451.9,260.8c0.9-1.5,8.2,1.3,16.2,6.3c8.1,5,13.8,10.2,12.9,11.7c-0.9,1.5-8.2-1.3-16.2-6.3
		C456.8,267.5,451,262.3,451.9,260.8z"/>
	<path class="st4" d="M479.8,278.8c-0.9-1.4,7.5-8.4,18.9-15.6c11.4-7.2,21.3-11.9,22.2-10.4s-7.5,8.4-18.9,15.6
		C490.6,275.6,480.7,280.2,479.8,278.8L479.8,278.8z"/>
	<path d="M75.2,521c9.5,1.2,17.5-0.5,25.1-3.1c30.5-19.6,73.2-45.3,102.7-65.2c6-9.1-7.7-22.2-15.9-13.8
		c-5.6,3.3-11.7,7.3-16.9,10.5c-4.5,2.8-14.2,9.1-20.7,13.2c-19.9,12.9-40.8,25.8-60.1,38.7C83.5,506.3,77.3,516.1,75.2,521
		L75.2,521z M93.4,506.7c1.7,0.7,3.3,3.8,3.4,5.4c-1.7,0.6-7.7,1.7-9,1.2C88.7,511.6,92.6,507.7,93.4,506.7L93.4,506.7z M171,456.6
		c2,2.9,7.1,7.6,0.6,8.9c-23,14.5-46.1,29.1-69.1,43.5c-3.7-5.6-4-7.9,3.3-10.7L171,456.6z M185.5,447.6c3.3,0.9,4.3,1.9,4.3,6.4
		l-9.2,5.6c0.5-2-2.3-5.3-3.7-6.6L185.5,447.6z M193.4,442.7c3.8-0.1,6.8,7.3,1.9,7.2C195.1,447,188.8,444,193.4,442.7L193.4,442.7z
		"/>
	<path class="st5" d="M273.3,769.1h550.8"/>
	<path class="st6" d="M710.5,779.5c-1.4-0.2-3,0.1-4.1,0.8l-105.5,71.5c-0.8,0.5-1.2,1.2-1.2,1.8c-2.8-0.3-5.4,8.9-5.5,9.8
		c-0.7,6-0.7,10.9,1.7,11.1c0,0,0,0,0,0c0.2,0.7,0.8,1.3,1.6,1.8l83.7,48.7c2.3,1.3,6,1.2,8.2-0.3l105.5-71.5
		c2.2-1.5,2.1-3.8-0.2-5.1l-1.9-1.1l1.6-13.5l1.7-1.1c1.6-1.1,1.5-2.7-0.1-3.7l-83.7-48.7C711.7,779.8,710.7,780.1,710.5,779.5
		L710.5,779.5z M789.4,847.8l-0.7,6l1,0.1l-102.6,69.5c-0.9,0.6-2.2,0.7-3.3,0.4l0.6,0.1l2.2-19c1.4,0.1,2.8-0.2,3.9-0.9l90.2-61.1
		l2.2-1.5l7.8-5.3l-1.1,9.1L789.4,847.8z M792.6,849.6c1.1,0.6,1.1,1.6,0.1,2.3l-0.4,0.3L792.6,849.6z M602.6,856.1l81.3,47.7
		l1.8,0.9l-2.2,18.7l-84.8-49.3C598.7,866.4,601.1,860.2,602.6,856.1z"/>
	<path d="M802.8,403.7c-4,1.8-6.5,5.6-6.6,9.5c-3.6,2.9-5.3,7.6-3.4,11.7l49.5,107c2.3,5,8.7,6.8,14,4.3l68.9-31.9
		c3.9-1.8,6.4-5.4,6.6-9.2c3.7-2.9,5.3-7.8,3.4-12l-49.5-107c-2.3-5-8.7-6.8-14-4.3L802.8,403.7L802.8,403.7z M804.2,406.6
		l68.9-31.9c4-1.8,8.2-0.5,9.7,2.7l49.5,107c1.5,3.2-0.2,7.3-4.2,9.1l-68.9,31.9c-4,1.8-8.2,0.5-9.7-2.7l-49.5-107
		C798.5,412.6,800.2,408.5,804.2,406.6L804.2,406.6z M796.9,416.8c0,0.1,0.1,0.2,0.1,0.3l49.5,107c2.3,5,8.7,6.8,14,4.3l67.4-31.2
		c-0.7,1.6-2.1,3.1-4,4L855,533.1c-4,1.8-8.2,0.5-9.7-2.7l-49.5-107C794.8,421.3,795.3,418.8,796.9,416.8L796.9,416.8z"/>
	<path d="M804.8,448.3c-5.4-0.5-9.8-4.7-10.6-10s2.2-10.6,7.3-12.6c5-2,10.8-0.2,13.9,4.2l-2.1,1.5c-2.4-3.5-6.9-4.9-10.9-3.3
		c-4,1.6-6.3,5.6-5.7,9.9c0.6,4.2,4,7.5,8.3,7.9L804.8,448.3L804.8,448.3z"/>
	<path class="st7" d="M813,428.6c-1.2,0.8-1.4,2.4-0.6,3.6s2.4,1.4,3.6,0.6s1.4-2.4,0.6-3.6C815.7,428.1,814.1,427.8,813,428.6z"/>
	<path d="M811.7,463.2c-5.4-0.5-9.8-4.7-10.6-10s2.2-10.6,7.3-12.6s10.8-0.2,13.9,4.2l-2.1,1.5c-2.4-3.5-6.9-4.9-10.9-3.3
		s-6.3,5.6-5.7,9.9c0.6,4.2,4,7.5,8.3,7.9L811.7,463.2z"/>
	<path class="st7" d="M819.9,443.4c-1.2,0.8-1.4,2.4-0.6,3.6s2.4,1.4,3.6,0.6s1.4-2.4,0.6-3.6C822.6,442.9,821,442.6,819.9,443.4z"
		/>
	<path d="M818.6,478c-5.4-0.5-9.8-4.7-10.6-10c-0.8-5.4,2.2-10.6,7.3-12.6s10.8-0.2,13.9,4.2l-2.1,1.5c-2.4-3.5-6.9-4.9-10.9-3.3
		s-6.3,5.6-5.7,9.9c0.6,4.2,4,7.5,8.3,7.9L818.6,478L818.6,478z"/>
	<path class="st7" d="M826.7,458.3c-1.2,0.8-1.4,2.4-0.6,3.6s2.4,1.4,3.6,0.6s1.4-2.4,0.6-3.6C829.5,457.8,827.9,457.5,826.7,458.3z
		"/>
	<path d="M825.4,492.9c-5.4-0.5-9.8-4.7-10.6-10c-0.8-5.4,2.2-10.6,7.3-12.6c5-2,10.8-0.2,13.9,4.2l-2.1,1.5
		c-2.4-3.5-6.9-4.9-10.9-3.3c-4,1.6-6.3,5.6-5.7,9.9c0.6,4.2,4,7.5,8.3,7.9L825.4,492.9L825.4,492.9z"/>
	<path class="st7" d="M833.6,473.2c-1.2,0.8-1.4,2.4-0.6,3.6s2.4,1.4,3.6,0.6s1.4-2.4,0.6-3.6C836.4,472.6,834.8,472.4,833.6,473.2z
		"/>
	<path d="M832.3,507.8c-5.4-0.5-9.8-4.7-10.6-10s2.2-10.6,7.3-12.6s10.8-0.2,13.9,4.2l-2.1,1.5c-2.4-3.5-6.9-4.9-10.9-3.3
		c-4,1.6-6.3,5.6-5.7,9.9c0.6,4.2,4,7.5,8.3,7.9L832.3,507.8L832.3,507.8z"/>
	<path class="st7" d="M840.5,488c-1.2,0.8-1.4,2.4-0.6,3.6s2.4,1.4,3.6,0.6s1.4-2.4,0.6-3.6C843.2,487.5,841.6,487.2,840.5,488z"/>
	<path d="M839.2,522.6c-5.4-0.5-9.8-4.7-10.6-10c-0.8-5.4,2.2-10.6,7.3-12.6c5-2,10.8-0.2,13.9,4.2l-2.1,1.5
		c-2.4-3.5-6.9-4.9-10.9-3.3s-6.3,5.6-5.7,9.9c0.6,4.2,4,7.5,8.3,7.9L839.2,522.6z"/>
	<path class="st7" d="M847.3,502.9c-1.2,0.8-1.4,2.4-0.6,3.6s2.4,1.4,3.6,0.6s1.4-2.4,0.6-3.6C850.1,502.3,848.5,502.1,847.3,502.9z
		"/>
</g>
</svg>
