<svg width="55" height="48" viewBox="0 0 55 48" fill="none" xmlns="http://www.w3.org/2000/svg">
<g clip-path="url(#clip0)">
<path d="M33.531 28.617L37.814 32.899L36.399 34.314L32.117 30.031C30.5237 31.3082 28.542 32.0029 26.5 32C21.532 32 17.5 27.968 17.5 23C17.5 18.032 21.532 14 26.5 14C31.468 14 35.5 18.032 35.5 23C35.5029 25.042 34.8082 27.0237 33.531 28.617ZM31.525 27.875C32.7941 26.5699 33.5029 24.8204 33.5 23C33.5 19.132 30.367 16 26.5 16C22.632 16 19.5 19.132 19.5 23C19.5 26.867 22.632 30 26.5 30C28.3204 30.0029 30.0699 29.2941 31.375 28.025L31.525 27.875Z" fill="#E1E4E7"/>
</g>
<path d="M0.5 0V-2H-1.5V0H0.5ZM54.5 0H56.5V-2H54.5V0ZM54.5 48V50H56.5V48H54.5ZM0.5 48H-1.5V50H0.5V48ZM0.5 2H54.5V-2H0.5V2ZM52.5 0V48H56.5V0H52.5ZM54.5 46H0.5V50H54.5V46ZM2.5 48V0H-1.5V48H2.5Z" fill="#E1E4E7"/>
<defs>
<clipPath id="clip0">
<rect width="24" height="28" fill="white" transform="translate(15.5 10)"/>
</clipPath>
</defs>
</svg>
