<svg xmlns="http://www.w3.org/2000/svg" viewBox="0 0 8191 2387.52"><defs><style>.cls-1{isolation:isolate;}.cls-2{fill:#f8ed3e;}.cls-3,.cls-8{fill:none;stroke:#231f20;stroke-miterlimit:10;stroke-width:5px;}.cls-4{fill:#f8982a;}.cls-5{fill:#ee2040;}.cls-39,.cls-42,.cls-43,.cls-6{font-size:40px;}.cls-41,.cls-47,.cls-6{fill:#fff;font-weight:700;}.cls-47,.cls-6{font-family:Rubik-Bold, Rubik;}.cls-47,.cls-7,.cls-9{font-size:36px;}.cls-10,.cls-22,.cls-31,.cls-39,.cls-42,.cls-43,.cls-46,.cls-7,.cls-9{fill:#231f20;}.cls-39,.cls-7{font-family:Rubik-Medium, Rubik;}.cls-8{stroke-linecap:round;stroke-dasharray:1 10;}.cls-10,.cls-22,.cls-31,.cls-9{font-family:WorkSans-Medium, Work Sans;}.cls-10,.cls-22,.cls-31{font-size:30px;}.cls-10{letter-spacing:-0.01em;}.cls-11{letter-spacing:-0.02em;}.cls-12{letter-spacing:-0.02em;}.cls-13{letter-spacing:-0.02em;}.cls-14{letter-spacing:-0.02em;}.cls-15{letter-spacing:-0.01em;}.cls-16{letter-spacing:-0.1em;}.cls-17{letter-spacing:-0.02em;}.cls-18{letter-spacing:-0.02em;}.cls-19{letter-spacing:-0.01em;}.cls-20{letter-spacing:-0.02em;}.cls-21{letter-spacing:-0.01em;}.cls-22{letter-spacing:-0.02em;}.cls-23{letter-spacing:-0.01em;}.cls-24{letter-spacing:-0.01em;}.cls-25{letter-spacing:-0.01em;}.cls-26{letter-spacing:-0.02em;}.cls-27,.cls-43{letter-spacing:-0.01em;}.cls-28{letter-spacing:-0.01em;}.cls-29{letter-spacing:-0.02em;}.cls-30{letter-spacing:-0.01em;}.cls-31{letter-spacing:-0.02em;}.cls-32{letter-spacing:-0.01em;}.cls-33{letter-spacing:-0.01em;}.cls-34{letter-spacing:-0.02em;}.cls-35{letter-spacing:-0.01em;}.cls-36{letter-spacing:-0.02em;}.cls-37{letter-spacing:-0.01em;}.cls-38{fill:#d63493;}.cls-39{mix-blend-mode:multiply;}.cls-40{fill:#cccccb;}.cls-41{font-size:60px;font-family:Superclarendon-Bold, Superclarendon;}.cls-42,.cls-43{font-family:WorkSans-Regular, Work Sans;}.cls-42{letter-spacing:-0.01em;}.cls-44{fill:#9797cb;}.cls-45{fill:#afd24c;}.cls-48{fill:#4cc9f5;}</style></defs><title>finalvalueprop</title><g class="cls-1"><g id="Layer_1" data-name="Layer 1"><rect class="cls-2" x="110.55" y="314.15" width="532.45" height="177.27"/><line class="cls-3" x1="110.55" y1="493.77" x2="643" y2="493.77"/><rect class="cls-4" x="764.55" y="315.32" width="532.45" height="177.27"/><line class="cls-3" x1="764.55" y1="494.94" x2="1297" y2="494.94"/><circle class="cls-5" cx="153.3" cy="135.84" r="43.82"/><rect class="cls-3" x="764.55" y="315.32" width="532.45" height="1966.44"/><path d="M1345.9,312.7a43.82,43.82,0,1,1-43.82-43.82,43.82,43.82,0,0,1,43.82,43.82"/><text class="cls-6" transform="translate(1290 328.21)">2</text><text class="cls-7" transform="translate(859.04 420.31)">Users / Utilisateurs</text><rect class="cls-3" x="110.55" y="315.32" width="532.45" height="1966.44"/><path d="M691.9,312.7a43.82,43.82,0,1,1-43.82-43.82A43.82,43.82,0,0,1,691.9,312.7"/><text class="cls-6" transform="translate(636 328.21)">1</text><text class="cls-7" transform="translate(142.56 420.31)">Assumptions / Hypothèses</text><line class="cls-3" x1="643" y1="1315.6" x2="762" y2="1315.6"/><line class="cls-3" x1="1297" y1="1315.6" x2="1425.87" y2="1315.6"/><rect class="cls-3" x="1425.43" y="318.18" width="1389.45" height="1963.58"/><path d="M1469.25,312.7a43.82,43.82,0,1,1-43.82-43.82,43.82,43.82,0,0,1,43.82,43.82"/><text class="cls-6" transform="translate(1412.81 328.2)">3</text><line class="cls-3" x1="4334.88" y1="1316.32" x2="4463.75" y2="1316.32"/><rect class="cls-3" x="4463.31" y="318.91" width="1389.45" height="1963.58"/><line class="cls-8" x1="5852.76" y1="1628.2" x2="4463.75" y2="1628.2"/><line class="cls-8" x1="5852.54" y1="973.19" x2="4463.53" y2="973.19"/><text class="cls-9" transform="translate(4570.43 281.61)">Current pain points / Éléments problématiques actuels</text><text class="cls-10" transform="translate(4507.13 387.79)">F<tspan class="cls-11" x="18.12" y="0">i</tspan><tspan class="cls-12" x="25.74" y="0">n</tspan><tspan class="cls-13" x="43.8" y="0">d</tspan><tspan class="cls-11" x="62.09" y="0">i</tspan><tspan class="cls-14" x="69.72" y="0">n</tspan><tspan class="cls-15" x="87.81" y="0">g / </tspan><tspan class="cls-16" x="136.38" y="0">T</tspan><tspan class="cls-17" x="151.85" y="0">r</tspan><tspan class="cls-18" x="163.7" y="0">o</tspan><tspan class="cls-19" x="181.36" y="0">u</tspan><tspan class="cls-20" x="199.75" y="0">v</tspan><tspan class="cls-21" x="215.02" y="0">e</tspan><tspan class="cls-15" x="232.02" y="0">r</tspan></text><text class="cls-22" transform="translate(4503.83 1032.88)">A<tspan class="cls-23" x="19.22" y="0">cc</tspan><tspan class="cls-24" x="52.29" y="0">e</tspan><tspan class="cls-25" x="69.38" y="0">s</tspan><tspan class="cls-26" x="85.07" y="0">s</tspan><tspan class="cls-11" x="100.44" y="0">i</tspan><tspan class="cls-14" x="108.07" y="0">n</tspan><tspan class="cls-27" x="126.17" y="0">g / </tspan><tspan x="174.74" y="0">A</tspan><tspan class="cls-23" x="193.96" y="0">cc</tspan><tspan class="cls-28" x="227.02" y="0">é</tspan><tspan class="cls-29" x="244.04" y="0">d</tspan><tspan class="cls-30" x="262.42" y="0">e</tspan><tspan class="cls-15" x="279.41" y="0">r</tspan></text><text class="cls-31" transform="translate(4507.13 1696.9)">U<tspan class="cls-26" x="20.9" y="0">s</tspan><tspan class="cls-11" x="36.28" y="0">i</tspan><tspan class="cls-14" x="43.9" y="0">n</tspan><tspan class="cls-15" x="62" y="0">g / </tspan><tspan class="cls-32" x="110.57" y="0">U</tspan><tspan class="cls-33" x="131.66" y="0">t</tspan><tspan class="cls-34" x="144.06" y="0">i</tspan><tspan class="cls-35" x="151.69" y="0">l</tspan><tspan class="cls-36" x="160.88" y="0">i</tspan><tspan class="cls-37" x="168.6" y="0">se</tspan><tspan class="cls-15" x="201.04" y="0">r</tspan></text><path d="M4507.13,313.43a43.82,43.82,0,1,1-43.82-43.82,43.82,43.82,0,0,1,43.82,43.82"/><text class="cls-6" transform="translate(4450.69 328.93)">4</text><path class="cls-38" d="M4551.31,269.6a35.38,35.38,0,1,1-35.38-35.38,35.38,35.38,0,0,1,35.38,35.38"/><circle class="cls-3" cx="4515.93" cy="269.6" r="35.38"/><text class="cls-39" transform="translate(4503.83 281.61)">a</text><rect class="cls-40" x="7494.33" y="313.43" width="567.67" height="177.27"/><rect class="cls-3" x="7494.33" y="316.05" width="567.67" height="1966.44"/><path d="M7537.68,313.43a43.82,43.82,0,1,1-43.82-43.82,43.82,43.82,0,0,1,43.82,43.82"/><text class="cls-6" transform="translate(7481.78 328.93)">5</text><text class="cls-7" transform="translate(7584.73 398.03)">Positive experiences /<tspan x="18.86" y="48">Bonnes expériences</tspan></text><line class="cls-3" x1="7494.33" y1="493.05" x2="8062" y2="493.05"/><line class="cls-3" x1="7372.78" y1="1316.32" x2="7491.78" y2="1316.32"/><text class="cls-41" transform="translate(140.7 159.51)">i</text><text class="cls-42" transform="translate(224.55 123.58)">Scroll below for more information on how to complete each section. </text><text class="cls-43" transform="translate(223.55 173.66)">Défilez vers le bas pour obtenir plus d&apos;information sur comment compléter chaque section.</text><line class="cls-3" x1="2815.88" y1="1316.32" x2="2944.75" y2="1316.32"/><rect class="cls-3" x="2944.31" y="318.91" width="1389.45" height="1963.58"/><text class="cls-9" transform="translate(3051.43 281.61)">Type of data / Type de données</text><path d="M2988.13,313.43a43.82,43.82,0,1,1-43.82-43.82,43.82,43.82,0,0,1,43.82,43.82"/><text class="cls-6" transform="translate(2931.69 328.93)">3</text><path class="cls-44" d="M3032.31,269.6a35.38,35.38,0,1,1-35.38-35.38,35.38,35.38,0,0,1,35.38,35.38"/><circle class="cls-3" cx="2996.93" cy="269.6" r="35.38"/><text class="cls-39" transform="translate(2984.83 281.61)">b</text><line class="cls-3" x1="5853.88" y1="1316.32" x2="5982.75" y2="1316.32"/><rect class="cls-3" x="5982.31" y="318.91" width="1389.45" height="1963.58"/><text class="cls-9" transform="translate(6089.43 281.61)">Pain relievers / Solutions</text><path d="M6026.13,313.43a43.82,43.82,0,1,1-43.82-43.82,43.82,43.82,0,0,1,43.82,43.82"/><text class="cls-6" transform="translate(5969.69 328.93)">4</text><path class="cls-45" d="M6070.31,269.6a35.38,35.38,0,1,1-35.38-35.38,35.38,35.38,0,0,1,35.38,35.38"/><circle class="cls-3" cx="6034.93" cy="269.6" r="35.38"/><text class="cls-39" transform="translate(6022.83 281.61)">b</text><path class="cls-46" d="M6175.76,1380.12H5659.68a62,62,0,0,1,0-124h516.08a62,62,0,0,1,0,124"/><text class="cls-47" transform="translate(5662.13 1334.18)">EXPERIENCE / EXPÉRIENCE</text><path class="cls-46" d="M3056.26,1379.39H2700.18a62,62,0,0,1,0-124h356.08a62,62,0,0,1,0,124"/><text class="cls-47" transform="translate(2721.87 1331.46)">DATA / DONNÉES </text><path class="cls-48" d="M1513.43,268.88a35.38,35.38,0,1,1-35.38-35.38,35.38,35.38,0,0,1,35.38,35.38"/><circle class="cls-3" cx="1478.05" cy="268.88" r="35.38"/><text class="cls-39" transform="translate(1465.95 280.88)">a</text><text class="cls-9" transform="translate(1532.55 280.88)">Data use / Utilisation des données</text></g></g></svg>