<?xml version="1.0" encoding="utf-8"?>
<!-- Generator: Adobe Illustrator 22.1.0, SVG Export Plug-In . SVG Version: 6.00 Build 0)  -->
<svg version="1.1" id="Layer_1" xmlns="http://www.w3.org/2000/svg" xmlns:xlink="http://www.w3.org/1999/xlink" x="0px" y="0px"
	 viewBox="0 0 1368 265.4" style="enable-background:new 0 0 1368 265.4;" xml:space="preserve">
<style type="text/css">
	.st0{fill:#FFFFFF;}
</style>
<g>
	<g>
		<path d="M330.4,80.2h10.3c0,9,0,10,0.1,11.6c0.1,2.2,0.8,10.3,10.4,10.3c3.4,0,10.9-1.3,10.9-10.7c0-6.8-3-10.3-7.9-15.2l-11.7-12
			c-8.1-8.3-9.8-13.7-9.8-21.4c0-4.7,0-20.1,19.9-20.1c4.4,0,11.8,0.7,15.7,7c2.4,4,2.4,6.9,2.4,19.6h-9.3c-0.2-8.1-0.2-9-0.5-10.6
			c-0.2-1.6-1.3-6.9-8.8-6.9c-9,0-9,7.7-9,10.3c0,6.4,2.3,9,8.3,15.5l10.9,11.4c7,7.5,10.3,12,10.3,21.8c0,18.3-14.4,20.5-20.8,20.5
			c-8.2,0-12.7-2.8-14.4-4.2c-5.4-4.2-6.7-10.7-6.7-17.2v-9.6H330.4z"/>
		<path d="M414,91.1c0,4.1,0,7.1-1.1,10.4c-3.5,9.6-13,9.6-16.1,9.6c-3.6,0-12.1-0.5-15.6-9.3c-1.1-2.9-1.6-4.1-1.6-28.5
			c0-13,1.1-24.9,16.8-24.9c3.9,0,15.1,0,17,13.3c0.5,3,0.5,4.7,0.5,20.1h-24.4c0,4.7-0.1,11,0.1,13.2c0.2,2.3,0.7,8.6,7.6,8.6
			c7,0,7.6-5.9,7.6-12.2h9.1V91.1z M404.8,73.6V66c-0.1-3.3-0.2-10.5-7.5-10.5c-5,0-6.4,3.1-7,5.1c-0.7,2.3-0.7,4.2-0.7,12.9
			L404.8,73.6L404.8,73.6z"/>
		<path d="M433.7,110h-10V49.1h9.3v11.5c2.2-4.7,5.9-13,16.4-12.4v10.1c-4.4,0-9.7,0-13.2,5c-1.9,2.9-2.7,6.3-2.7,17.6v29H433.7z"/>
		<path d="M477.8,110h-11.1l-13-60.8h10.6l8,49.8l8.8-49.8h10.5L477.8,110z"/>
		<path d="M506.8,38.4h-9.6V25.8h9.6V38.4z M506.8,110h-9.6V49h9.6V110z"/>
		<path d="M551,87.2c0,11.1,0,23.7-17.6,23.7c-7.4,0-13.4-2.7-15.5-9.6c-1.2-4-1.5-10.5-1.5-20.4c0-21.6,0.6-33,17.9-33
			C551,47.9,551,59,551,71.1h-9.2c0-10.5,0-15.7-7.6-15.7c-7.6,0-7.7,5.2-7.7,22.2c0,2.4,0,11.1,0.1,16.3c0.1,3.1,0.4,9.3,7.5,9.3
			c7.1,0,7.7-5.9,7.7-16.1h9.2V87.2z"/>
		<path d="M593.8,91.1c0,4.1,0,7.1-1.1,10.4c-3.5,9.6-13,9.6-16.1,9.6c-3.6,0-12.1-0.5-15.6-9.3c-1.1-2.9-1.6-4.1-1.6-28.5
			c0-13,1.1-24.9,16.8-24.9c3.9,0,15.1,0,17,13.3c0.5,3,0.5,4.7,0.5,20.1h-24.4c0,4.7-0.1,11,0.1,13.2c0.2,2.3,0.7,8.6,7.6,8.6
			c7,0,7.6-5.9,7.6-12.2h9.1V91.1z M584.6,73.6V66c-0.1-3.3-0.2-10.5-7.5-10.5c-5,0-6.4,3.1-7,5.1c-0.7,2.3-0.7,4.2-0.7,12.9
			L584.6,73.6L584.6,73.6z"/>
		<path d="M666.3,110h-9.8V70.4c0-8.7,0-14.6-7.1-14.6c-8.1,0-8.1,8.2-8.1,15v39.3h-9.7V49.2h9.2v5.6c1.8-2.2,5.6-6.7,13-6.7
			c12.7,0,12.7,10.7,12.7,19.1L666.3,110L666.3,110z"/>
		<path d="M711.9,110h-9.3v-5.6c-1.9,2.4-5.3,6.7-12.9,6.7c-5.1,0-8.2-2.3-9.8-4.7c-2.5-3.9-2.8-8.2-2.8-18.9V49.1h9.7V89l0.1,5.8
			c0,2.4,0.2,8.8,7,8.8c8.3,0,8.3-8.5,8.3-14.9V49h9.6V110z"/>
		<path d="M782.9,110h-9.8V70.2c0-5.3-0.1-7.6-0.6-9.4c-0.8-2.7-3-5.1-7-5.1c-7.7,0-7.7,8.1-7.7,14.5V110h-9.8V70.2
			c0-8.1,0-14.6-7.5-14.6c-7.9,0-7.9,7.6-7.9,14.7v39.6h-10V49h9.2v6c1.8-2.4,5.4-7.1,13-7.1c7.7,0,10.6,4.7,12,7.1
			c1.9-2.5,5.2-7.1,12.7-7.1c1.2,0,5.7,0,9.4,3.8c4.1,4.1,4.1,8.6,4.1,18.5V110H782.9z"/>
		<path d="M826.9,91.1c0,4.1,0,7.1-1.1,10.4c-3.5,9.6-13,9.6-16.1,9.6c-3.6,0-12.1-0.5-15.6-9.3c-1.1-2.9-1.6-4.1-1.6-28.5
			c0-13,1.1-24.9,16.8-24.9c3.9,0,15.1,0,17,13.3c0.5,3,0.5,4.7,0.5,20.1h-24.4c0,4.7-0.1,11,0.1,13.2c0.2,2.3,0.7,8.6,7.6,8.6
			c7,0,7.6-5.9,7.6-12.2h9.1V91.1z M817.7,73.6V66c-0.1-3.3-0.2-10.5-7.5-10.5c-5,0-6.4,3.1-7,5.1c-0.7,2.3-0.7,4.2-0.7,12.9
			L817.7,73.6L817.7,73.6z M812.2,41.4h-7.7l6.4-13.2h13.3L812.2,41.4z"/>
		<path d="M846.6,110h-10V49.1h9.3v11.5c2.2-4.7,5.9-13,16.4-12.4v10.1c-4.4,0-9.7,0-13.2,5c-1.9,2.9-2.7,6.3-2.7,17.6v29H846.6z"/>
		<path d="M876.5,38.4h-9.6V25.8h9.6V38.4z M876.5,110h-9.6V49h9.6V110z"/>
		<path d="M922.2,129.3h-9.6v-25.4c-1.2,1.9-4.4,7.1-12.2,7.1c-7.3,0-12-5.1-13.3-11.7c-0.6-3.4-0.8-14.7-0.8-18.9
			c0-5,0-16.9,0.8-20.9c1.7-7.4,7.5-11.6,13.7-11.6c7.4,0,10.4,4.7,12.1,7.6V49h9.3V129.3z M912.2,65.1c-0.1-2.3-0.7-9.3-8.3-9.3
			c-6.5,0-6.9,5.8-7.1,8.2c-0.2,3-0.2,11.2-0.2,16.6c0,16.1,0,22.7,7.5,22.7c8.7,0,8.7-8.8,8.7-24.2
			C912.7,76.2,912.4,68.1,912.2,65.1z"/>
		<path d="M967.8,110h-9.3v-5.6c-1.9,2.4-5.3,6.7-12.9,6.7c-5.1,0-8.2-2.3-9.8-4.7c-2.5-3.9-2.8-8.2-2.8-18.9V49.1h9.7V89l0.1,5.8
			c0,2.4,0.2,8.8,7,8.8c8.3,0,8.3-8.5,8.3-14.9V49h9.6V110z"/>
		<path d="M1011.8,91.1c0,4.1,0,7.1-1.1,10.4c-3.5,9.6-13,9.6-16.1,9.6c-3.6,0-12.1-0.5-15.6-9.3c-1.1-2.9-1.6-4.1-1.6-28.5
			c0-13,1.1-24.9,16.8-24.9c3.9,0,15.1,0,17,13.3c0.5,3,0.5,4.7,0.5,20.1h-24.4c0,4.7-0.1,11,0.1,13.2c0.2,2.3,0.7,8.6,7.6,8.6
			c7,0,7.6-5.9,7.6-12.2h9.1V91.1z M1002.7,73.6V66c-0.1-3.3-0.2-10.5-7.5-10.5c-5,0-6.4,3.1-7,5.1c-0.7,2.3-0.7,4.2-0.7,12.9
			L1002.7,73.6L1002.7,73.6z"/>
		<path d="M1083,87.2c0,11.1,0,23.7-17.6,23.7c-7.4,0-13.4-2.7-15.5-9.6c-1.2-4-1.5-10.5-1.5-20.4c0-21.6,0.6-33,17.9-33
			c16.7,0,16.7,11.1,16.7,23.1h-9.2c0-10.5,0-15.7-7.6-15.7c-7.6,0-7.7,5.2-7.7,22.2c0,2.4,0,11.1,0.1,16.3c0.1,3.1,0.4,9.3,7.5,9.3
			s7.7-5.9,7.7-16.1h9.2V87.2z"/>
		<path d="M1124.7,97c0,9.4,0.4,10.9,2.9,12.9h-12v-7.3c-1.3,2.7-4.2,8.3-12.6,8.3c-2.8,0-5.2-0.6-7.3-1.8
			c-5.7-3.4-6.3-9.2-6.3-13.8c0-9.8,3.9-13,10.3-17.4c9.2-6.2,10.3-6.8,15.3-11.6c0-5,0-10.7-7.4-10.7c-7.3,0-7.3,5.1-7.3,8.7
			c0,1.8,0.1,3.1,0.2,4.5h-8.8c-0.1-2.5-0.1-9.1,0.8-12.2c3-8.8,13.4-8.8,16.1-8.8c4.4,0,8.7,0.7,12.3,4.5c3.8,3.9,3.8,7.1,3.8,15.5
			v29H1124.7z M1115,75.3c-2.8,2.7-3.3,3-8,6.5c-4.4,3.4-7.6,5.9-7.6,13c0,2.7,0,9,6.5,9c1.8,0,3.6-0.6,5.2-1.8
			c3.5-2.7,3.9-6.8,3.9-11.7V75.3z"/>
		<path d="M1170.4,110h-9.8V70.4c0-8.7,0-14.6-7.1-14.6c-8.1,0-8.1,8.2-8.1,15v39.3h-9.7V49.2h9.2v5.6c1.8-2.2,5.6-6.7,13-6.7
			c12.7,0,12.7,10.7,12.7,19.1V110z"/>
		<path d="M1213.3,97c0,9.4,0.4,10.9,2.9,12.9h-12v-7.3c-1.3,2.7-4.2,8.3-12.6,8.3c-2.8,0-5.2-0.6-7.3-1.8
			c-5.7-3.4-6.3-9.2-6.3-13.8c0-9.8,3.9-13,10.3-17.4c9.2-6.2,10.3-6.8,15.3-11.6c0-5,0-10.7-7.4-10.7c-7.3,0-7.3,5.1-7.3,8.7
			c0,1.8,0.1,3.1,0.2,4.5h-8.8c-0.1-2.5-0.1-9.1,0.8-12.2c3-8.8,13.4-8.8,16.1-8.8c4.4,0,8.7,0.7,12.3,4.5c3.8,3.9,3.8,7.1,3.8,15.5
			v29H1213.3z M1203.7,75.3c-2.8,2.7-3.3,3-8,6.5c-4.4,3.4-7.6,5.9-7.6,13c0,2.7,0,9,6.5,9c1.8,0,3.6-0.6,5.2-1.8
			c3.5-2.7,3.9-6.8,3.9-11.7V75.3z"/>
		<path d="M1259.1,110h-9.1v-6.4c-1.3,2.3-4.5,7.5-12.8,7.5c-1.2,0-2.5-0.1-3.8-0.5c-9.8-2.5-10.3-12.9-10.3-30.7
			c0-5.7,0-17,1.5-21.8c1.7-5.7,6.3-10.1,13-10.1c6.9,0,9.8,3.6,11.6,5.9V24h9.8V110H1259.1z M1241,55.7c-7.3,0-7.5,7.4-7.7,12.3
			c-0.2,6.5-0.2,6.5-0.2,16.4c0,2.7,0,5.8,0.2,9.6c0.2,2.5,0.6,9.3,7.7,9.3c8.2,0,8.2-8.1,8.5-23.6
			C1249.7,65.1,1249.7,55.7,1241,55.7z"/>
		<path d="M1279.4,38.4h-9.6V25.8h9.6V38.4z M1279.4,110h-9.6V49h9.6V110z"/>
		<path d="M1323.4,91.1c0,4.1,0,7.1-1.1,10.4c-3.5,9.6-13,9.6-16.1,9.6c-3.6,0-12.1-0.5-15.6-9.3c-1.1-2.9-1.6-4.1-1.6-28.5
			c0-13,1.1-24.9,16.8-24.9c3.9,0,15.1,0,17,13.3c0.5,3,0.5,4.7,0.5,20.1h-24.4c0,4.7-0.1,11,0.1,13.2c0.2,2.3,0.7,8.6,7.6,8.6
			c7,0,7.6-5.9,7.6-12.2h9.1V91.1z M1314.2,73.6V66c-0.1-3.3-0.2-10.5-7.5-10.5c-5,0-6.4,3.1-7,5.1c-0.7,2.3-0.7,4.2-0.7,12.9
			L1314.2,73.6L1314.2,73.6z"/>
		<path d="M1368,110h-9.8V70.4c0-8.7,0-14.6-7.1-14.6c-8.1,0-8.1,8.2-8.1,15v39.3h-9.7V49.2h9.2v5.6c1.8-2.2,5.6-6.7,13-6.7
			c12.7,0,12.7,10.7,12.7,19.1V110z"/>
		<path d="M373.4,203.2c0,11.6-0.1,14.6-0.8,17.9c-1.1,5-3.9,13.7-19.3,13.7c-13.2,0-18.5-7.7-19.8-15.7c-0.4-2.4-0.8-6-0.8-27.4
			c0-22.6,0.4-25.3,1-29c0.7-3.8,2.9-16.2,20.5-16.2c7,0,15.8,3,18,12.4c1,4.1,1,9.2,0.8,16h-10v-6.4c0-5.8-0.1-12.9-8.8-12.9
			c-9.1,0-9.8,7.3-10.3,10.6c-0.7,6.2-0.7,19.2-0.7,25.8c0,5.2,0.2,22.6,0.7,26c0.4,1.6,1.5,8,10,8c7.6,0,8.7-6.5,9.1-8.1
			c0.5-2.2,0.5-4.1,0.5-14.4h9.8V203.2z"/>
		<path d="M415.4,220.6c0,9.4,0.4,10.9,2.9,12.9h-12v-7.3c-1.3,2.7-4.2,8.3-12.6,8.3c-2.8,0-5.2-0.6-7.3-1.8
			c-5.7-3.4-6.3-9.2-6.3-13.8c0-9.8,3.9-13,10.3-17.4c9.2-6.2,10.3-6.8,15.3-11.6c0-5,0-10.7-7.4-10.7c-7.3,0-7.3,5.1-7.3,8.7
			c0,1.8,0.1,3.1,0.2,4.5h-8.8c-0.1-2.5-0.1-9.1,0.8-12.2c3-8.8,13.4-8.8,16.1-8.8c4.4,0,8.7,0.7,12.3,4.5c3.8,3.9,3.8,7.1,3.8,15.5
			v29H415.4z M405.8,198.9c-2.8,2.7-3.3,3-8,6.5c-4.4,3.4-7.6,5.9-7.6,13c0,2.7,0,9,6.5,9c1.8,0,3.6-0.6,5.2-1.8
			c3.5-2.7,3.9-6.8,3.9-11.7V198.9z"/>
		<path d="M461.1,233.6h-9.8V194c0-8.7,0-14.6-7.1-14.6c-8.1,0-8.1,8.2-8.1,15v39.3h-9.7v-60.8h9.2v5.6c1.8-2.2,5.6-6.7,13-6.7
			c12.7,0,12.7,10.7,12.7,19.1V233.6z"/>
		<path d="M504,220.6c0,9.4,0.4,10.9,2.9,12.9h-12v-7.3c-1.3,2.7-4.2,8.3-12.6,8.3c-2.8,0-5.2-0.6-7.3-1.8
			c-5.7-3.4-6.3-9.2-6.3-13.8c0-9.8,3.9-13,10.3-17.4c9.2-6.2,10.3-6.8,15.3-11.6c0-5,0-10.7-7.4-10.7c-7.3,0-7.3,5.1-7.3,8.7
			c0,1.8,0.1,3.1,0.2,4.5h-8.8c-0.1-2.5-0.1-9.1,0.8-12.2c3-8.8,13.4-8.8,16.1-8.8c4.4,0,8.7,0.7,12.3,4.5c3.8,3.9,3.8,7.1,3.8,15.5
			v29H504z M494.5,198.9c-2.8,2.7-3.3,3-8,6.5c-4.4,3.4-7.6,5.9-7.6,13c0,2.7,0,9,6.5,9c1.8,0,3.6-0.6,5.2-1.8
			c3.5-2.7,3.9-6.8,3.9-11.7L494.5,198.9L494.5,198.9z"/>
		<path d="M549.8,233.6h-9.1v-6.4c-1.3,2.3-4.5,7.5-12.8,7.5c-1.2,0-2.5-0.1-3.8-0.5c-9.8-2.5-10.3-12.9-10.3-30.7
			c0-5.7,0-17,1.5-21.8c1.7-5.7,6.3-10.1,13-10.1c6.9,0,9.8,3.6,11.6,5.9v-30h9.8v85.9H549.8z M531.7,179.3c-7.3,0-7.5,7.4-7.7,12.3
			c-0.2,6.5-0.2,6.5-0.2,16.4c0,2.7,0,5.8,0.2,9.6c0.2,2.5,0.6,9.3,7.7,9.3c8.2,0,8.2-8.1,8.5-23.6
			C540.4,188.8,540.4,179.3,531.7,179.3z"/>
		<path d="M570.1,162h-9.6v-12.6h9.6V162z M570.1,233.6h-9.6v-60.9h9.6V233.6z"/>
		<path d="M613,220.6c0,9.4,0.4,10.9,2.9,12.9h-12v-7.3c-1.3,2.7-4.2,8.3-12.6,8.3c-2.8,0-5.2-0.6-7.3-1.8
			c-5.7-3.4-6.3-9.2-6.3-13.8c0-9.8,3.9-13,10.3-17.4c9.2-6.2,10.3-6.8,15.3-11.6c0-5,0-10.7-7.4-10.7c-7.3,0-7.3,5.1-7.3,8.7
			c0,1.8,0.1,3.1,0.2,4.5h-8.8c-0.1-2.5-0.1-9.1,0.8-12.2c3-8.8,13.4-8.8,16.1-8.8c4.4,0,8.7,0.7,12.3,4.5c3.8,3.9,3.8,7.1,3.8,15.5
			v29H613z M603.4,198.9c-2.8,2.7-3.3,3-8,6.5c-4.4,3.4-7.6,5.9-7.6,13c0,2.7,0,9,6.5,9c1.8,0,3.6-0.6,5.2-1.8
			c3.5-2.7,3.9-6.8,3.9-11.7L603.4,198.9L603.4,198.9z"/>
		<path d="M658.7,233.6h-9.8V194c0-8.7,0-14.6-7.1-14.6c-8.1,0-8.1,8.2-8.1,15v39.3h-9.7v-60.8h9.2v5.6c1.8-2.2,5.6-6.7,13-6.7
			c12.7,0,12.7,10.7,12.7,19.1L658.7,233.6L658.7,233.6z"/>
		<path d="M698,233.6v-85.8h16.2c8.3,0,16.1,0,21.2,6.4c4,5,4.4,9.4,4.4,30.3c0,4.6,0,10.1-0.2,21.8c-0.1,8.3-0.4,14.5-3.4,19.6
			c-4.8,7.7-12.9,7.7-22.1,7.7L698,233.6L698,233.6z M708.8,224h6.9c6.8,0,11.7-0.6,12.9-8.2c0.6-4,0.7-16.1,0.7-20.5
			c0-7.9,0-11-0.1-19.2c-0.1-9.3-0.2-14-4-16.7c-2.7-1.8-5.1-1.8-16.4-1.8L708.8,224L708.8,224z"/>
		<path d="M760,162h-9.6v-12.6h9.6V162z M760,233.6h-9.6v-60.9h9.6V233.6z"/>
		<path d="M805.8,172.8v57.7c0,7.7,0,10.3-1.1,13.7c-2.8,8.6-12.7,10-17.9,10c-7.1,0-16.6-3.1-16.6-15.6h8.8
			c0.1,2.5,0.4,7.9,8.2,7.9c8.5,0,8.5-6.5,8.5-12.1v-7c-3.3,4.7-7.6,6.7-12.3,6.7c-4.4,0-10-1.8-12.3-8c-1.7-4.5-1.7-8.8-1.7-23.9
			c0-10.7,0.1-15,1.1-19c0.5-2.3,2.7-11.4,14-11.4c7.9,0,10.6,4.2,12,6.5v-5.4h9.1V172.8z M795.8,188.6c-0.2-5.8-2.7-10-8.2-10
			c-8,0-8,8.7-8,18.4c0,5.9,0,16.9,0.4,21.2c0.2,4.7,2.2,8.3,7.4,8.3c4.6,0,7.5-2.9,8.3-7.4c0.5-2.8,0.5-11.7,0.5-15.1
			C796.2,203.7,795.9,190.3,795.8,188.6z"/>
		<path d="M826,162h-9.6v-12.6h9.6V162z M826,233.6h-9.6v-60.9h9.6V233.6z"/>
		<path d="M858.2,180h-8.8v38.7c0,3.9,0.4,7.7,5.6,7.7c1.6,0,2.4-0.2,3.4-0.5v7.9c-1.3,0.4-2.8,0.7-5.3,0.7
			c-8.5,0-11.2-2.9-12.4-5.7c-1.2-2.8-1.2-4-1.2-15.2V180h-7.3v-7.4h7.5v-16.3h9.7v16.3h8.8v7.4H858.2z"/>
		<path d="M897.9,220.6c0,9.4,0.4,10.9,2.9,12.9h-12v-7.3c-1.3,2.7-4.2,8.3-12.6,8.3c-2.8,0-5.2-0.6-7.3-1.8
			c-5.7-3.4-6.3-9.2-6.3-13.8c0-9.8,3.9-13,10.3-17.4c9.2-6.2,10.3-6.8,15.3-11.6c0-5,0-10.7-7.4-10.7c-7.3,0-7.3,5.1-7.3,8.7
			c0,1.8,0.1,3.1,0.2,4.5h-8.8c-0.1-2.5-0.1-9.1,0.8-12.2c3-8.8,13.4-8.8,16.1-8.8c4.4,0,8.7,0.7,12.3,4.5c3.8,3.9,3.8,7.1,3.8,15.5
			v29H897.9z M888.4,198.9c-2.8,2.7-3.3,3-8,6.5c-4.4,3.4-7.6,5.9-7.6,13c0,2.7,0,9,6.5,9c1.8,0,3.6-0.6,5.2-1.8
			c3.5-2.7,3.9-6.8,3.9-11.7L888.4,198.9L888.4,198.9z"/>
		<path d="M918.5,233.6h-9.8v-85.8h9.8V233.6z"/>
		<path d="M954.8,203.8h10.3c0,9,0,10,0.1,11.6c0.1,2.2,0.8,10.3,10.4,10.3c3.4,0,10.9-1.3,10.9-10.7c0-6.8-3-10.3-7.9-15.2
			l-11.7-12c-8.1-8.3-9.8-13.7-9.8-21.4c0-4.7,0-20.1,19.9-20.1c4.4,0,11.8,0.7,15.7,7c2.4,4,2.4,6.9,2.4,19.6h-9.3
			c-0.2-8.1-0.2-9-0.5-10.6s-1.3-6.9-8.8-6.9c-9,0-9,7.7-9,10.3c0,6.4,2.3,9,8.3,15.5l10.9,11.4c7,7.5,10.3,12,10.3,21.8
			c0,18.3-14.4,20.5-20.8,20.5c-8.2,0-12.7-2.8-14.4-4.2c-5.4-4.2-6.7-10.7-6.7-17.2v-9.6H954.8z"/>
		<path d="M1038.4,214.7c0,4.1,0,7.1-1.1,10.4c-3.5,9.6-13,9.6-16.1,9.6c-3.6,0-12.1-0.5-15.6-9.3c-1.1-2.9-1.6-4.1-1.6-28.5
			c0-13,1.1-24.9,16.8-24.9c3.9,0,15.1,0,17,13.3c0.5,3,0.5,4.7,0.5,20.1h-24.4c0,4.7-0.1,11,0.1,13.2c0.2,2.3,0.7,8.6,7.6,8.6
			c7,0,7.6-5.9,7.6-12.2h9.1V214.7z M1029.3,197.2v-7.5c-0.1-3.3-0.2-10.5-7.5-10.5c-5,0-6.4,3.1-7,5.1c-0.7,2.3-0.7,4.2-0.7,12.9
			H1029.3z"/>
		<path d="M1058.1,233.6h-10v-60.8h9.3v11.5c2.2-4.7,5.9-13,16.4-12.4v10.1c-4.4,0-9.7,0-13.2,5c-1.9,2.9-2.7,6.3-2.7,17.6v29
			H1058.1z"/>
		<path d="M1102.3,233.6h-11.1l-13-60.8h10.6l8,49.8l8.8-49.8h10.5L1102.3,233.6z"/>
		<path d="M1131.2,162h-9.6v-12.6h9.6V162z M1131.2,233.6h-9.6v-60.9h9.6V233.6z"/>
		<path d="M1175.4,210.9c0,11.1,0,23.7-17.6,23.7c-7.4,0-13.4-2.7-15.5-9.6c-1.2-4-1.5-10.5-1.5-20.4c0-21.6,0.6-33,17.9-33
			c16.7,0,16.7,11.1,16.7,23.1h-9.2c0-10.5,0-15.7-7.6-15.7c-7.6,0-7.7,5.2-7.7,22.2c0,2.4,0,11.1,0.1,16.3c0.1,3.1,0.4,9.3,7.5,9.3
			s7.7-5.9,7.7-16.1h9.2V210.9z"/>
		<path d="M1218.2,214.7c0,4.1,0,7.1-1.1,10.4c-3.5,9.6-13,9.6-16.1,9.6c-3.6,0-12.1-0.5-15.6-9.3c-1.1-2.9-1.6-4.1-1.6-28.5
			c0-13,1.1-24.9,16.8-24.9c3.9,0,15.1,0,17,13.3c0.5,3,0.5,4.7,0.5,20.1h-24.3c0,4.7-0.1,11,0.1,13.2c0.2,2.3,0.7,8.6,7.6,8.6
			c7,0,7.6-5.9,7.6-12.2h9V214.7z M1209.1,197.2v-7.5c-0.1-3.3-0.2-10.5-7.5-10.5c-5,0-6.4,3.1-7,5.1c-0.7,2.3-0.7,4.2-0.7,12.9
			H1209.1z"/>
	</g>
	<g>
		<rect x="3.5" y="3.5" width="258.5" height="258.5"/>
		<g>
			<path class="st0" d="M214.1,75.5l-0.4-11.4c0-1.1,0.9-1.1,2.9-0.7l9.2,1.8l-1.2-3c-0.4-1.2-0.5-1.9,0.4-2.7l11-8.9l-2-1.2
				c-0.6-0.4-0.6-0.9-0.3-1.9l2-6.6l-5.2,1.1c-1.5,0.3-1.9,0-2.2-0.8l-1.5-3l-5.2,5.8c-0.9,1.1-2.2,0.4-1.8-1.2l2.5-12.3l-3.8,2.2
				c-0.6,0.4-1.3,0.5-1.6-0.2l-4-8.2l-4,8.2c-0.4,0.7-1,0.6-1.6,0.2l-3.8-2.2l2.5,12.3c0.4,1.6-0.9,2.3-1.8,1.2l-5.2-5.8l-1.5,3
				c-0.4,0.8-0.8,1.2-2.2,0.8l-5.2-1.1l2,6.6c0.3,1,0.3,1.5-0.3,1.9l-2,1.2l11,8.9c0.9,0.8,0.8,1.6,0.4,2.7l-1.2,3l9.2-1.8
				c2-0.4,2.9-0.4,2.9,0.7l-0.4,11.4H214.1z"/>
		</g>
		<path class="st0" d="M265.4,265.4H0V0h265.5v265.4H265.4z M7,258.4h251.5V7H7V258.4z"/>
		<g>
			<path class="st0" d="M171,213.6c0,7.6-0.1,9.6-0.6,11.9c-0.7,3.3-2.6,9-12.8,9c-8.6,0-12.3-5.1-13.1-10.4
				c-0.2-1.6-0.6-4-0.6-18.2c0-15,0.2-16.7,0.6-19.2c0.5-2.5,1.9-10.7,13.6-10.7c4.6,0,10.5,2,11.9,8.2c0.6,2.7,0.6,6.1,0.6,10.6
				h-6.6v-4.2c0-3.8-0.1-8.5-5.8-8.5c-6,0-6.5,4.8-6.7,7c-0.5,4.1-0.5,12.7-0.5,17.1c0,3.4,0.2,15,0.5,17.2c0.2,1,1,5.3,6.6,5.3
				c5,0,5.8-4.3,6-5.4c0.3-1.4,0.3-2.7,0.3-9.4h6.6V213.6z"/>
			<path class="st0" d="M176.7,233.7v-56.8h10.7c5.5,0,10.7,0,14,4.2c2.6,3.3,2.9,6.2,2.9,20c0,3,0,6.6-0.2,14.4
				c-0.1,5.5-0.2,9.5-2.2,13c-3.2,5.1-8.5,5.1-14.7,5.1h-10.5V233.7z M183.8,227.4h4.6c4.5,0,7.7-0.4,8.5-5.4
				c0.4-2.6,0.5-10.7,0.5-13.6c0-5.2,0-7.2-0.1-12.7c-0.1-6.2-0.2-9.2-2.6-11.1c-1.8-1.2-3.4-1.2-10.9-1.2v43.9H183.8z"/>
			<path class="st0" d="M208.8,214h6.7c0,5.9,0,6.6,0.1,7.6c0.1,1.4,0.6,6.7,6.8,6.7c2.2,0,7.1-0.9,7.1-7c0-4.5-2-6.7-5.2-10.1
				l-7.7-7.8c-5.4-5.5-6.5-9-6.5-14.2c0-3.1,0-13.3,13.2-13.3c2.9,0,7.8,0.5,10.4,4.6c1.6,2.6,1.6,4.6,1.6,13H229
				c-0.2-5.4-0.2-5.9-0.3-7c-0.2-1-0.9-4.6-5.8-4.6c-5.9,0-5.9,5.1-5.9,6.7c0,4.2,1.5,5.9,5.5,10.3l7.1,7.4c4.6,5,6.7,7.8,6.7,14.4
				c0,12.1-9.4,13.6-13.8,13.6c-5.4,0-8.3-1.8-9.4-2.8c-3.6-2.8-4.4-7-4.4-11.4V214H208.8z"/>
		</g>
		<g>
			<path class="st0" d="M144.4,143.6h6.7c0,5.9,0,6.6,0.1,7.6c0.1,1.4,0.6,6.7,6.8,6.7c2.2,0,7.1-0.9,7.1-7c0-4.5-2-6.7-5.2-10.1
				l-7.7-7.8c-5.4-5.5-6.5-9-6.5-14.2c0-3.1,0-13.3,13.2-13.3c2.9,0,7.8,0.5,10.4,4.6c1.6,2.6,1.6,4.6,1.6,13h-6.2
				c-0.2-5.4-0.2-5.9-0.3-7c-0.2-1-0.9-4.6-5.8-4.6c-5.9,0-5.9,5.1-5.9,6.7c0,4.2,1.5,5.9,5.5,10.3l7.1,7.4c4.6,5,6.7,7.8,6.7,14.4
				c0,12.1-9.4,13.6-13.8,13.6c-5.4,0-8.3-1.8-9.4-2.8c-3.6-2.8-4.4-7-4.4-11.4v-6.1H144.4z"/>
			<path class="st0" d="M203.7,163.2h-10L182.7,114l1,49.2h-6.9v-56.9h9.6l11.5,49.8l-1-49.8h6.8V163.2z"/>
			<path class="st0" d="M236.4,143.2c0,7.6-0.1,9.6-0.6,11.9c-0.7,3.3-2.6,9-12.8,9c-8.6,0-12.3-5.1-13.1-10.4
				c-0.2-1.6-0.6-4-0.6-18.2c0-15,0.2-16.7,0.6-19.2c0.5-2.5,1.9-10.7,13.6-10.7c4.6,0,10.5,2,11.9,8.2c0.6,2.7,0.6,6.1,0.6,10.6
				h-6.6v-4.2c0-3.8-0.1-8.5-5.8-8.5c-6,0-6.5,4.8-6.7,7c-0.5,4.1-0.5,12.7-0.5,17.1c0,3.4,0.2,15,0.5,17.2c0.2,1,1,5.3,6.6,5.3
				c5,0,5.8-4.3,6-5.4c0.3-1.4,0.3-2.7,0.3-9.4h6.6V143.2z"/>
		</g>
	</g>
</g>
</svg>
