<svg xmlns="http://www.w3.org/2000/svg" viewBox="0 0 144 144"><title>cds-logo-en-abbrev</title><rect width="144" height="144" style="fill:#000000"/><path d="M0,0V144H144V0ZM137.17,138H6.83V7.68H137.17Z" style="fill:#fff"/><path d="M113,44.64s-.25-4.58-.25-5.09.41-.53.87-.37,4.72.88,4.72.87-.31-.92-.62-1.61c-.16-.65.16-.76.25-.87s4.82-4.18,4.84-4.22L122,33c-.47-.21-.41-.57-.37-.87s.89-2.91.87-2.85-2,.41-2.48.5-.5-.13-.62-.37-.55-1.42-.5-1.36-2.53,2.64-2.61,2.73c-.45.37-.91.06-.75-.5,0-.42,1.18-5.8,1.24-5.83s-1.36.81-1.74,1.12-.7.16-.87-.25-1.9-3.63-1.86-3.6-1.59,3.18-1.86,3.6-.46.45-.87.25-1.71-1.09-1.74-1.12,1.17,5.41,1.24,5.83-.33.87-.74.5c-.1-.09-2.59-2.78-2.61-2.73s-.45,1.09-.5,1.36-.31.45-.62.37c-.52-.08-2.58-.55-2.61-.5s.85,2.64.87,2.85.19.66-.25.87l-.75.37s4.59,4,4.72,4.22.5.22.25.87-.53,1.62-.5,1.61,4.26-.82,4.72-.87.84,0,.87.37-.24,5.11-.25,5.09Z" style="fill:#fff"/><path d="M85.38,116.93l-3.68-1.55-.18.46a5.41,5.41,0,0,1-5.58,3.85c-5.74,0-6.35-5.32-6.35-7.61,0-4.64,2.35-7.41,6.3-7.41,2.07,0,4.72.65,5.58,3.76l.14.52,3.73-1.55-.18-.44a9.37,9.37,0,0,0-9.21-6.1c-7.6,0-10.31,5.84-10.31,11.31a12.37,12.37,0,0,0,2.49,7.91,10.3,10.3,0,0,0,17.06-2.71Z" style="fill:#fff"/><path d="M94.41,101.2H88.24v22h6.15c7.16,0,11.27-4,11.27-10.83C105.65,105.15,101.66,101.2,94.41,101.2Zm7.26,11c0,6-4.16,7.28-7.65,7.28H92.21V104.9h2.14C99.42,104.9,101.68,107.15,101.68,112.18Z" style="fill:#fff"/><path d="M115.25,119.77c-2.44,0-4-1.33-4.26-3.55l-.06-.56-3.89,1,.07.42c.71,4.34,4.58,6.28,8.11,6.28,4.35,0,7.38-2.74,7.38-6.67,0-4.14-3.31-5.54-6.23-6.76-2.1-.89-3.92-1.65-3.92-3.27A2.34,2.34,0,0,1,115,104.5a3.68,3.68,0,0,1,3.34,2.08l.24.46,3.23-2.06-.23-.39a7.13,7.13,0,0,0-6.51-3.71c-3.81,0-6.58,2.54-6.58,6,0,3.86,3.15,5.18,5.93,6.35,2.27,1,4.23,1.77,4.23,3.74C118.67,118.73,117.39,119.77,115.25,119.77Z" style="fill:#fff"/></svg>