<?xml version="1.0" encoding="utf-8"?>
<!-- Generator: Adobe Illustrator 22.1.0, SVG Export Plug-In . SVG Version: 6.00 Build 0)  -->
<svg version="1.1" id="Layer_1" xmlns="http://www.w3.org/2000/svg" xmlns:xlink="http://www.w3.org/1999/xlink" x="0px" y="0px"
	 viewBox="0 0 264.2 264.2" style="enable-background:new 0 0 264.2 264.2;" xml:space="preserve">
<style type="text/css">
	.st0{fill:#FFFFFF;}
</style>
<g>
	<rect x="3.5" y="3.5" width="257.2" height="257.2"/>
	<g>
		<path class="st0" d="M213,75.1l-0.4-11.3c0-1.1,0.9-1.1,2.9-0.7l9.2,1.8l-1.2-3c-0.4-1.2-0.5-1.9,0.4-2.7l10.9-8.9l-2-1.2
			c-0.6-0.4-0.6-0.9-0.3-1.9l2-6.6l-5.2,1.1c-1.5,0.3-1.9,0-2.2-0.8l-1.5-3l-5.2,5.8c-0.9,1.1-2.2,0.4-1.8-1.2l2.5-12.2l-3.8,2.2
			c-0.6,0.4-1.3,0.5-1.6-0.2l-4-8.2l-4,8.2c-0.4,0.7-1,0.6-1.6,0.2l-3.8-2.2l2.5,12.2c0.4,1.6-0.9,2.3-1.8,1.2l-5.2-5.8l-1.5,3
			c-0.4,0.8-0.8,1.2-2.2,0.8l-5.2-1.1l2,6.6c0.3,1,0.3,1.5-0.3,1.9l-2,1.2l10.9,8.9c0.9,0.8,0.8,1.6,0.4,2.7l-1.2,3l9.2-1.8
			c2-0.4,2.9-0.4,2.9,0.7L210,75.1H213z"/>
	</g>
	<path class="st0" d="M264.2,264.2H0V0h264.2V264.2z M7,257.2h250.2V7H7V257.2z"/>
	<g>
		<path class="st0" d="M170.1,212.6c0,7.6-0.1,9.6-0.6,11.8c-0.7,3.3-2.6,9-12.7,9c-8.6,0-12.2-5.1-13-10.3c-0.2-1.6-0.6-4-0.6-18.1
			c0-14.9,0.2-16.6,0.6-19.1c0.5-2.5,1.9-10.6,13.5-10.6c4.6,0,10.4,2,11.8,8.2c0.6,2.7,0.6,6.1,0.6,10.5h-6.6v-4.2
			c0-3.8-0.1-8.5-5.8-8.5c-6,0-6.5,4.8-6.7,7c-0.5,4.1-0.5,12.6-0.5,17c0,3.4,0.2,14.9,0.5,17.1c0.2,1,1,5.3,6.6,5.3
			c5,0,5.8-4.3,6-5.4c0.3-1.4,0.3-2.7,0.3-9.4H170.1z"/>
		<path class="st0" d="M175.9,232.5v-56.5h10.6c5.5,0,10.6,0,13.9,4.2c2.6,3.3,2.9,6.2,2.9,19.9c0,3,0,6.6-0.2,14.3
			c-0.1,5.5-0.2,9.5-2.2,12.9c-3.2,5.1-8.5,5.1-14.6,5.1H175.9z M182.9,226.3h4.6c4.5,0,7.7-0.4,8.5-5.4c0.4-2.6,0.5-10.6,0.5-13.5
			c0-5.2,0-7.2-0.1-12.6c-0.1-6.2-0.2-9.2-2.6-11c-1.8-1.2-3.4-1.2-10.8-1.2V226.3z"/>
		<path class="st0" d="M207.8,213h6.7c0,5.9,0,6.6,0.1,7.6c0.1,1.4,0.6,6.7,6.8,6.7c2.2,0,7.1-0.9,7.1-7c0-4.5-2-6.7-5.2-10
			l-7.7-7.8c-5.4-5.5-6.5-9-6.5-14.1c0-3.1,0-13.2,13.1-13.2c2.9,0,7.8,0.5,10.3,4.6c1.6,2.6,1.6,4.6,1.6,12.9H228
			c-0.2-5.4-0.2-5.9-0.3-7c-0.2-1-0.9-4.6-5.8-4.6c-5.9,0-5.9,5.1-5.9,6.7c0,4.2,1.5,5.9,5.5,10.2l7.1,7.4c4.6,5,6.7,7.8,6.7,14.3
			c0,12-9.4,13.5-13.7,13.5c-5.4,0-8.3-1.8-9.4-2.8c-3.6-2.8-4.4-7-4.4-11.3V213z"/>
	</g>
	<g>
		<path class="st0" d="M143.7,143h6.7c0,5.9,0,6.6,0.1,7.6c0.1,1.4,0.6,6.7,6.8,6.7c2.2,0,7.1-0.9,7.1-7c0-4.5-2-6.7-5.2-10
			l-7.7-7.8c-5.4-5.5-6.5-9-6.5-14.1c0-3.1,0-13.2,13.1-13.2c2.9,0,7.8,0.5,10.3,4.6c1.6,2.6,1.6,4.6,1.6,12.9H164
			c-0.2-5.4-0.2-5.9-0.3-7c-0.2-1-0.9-4.6-5.8-4.6c-5.9,0-5.9,5.1-5.9,6.7c0,4.2,1.5,5.9,5.5,10.2l7.1,7.4c4.6,5,6.7,7.8,6.7,14.3
			c0,12-9.4,13.5-13.7,13.5c-5.4,0-8.3-1.8-9.4-2.8c-3.6-2.8-4.4-7-4.4-11.3V143z"/>
		<path class="st0" d="M202.8,162.5h-9.9l-11-49l1,49h-6.9v-56.6h9.6l11.4,49.5l-1-49.5h6.8V162.5z"/>
		<path class="st0" d="M235.3,142.6c0,7.6-0.1,9.6-0.6,11.8c-0.7,3.3-2.6,9-12.7,9c-8.6,0-12.2-5.1-13-10.3c-0.2-1.6-0.6-4-0.6-18.1
			c0-14.9,0.2-16.6,0.6-19.1c0.5-2.5,1.9-10.6,13.5-10.6c4.6,0,10.4,2,11.8,8.2c0.6,2.7,0.6,6.1,0.6,10.5h-6.6v-4.2
			c0-3.8-0.1-8.5-5.8-8.5c-6,0-6.5,4.8-6.7,7c-0.5,4.1-0.5,12.6-0.5,17c0,3.4,0.2,14.9,0.5,17.1c0.2,1,1,5.3,6.6,5.3
			c5,0,5.8-4.3,6-5.4c0.3-1.4,0.3-2.7,0.3-9.4H235.3z"/>
	</g>
</g>
</svg>
