<?xml version="1.0" encoding="UTF-8" standalone="no"?>
<svg
   xmlns:dc="http://purl.org/dc/elements/1.1/"
   xmlns:cc="http://creativecommons.org/ns#"
   xmlns:rdf="http://www.w3.org/1999/02/22-rdf-syntax-ns#"
   xmlns:svg="http://www.w3.org/2000/svg"
   xmlns="http://www.w3.org/2000/svg"
   viewBox="0 0 1814.84 352.21332"
   height="352.21332"
   width="1814.84"
   xml:space="preserve"
   id="svg2"
   version="1.1"><metadata
     id="metadata8"><rdf:RDF><cc:Work
         rdf:about=""><dc:format>image/svg+xml</dc:format><dc:type
           rdf:resource="http://purl.org/dc/dcmitype/StillImage" /></cc:Work></rdf:RDF></metadata><defs
     id="defs6" /><g
     transform="matrix(1.3333333,0,0,-1.3333333,0,352.21333)"
     id="g10"><g
       transform="scale(0.1)"
       id="g12"><path
         id="path14"
         style="fill:#ffffff;fill-opacity:1;fill-rule:nonzero;stroke:none"
         d="m 3714.94,1849.03 c 0,-114.95 -1.21,-145.2 -8.47,-177.88 -10.89,-49.61 -38.72,-135.52 -192.39,-135.52 -130.69,0 -183.93,77.45 -197.24,156.1 -3.63,24.2 -8.47,60.5 -8.47,273.47 0,225.05 3.63,251.68 9.68,289.18 7.26,37.51 29.04,160.94 204.5,160.94 70.18,0 157.3,-30.25 179.08,-123.43 9.68,-41.13 9.68,-91.96 8.47,-158.5 h -99.22 v 64.13 c 0,58.07 -1.21,128.26 -88.33,128.26 -90.75,0 -98.01,-72.61 -101.65,-105.27 -7.26,-61.71 -7.26,-191.19 -7.26,-256.53 0,-52.03 2.42,-225.07 7.26,-258.94 3.64,-15.74 14.52,-79.86 99.23,-79.86 76.23,0 87.12,65.34 90.75,81.07 4.84,21.78 4.84,41.14 4.84,142.78 h 99.22" /><path
         id="path16"
         style="fill:#ffffff;fill-opacity:1;fill-rule:nonzero;stroke:none"
         d="m 4038,1892.59 c -27.83,-26.63 -32.67,-30.25 -79.87,-65.34 -43.55,-33.88 -76.23,-59.29 -76.23,-129.48 0,-26.62 0,-89.54 65.35,-89.54 18.15,0 36.29,6.06 52.03,18.16 35.09,26.62 38.72,67.76 38.72,116.16 z M 4133.59,1676 c 0,-94.39 3.63,-107.7 29.04,-128.27 h -118.58 v 72.6 c -13.31,-26.62 -42.35,-83.48 -124.64,-83.48 -27.82,0 -52.03,6.04 -72.59,18.14 -56.88,33.89 -62.93,91.96 -62.93,136.74 0,98 38.72,129.47 101.65,173.02 91.96,61.72 101.64,67.77 152.46,114.96 0,49.61 0,106.48 -73.82,106.48 -72.59,0 -72.59,-50.82 -72.59,-87.12 0,-18.15 1.2,-31.46 2.41,-44.77 h -88.33 c -1.21,25.41 -1.21,90.75 8.48,121 30.24,88.33 133.1,88.33 159.72,88.33 43.56,0 87.12,-7.25 122.21,-44.76 37.51,-38.73 37.51,-71.4 37.51,-153.67 V 1676" /><path
         id="path18"
         style="fill:#ffffff;fill-opacity:1;fill-rule:nonzero;stroke:none"
         d="m 4588.54,1547.73 h -98.02 v 394.47 c 0,87.12 0,145.2 -71.39,145.2 -81.07,0 -81.07,-82.27 -81.07,-148.83 v -390.84 h -96.8 v 605.02 h 91.96 v -55.67 c 18.15,21.79 55.66,66.55 129.47,66.55 125.85,0 125.85,-106.47 125.85,-189.97 v -425.93" /><path
         id="path20"
         style="fill:#ffffff;fill-opacity:1;fill-rule:nonzero;stroke:none"
         d="m 4920.07,1892.59 c -27.83,-26.63 -32.67,-30.25 -79.86,-65.34 -43.56,-33.88 -76.23,-59.29 -76.23,-129.48 0,-26.62 0,-89.54 65.34,-89.54 18.15,0 36.3,6.06 52.03,18.16 35.09,26.62 38.72,67.76 38.72,116.16 z M 5015.66,1676 c 0,-94.39 3.64,-107.7 29.05,-128.27 h -118.59 v 72.6 c -13.31,-26.62 -42.35,-83.48 -124.63,-83.48 -27.83,0 -52.03,6.04 -72.6,18.14 -56.87,33.89 -62.92,91.96 -62.92,136.74 0,98 38.72,129.47 101.64,173.02 91.96,61.72 101.64,67.77 152.46,114.96 0,49.61 0,106.48 -73.81,106.48 -72.6,0 -72.6,-50.82 -72.6,-87.12 0,-18.15 1.21,-31.46 2.42,-44.77 h -88.33 c -1.21,25.41 -1.21,90.75 8.47,121 30.25,88.33 133.1,88.33 159.72,88.33 43.56,0 87.12,-7.25 122.21,-44.76 37.51,-38.73 37.51,-71.4 37.51,-153.67 V 1676" /><path
         id="path22"
         style="fill:#ffffff;fill-opacity:1;fill-rule:nonzero;stroke:none"
         d="m 5290.31,2087.4 c -72.6,0 -75.02,-73.81 -77.44,-122.2 -2.42,-65.35 -2.42,-65.35 -2.42,-163.36 0,-26.63 0,-58.08 2.42,-95.59 2.42,-25.41 6.06,-93.17 77.44,-93.17 82.29,0 82.29,81.07 84.71,234.74 2.41,145.21 2.41,239.58 -84.71,239.58 z m 180.3,-539.67 h -90.76 v 64.13 c -13.31,-22.98 -44.76,-75.01 -127.05,-75.01 -12.1,0 -25.41,1.21 -37.51,4.83 -98,25.41 -101.64,128.27 -101.64,304.93 0,56.87 0,169.41 14.52,216.59 16.94,56.88 62.92,100.43 129.48,100.43 68.96,0 98,-36.3 114.95,-59.29 v 297.67 h 98.01 v -854.28" /><path
         id="path24"
         style="fill:#ffffff;fill-opacity:1;fill-rule:nonzero;stroke:none"
         d="m 5672.68,1547.73 h -95.6 v 606.23 h 95.6 z m 0,711.5 h -95.6 v 124.63 h 95.6 v -124.63" /><path
         id="path26"
         style="fill:#ffffff;fill-opacity:1;fill-rule:nonzero;stroke:none"
         d="m 6004.21,1892.59 c -27.83,-26.63 -32.68,-30.25 -79.86,-65.34 -43.57,-33.88 -76.23,-59.29 -76.23,-129.48 0,-26.62 0,-89.54 65.34,-89.54 18.14,0 36.3,6.06 52.03,18.16 35.09,26.62 38.72,67.76 38.72,116.16 z M 6099.79,1676 c 0,-94.39 3.64,-107.7 29.05,-128.27 h -118.59 v 72.6 c -13.31,-26.62 -42.34,-83.48 -124.62,-83.48 -27.84,0 -52.04,6.04 -72.6,18.14 -56.88,33.89 -62.93,91.96 -62.93,136.74 0,98 38.72,129.47 101.65,173.02 91.95,61.72 101.64,67.77 152.46,114.96 0,49.61 0,106.48 -73.82,106.48 -72.6,0 -72.6,-50.82 -72.6,-87.12 0,-18.15 1.21,-31.46 2.42,-44.77 h -88.33 c -1.21,25.41 -1.21,90.75 8.47,121 30.26,88.33 133.11,88.33 159.73,88.33 43.55,0 87.12,-7.25 122.21,-44.76 37.5,-38.73 37.5,-71.4 37.5,-153.67 V 1676" /><path
         id="path28"
         style="fill:#ffffff;fill-opacity:1;fill-rule:nonzero;stroke:none"
         d="m 6554.75,1547.73 h -98.02 v 394.47 c 0,87.12 0,145.2 -71.39,145.2 -81.07,0 -81.07,-82.27 -81.07,-148.83 v -390.84 h -96.8 v 605.02 h 91.96 v -55.67 c 18.15,21.79 55.66,66.55 129.47,66.55 125.85,0 125.85,-106.47 125.85,-189.97 v -425.93" /><path
         id="path30"
         style="fill:#ffffff;fill-opacity:1;fill-rule:nonzero;stroke:none"
         d="m 7052.03,1642.12 h 68.98 c 67.76,0 116.16,6.04 128.26,82.27 6.05,39.94 7.25,159.73 7.25,204.5 0,78.65 0,108.9 -1.2,191.19 -1.21,93.16 -2.42,139.15 -39.93,165.77 -26.62,18.15 -50.82,18.15 -163.36,18.15 z m -106.47,-94.39 v 854.28 h 160.92 c 83.5,0 159.73,0 210.55,-64.13 39.93,-49.61 43.56,-94.38 43.56,-301.3 0,-45.97 0,-100.43 -2.42,-216.59 -1.21,-83.49 -3.63,-143.99 -33.88,-194.81 -48.4,-77.45 -128.26,-77.45 -220.23,-77.45 h -158.5" /><path
         id="path32"
         style="fill:#ffffff;fill-opacity:1;fill-rule:nonzero;stroke:none"
         d="m 7562.65,1547.73 h -95.59 v 606.23 h 95.59 z m 0,711.5 h -95.59 v 124.63 h 95.59 v -124.63" /><path
         id="path34"
         style="fill:#ffffff;fill-opacity:1;fill-rule:nonzero;stroke:none"
         d="m 7918.38,1995.44 c -2.41,58.08 -26.62,99.23 -82.28,99.23 -79.86,0 -79.86,-87.13 -79.86,-182.72 0,-59.29 0,-168.19 3.63,-210.54 2.42,-47.19 21.78,-83.49 73.81,-83.49 45.98,0 75.02,29.03 83.49,73.81 4.84,27.83 4.84,116.16 4.84,150.04 0,2.42 -2.42,136.73 -3.63,153.67 z m 99.23,157.31 V 1579.2 c 0,-77.44 0,-101.65 -10.9,-135.53 -27.82,-85.91 -125.84,-99.22 -177.87,-99.22 -71.39,0 -164.56,31.46 -164.56,154.89 h 88.33 c 1.21,-25.41 3.63,-78.66 82.28,-78.66 84.7,0 84.7,65.34 84.7,119.8 v 70.17 c -32.67,-47.18 -76.23,-66.55 -122.21,-66.55 -43.56,0 -99.23,18.16 -122.21,79.86 -16.95,44.78 -16.95,88.33 -16.95,238.38 0,106.48 1.21,148.83 10.9,188.76 4.84,22.99 26.62,112.53 139.15,112.53 78.65,0 105.27,-42.34 118.59,-65.34 v 54.46 h 90.75" /><path
         id="path36"
         style="fill:#ffffff;fill-opacity:1;fill-rule:nonzero;stroke:none"
         d="m 8218.46,1547.73 h -95.59 v 606.23 h 95.59 z m 0,711.5 h -95.59 v 124.63 h 95.59 v -124.63" /><path
         id="path38"
         style="fill:#ffffff;fill-opacity:1;fill-rule:nonzero;stroke:none"
         d="m 8539.1,2080.14 h -88.33 v -384.78 c 0,-38.72 3.63,-77.44 55.67,-77.44 15.72,0 24.19,2.41 33.87,4.83 v -78.65 c -13.31,-3.62 -27.83,-7.25 -53.24,-7.25 -84.7,0 -111.32,29.04 -123.42,56.86 -12.1,27.83 -12.1,39.93 -12.1,151.26 v 335.17 h -72.6 v 73.82 h 75.01 v 162.13 h 96.81 v -162.13 h 88.33 v -73.82" /><path
         id="path40"
         style="fill:#ffffff;fill-opacity:1;fill-rule:nonzero;stroke:none"
         d="m 8838.89,1892.59 c -27.84,-26.63 -32.68,-30.25 -79.87,-65.34 -43.56,-33.88 -76.23,-59.29 -76.23,-129.48 0,-26.62 0,-89.54 65.34,-89.54 18.15,0 36.3,6.06 52.04,18.16 35.08,26.62 38.72,67.76 38.72,116.16 z M 8934.47,1676 c 0,-94.39 3.64,-107.7 29.05,-128.27 h -118.59 v 72.6 c -13.31,-26.62 -42.34,-83.48 -124.63,-83.48 -27.83,0 -52.03,6.04 -72.59,18.14 -56.88,33.89 -62.93,91.96 -62.93,136.74 0,98 38.72,129.47 101.65,173.02 91.95,61.72 101.64,67.77 152.46,114.96 0,49.61 0,106.48 -73.82,106.48 -72.6,0 -72.6,-50.82 -72.6,-87.12 0,-18.15 1.21,-31.46 2.42,-44.77 h -88.33 c -1.21,25.41 -1.21,90.75 8.47,121 30.25,88.33 133.1,88.33 159.73,88.33 43.55,0 87.12,-7.25 122.2,-44.76 37.51,-38.73 37.51,-71.4 37.51,-153.67 V 1676" /><path
         id="path42"
         style="fill:#ffffff;fill-opacity:1;fill-rule:nonzero;stroke:none"
         d="m 9138.95,1547.73 h -98.01 v 854.28 h 98.01 v -854.28" /><path
         id="path44"
         style="fill:#ffffff;fill-opacity:1;fill-rule:nonzero;stroke:none"
         d="m 9500.71,1842.98 h 101.65 c 0,-89.54 0,-99.22 1.2,-114.95 1.22,-21.78 8.48,-101.64 102.87,-101.64 33.87,0 107.68,13.31 107.68,106.48 0,67.76 -30.24,101.64 -78.65,151.25 l -116.16,118.59 c -81.07,83.48 -98.01,135.51 -98.01,212.95 0,47.2 0,199.66 198.45,199.66 43.55,0 117.36,-7.27 156.08,-70.18 24.21,-39.93 24.21,-68.97 24.21,-194.82 h -93.17 c -2.43,81.07 -2.43,89.54 -4.85,105.27 -2.42,15.74 -13.31,68.98 -88.33,68.98 -89.54,0 -89.54,-77.44 -89.54,-101.64 0,-64.13 22.99,-89.54 83.49,-153.67 l 107.69,-112.54 c 70.19,-75.02 101.64,-118.58 101.64,-216.59 0,-181.51 -142.78,-204.5 -206.91,-204.5 -82.28,0 -125.84,27.84 -142.78,42.36 -54.45,42.34 -66.56,106.47 -66.56,170.6 v 94.39" /><path
         id="path46"
         style="fill:#ffffff;fill-opacity:1;fill-rule:nonzero;stroke:none"
         d="m 10241.2,1909.53 v 75.02 c -1.2,32.68 -2.4,104.06 -75,104.06 -49.6,0 -64.1,-31.45 -70.2,-50.82 -7.2,-22.99 -7.2,-42.35 -7.2,-128.26 z m 90.8,-174.25 c 0,-41.13 0,-71.39 -10.9,-102.85 -35.1,-95.58 -129.5,-95.58 -159.7,-95.58 -36.3,0 -119.8,4.83 -154.9,93.17 -10.9,29.03 -15.74,41.13 -15.74,284.36 0,129.47 10.94,248.04 166.94,248.04 38.8,0 150.1,0 169.4,-131.88 4.9,-30.26 4.9,-47.2 4.9,-199.66 h -243.2 c 0,-47.19 -1.2,-108.91 1.2,-130.68 2.4,-22.99 7.2,-85.91 76.2,-85.91 70.2,0 76.2,59.28 76.2,120.99 h 89.6" /><path
         id="path48"
         style="fill:#ffffff;fill-opacity:1;fill-rule:nonzero;stroke:none"
         d="m 10528,1547.73 h -99.2 v 605.02 h 93.1 V 2039 c 21.8,47.19 59.3,129.48 163.4,123.42 v -100.43 c -43.6,0 -96.8,0 -130.7,-49.61 -19.3,-29.04 -26.6,-62.92 -26.6,-175.45 v -289.2" /><path
         id="path50"
         style="fill:#ffffff;fill-opacity:1;fill-rule:nonzero;stroke:none"
         d="m 10967.2,1547.73 h -110.1 l -129.5,605.02 h 105.3 l 79.9,-494.91 88.3,494.91 h 104.1 l -138,-605.02" /><path
         id="path52"
         style="fill:#ffffff;fill-opacity:1;fill-rule:nonzero;stroke:none"
         d="m 11255.2,1547.73 h -95.6 v 606.23 h 95.6 z m 0,711.5 h -95.6 v 124.63 h 95.6 v -124.63" /><path
         id="path54"
         style="fill:#ffffff;fill-opacity:1;fill-rule:nonzero;stroke:none"
         d="m 11695.6,1772.8 c 0,-110.12 0,-235.95 -175.4,-235.95 -73.8,0 -133.1,26.62 -153.7,95.58 -12.1,39.93 -14.5,104.07 -14.5,203.29 0,215.38 6,327.91 177.9,327.91 165.7,0 165.7,-110.11 165.7,-229.9 h -91.9 c 0,104.06 0,156.09 -76.3,156.09 -76.2,0 -77.4,-52.03 -77.4,-221.43 0,-24.2 0,-110.11 1.2,-162.14 1.2,-31.46 3.6,-93.17 75,-93.17 71.4,0 77.5,59.28 77.5,159.72 h 91.9" /><path
         id="path56"
         style="fill:#ffffff;fill-opacity:1;fill-rule:nonzero;stroke:none"
         d="m 12030.8,1909.53 v 75.02 c -1.2,32.68 -2.4,104.06 -75,104.06 -49.6,0 -64.2,-31.45 -70.2,-50.82 -7.3,-22.99 -7.3,-42.35 -7.3,-128.26 z m 90.7,-174.25 c 0,-41.13 0,-71.39 -10.9,-102.85 -35,-95.58 -129.4,-95.58 -159.7,-95.58 -36.3,0 -119.8,4.83 -154.9,93.17 -10.9,29.03 -15.7,41.13 -15.7,284.36 0,129.47 10.9,248.04 167,248.04 38.7,0 150,0 169.4,-131.88 4.8,-30.26 4.8,-47.2 4.8,-199.66 h -243.2 c 0,-47.19 -1.2,-108.91 1.2,-130.68 2.5,-22.99 7.3,-85.91 76.3,-85.91 70.1,0 76.2,59.28 76.2,120.99 h 89.5" /><path
         id="path58"
         style="fill:#ffffff;fill-opacity:1;fill-rule:nonzero;stroke:none"
         d="m 3287.8,612.98 h 101.64 c 0,-89.539 0,-99.218 1.21,-114.949 1.22,-21.781 8.48,-101.64 102.86,-101.64 33.88,0 107.69,13.308 107.69,106.48 0,67.75 -30.25,101.641 -78.65,151.25 l -116.16,118.578 c -81.08,83.492 -98.02,135.52 -98.02,212.961 0,47.2 0,199.66 198.45,199.66 43.56,0 117.37,-7.26 156.09,-70.18 24.2,-39.94 24.2,-68.97 24.2,-194.82 h -93.17 c -2.42,81.08 -2.42,89.54 -4.84,105.28 -2.42,15.73 -13.31,68.97 -88.33,68.97 -89.54,0 -89.54,-77.44 -89.54,-101.64 0,-64.129 22.98,-89.539 83.49,-153.668 l 107.69,-112.543 c 70.18,-75.02 101.64,-118.578 101.64,-216.59 0,-181.508 -142.78,-204.5 -206.91,-204.5 -82.29,0 -125.85,27.84 -142.78,42.363 -54.46,42.34 -66.56,106.469 -66.56,170.598 v 94.39" /><path
         id="path60"
         style="fill:#ffffff;fill-opacity:1;fill-rule:nonzero;stroke:none"
         d="m 4028.32,679.531 v 75.02 c -1.21,32.679 -2.42,104.058 -75.02,104.058 -49.61,0 -64.13,-31.449 -70.18,-50.82 -7.26,-22.988 -7.26,-42.348 -7.26,-128.258 z m 90.75,-174.25 c 0,-41.133 0,-71.383 -10.89,-102.851 -35.08,-95.578 -129.47,-95.578 -159.72,-95.578 -36.3,0 -119.79,4.828 -154.88,93.168 -10.89,29.031 -15.73,41.128 -15.73,284.351 0,129.481 10.89,248.051 166.98,248.051 38.72,0 150.04,0 169.4,-131.883 4.84,-30.258 4.84,-47.199 4.84,-199.66 h -243.21 c 0,-47.188 -1.21,-108.91 1.21,-130.688 2.42,-22.98 7.26,-85.902 76.23,-85.902 70.18,0 76.23,59.281 76.23,120.992 h 89.54" /><path
         id="path62"
         style="fill:#ffffff;fill-opacity:1;fill-rule:nonzero;stroke:none"
         d="m 4315.07,317.73 h -99.22 v 605.008 h 93.17 V 809 c 21.79,47.191 59.3,129.48 163.36,123.422 V 831.988 c -43.56,0 -96.8,0 -130.69,-49.609 -19.36,-29.039 -26.62,-62.918 -26.62,-175.449 v -289.2" /><path
         id="path64"
         style="fill:#ffffff;fill-opacity:1;fill-rule:nonzero;stroke:none"
         d="M 4754.31,317.73 H 4644.19 L 4514.72,922.738 H 4620 l 79.85,-494.898 88.34,494.898 h 104.06 L 4754.31,317.73" /><path
         id="path66"
         style="fill:#ffffff;fill-opacity:1;fill-rule:nonzero;stroke:none"
         d="m 5042.27,317.73 h -95.59 v 606.219 h 95.59 z m 0,711.5 h -95.59 v 124.63 h 95.59 v -124.63" /><path
         id="path68"
         style="fill:#ffffff;fill-opacity:1;fill-rule:nonzero;stroke:none"
         d="m 5482.71,542.801 c 0,-110.11 0,-235.949 -175.46,-235.949 -73.81,0 -133.1,26.617 -153.68,95.578 -12.09,39.929 -14.51,104.058 -14.51,203.289 0,215.383 6.05,327.91 177.87,327.91 165.78,0 165.78,-110.109 165.78,-229.899 h -91.97 c 0,104.059 0,156.09 -76.23,156.09 -76.23,0 -77.44,-52.031 -77.44,-221.429 0,-24.2 0,-110.11 1.21,-162.141 1.21,-31.469 3.62,-93.168 75.02,-93.168 71.39,0 77.44,59.277 77.44,159.719 h 91.97" /><path
         id="path70"
         style="fill:#ffffff;fill-opacity:1;fill-rule:nonzero;stroke:none"
         d="m 5817.85,679.531 v 75.02 c -1.2,32.679 -2.41,104.058 -75.02,104.058 -49.61,0 -64.13,-31.449 -70.17,-50.82 -7.27,-22.988 -7.27,-42.348 -7.27,-128.258 z m 90.75,-174.25 c 0,-41.133 0,-71.383 -10.89,-102.851 -35.08,-95.578 -129.47,-95.578 -159.71,-95.578 -36.31,0 -119.8,4.828 -154.88,93.168 -10.89,29.031 -15.74,41.128 -15.74,284.351 0,129.481 10.89,248.051 166.99,248.051 38.72,0 150.03,0 169.4,-131.883 4.83,-30.258 4.83,-47.199 4.83,-199.66 h -243.21 c 0,-47.188 -1.21,-108.91 1.21,-130.688 2.42,-22.98 7.27,-85.902 76.23,-85.902 70.19,0 76.23,59.281 76.23,120.992 h 89.54" /><path
         id="path72"
         style="fill:#ffffff;fill-opacity:1;fill-rule:nonzero;stroke:none"
         d="m 6629.74,317.73 h -98.01 v 394.469 c 0,87.129 0,145.199 -71.4,145.199 -81.06,0 -81.06,-82.269 -81.06,-148.828 V 317.73 h -96.81 v 605.008 h 91.96 v -55.656 c 18.16,21.789 55.67,66.547 129.48,66.547 125.84,0 125.84,-106.469 125.84,-189.969 V 317.73" /><path
         id="path74"
         style="fill:#ffffff;fill-opacity:1;fill-rule:nonzero;stroke:none"
         d="m 7083.49,317.73 h -93.18 v 55.668 c -19.35,-24.199 -53.23,-66.546 -128.26,-66.546 -50.82,0 -82.27,22.98 -98.01,47.179 -25.41,38.719 -27.83,82.289 -27.83,187.559 v 381.148 h 96.81 V 525.859 l 1.21,-58.089 c 0,-24.2 2.41,-88.329 70.17,-88.329 83.5,0 83.5,84.707 83.5,147.629 v 395.668 h 95.59 V 317.73" /><path
         id="path76"
         style="fill:#ffffff;fill-opacity:1;fill-rule:nonzero;stroke:none"
         d="m 7790.14,317.73 h -98.02 v 395.68 c 0,53.238 -1.21,76.231 -6.05,94.379 -8.47,26.621 -30.25,50.82 -70.18,50.82 -77.44,0 -77.44,-81.07 -77.44,-143.988 V 317.73 h -98.01 v 395.68 c 0,81.07 0,145.199 -75.02,145.199 -78.65,0 -78.65,-76.23 -78.65,-146.41 V 317.73 h -98.02 v 605.008 h 91.96 V 862.25 c 18.16,24.191 54.46,71.379 129.48,71.379 77.44,0 105.27,-47.188 118.58,-71.379 19.36,25.41 52.03,71.379 125.84,71.379 12.1,0 56.87,0 94.38,-37.508 41.15,-41.141 41.15,-85.91 41.15,-183.922 V 317.73" /><path
         id="path78"
         style="fill:#ffffff;fill-opacity:1;fill-rule:nonzero;stroke:none"
         d="m 8081.73,998.969 h -77.44 l 64.13,130.691 h 131.89 z m 54.44,-319.438 v 75.02 c -1.2,32.679 -2.41,104.058 -75.02,104.058 -49.61,0 -64.13,-31.449 -70.17,-50.82 -7.27,-22.988 -7.27,-42.348 -7.27,-128.258 z m 90.75,-174.25 c 0,-41.133 0,-71.383 -10.88,-102.851 -35.09,-95.578 -129.48,-95.578 -159.72,-95.578 -36.31,0 -119.8,4.828 -154.88,93.168 -10.89,29.031 -15.74,41.128 -15.74,284.351 0,129.481 10.89,248.051 166.99,248.051 38.72,0 150.03,0 169.4,-131.883 4.83,-30.258 4.83,-47.199 4.83,-199.66 h -243.21 c 0,-47.188 -1.21,-108.91 1.21,-130.688 2.42,-22.98 7.27,-85.902 76.23,-85.902 70.19,0 76.23,59.281 76.23,120.992 h 89.54" /><path
         id="path80"
         style="fill:#ffffff;fill-opacity:1;fill-rule:nonzero;stroke:none"
         d="m 8422.93,317.73 h -99.22 v 605.008 h 93.17 V 809 c 21.78,47.191 59.29,129.48 163.35,123.422 V 831.988 c -43.56,0 -96.8,0 -130.68,-49.609 -19.36,-29.039 -26.62,-62.918 -26.62,-175.449 v -289.2" /><path
         id="path82"
         style="fill:#ffffff;fill-opacity:1;fill-rule:nonzero;stroke:none"
         d="m 8721.8,317.73 h -95.59 v 606.219 h 95.59 z m 0,711.5 h -95.59 v 124.63 h 95.59 v -124.63" /><path
         id="path84"
         style="fill:#ffffff;fill-opacity:1;fill-rule:nonzero;stroke:none"
         d="m 9076.32,763.031 c -1.2,22.989 -7.26,93.16 -83.49,93.16 -65.34,0 -68.97,-58.082 -71.39,-82.269 -2.42,-30.262 -2.42,-111.332 -2.42,-164.57 0,-159.723 0,-226.27 75.02,-226.27 87.12,0 87.12,88.328 87.12,240.789 0,29.039 -2.42,108.899 -4.84,139.16 z m 99.23,-637.691 h -95.6 v 252.89 c -12.1,-19.351 -43.55,-71.378 -120.99,-71.378 -72.61,0 -118.59,50.82 -131.9,116.16 -6.05,33.867 -8.48,146.398 -8.48,187.547 0,49.613 0,168.191 8.48,208.121 16.93,73.808 75.02,114.949 135.52,114.949 73.82,0 102.85,-47.188 119.79,-76.231 v 65.34 h 93.18 V 125.34" /><path
         id="path86"
         style="fill:#ffffff;fill-opacity:1;fill-rule:nonzero;stroke:none"
         d="m 9629.3,317.73 h -93.18 v 55.668 c -19.35,-24.199 -53.24,-66.546 -128.26,-66.546 -50.82,0 -82.28,22.98 -98.01,47.179 -25.42,38.719 -27.83,82.289 -27.83,187.559 v 381.148 h 96.8 V 525.859 l 1.21,-58.089 c 0,-24.2 2.42,-88.329 70.18,-88.329 83.49,0 83.49,84.707 83.49,147.629 v 395.668 h 95.6 V 317.73" /><path
         id="path88"
         style="fill:#ffffff;fill-opacity:1;fill-rule:nonzero;stroke:none"
         d="m 9976.56,679.531 v 75.02 c -1.21,32.679 -2.42,104.058 -75.02,104.058 -49.61,0 -64.13,-31.449 -70.18,-50.82 -7.26,-22.988 -7.26,-42.348 -7.26,-128.258 z m 90.74,-174.25 c 0,-41.133 0,-71.383 -10.9,-102.851 -35.1,-95.578 -129.45,-95.578 -159.7,-95.578 -36.3,0 -119.79,4.828 -154.88,93.168 -10.89,29.031 -15.73,41.128 -15.73,284.351 0,129.481 10.89,248.051 166.99,248.051 38.72,0 150.02,0 169.42,-131.883 4.8,-30.258 4.8,-47.199 4.8,-199.66 h -243.2 c 0,-47.188 -1.21,-108.91 1.21,-130.688 2.42,-22.98 7.26,-85.902 76.23,-85.902 70.19,0 76.23,59.281 76.23,120.992 h 89.53" /><path
         id="path90"
         style="fill:#ffffff;fill-opacity:1;fill-rule:nonzero;stroke:none"
         d="m 10775.1,542.801 c 0,-110.11 0,-235.949 -175.4,-235.949 -73.8,0 -133.1,26.617 -153.7,95.578 -12.1,39.929 -14.5,104.058 -14.5,203.289 0,215.383 6,327.91 177.9,327.91 165.7,0 165.7,-110.109 165.7,-229.899 h -91.9 c 0,104.059 0,156.09 -76.2,156.09 -76.3,0 -77.5,-52.031 -77.5,-221.429 0,-24.2 0,-110.11 1.2,-162.141 1.2,-31.469 3.7,-93.168 75,-93.168 71.4,0 77.5,59.277 77.5,159.719 h 91.9" /><path
         id="path92"
         style="fill:#ffffff;fill-opacity:1;fill-rule:nonzero;stroke:none"
         d="m 11094.6,662.59 c -27.9,-26.621 -32.7,-30.25 -79.9,-65.34 -43.5,-33.879 -76.2,-59.289 -76.2,-129.48 0,-26.622 0,-89.54 65.3,-89.54 18.2,0 36.3,6.059 52,18.161 35.1,26.621 38.8,67.757 38.8,116.16 z M 11190.2,446 c 0,-94.391 3.6,-107.699 29,-128.27 h -118.6 v 72.602 c -13.3,-26.621 -42.3,-83.48 -124.6,-83.48 -27.8,0 -52,6.039 -72.6,18.136 -56.9,33.891 -62.9,91.961 -62.9,136.742 0,98.008 38.7,129.469 101.6,173.032 92,61.707 101.7,67.758 152.5,114.957 0,49.609 0,106.472 -73.8,106.472 -72.6,0 -72.6,-50.82 -72.6,-87.121 0,-18.148 1.2,-31.461 2.4,-44.769 h -88.4 c -1.2,25.418 -1.2,90.75 8.5,121 30.3,88.328 133.1,88.328 159.7,88.328 43.6,0 87.2,-7.25 122.3,-44.758 37.5,-38.723 37.5,-71.402 37.5,-153.68 V 446" /><path
         id="path94"
         style="fill:#ffffff;fill-opacity:1;fill-rule:nonzero;stroke:none"
         d="m 11645.1,317.73 h -98 v 394.469 c 0,87.129 0,145.199 -71.4,145.199 -81.1,0 -81.1,-82.269 -81.1,-148.828 V 317.73 h -96.8 v 605.008 h 92 v -55.656 c 18.1,21.789 55.7,66.547 129.5,66.547 125.8,0 125.8,-106.469 125.8,-189.969 V 317.73" /><path
         id="path96"
         style="fill:#ffffff;fill-opacity:1;fill-rule:nonzero;stroke:none"
         d="m 11976.7,662.59 c -27.9,-26.621 -32.7,-30.25 -79.9,-65.34 -43.6,-33.879 -76.2,-59.289 -76.2,-129.48 0,-26.622 0,-89.54 65.3,-89.54 18.2,0 36.3,6.059 52,18.161 35.1,26.621 38.8,67.757 38.8,116.16 z M 12072.2,446 c 0,-94.391 3.7,-107.699 29.1,-128.27 h -118.6 v 72.602 c -13.3,-26.621 -42.3,-83.48 -124.6,-83.48 -27.9,0 -52.1,6.039 -72.6,18.136 -56.9,33.891 -63,91.961 -63,136.742 0,98.008 38.8,129.469 101.7,173.032 92,61.707 101.6,67.758 152.5,114.957 0,49.609 0,106.472 -73.9,106.472 -72.6,0 -72.6,-50.82 -72.6,-87.121 0,-18.148 1.3,-31.461 2.5,-44.769 h -88.4 c -1.2,25.418 -1.2,90.75 8.5,121 30.2,88.328 133.1,88.328 159.7,88.328 43.6,0 87.1,-7.25 122.2,-44.758 37.5,-38.723 37.5,-71.402 37.5,-153.68 V 446" /><path
         id="path98"
         style="fill:#ffffff;fill-opacity:1;fill-rule:nonzero;stroke:none"
         d="m 12346.9,857.398 c -72.6,0 -75,-73.808 -77.4,-122.207 -2.5,-65.339 -2.5,-65.339 -2.5,-163.351 0,-26.629 0,-58.078 2.5,-95.59 2.4,-25.41 6,-93.168 77.4,-93.168 82.3,0 82.3,81.066 84.7,234.738 2.4,145.211 2.4,239.578 -84.7,239.578 z m 180.3,-539.668 h -90.8 v 64.129 c -13.3,-22.98 -44.7,-75.007 -127,-75.007 -12.1,0 -25.4,1.207 -37.5,4.828 -98,25.41 -101.7,128.269 -101.7,304.929 0,56.871 0,169.411 14.6,216.59 16.9,56.883 62.9,100.43 129.4,100.43 69,0 98,-36.297 115,-59.277 v 297.658 h 98 V 317.73" /><path
         id="path100"
         style="fill:#ffffff;fill-opacity:1;fill-rule:nonzero;stroke:none"
         d="m 12729.3,317.73 h -95.6 v 606.219 h 95.6 z m 0,711.5 h -95.6 v 124.63 h 95.6 v -124.63" /><path
         id="path102"
         style="fill:#ffffff;fill-opacity:1;fill-rule:nonzero;stroke:none"
         d="m 13076.5,679.531 v 75.02 c -1.2,32.679 -2.4,104.058 -75,104.058 -49.6,0 -64.1,-31.449 -70.2,-50.82 -7.2,-22.988 -7.2,-42.348 -7.2,-128.258 z m 90.8,-174.25 c 0,-41.133 0,-71.383 -10.9,-102.851 -35.1,-95.578 -129.5,-95.578 -159.7,-95.578 -36.3,0 -119.8,4.828 -154.9,93.168 -10.9,29.031 -15.7,41.128 -15.7,284.351 0,129.481 10.8,248.051 166.9,248.051 38.8,0 150.1,0 169.4,-131.883 4.9,-30.258 4.9,-47.199 4.9,-199.66 h -243.2 c 0,-47.188 -1.2,-108.91 1.2,-130.688 2.4,-22.98 7.2,-85.902 76.2,-85.902 70.2,0 76.2,59.281 76.2,120.992 h 89.6" /><path
         id="path104"
         style="fill:#ffffff;fill-opacity:1;fill-rule:nonzero;stroke:none"
         d="m 13611.3,317.73 h -98 v 394.469 c 0,87.129 0,145.199 -71.4,145.199 -81,0 -81,-82.269 -81,-148.828 V 317.73 h -96.8 v 605.008 h 91.9 v -55.656 c 18.2,21.789 55.7,66.547 129.5,66.547 125.8,0 125.8,-106.469 125.8,-189.969 V 317.73" /><path
         id="path106"
         style="fill:#231f20;fill-opacity:1;fill-rule:nonzero;stroke:none"
         d="M 2606.56,34.9883 H 35 V 2606.56 H 2606.56 V 34.9883" /><path
         id="path108"
         style="fill:#ffffff;fill-opacity:1;fill-rule:nonzero;stroke:none"
         d="m 2129.97,1890.57 -4.11,113.24 c 0,11.26 8.55,10.85 28.52,6.82 l 91.64,-17.67 -11.85,30.24 c -4.1,11.51 -5.09,19.35 4.04,27.12 l 108.55,88.56 -20.05,12.24 c -5.75,4.35 -6.08,9.13 -3.04,18.99 l 20.38,66.14 -52.26,-11.21 c -14.63,-3.38 -18.66,0 -22.36,8.14 l -14.63,29.83 -51.52,-58.35 c -9.2,-10.85 -22.11,-3.7 -18,11.87 l 24.73,121.84 -38.29,-22.11 c -6.16,-3.7 -12.57,-4.73 -16.27,2.38 l -40.44,81.77 -40.43,-81.77 c -3.69,-7.11 -10.11,-6.08 -16.26,-2.38 l -38.31,22.11 24.74,-121.84 c 4.11,-15.57 -8.79,-22.72 -17.99,-11.87 l -51.53,58.35 -14.63,-29.83 c -3.7,-8.14 -7.73,-11.52 -22.35,-8.14 l -52.27,11.21 20.38,-66.14 c 3.04,-9.86 2.71,-14.64 -3.04,-18.99 l -20.05,-12.24 108.56,-88.56 c 9.12,-7.77 8.13,-15.61 4.02,-27.12 l -11.84,-30.24 91.64,17.67 c 19.97,4.03 28.52,4.44 28.52,-6.82 l -4.11,-113.24 h 29.91" /><path
         id="path110"
         style="fill:#ffffff;fill-opacity:1;fill-rule:nonzero;stroke:none"
         d="m 1701.14,1216.02 c 0,-76 -0.8,-96 -5.6,-117.6 -7.2,-32.81 -25.6,-89.6 -127.21,-89.6 -86.39,0 -121.6,51.2 -130.4,103.2 -2.4,16 -5.59,40 -5.59,180.8 0,148.81 2.39,166.41 6.4,191.21 4.79,24.8 19.19,106.4 135.2,106.4 46.4,0 104,-20 118.4,-81.6 6.41,-27.2 6.41,-60.8 5.6,-104.81 h -65.6 v 42.41 c 0,38.4 -0.8,84.8 -58.4,84.8 -60,0 -64.8,-48 -67.21,-69.6 -4.79,-40.81 -4.79,-126.41 -4.79,-169.61 0,-34.4 1.6,-148.8 4.79,-171.2 2.41,-10.4 9.6,-52.8 65.61,-52.8 50.4,0 57.6,43.2 60,53.6 3.2,14.4 3.2,27.2 3.2,94.4 h 65.6" /><path
         id="path112"
         style="fill:#ffffff;fill-opacity:1;fill-rule:nonzero;stroke:none"
         d="m 1829.21,1078.5 h 45.6 c 44.8,0 76.8,4 84.8,54.4 4,26.4 4.8,105.61 4.8,135.2 0,52.01 0,72.01 -0.8,126.41 -0.8,61.6 -1.6,92 -26.39,109.6 -17.61,12 -33.61,12 -108.01,12 z m -70.4,-62.4 v 564.81 h 106.4 c 55.2,0 105.6,0 139.2,-42.4 26.41,-32.8 28.8,-62.4 28.8,-199.2 0,-30.4 0,-66.41 -1.6,-143.21 -0.79,-55.2 -2.39,-95.2 -22.39,-128.8 -32,-51.2 -84.81,-51.2 -145.61,-51.2 h -104.8" /><path
         id="path114"
         style="fill:#ffffff;fill-opacity:1;fill-rule:nonzero;stroke:none"
         d="m 2077.52,1212.02 h 67.2 c 0,-59.2 0,-65.6 0.8,-76 0.8,-14.4 5.61,-67.2 68.01,-67.2 22.39,0 71.2,8.8 71.2,70.4 0,44.8 -20,67.2 -52,100 l -76.81,78.4 c -53.6,55.2 -64.79,89.61 -64.79,140.81 0,31.2 0,132 131.2,132 28.8,0 77.6,-4.8 103.2,-46.4 16,-26.4 16,-45.6 16,-128.81 h -61.6 c -1.6,53.61 -1.6,59.21 -3.21,69.61 -1.59,10.4 -8.8,45.6 -58.39,45.6 -59.2,0 -59.2,-51.2 -59.2,-67.2 0,-42.41 15.19,-59.21 55.2,-101.6 l 71.2,-74.41 c 46.4,-49.6 67.2,-78.4 67.2,-143.2 0,-120 -94.4,-135.2 -136.81,-135.2 -54.39,0 -83.2,18.4 -94.39,28 -36.01,28 -44.01,70.4 -44.01,112.8 v 62.4" /><path
         id="path116"
         style="fill:#ffffff;fill-opacity:1;fill-rule:nonzero;stroke:none"
         d="m 1428.1,512.02 h 67.19 c 0,-59.2 0,-65.598 0.8,-76 0.8,-14.399 5.61,-67.2 68.01,-67.2 22.39,0 71.2,8.801 71.2,70.399 0,44.801 -20,67.203 -52,100 l -76.81,78.402 c -53.6,55.199 -64.79,89.609 -64.79,140.809 0,31.199 0,132 131.2,132 28.8,0 77.6,-4.801 103.2,-46.399 16,-26.402 16,-45.601 16,-128.812 h -61.6 c -1.6,53.613 -1.6,59.211 -3.21,69.613 -1.59,10.398 -8.79,45.598 -58.39,45.598 -59.2,0 -59.2,-51.2 -59.2,-67.2 0,-42.41 15.19,-59.21 55.2,-101.601 l 71.2,-74.41 c 46.4,-49.598 67.2,-78.399 67.2,-143.199 0,-120 -94.4,-135.2 -136.81,-135.2 -54.39,0 -83.2,18.399 -94.39,28 -36.01,28 -44,70.399 -44,112.801 v 62.399" /><path
         id="path118"
         style="fill:#ffffff;fill-opacity:1;fill-rule:nonzero;stroke:none"
         d="m 2018.66,316.82 h -99.21 l -110.4,489.61 9.6,-489.61 h -68.8 v 565.61 h 96 l 114.4,-495.211 -9.6,495.211 h 68.01 V 316.82" /><path
         id="path120"
         style="fill:#ffffff;fill-opacity:1;fill-rule:nonzero;stroke:none"
         d="m 2343.61,516.02 c 0,-76 -0.8,-96 -5.6,-117.598 -7.19,-32.813 -25.6,-89.602 -127.2,-89.602 -86.4,0 -121.61,51.2 -130.4,103.2 -2.41,16 -5.6,40 -5.6,180.8 0,148.809 2.39,166.41 6.4,191.211 4.79,24.801 19.2,106.399 135.2,106.399 46.4,0 104.01,-20 118.4,-81.598 6.41,-27.203 6.41,-60.801 5.61,-104.812 h -65.61 v 42.41 c 0,38.402 -0.8,84.8 -58.4,84.8 -60,0 -64.8,-48 -67.21,-69.601 -4.79,-40.809 -4.79,-126.41 -4.79,-169.609 0,-34.399 1.6,-148.801 4.79,-171.2 2.41,-10.398 9.6,-52.8 65.61,-52.8 50.4,0 57.6,43.199 60,53.601 3.2,14.399 3.2,27.199 3.2,94.399 h 65.6" /><path
         id="path122"
         style="fill:#ffffff;fill-opacity:1;fill-rule:nonzero;stroke:none"
         d="M 70,70 H 2571.56 V 2571.56 H 70 Z M 2641.56,0 H 0 V 2641.56 H 2641.56 V 0" /></g></g></svg>