<?xml version="1.0" encoding="UTF-8" standalone="no"?>
<svg
   xmlns:dc="http://purl.org/dc/elements/1.1/"
   xmlns:cc="http://creativecommons.org/ns#"
   xmlns:rdf="http://www.w3.org/1999/02/22-rdf-syntax-ns#"
   xmlns:svg="http://www.w3.org/2000/svg"
   xmlns="http://www.w3.org/2000/svg"
   viewBox="0 0 1814.84 352.21332"
   height="352.21332"
   width="1814.84"
   xml:space="preserve"
   id="svg2"
   version="1.1"><metadata
     id="metadata8"><rdf:RDF><cc:Work
         rdf:about=""><dc:format>image/svg+xml</dc:format><dc:type
           rdf:resource="http://purl.org/dc/dcmitype/StillImage" /></cc:Work></rdf:RDF></metadata><defs
     id="defs6" /><g
     transform="matrix(1.3333333,0,0,-1.3333333,0,352.21333)"
     id="g10"><g
       transform="scale(0.1)"
       id="g12"><path
         id="path14"
         style="fill:#181210;fill-opacity:1;fill-rule:nonzero;stroke:none"
         d="m 3287.8,1842.98 h 101.64 c 0,-89.53 0,-99.21 1.21,-114.94 1.22,-21.78 8.48,-101.65 102.86,-101.65 33.88,0 107.69,13.31 107.69,106.49 0,67.75 -30.25,101.64 -78.65,151.25 l -116.16,118.58 c -81.08,83.49 -98.02,135.52 -98.02,212.96 0,47.2 0,199.66 198.45,199.66 43.56,0 117.37,-7.27 156.09,-70.19 24.2,-39.93 24.2,-68.96 24.2,-194.81 h -93.17 c -2.42,81.07 -2.42,89.54 -4.84,105.27 -2.42,15.74 -13.31,68.98 -88.33,68.98 -89.54,0 -89.54,-77.44 -89.54,-101.64 0,-64.14 22.98,-89.55 83.49,-153.67 l 107.69,-112.54 c 70.18,-75.02 101.64,-118.58 101.64,-216.6 0,-181.5 -142.78,-204.49 -206.91,-204.49 -82.29,0 -125.85,27.83 -142.78,42.36 -54.46,42.34 -66.56,106.47 -66.56,170.6 v 94.38" /><path
         id="path16"
         style="fill:#181210;fill-opacity:1;fill-rule:nonzero;stroke:none"
         d="m 4028.32,1909.54 v 75.02 c -1.21,32.67 -2.42,104.06 -75.02,104.06 -49.61,0 -64.13,-31.46 -70.18,-50.82 -7.26,-22.99 -7.26,-42.35 -7.26,-128.26 z m 90.75,-174.25 c 0,-41.13 0,-71.39 -10.89,-102.85 -35.08,-95.59 -129.47,-95.59 -159.72,-95.59 -36.3,0 -119.79,4.84 -154.88,93.18 -10.89,29.03 -15.73,41.13 -15.73,284.35 0,129.48 10.89,248.05 166.98,248.05 38.72,0 150.04,0 169.4,-131.89 4.84,-30.25 4.84,-47.19 4.84,-199.65 h -243.21 c 0,-47.19 -1.21,-108.91 1.21,-130.69 2.42,-22.99 7.26,-85.91 76.23,-85.91 70.18,0 76.23,59.29 76.23,121 h 89.54" /><path
         id="path18"
         style="fill:#181210;fill-opacity:1;fill-rule:nonzero;stroke:none"
         d="m 4315.07,1547.74 h -99.22 v 605.01 h 93.17 v -113.74 c 21.79,47.19 59.3,129.47 163.36,123.42 V 2062 c -43.56,0 -96.8,0 -130.69,-49.61 -19.36,-29.04 -26.62,-62.92 -26.62,-175.45 v -289.2" /><path
         id="path20"
         style="fill:#181210;fill-opacity:1;fill-rule:nonzero;stroke:none"
         d="m 4754.31,1547.74 h -110.12 l -129.47,605.01 H 4620 l 79.85,-494.9 88.34,494.9 h 104.06 l -137.94,-605.01" /><path
         id="path22"
         style="fill:#181210;fill-opacity:1;fill-rule:nonzero;stroke:none"
         d="m 5042.27,1547.74 h -95.59 v 606.22 h 95.59 z m 0,711.49 h -95.59 v 124.63 h 95.59 v -124.63" /><path
         id="path24"
         style="fill:#181210;fill-opacity:1;fill-rule:nonzero;stroke:none"
         d="m 5482.71,1772.81 c 0,-110.12 0,-235.96 -175.46,-235.96 -73.81,0 -133.1,26.62 -153.68,95.59 -12.09,39.93 -14.51,104.06 -14.51,203.29 0,215.38 6.05,327.91 177.87,327.91 165.78,0 165.78,-110.1 165.78,-229.9 h -91.97 c 0,104.06 0,156.09 -76.23,156.09 -76.23,0 -77.44,-52.03 -77.44,-221.44 0,-24.19 0,-110.1 1.21,-162.13 1.21,-31.47 3.62,-93.18 75.02,-93.18 71.39,0 77.44,59.29 77.44,159.73 h 91.97" /><path
         id="path26"
         style="fill:#181210;fill-opacity:1;fill-rule:nonzero;stroke:none"
         d="m 5817.85,1909.54 v 75.02 c -1.2,32.67 -2.41,104.06 -75.02,104.06 -49.61,0 -64.13,-31.46 -70.17,-50.82 -7.27,-22.99 -7.27,-42.35 -7.27,-128.26 z m 90.75,-174.25 c 0,-41.13 0,-71.39 -10.89,-102.85 -35.08,-95.59 -129.47,-95.59 -159.71,-95.59 -36.31,0 -119.8,4.84 -154.88,93.18 -10.89,29.03 -15.74,41.13 -15.74,284.35 0,129.48 10.89,248.05 166.99,248.05 38.72,0 150.03,0 169.4,-131.89 4.83,-30.25 4.83,-47.19 4.83,-199.65 h -243.21 c 0,-47.19 -1.21,-108.91 1.21,-130.69 2.42,-22.99 7.27,-85.91 76.23,-85.91 70.19,0 76.23,59.29 76.23,121 h 89.54" /><path
         id="path28"
         style="fill:#181210;fill-opacity:1;fill-rule:nonzero;stroke:none"
         d="m 6629.74,1547.74 h -98.01 v 394.47 c 0,87.12 0,145.2 -71.4,145.2 -81.06,0 -81.06,-82.28 -81.06,-148.83 v -390.84 h -96.81 v 605.01 h 91.96 v -55.66 c 18.16,21.79 55.67,66.55 129.48,66.55 125.84,0 125.84,-106.48 125.84,-189.97 v -425.93" /><path
         id="path30"
         style="fill:#181210;fill-opacity:1;fill-rule:nonzero;stroke:none"
         d="m 7083.49,1547.74 h -93.18 v 55.67 c -19.35,-24.2 -53.23,-66.56 -128.26,-66.56 -50.82,0 -82.27,22.99 -98.01,47.19 -25.41,38.72 -27.83,82.28 -27.83,187.56 v 381.15 h 96.81 v -396.88 l 1.21,-58.09 c 0,-24.2 2.41,-88.33 70.17,-88.33 83.5,0 83.5,84.71 83.5,147.63 v 395.67 h 95.59 v -605.01" /><path
         id="path32"
         style="fill:#181210;fill-opacity:1;fill-rule:nonzero;stroke:none"
         d="m 7790.14,1547.74 h -98.02 v 395.67 c 0,53.25 -1.21,76.23 -6.05,94.39 -8.47,26.62 -30.25,50.82 -70.18,50.82 -77.44,0 -77.44,-81.07 -77.44,-143.99 v -396.89 h -98.01 v 395.67 c 0,81.08 0,145.21 -75.02,145.21 -78.65,0 -78.65,-76.23 -78.65,-146.41 v -394.47 h -98.02 v 605.01 h 91.96 v -60.5 c 18.16,24.2 54.46,71.39 129.48,71.39 77.44,0 105.27,-47.19 118.58,-71.39 19.36,25.41 52.03,71.39 125.84,71.39 12.1,0 56.87,0 94.38,-37.51 41.15,-41.14 41.15,-85.91 41.15,-183.92 v -394.47" /><path
         id="path34"
         style="fill:#181210;fill-opacity:1;fill-rule:nonzero;stroke:none"
         d="m 8081.73,2228.98 h -77.44 l 64.13,130.68 h 131.89 z m 54.44,-319.44 v 75.02 c -1.2,32.67 -2.41,104.06 -75.02,104.06 -49.61,0 -64.13,-31.46 -70.17,-50.82 -7.27,-22.99 -7.27,-42.35 -7.27,-128.26 z m 90.75,-174.25 c 0,-41.13 0,-71.39 -10.88,-102.85 -35.09,-95.59 -129.48,-95.59 -159.72,-95.59 -36.31,0 -119.8,4.84 -154.88,93.18 -10.89,29.03 -15.74,41.13 -15.74,284.35 0,129.48 10.89,248.05 166.99,248.05 38.72,0 150.03,0 169.4,-131.89 4.83,-30.25 4.83,-47.19 4.83,-199.65 h -243.21 c 0,-47.19 -1.21,-108.91 1.21,-130.69 2.42,-22.99 7.27,-85.91 76.23,-85.91 70.19,0 76.23,59.29 76.23,121 h 89.54" /><path
         id="path36"
         style="fill:#181210;fill-opacity:1;fill-rule:nonzero;stroke:none"
         d="m 8422.93,1547.74 h -99.22 v 605.01 h 93.17 v -113.74 c 21.78,47.19 59.29,129.47 163.35,123.42 V 2062 c -43.56,0 -96.8,0 -130.68,-49.61 -19.36,-29.04 -26.62,-62.92 -26.62,-175.45 v -289.2" /><path
         id="path38"
         style="fill:#181210;fill-opacity:1;fill-rule:nonzero;stroke:none"
         d="m 8721.8,1547.74 h -95.59 v 606.22 h 95.59 z m 0,711.49 h -95.59 v 124.63 h 95.59 v -124.63" /><path
         id="path40"
         style="fill:#181210;fill-opacity:1;fill-rule:nonzero;stroke:none"
         d="m 9076.32,1993.04 c -1.2,22.98 -7.26,93.16 -83.49,93.16 -65.34,0 -68.97,-58.08 -71.39,-82.28 -2.42,-30.25 -2.42,-111.33 -2.42,-164.57 0,-159.71 0,-226.27 75.02,-226.27 87.12,0 87.12,88.33 87.12,240.8 0,29.04 -2.42,108.9 -4.84,139.16 z m 99.23,-637.69 h -95.6 v 252.89 c -12.1,-19.36 -43.55,-71.39 -120.99,-71.39 -72.61,0 -118.59,50.82 -131.9,116.17 -6.05,33.87 -8.48,146.4 -8.48,187.54 0,49.61 0,168.2 8.48,208.13 16.93,73.81 75.02,114.95 135.52,114.95 73.82,0 102.85,-47.19 119.79,-76.23 v 65.34 h 93.18 v -797.4" /><path
         id="path42"
         style="fill:#181210;fill-opacity:1;fill-rule:nonzero;stroke:none"
         d="m 9629.3,1547.74 h -93.18 v 55.67 c -19.35,-24.2 -53.24,-66.56 -128.26,-66.56 -50.82,0 -82.28,22.99 -98.01,47.19 -25.42,38.72 -27.83,82.28 -27.83,187.56 v 381.15 h 96.8 v -396.88 l 1.21,-58.09 c 0,-24.2 2.42,-88.33 70.18,-88.33 83.49,0 83.49,84.71 83.49,147.63 v 395.67 h 95.6 v -605.01" /><path
         id="path44"
         style="fill:#181210;fill-opacity:1;fill-rule:nonzero;stroke:none"
         d="m 9976.56,1909.54 v 75.02 c -1.21,32.67 -2.42,104.06 -75.02,104.06 -49.61,0 -64.13,-31.46 -70.18,-50.82 -7.26,-22.99 -7.26,-42.35 -7.26,-128.26 z m 90.74,-174.25 c 0,-41.13 0,-71.39 -10.9,-102.85 -35.1,-95.59 -129.45,-95.59 -159.7,-95.59 -36.3,0 -119.79,4.84 -154.88,93.18 -10.89,29.03 -15.73,41.13 -15.73,284.35 0,129.48 10.89,248.05 166.99,248.05 38.72,0 150.02,0 169.42,-131.89 4.8,-30.25 4.8,-47.19 4.8,-199.65 h -243.2 c 0,-47.19 -1.21,-108.91 1.21,-130.69 2.42,-22.99 7.26,-85.91 76.23,-85.91 70.19,0 76.23,59.29 76.23,121 h 89.53" /><path
         id="path46"
         style="fill:#181210;fill-opacity:1;fill-rule:nonzero;stroke:none"
         d="m 10775.1,1772.81 c 0,-110.12 0,-235.96 -175.4,-235.96 -73.8,0 -133.1,26.62 -153.7,95.59 -12.1,39.93 -14.5,104.06 -14.5,203.29 0,215.38 6,327.91 177.9,327.91 165.7,0 165.7,-110.1 165.7,-229.9 h -91.9 c 0,104.06 0,156.09 -76.2,156.09 -76.3,0 -77.5,-52.03 -77.5,-221.44 0,-24.19 0,-110.1 1.2,-162.13 1.2,-31.47 3.7,-93.18 75,-93.18 71.4,0 77.5,59.29 77.5,159.73 h 91.9" /><path
         id="path48"
         style="fill:#181210;fill-opacity:1;fill-rule:nonzero;stroke:none"
         d="m 11094.6,1892.59 c -27.9,-26.62 -32.7,-30.24 -79.9,-65.34 -43.5,-33.87 -76.2,-59.29 -76.2,-129.47 0,-26.62 0,-89.54 65.3,-89.54 18.2,0 36.3,6.05 52,18.15 35.1,26.63 38.8,67.77 38.8,116.16 z m 95.6,-216.59 c 0,-94.38 3.6,-107.69 29,-128.26 h -118.6 v 72.6 c -13.3,-26.62 -42.3,-83.49 -124.6,-83.49 -27.8,0 -52,6.05 -72.6,18.15 -56.9,33.88 -62.9,91.96 -62.9,136.73 0,98.01 38.7,129.48 101.6,173.03 92,61.72 101.7,67.77 152.5,114.96 0,49.61 0,106.48 -73.8,106.48 -72.6,0 -72.6,-50.82 -72.6,-87.12 0,-18.15 1.2,-31.47 2.4,-44.78 h -88.4 c -1.2,25.42 -1.2,90.75 8.5,121.01 30.3,88.33 133.1,88.33 159.7,88.33 43.6,0 87.2,-7.26 122.3,-44.76 37.5,-38.73 37.5,-71.4 37.5,-153.68 V 1676" /><path
         id="path50"
         style="fill:#181210;fill-opacity:1;fill-rule:nonzero;stroke:none"
         d="m 11645.1,1547.74 h -98 v 394.47 c 0,87.12 0,145.2 -71.4,145.2 -81.1,0 -81.1,-82.28 -81.1,-148.83 v -390.84 h -96.8 v 605.01 h 92 v -55.66 c 18.1,21.79 55.7,66.55 129.5,66.55 125.8,0 125.8,-106.48 125.8,-189.97 v -425.93" /><path
         id="path52"
         style="fill:#181210;fill-opacity:1;fill-rule:nonzero;stroke:none"
         d="m 11976.7,1892.59 c -27.9,-26.62 -32.7,-30.24 -79.9,-65.34 -43.6,-33.87 -76.2,-59.29 -76.2,-129.47 0,-26.62 0,-89.54 65.3,-89.54 18.2,0 36.3,6.05 52,18.15 35.1,26.63 38.8,67.77 38.8,116.16 z m 95.5,-216.59 c 0,-94.38 3.7,-107.69 29.1,-128.26 h -118.6 v 72.6 c -13.3,-26.62 -42.3,-83.49 -124.6,-83.49 -27.9,0 -52.1,6.05 -72.6,18.15 -56.9,33.88 -63,91.96 -63,136.73 0,98.01 38.8,129.48 101.7,173.03 92,61.72 101.6,67.77 152.5,114.96 0,49.61 0,106.48 -73.9,106.48 -72.6,0 -72.6,-50.82 -72.6,-87.12 0,-18.15 1.3,-31.47 2.5,-44.78 h -88.4 c -1.2,25.42 -1.2,90.75 8.5,121.01 30.2,88.33 133.1,88.33 159.7,88.33 43.6,0 87.1,-7.26 122.2,-44.76 37.5,-38.73 37.5,-71.4 37.5,-153.68 V 1676" /><path
         id="path54"
         style="fill:#181210;fill-opacity:1;fill-rule:nonzero;stroke:none"
         d="m 12346.9,2087.41 c -72.6,0 -75,-73.81 -77.4,-122.21 -2.5,-65.34 -2.5,-65.34 -2.5,-163.36 0,-26.62 0,-58.07 2.5,-95.58 2.4,-25.41 6,-93.18 77.4,-93.18 82.3,0 82.3,81.08 84.7,234.75 2.4,145.21 2.4,239.58 -84.7,239.58 z m 180.3,-539.67 h -90.8 v 64.13 c -13.3,-22.99 -44.7,-75.02 -127,-75.02 -12.1,0 -25.4,1.21 -37.5,4.84 -98,25.41 -101.7,128.27 -101.7,304.93 0,56.86 0,169.4 14.6,216.59 16.9,56.88 62.9,100.43 129.4,100.43 69,0 98,-36.3 115,-59.29 v 297.67 h 98 v -854.28" /><path
         id="path56"
         style="fill:#181210;fill-opacity:1;fill-rule:nonzero;stroke:none"
         d="m 12729.3,1547.74 h -95.6 v 606.22 h 95.6 z m 0,711.49 h -95.6 v 124.63 h 95.6 v -124.63" /><path
         id="path58"
         style="fill:#181210;fill-opacity:1;fill-rule:nonzero;stroke:none"
         d="m 13076.5,1909.54 v 75.02 c -1.2,32.67 -2.4,104.06 -75,104.06 -49.6,0 -64.1,-31.46 -70.2,-50.82 -7.2,-22.99 -7.2,-42.35 -7.2,-128.26 z m 90.8,-174.25 c 0,-41.13 0,-71.39 -10.9,-102.85 -35.1,-95.59 -129.5,-95.59 -159.7,-95.59 -36.3,0 -119.8,4.84 -154.9,93.18 -10.9,29.03 -15.7,41.13 -15.7,284.35 0,129.48 10.8,248.05 166.9,248.05 38.8,0 150.1,0 169.4,-131.89 4.9,-30.25 4.9,-47.19 4.9,-199.65 h -243.2 c 0,-47.19 -1.2,-108.91 1.2,-130.69 2.4,-22.99 7.2,-85.91 76.2,-85.91 70.2,0 76.2,59.29 76.2,121 h 89.6" /><path
         id="path60"
         style="fill:#181210;fill-opacity:1;fill-rule:nonzero;stroke:none"
         d="m 13611.3,1547.74 h -98 v 394.47 c 0,87.12 0,145.2 -71.4,145.2 -81,0 -81,-82.28 -81,-148.83 v -390.84 h -96.8 v 605.01 h 91.9 v -55.66 c 18.2,21.79 55.7,66.55 129.5,66.55 125.8,0 125.8,-106.48 125.8,-189.97 v -425.93" /><path
         id="path62"
         style="fill:#181210;fill-opacity:1;fill-rule:nonzero;stroke:none"
         d="m 3714.94,619.039 c 0,-114.949 -1.21,-145.199 -8.47,-177.879 -10.89,-49.609 -38.72,-135.519 -192.39,-135.519 -130.69,0 -183.93,77.441 -197.24,156.101 -3.63,24.188 -8.47,60.488 -8.47,273.457 0,225.063 3.63,251.68 9.68,289.191 7.26,37.51 29.04,160.94 204.5,160.94 70.18,0 157.3,-30.25 179.08,-123.43 9.68,-41.13 9.68,-91.959 8.47,-158.502 h -99.22 v 64.133 c 0,58.069 -1.21,128.259 -88.33,128.259 -90.75,0 -98.01,-72.61 -101.65,-105.27 -7.26,-61.711 -7.26,-191.192 -7.26,-256.532 0,-52.027 2.42,-225.066 7.26,-258.937 3.64,-15.742 14.52,-79.871 99.23,-79.871 76.23,0 87.12,65.34 90.75,81.082 4.84,21.769 4.84,41.136 4.84,142.777 h 99.22" /><path
         id="path64"
         style="fill:#181210;fill-opacity:1;fill-rule:nonzero;stroke:none"
         d="m 4038,662.602 c -27.83,-26.633 -32.67,-30.25 -79.87,-65.352 -43.55,-33.871 -76.23,-59.281 -76.23,-129.469 0,-26.621 0,-89.543 65.35,-89.543 18.15,0 36.29,6.051 52.03,18.153 35.09,26.629 38.72,67.769 38.72,116.168 z M 4133.59,446 c 0,-94.379 3.63,-107.691 29.04,-128.262 h -118.58 v 72.602 c -13.31,-26.621 -42.35,-83.488 -124.64,-83.488 -27.82,0 -52.03,6.046 -72.59,18.148 -56.88,33.879 -62.93,91.961 -62.93,136.742 0,97.996 38.72,129.469 101.65,173.02 91.96,61.718 101.64,67.769 152.46,114.957 0,49.609 0,106.48 -73.82,106.48 -72.59,0 -72.59,-50.82 -72.59,-87.117 0,-18.152 1.2,-31.473 2.41,-44.781 h -88.33 c -1.21,25.418 -1.21,90.758 8.48,121.008 30.24,88.332 133.1,88.332 159.72,88.332 43.56,0 87.12,-7.262 122.21,-44.77 37.51,-38.723 37.51,-71.391 37.51,-153.672 V 446" /><path
         id="path66"
         style="fill:#181210;fill-opacity:1;fill-rule:nonzero;stroke:none"
         d="m 4588.54,317.738 h -98.02 v 394.461 c 0,87.129 0,145.211 -71.39,145.211 -81.07,0 -81.07,-82.281 -81.07,-148.828 V 317.738 h -96.8 V 922.75 h 91.96 v -55.66 c 18.15,21.781 55.66,66.551 129.47,66.551 125.85,0 125.85,-106.469 125.85,-189.969 V 317.738" /><path
         id="path68"
         style="fill:#181210;fill-opacity:1;fill-rule:nonzero;stroke:none"
         d="m 4920.07,662.602 c -27.83,-26.633 -32.67,-30.25 -79.86,-65.352 -43.56,-33.871 -76.23,-59.281 -76.23,-129.469 0,-26.621 0,-89.543 65.34,-89.543 18.15,0 36.3,6.051 52.03,18.153 35.09,26.629 38.72,67.769 38.72,116.168 z M 5015.66,446 c 0,-94.379 3.64,-107.691 29.05,-128.262 h -118.59 v 72.602 c -13.31,-26.621 -42.35,-83.488 -124.63,-83.488 -27.83,0 -52.03,6.046 -72.6,18.148 -56.87,33.879 -62.92,91.961 -62.92,136.742 0,97.996 38.72,129.469 101.64,173.02 91.96,61.718 101.64,67.769 152.46,114.957 0,49.609 0,106.48 -73.81,106.48 -72.6,0 -72.6,-50.82 -72.6,-87.117 0,-18.152 1.21,-31.473 2.42,-44.781 h -88.33 c -1.21,25.418 -1.21,90.758 8.47,121.008 30.25,88.332 133.1,88.332 159.72,88.332 43.56,0 87.12,-7.262 122.21,-44.77 37.51,-38.723 37.51,-71.391 37.51,-153.672 V 446" /><path
         id="path70"
         style="fill:#181210;fill-opacity:1;fill-rule:nonzero;stroke:none"
         d="m 5290.31,857.41 c -72.6,0 -75.02,-73.808 -77.44,-122.211 -2.42,-65.34 -2.42,-65.34 -2.42,-163.359 0,-26.621 0,-58.07 2.42,-95.578 2.42,-25.41 6.06,-93.18 77.44,-93.18 82.29,0 82.29,81.078 84.71,234.75 2.41,145.199 2.41,239.578 -84.71,239.578 z m 180.3,-539.672 h -90.76 v 64.133 c -13.31,-22.992 -44.76,-75.019 -127.05,-75.019 -12.1,0 -25.41,1.207 -37.51,4.839 -98,25.411 -101.64,128.27 -101.64,304.93 0,56.859 0,169.399 14.52,216.59 16.94,56.879 62.92,100.43 129.48,100.43 68.96,0 98,-36.301 114.95,-59.289 v 297.668 h 98.01 V 317.738" /><path
         id="path72"
         style="fill:#181210;fill-opacity:1;fill-rule:nonzero;stroke:none"
         d="m 5672.68,317.738 h -95.6 v 606.223 h 95.6 z m 0,711.502 h -95.6 v 124.62 h 95.6 v -124.62" /><path
         id="path74"
         style="fill:#181210;fill-opacity:1;fill-rule:nonzero;stroke:none"
         d="m 6004.21,662.602 c -27.83,-26.633 -32.68,-30.25 -79.86,-65.352 -43.57,-33.871 -76.23,-59.281 -76.23,-129.469 0,-26.621 0,-89.543 65.34,-89.543 18.14,0 36.3,6.051 52.03,18.153 35.09,26.629 38.72,67.769 38.72,116.168 z M 6099.79,446 c 0,-94.379 3.64,-107.691 29.05,-128.262 h -118.59 v 72.602 c -13.31,-26.621 -42.34,-83.488 -124.62,-83.488 -27.84,0 -52.04,6.046 -72.6,18.148 -56.88,33.879 -62.93,91.961 -62.93,136.742 0,97.996 38.72,129.469 101.65,173.02 91.95,61.718 101.64,67.769 152.46,114.957 0,49.609 0,106.48 -73.82,106.48 -72.6,0 -72.6,-50.82 -72.6,-87.117 0,-18.152 1.21,-31.473 2.42,-44.781 h -88.33 c -1.21,25.418 -1.21,90.758 8.47,121.008 30.26,88.332 133.11,88.332 159.73,88.332 43.55,0 87.12,-7.262 122.21,-44.77 37.5,-38.723 37.5,-71.391 37.5,-153.672 V 446" /><path
         id="path76"
         style="fill:#181210;fill-opacity:1;fill-rule:nonzero;stroke:none"
         d="m 6554.75,317.738 h -98.02 v 394.461 c 0,87.129 0,145.211 -71.39,145.211 -81.07,0 -81.07,-82.281 -81.07,-148.828 V 317.738 h -96.8 V 922.75 h 91.96 v -55.66 c 18.15,21.781 55.66,66.551 129.47,66.551 125.85,0 125.85,-106.469 125.85,-189.969 V 317.738" /><path
         id="path78"
         style="fill:#181210;fill-opacity:1;fill-rule:nonzero;stroke:none"
         d="m 7052.03,412.129 h 68.98 c 67.76,0 116.16,6.043 128.26,82.269 6.05,39.934 7.25,159.731 7.25,204.493 0,78.66 0,108.91 -1.2,191.199 -1.21,93.16 -2.42,139.15 -39.93,165.77 -26.62,18.14 -50.82,18.14 -163.36,18.14 z m -106.47,-94.391 v 854.282 h 160.92 c 83.5,0 159.73,0 210.55,-64.13 39.93,-49.61 43.56,-94.39 43.56,-301.3 0,-45.981 0,-100.43 -2.42,-216.59 -1.21,-83.5 -3.63,-144 -33.88,-194.82 -48.4,-77.442 -128.26,-77.442 -220.23,-77.442 h -158.5" /><path
         id="path80"
         style="fill:#181210;fill-opacity:1;fill-rule:nonzero;stroke:none"
         d="m 7562.65,317.738 h -95.59 v 606.223 h 95.59 z m 0,711.502 h -95.59 v 124.62 h 95.59 v -124.62" /><path
         id="path82"
         style="fill:#181210;fill-opacity:1;fill-rule:nonzero;stroke:none"
         d="m 7918.38,765.449 c -2.41,58.082 -26.62,99.231 -82.28,99.231 -79.86,0 -79.86,-87.129 -79.86,-182.719 0,-59.301 0,-168.191 3.63,-210.551 2.42,-47.18 21.78,-83.48 73.81,-83.48 45.98,0 75.02,29.031 83.49,73.812 4.84,27.828 4.84,116.156 4.84,150.028 0,2.429 -2.42,136.742 -3.63,153.679 z m 99.23,157.301 V 349.211 c 0,-77.441 0,-101.652 -10.9,-135.531 -27.82,-85.91 -125.84,-99.219 -177.87,-99.219 -71.39,0 -164.56,31.461 -164.56,154.879 h 88.33 c 1.21,-25.41 3.63,-78.649 82.28,-78.649 84.7,0 84.7,65.34 84.7,119.801 v 70.168 c -32.67,-47.191 -76.23,-66.551 -122.21,-66.551 -43.56,0 -99.23,18.153 -122.21,79.86 -16.95,44.781 -16.95,88.332 -16.95,238.383 0,106.48 1.21,148.828 10.9,188.757 4.84,22.993 26.62,112.532 139.15,112.532 78.65,0 105.27,-42.34 118.59,-65.34 v 54.449 h 90.75" /><path
         id="path84"
         style="fill:#181210;fill-opacity:1;fill-rule:nonzero;stroke:none"
         d="m 8218.46,317.738 h -95.59 v 606.223 h 95.59 z m 0,711.502 h -95.59 v 124.62 h 95.59 v -124.62" /><path
         id="path86"
         style="fill:#181210;fill-opacity:1;fill-rule:nonzero;stroke:none"
         d="m 8539.1,850.148 h -88.33 V 465.371 c 0,-38.723 3.63,-77.441 55.67,-77.441 15.72,0 24.19,2.41 33.87,4.832 v -78.653 c -13.31,-3.617 -27.83,-7.257 -53.24,-7.257 -84.7,0 -111.32,29.046 -123.42,56.867 -12.1,27.832 -12.1,39.929 -12.1,151.261 v 335.168 h -72.6 v 73.813 h 75.01 V 1086.1 h 96.81 V 923.961 h 88.33 v -73.813" /><path
         id="path88"
         style="fill:#181210;fill-opacity:1;fill-rule:nonzero;stroke:none"
         d="m 8838.89,662.602 c -27.84,-26.633 -32.68,-30.25 -79.87,-65.352 -43.56,-33.871 -76.23,-59.281 -76.23,-129.469 0,-26.621 0,-89.543 65.34,-89.543 18.15,0 36.3,6.051 52.04,18.153 35.08,26.629 38.72,67.769 38.72,116.168 z M 8934.47,446 c 0,-94.379 3.64,-107.691 29.05,-128.262 h -118.59 v 72.602 c -13.31,-26.621 -42.34,-83.488 -124.63,-83.488 -27.83,0 -52.03,6.046 -72.59,18.148 -56.88,33.879 -62.93,91.961 -62.93,136.742 0,97.996 38.72,129.469 101.65,173.02 91.95,61.718 101.64,67.769 152.46,114.957 0,49.609 0,106.48 -73.82,106.48 -72.6,0 -72.6,-50.82 -72.6,-87.117 0,-18.152 1.21,-31.473 2.42,-44.781 h -88.33 c -1.21,25.418 -1.21,90.758 8.47,121.008 30.25,88.332 133.1,88.332 159.73,88.332 43.55,0 87.12,-7.262 122.2,-44.77 37.51,-38.723 37.51,-71.391 37.51,-153.672 V 446" /><path
         id="path90"
         style="fill:#181210;fill-opacity:1;fill-rule:nonzero;stroke:none"
         d="m 9138.95,317.738 h -98.01 v 854.282 h 98.01 V 317.738" /><path
         id="path92"
         style="fill:#181210;fill-opacity:1;fill-rule:nonzero;stroke:none"
         d="m 9500.71,612.988 h 101.65 c 0,-89.547 0,-99.218 1.2,-114.957 1.22,-21.769 8.48,-101.64 102.87,-101.64 33.87,0 107.68,13.308 107.68,106.488 0,67.75 -30.24,101.641 -78.65,151.25 L 9619.3,772.711 c -81.07,83.488 -98.01,135.519 -98.01,212.961 0,47.198 0,199.658 198.45,199.658 43.55,0 117.36,-7.27 156.08,-70.19 24.21,-39.93 24.21,-68.96 24.21,-194.808 h -93.17 c -2.43,81.068 -2.43,89.538 -4.85,105.268 -2.42,15.74 -13.31,68.98 -88.33,68.98 -89.54,0 -89.54,-77.44 -89.54,-101.639 0,-64.132 22.99,-89.543 83.49,-153.671 l 107.69,-112.54 c 70.19,-75.019 101.64,-118.582 101.64,-216.601 0,-181.5 -142.78,-204.488 -206.91,-204.488 -82.28,0 -125.84,27.828 -142.78,42.359 -54.45,42.34 -66.56,106.469 -66.56,170.602 v 94.386" /><path
         id="path94"
         style="fill:#181210;fill-opacity:1;fill-rule:nonzero;stroke:none"
         d="m 10241.2,679.539 v 75.02 c -1.2,32.671 -2.4,104.062 -75,104.062 -49.6,0 -64.1,-31.449 -70.2,-50.82 -7.2,-22.992 -7.2,-42.352 -7.2,-128.262 z m 90.8,-174.25 c 0,-41.129 0,-71.391 -10.9,-102.848 -35.1,-95.589 -129.5,-95.589 -159.7,-95.589 -36.3,0 -119.8,4.839 -154.9,93.179 -10.9,29.028 -15.74,41.129 -15.74,284.348 0,129.473 10.94,248.051 166.94,248.051 38.8,0 150.1,0 169.4,-131.891 4.9,-30.25 4.9,-47.187 4.9,-199.648 h -243.2 c 0,-47.192 -1.2,-108.911 1.2,-130.692 2.4,-22.988 7.2,-85.91 76.2,-85.91 70.2,0 76.2,59.293 76.2,121 h 89.6" /><path
         id="path96"
         style="fill:#181210;fill-opacity:1;fill-rule:nonzero;stroke:none"
         d="m 10528,317.738 h -99.2 V 922.75 h 93.1 V 809.012 c 21.8,47.187 59.3,129.468 163.4,123.418 V 832 c -43.6,0 -96.8,0 -130.7,-49.609 -19.3,-29.039 -26.6,-62.922 -26.6,-175.45 V 317.738" /><path
         id="path98"
         style="fill:#181210;fill-opacity:1;fill-rule:nonzero;stroke:none"
         d="m 10967.2,317.738 h -110.1 l -129.5,605.012 h 105.3 l 79.9,-494.898 88.3,494.898 h 104.1 l -138,-605.012" /><path
         id="path100"
         style="fill:#181210;fill-opacity:1;fill-rule:nonzero;stroke:none"
         d="m 11255.2,317.738 h -95.6 v 606.223 h 95.6 z m 0,711.502 h -95.6 v 124.62 h 95.6 v -124.62" /><path
         id="path102"
         style="fill:#181210;fill-opacity:1;fill-rule:nonzero;stroke:none"
         d="m 11695.6,542.809 c 0,-110.118 0,-235.957 -175.4,-235.957 -73.8,0 -133.1,26.617 -153.7,95.589 -12.1,39.93 -14.5,104.059 -14.5,203.289 0,215.379 6,327.911 177.9,327.911 165.7,0 165.7,-110.11 165.7,-229.903 h -91.9 c 0,104.063 0,156.094 -76.3,156.094 -76.2,0 -77.4,-52.031 -77.4,-221.434 0,-24.199 0,-110.109 1.2,-162.136 1.2,-31.473 3.6,-93.18 75,-93.18 71.4,0 77.5,59.289 77.5,159.727 h 91.9" /><path
         id="path104"
         style="fill:#181210;fill-opacity:1;fill-rule:nonzero;stroke:none"
         d="m 12030.8,679.539 v 75.02 c -1.2,32.671 -2.4,104.062 -75,104.062 -49.6,0 -64.2,-31.449 -70.2,-50.82 -7.3,-22.992 -7.3,-42.352 -7.3,-128.262 z m 90.7,-174.25 c 0,-41.129 0,-71.391 -10.9,-102.848 -35,-95.589 -129.4,-95.589 -159.7,-95.589 -36.3,0 -119.8,4.839 -154.9,93.179 -10.9,29.028 -15.7,41.129 -15.7,284.348 0,129.473 10.9,248.051 167,248.051 38.7,0 150,0 169.4,-131.891 4.8,-30.25 4.8,-47.187 4.8,-199.648 h -243.2 c 0,-47.192 -1.2,-108.911 1.2,-130.692 2.5,-22.988 7.3,-85.91 76.3,-85.91 70.1,0 76.2,59.293 76.2,121 h 89.5" /><path
         id="path106"
         style="fill:#181210;fill-opacity:1;fill-rule:nonzero;stroke:none"
         d="M 2606.56,35 H 35 V 2606.56 H 2606.56 V 35" /><path
         id="path108"
         style="fill:#ffffff;fill-opacity:1;fill-rule:nonzero;stroke:none"
         d="m 2129.97,1890.56 -4.11,113.26 c 0,11.25 8.55,10.84 28.52,6.81 l 91.64,-17.67 -11.85,30.24 c -4.1,11.51 -5.09,19.35 4.04,27.12 l 108.55,88.56 -20.05,12.24 c -5.75,4.34 -6.08,9.12 -3.04,18.99 l 20.38,66.15 -52.26,-11.22 c -14.63,-3.37 -18.66,0 -22.36,8.14 l -14.63,29.82 -51.52,-58.34 c -9.2,-10.86 -22.11,-3.7 -18,11.87 l 24.73,121.84 -38.29,-22.11 c -6.16,-3.71 -12.57,-4.73 -16.27,2.38 l -40.44,81.78 -40.43,-81.78 c -3.69,-7.11 -10.11,-6.09 -16.26,-2.38 l -38.31,22.11 24.74,-121.84 c 4.11,-15.57 -8.79,-22.73 -17.99,-11.87 l -51.53,58.34 -14.63,-29.82 c -3.7,-8.14 -7.73,-11.51 -22.35,-8.14 l -52.27,11.22 20.38,-66.15 c 3.04,-9.87 2.71,-14.65 -3.04,-18.99 l -20.05,-12.24 108.56,-88.56 c 9.12,-7.77 8.13,-15.61 4.02,-27.12 l -11.84,-30.24 91.64,17.67 c 19.97,4.03 28.52,4.44 28.52,-6.81 l -4.11,-113.26 h 29.91" /><path
         id="path110"
         style="fill:#ffffff;fill-opacity:1;fill-rule:nonzero;stroke:none"
         d="M 70,70 H 2571.56 V 2571.56 H 70 Z M 2641.56,0 H 0 V 2641.56 H 2641.56 V 0" /><path
         id="path112"
         style="fill:#ffffff;fill-opacity:1;fill-rule:nonzero;stroke:none"
         d="m 1701.14,516.02 c 0,-76 -0.8,-96 -5.6,-117.598 -7.2,-32.813 -25.6,-89.602 -127.21,-89.602 -86.39,0 -121.6,51.2 -130.4,103.2 -2.4,16 -5.59,40 -5.59,180.8 0,148.809 2.39,166.41 6.4,191.211 4.79,24.801 19.19,106.399 135.2,106.399 46.4,0 104,-20 118.4,-81.598 6.41,-27.203 6.41,-60.812 5.6,-104.812 h -65.6 v 42.402 c 0,38.41 -0.8,84.808 -58.4,84.808 -60,0 -64.8,-48 -67.21,-69.601 -4.79,-40.797 -4.79,-126.41 -4.79,-169.609 0,-34.399 1.6,-148.801 4.79,-171.2 2.41,-10.398 9.6,-52.8 65.61,-52.8 50.4,0 57.6,43.199 60,53.601 3.2,14.399 3.2,27.199 3.2,94.399 h 65.6" /><path
         id="path114"
         style="fill:#ffffff;fill-opacity:1;fill-rule:nonzero;stroke:none"
         d="m 1829.21,378.5 h 45.6 c 44.8,0 76.8,4 84.8,54.398 4,26.403 4.8,105.602 4.8,135.204 0,52 0,72 -0.8,126.41 -0.8,61.597 -1.6,92 -26.39,109.597 -17.61,12 -33.61,12 -108.01,12 z m -70.4,-62.398 v 564.82 h 106.4 c 55.2,0 105.6,0 139.2,-42.41 26.41,-32.801 28.8,-62.403 28.8,-199.211 0,-30.403 0,-66.391 -1.6,-143.199 -0.79,-55.192 -2.39,-95.204 -22.39,-128.801 -32,-51.199 -84.81,-51.199 -145.61,-51.199 h -104.8" /><path
         id="path116"
         style="fill:#ffffff;fill-opacity:1;fill-rule:nonzero;stroke:none"
         d="m 2077.52,512.02 h 67.2 c 0,-59.2 0,-65.598 0.8,-76 0.8,-14.399 5.61,-67.2 68.01,-67.2 22.39,0 71.2,8.789 71.2,70.399 0,44.801 -20,67.203 -52,100.011 l -76.81,78.391 c -53.6,55.199 -64.79,89.598 -64.79,140.809 0,31.199 0,132 131.2,132 28.8,0 77.6,-4.801 103.2,-46.399 16,-26.41 16,-45.601 16,-128.812 h -61.6 c -1.6,53.613 -1.6,59.211 -3.21,69.613 -1.59,10.398 -8.8,45.598 -58.39,45.598 -59.2,0 -59.2,-51.2 -59.2,-67.2 0,-42.398 15.19,-59.21 55.2,-101.601 l 71.2,-74.41 c 46.4,-49.598 67.2,-78.387 67.2,-143.199 0,-120 -94.4,-135.2 -136.81,-135.2 -54.39,0 -83.2,18.391 -94.39,27.989 -36.01,28.011 -44.01,70.402 -44.01,112.812 v 62.399" /><path
         id="path118"
         style="fill:#ffffff;fill-opacity:1;fill-rule:nonzero;stroke:none"
         d="m 1437.22,1212.02 h 67.19 c 0,-59.2 0,-65.6 0.8,-76 0.81,-14.4 5.61,-67.2 68.01,-67.2 22.4,0 71.2,8.79 71.2,70.4 0,44.8 -20,67.2 -52,100.01 l -76.8,78.39 c -53.61,55.2 -64.8,89.6 -64.8,140.81 0,31.2 0,132 131.2,132 28.8,0 77.6,-4.8 103.2,-46.4 16,-26.41 16,-45.6 16,-128.81 h -61.6 c -1.6,53.61 -1.6,59.21 -3.2,69.61 -1.6,10.4 -8.8,45.6 -58.4,45.6 -59.2,0 -59.2,-51.2 -59.2,-67.2 0,-42.4 15.19,-59.21 55.2,-101.6 l 71.2,-74.41 c 46.4,-49.6 67.2,-78.39 67.2,-143.2 0,-120 -94.4,-135.2 -136.8,-135.2 -54.4,0 -83.21,18.39 -94.4,27.99 -36.01,28.01 -44,70.4 -44,112.81 v 62.4" /><path
         id="path120"
         style="fill:#ffffff;fill-opacity:1;fill-rule:nonzero;stroke:none"
         d="m 2027.78,1016.81 h -99.21 l -110.4,489.61 9.6,-489.61 h -68.8 v 565.62 h 96.01 l 114.39,-495.22 -9.6,495.22 h 68.01 v -565.62" /><path
         id="path122"
         style="fill:#ffffff;fill-opacity:1;fill-rule:nonzero;stroke:none"
         d="m 2352.73,1216.02 c 0,-76 -0.8,-96 -5.6,-117.6 -7.19,-32.81 -25.6,-89.6 -127.2,-89.6 -86.4,0 -121.6,51.2 -130.4,103.2 -2.41,16 -5.6,40 -5.6,180.8 0,148.81 2.39,166.41 6.4,191.21 4.79,24.8 19.2,106.4 135.2,106.4 46.4,0 104.01,-20 118.4,-81.6 6.41,-27.2 6.41,-60.81 5.61,-104.81 h -65.61 v 42.4 c 0,38.41 -0.8,84.81 -58.4,84.81 -60,0 -64.8,-48 -67.2,-69.6 -4.8,-40.8 -4.8,-126.41 -4.8,-169.61 0,-34.4 1.6,-148.8 4.8,-171.2 2.4,-10.4 9.59,-52.8 65.6,-52.8 50.4,0 57.6,43.2 60,53.6 3.2,14.4 3.2,27.2 3.2,94.4 h 65.6" /></g></g></svg>