<svg width="556" height="328" viewBox="0 0 556 328" fill="none" xmlns="http://www.w3.org/2000/svg">
<g clip-path="url(#clip0_2117_21279)">
<path fill-rule="evenodd" clip-rule="evenodd" d="M0.0582347 161.08C-1.17398 125.555 17.125 86.991 57.1915 65.0014C94.9075 44.3018 149.886 60.6743 196.675 53.1708C237.091 46.6894 269.328 23.2745 310.773 24.3348C360.556 25.6085 420.03 30.6357 447.503 59.5881C474.985 88.5501 440.421 126.361 440.53 161.08C440.639 195.916 476.38 234.146 448.138 262.893C419.933 291.601 358.938 290.9 309.296 294.658C268.475 297.748 230.361 289.038 190.42 282.399C146.167 275.044 97.3105 275.236 63.7416 253.842C26.5306 230.127 1.27658 196.205 0.0582347 161.08Z" fill="#E1DCE2"/>
<path d="M232.784 226.979L233.725 248.159C233.725 250.239 232.899 252.234 231.428 253.705C229.957 255.176 227.963 256.003 225.883 256.003H8.59808C6.51816 256.003 4.52344 255.176 3.05272 253.705C1.582 252.234 0.755753 250.239 0.755753 248.159V124.898C0.755753 122.818 1.582 120.823 3.05272 119.352C4.52344 117.88 6.51816 117.054 8.59808 117.054H225.83C227.91 117.054 229.905 117.88 231.376 119.352C232.847 120.823 233.673 122.818 233.673 124.898V208.257" stroke="#9B82A4" stroke-width="1.8" stroke-linecap="round" stroke-linejoin="round"/>
<path d="M281.459 208.78V87.4025C281.459 85.322 282.285 83.3268 283.756 81.8557C285.226 80.3846 287.221 79.5582 289.301 79.5582H354.131C356.211 79.5582 358.206 80.3846 359.676 81.8557C361.147 83.3268 361.973 85.322 361.973 87.4025V267.456C361.973 269.536 361.147 271.531 359.676 273.002C358.206 274.473 356.211 275.3 354.131 275.3H289.301C287.221 275.3 285.226 274.473 283.756 273.002C282.285 271.531 281.459 269.536 281.459 267.456V228.286" stroke="#9B82A4" stroke-width="1.8" stroke-linecap="round" stroke-linejoin="round"/>
<path d="M49.4304 80.2903H2.42876V75.636H49.4304C49.5542 75.6353 49.6769 75.6592 49.7914 75.7062C49.9059 75.7533 50.0099 75.8226 50.0974 75.9101C50.1849 75.9977 50.2542 76.1017 50.3013 76.2163C50.3483 76.3308 50.3722 76.4535 50.3715 76.5773V79.2967C50.3818 79.4253 50.3649 79.5547 50.322 79.6764C50.2791 79.7982 50.211 79.9095 50.1223 80.0032C50.0335 80.0969 49.9261 80.1709 49.8069 80.2203C49.6877 80.2698 49.5594 80.2936 49.4304 80.2903V80.2903Z" stroke="#9B82A4" stroke-width="1.8" stroke-linecap="round" stroke-linejoin="round"/>
<path d="M42.2678 117.054H31.6545C31.1015 117.055 30.5673 116.854 30.1529 116.488C29.7386 116.121 29.4729 115.616 29.4064 115.067L28.5699 107.536C28.5354 107.22 28.5678 106.9 28.665 106.598C28.7622 106.295 28.9221 106.016 29.1341 105.779C29.3462 105.543 29.6057 105.353 29.8959 105.223C30.186 105.094 30.5002 105.026 30.818 105.026H43.1043C43.4219 105.027 43.7357 105.095 44.0254 105.225C44.3151 105.355 44.5743 105.545 44.7862 105.781C44.9981 106.018 45.158 106.296 45.2556 106.599C45.3531 106.901 45.3861 107.22 45.3524 107.536L44.5159 115.067C44.4572 115.619 44.1939 116.129 43.7778 116.497C43.3617 116.865 42.823 117.064 42.2678 117.054V117.054Z" stroke="#9B82A4" stroke-width="1.8" stroke-linecap="round" stroke-linejoin="round"/>
<path d="M35.7326 105.078C35.7326 105.078 31.55 104.66 30.7135 99.012C30.7135 99.012 34.4778 100.11 35.6803 102.777C35.6803 102.777 36.2031 96.8156 39.0263 96.2404C39.0263 96.2404 40.2811 100.685 38.2944 102.882C38.2944 102.882 39.8106 100.372 43.6794 100.424C43.3139 101.525 42.6845 102.521 41.8461 103.323C41.0077 104.125 39.9857 104.71 38.8695 105.026" fill="#9B82A4"/>
<path d="M327.781 79.5582H317.167C316.614 79.5596 316.08 79.3581 315.666 78.9919C315.251 78.6256 314.986 78.12 314.919 77.5709L314.083 70.0404C314.048 69.7244 314.081 69.4046 314.178 69.1019C314.275 68.7993 314.435 68.5205 314.647 68.2837C314.859 68.0469 315.119 67.8574 315.409 67.7276C315.699 67.5978 316.013 67.5305 316.331 67.5302H328.617C328.935 67.5314 329.249 67.5992 329.538 67.7292C329.828 67.8593 330.087 68.0488 330.299 68.2854C330.511 68.522 330.671 68.8005 330.768 69.1028C330.866 69.4051 330.899 69.7245 330.865 70.0404L330.029 77.5709C329.962 78.12 329.697 78.6256 329.282 78.9919C328.868 79.3581 328.334 79.5596 327.781 79.5582V79.5582Z" stroke="#9B82A4" stroke-width="1.8" stroke-linecap="round" stroke-linejoin="round"/>
<path d="M321.193 67.5824C321.193 67.5824 317.011 67.1641 316.174 61.5162C316.174 61.5162 319.938 62.6144 321.141 65.2814C321.141 65.2814 321.664 59.3198 324.487 58.7445C324.487 58.7445 325.742 63.1896 323.755 65.386C323.755 65.386 325.271 62.8758 329.14 62.9281C328.775 64.0295 328.145 65.0247 327.307 65.8269C326.468 66.629 325.446 67.2138 324.33 67.5301" fill="#9B82A4"/>
<path d="M224.21 143.045H177.051C176.47 143.041 175.914 142.808 175.503 142.397C175.092 141.986 174.859 141.43 174.855 140.848V126.519C174.859 125.938 175.092 125.382 175.503 124.971C175.914 124.56 176.47 124.327 177.051 124.323H224.21C224.791 124.327 225.347 124.56 225.758 124.971C226.169 125.382 226.401 125.938 226.406 126.519V140.848C226.401 141.43 226.169 141.986 225.758 142.397C225.347 142.808 224.791 143.041 224.21 143.045V143.045Z" stroke="#9B82A4" stroke-width="1.8" stroke-linecap="round" stroke-linejoin="round"/>
<path d="M206.016 129.396H195.141C194.935 129.39 194.738 129.306 194.592 129.16C194.446 129.014 194.362 128.818 194.357 128.611C194.362 128.405 194.446 128.208 194.592 128.062C194.738 127.916 194.935 127.832 195.141 127.827H206.016C206.222 127.832 206.418 127.916 206.564 128.062C206.71 128.208 206.794 128.405 206.8 128.611C206.802 128.715 206.783 128.818 206.744 128.914C206.706 129.01 206.648 129.097 206.575 129.171C206.502 129.244 206.414 129.302 206.318 129.34C206.222 129.379 206.119 129.398 206.016 129.396Z" fill="#9B82A4"/>
<path d="M224.21 167.048H177.051C176.47 167.044 175.914 166.812 175.503 166.401C175.092 165.99 174.859 165.433 174.855 164.852V150.523C174.859 149.942 175.092 149.386 175.503 148.975C175.914 148.563 176.47 148.331 177.051 148.327H224.21C224.791 148.331 225.347 148.563 225.758 148.975C226.169 149.386 226.401 149.942 226.406 150.523V164.852C226.401 165.433 226.169 165.99 225.758 166.401C225.347 166.812 224.791 167.044 224.21 167.048V167.048Z" stroke="#9B82A4" stroke-width="1.8" stroke-linecap="round" stroke-linejoin="round"/>
<path d="M206.016 153.347H195.141C194.935 153.342 194.738 153.257 194.592 153.111C194.446 152.965 194.362 152.769 194.357 152.563C194.362 152.356 194.446 152.16 194.592 152.014C194.738 151.868 194.935 151.783 195.141 151.778H206.016C206.222 151.783 206.418 151.868 206.564 152.014C206.71 152.16 206.794 152.356 206.8 152.563C206.802 152.666 206.783 152.769 206.744 152.865C206.706 152.961 206.648 153.049 206.575 153.122C206.502 153.195 206.414 153.253 206.318 153.292C206.222 153.33 206.119 153.349 206.016 153.347Z" fill="#9B82A4"/>
<path d="M164.085 143.045H116.927C116.346 143.041 115.789 142.808 115.379 142.397C114.968 141.986 114.735 141.43 114.731 140.848V126.519C114.735 125.938 114.968 125.382 115.379 124.971C115.789 124.56 116.346 124.327 116.927 124.323H164.085C164.666 124.327 165.222 124.56 165.633 124.971C166.044 125.382 166.277 125.938 166.281 126.519V140.848C166.277 141.43 166.044 141.986 165.633 142.397C165.222 142.808 164.666 143.041 164.085 143.045V143.045Z" stroke="#9B82A4" stroke-width="1.8" stroke-linecap="round" stroke-linejoin="round"/>
<path d="M145.943 129.396H135.069C134.862 129.39 134.666 129.306 134.52 129.16C134.374 129.014 134.29 128.818 134.284 128.611C134.29 128.405 134.374 128.208 134.52 128.062C134.666 127.916 134.862 127.832 135.069 127.827H145.943C146.15 127.832 146.346 127.916 146.492 128.062C146.638 128.208 146.722 128.405 146.728 128.611C146.722 128.818 146.638 129.014 146.492 129.16C146.346 129.306 146.15 129.39 145.943 129.396Z" fill="#9B82A4"/>
<path d="M164.085 167.048H116.927C116.346 167.044 115.789 166.812 115.379 166.401C114.968 165.99 114.735 165.433 114.731 164.852V150.523C114.735 149.942 114.968 149.386 115.379 148.975C115.789 148.563 116.346 148.331 116.927 148.327H164.085C164.666 148.331 165.222 148.563 165.633 148.975C166.044 149.386 166.277 149.942 166.281 150.523V164.852C166.277 165.433 166.044 165.99 165.633 166.401C165.222 166.812 164.666 167.044 164.085 167.048V167.048Z" stroke="#9B82A4" stroke-width="1.8" stroke-linecap="round" stroke-linejoin="round"/>
<path d="M145.943 153.347H135.069C134.862 153.342 134.666 153.257 134.52 153.111C134.374 152.965 134.29 152.769 134.284 152.563C134.29 152.356 134.374 152.16 134.52 152.014C134.666 151.868 134.862 151.783 135.069 151.778H145.943C146.15 151.783 146.346 151.868 146.492 152.014C146.638 152.16 146.722 152.356 146.728 152.563C146.722 152.769 146.638 152.965 146.492 153.111C146.346 153.257 146.15 153.342 145.943 153.347Z" fill="#9B82A4"/>
<path d="M224.21 190.477H177.051C176.47 190.473 175.914 190.24 175.503 189.829C175.092 189.418 174.859 188.862 174.855 188.28V173.951C174.859 173.37 175.092 172.814 175.503 172.403C175.914 171.992 176.47 171.759 177.051 171.755H224.21C224.791 171.759 225.347 171.992 225.758 172.403C226.169 172.814 226.401 173.37 226.406 173.951V188.28C226.401 188.862 226.169 189.418 225.758 189.829C225.347 190.24 224.791 190.473 224.21 190.477V190.477Z" stroke="#9B82A4" stroke-width="1.8" stroke-linecap="round" stroke-linejoin="round"/>
<path d="M206.016 176.828H195.141C194.935 176.822 194.738 176.738 194.592 176.592C194.446 176.446 194.362 176.25 194.357 176.043C194.362 175.837 194.446 175.64 194.592 175.494C194.738 175.348 194.935 175.264 195.141 175.259H206.016C206.222 175.264 206.418 175.348 206.564 175.494C206.71 175.64 206.794 175.837 206.8 176.043C206.802 176.147 206.783 176.25 206.744 176.346C206.706 176.442 206.648 176.529 206.575 176.603C206.502 176.676 206.414 176.734 206.318 176.772C206.222 176.811 206.119 176.83 206.016 176.828Z" fill="#9B82A4"/>
<path d="M164.085 190.477H116.927C116.346 190.473 115.789 190.24 115.379 189.829C114.968 189.418 114.735 188.862 114.731 188.28V173.951C114.735 173.37 114.968 172.814 115.379 172.403C115.789 171.992 116.346 171.759 116.927 171.755H164.085C164.666 171.759 165.222 171.992 165.633 172.403C166.044 172.814 166.277 173.37 166.281 173.951V188.28C166.277 188.862 166.044 189.418 165.633 189.829C165.222 190.24 164.666 190.473 164.085 190.477V190.477Z" stroke="#9B82A4" stroke-width="1.8" stroke-linecap="round" stroke-linejoin="round"/>
<path d="M145.943 176.828H135.069C134.862 176.822 134.666 176.738 134.52 176.592C134.374 176.446 134.29 176.25 134.284 176.043C134.29 175.837 134.374 175.64 134.52 175.494C134.666 175.348 134.862 175.264 135.069 175.259H145.943C146.15 175.264 146.346 175.348 146.492 175.494C146.638 175.64 146.722 175.837 146.728 176.043C146.722 176.25 146.638 176.446 146.492 176.592C146.346 176.738 146.15 176.822 145.943 176.828Z" fill="#9B82A4"/>
<path d="M376.194 134.364H292.595C291.959 134.357 291.351 134.101 290.902 133.652C290.452 133.202 290.197 132.594 290.19 131.958V90.2788C290.197 89.6429 290.452 89.0349 290.902 88.5853C291.351 88.1356 291.959 87.88 292.595 87.8732H376.194C376.83 87.88 377.437 88.1356 377.887 88.5853C378.337 89.0349 378.592 89.6429 378.599 90.2788V131.958C378.604 132.275 378.545 132.59 378.426 132.885C378.307 133.179 378.13 133.446 377.906 133.67C377.681 133.895 377.414 134.072 377.12 134.191C376.826 134.31 376.511 134.369 376.194 134.364V134.364Z" stroke="#9B82A4" stroke-width="1.8" stroke-linecap="round" stroke-linejoin="round"/>
<path d="M376.194 186.136H292.595C291.959 186.129 291.351 185.874 290.902 185.424C290.452 184.974 290.197 184.367 290.19 183.731V142.051C290.197 141.415 290.452 140.807 290.902 140.358C291.351 139.908 291.959 139.652 292.595 139.646H376.194C376.83 139.652 377.437 139.908 377.887 140.358C378.337 140.807 378.592 141.415 378.599 142.051V183.731C378.6 184.047 378.538 184.36 378.417 184.652C378.297 184.944 378.12 185.21 377.896 185.433C377.673 185.657 377.407 185.834 377.115 185.955C376.823 186.075 376.51 186.137 376.194 186.136V186.136Z" stroke="#9B82A4" stroke-width="1.8" stroke-linecap="round" stroke-linejoin="round"/>
<path d="M311.416 108.059H306.24V134.364H311.416V108.059Z" stroke="#9B82A4" stroke-width="1.8" stroke-linecap="round" stroke-linejoin="round"/>
<path d="M316.749 115.276H311.364V134.416H316.749V115.276Z" stroke="#9B82A4" stroke-width="1.8" stroke-linecap="round" stroke-linejoin="round"/>
<path d="M30.5043 49.3314H25.3284V75.636H30.5043V49.3314Z" stroke="#9B82A4" stroke-width="1.8" stroke-linecap="round" stroke-linejoin="round"/>
<path d="M35.8371 56.4959H30.452V75.636H35.8371V56.4959Z" stroke="#9B82A4" stroke-width="1.8" stroke-linecap="round" stroke-linejoin="round"/>
<path d="M19.9433 60.2611H14.7674V75.636H19.9433V60.2611Z" stroke="#9B82A4" stroke-width="1.8" stroke-linecap="round" stroke-linejoin="round"/>
<path d="M25.3283 44.834H19.9433V75.5837H25.3283V44.834Z" stroke="#9B82A4" stroke-width="1.8" stroke-linecap="round" stroke-linejoin="round"/>
<path d="M308.175 163.283L308.75 155.491C308.761 155.369 308.746 155.246 308.706 155.13C308.666 155.015 308.602 154.909 308.518 154.82C308.434 154.731 308.332 154.66 308.219 154.614C308.105 154.567 307.983 154.546 307.861 154.55H303.417C303.296 154.55 303.176 154.575 303.065 154.624C302.954 154.672 302.854 154.742 302.771 154.83C302.688 154.918 302.624 155.022 302.582 155.136C302.54 155.249 302.522 155.37 302.528 155.491L303.103 163.283C303.103 163.283 298.398 166.316 298.45 168.826C298.503 170.761 299.653 180.018 300.176 184.097C300.242 184.646 300.508 185.151 300.922 185.518C301.337 185.884 301.871 186.085 302.424 186.084H308.907C309.46 186.085 309.994 185.884 310.408 185.518C310.823 185.151 311.088 184.646 311.155 184.097C311.678 180.018 312.828 170.761 312.88 168.826C312.88 166.316 308.175 163.283 308.175 163.283Z" fill="#9B82A4"/>
<path d="M333.375 111.563L333.95 103.771C333.961 103.649 333.946 103.526 333.906 103.41C333.866 103.294 333.802 103.189 333.718 103.1C333.634 103.01 333.532 102.94 333.419 102.894C333.305 102.847 333.184 102.825 333.061 102.83H328.565C328.444 102.83 328.324 102.855 328.213 102.903C328.102 102.952 328.002 103.022 327.919 103.11C327.836 103.198 327.771 103.302 327.73 103.415C327.688 103.529 327.67 103.65 327.676 103.771L328.251 111.563C328.251 111.563 323.546 114.596 323.598 117.106C323.65 119.041 324.801 128.297 325.323 132.377C325.39 132.926 325.656 133.431 326.07 133.797C326.484 134.164 327.019 134.365 327.572 134.364H334.055C334.607 134.365 335.142 134.164 335.556 133.797C335.97 133.431 336.236 132.926 336.303 132.377C336.825 128.297 337.976 119.041 338.028 117.106C338.08 114.596 333.375 111.563 333.375 111.563Z" fill="#9B82A4"/>
<path d="M7.86612 205.799L375.41 209.826" stroke="#9B82A4" stroke-width="1.8" stroke-linecap="round" stroke-linejoin="round"/>
<path d="M296.673 113.132L276.387 111.877C276.054 111.855 275.727 111.767 275.428 111.618C275.128 111.469 274.861 111.262 274.643 111.009C274.424 110.756 274.257 110.462 274.153 110.144C274.048 109.826 274.008 109.491 274.035 109.157L277.119 67.5302C277.178 66.8336 277.485 66.1813 277.984 65.6918C278.483 65.2023 279.141 64.9083 279.838 64.8631L300.594 63.608C300.954 63.5893 301.313 63.6473 301.648 63.7781C301.984 63.9088 302.288 64.1094 302.54 64.3666C302.792 64.6237 302.987 64.9315 303.111 65.2695C303.235 65.6076 303.286 65.9682 303.26 66.3274L299.81 110.465C299.729 111.227 299.358 111.929 298.774 112.426C298.19 112.922 297.438 113.175 296.673 113.132Z" fill="#22272E"/>
<path d="M295.261 113.132L274.976 111.877C274.642 111.855 274.316 111.767 274.016 111.618C273.717 111.469 273.45 111.262 273.231 111.009C273.012 110.756 272.846 110.462 272.741 110.144C272.637 109.826 272.597 109.491 272.623 109.157L275.708 67.5302C275.766 66.8336 276.073 66.1813 276.572 65.6918C277.071 65.2023 277.729 64.9083 278.426 64.8631L299.182 63.608C299.542 63.5893 299.902 63.6473 300.237 63.7781C300.573 63.9088 300.876 64.1094 301.128 64.3666C301.381 64.6237 301.575 64.9315 301.699 65.2695C301.824 65.6076 301.875 65.9682 301.849 66.3274L298.398 110.465C298.318 111.227 297.947 111.929 297.363 112.426C296.779 112.922 296.027 113.175 295.261 113.132Z" fill="#22272E"/>
<path d="M289.04 68.4716L285.171 68.6808C285.101 68.6854 285.031 68.675 284.965 68.6504C284.9 68.6257 284.84 68.5874 284.791 68.5379C284.741 68.4883 284.703 68.4288 284.678 68.3633C284.654 68.2977 284.643 68.2277 284.648 68.1578C284.649 68.0057 284.71 67.8601 284.818 67.7526C284.925 67.645 285.071 67.5839 285.223 67.5826L289.092 67.3734C289.162 67.3688 289.232 67.3791 289.297 67.4038C289.363 67.4284 289.422 67.4668 289.472 67.5163C289.521 67.5658 289.56 67.6253 289.584 67.6909C289.609 67.7564 289.619 67.8265 289.615 67.8963C289.613 68.0485 289.552 68.194 289.445 68.3016C289.337 68.4092 289.192 68.4702 289.04 68.4716Z" fill="#63737A"/>
<path d="M291.288 68.3671H291.183C291.113 68.3717 291.043 68.3613 290.978 68.3367C290.912 68.3121 290.853 68.2737 290.803 68.2242C290.754 68.1747 290.715 68.1151 290.691 68.0496C290.666 67.9841 290.656 67.914 290.66 67.8441C290.68 67.6846 290.753 67.5362 290.866 67.4225C290.98 67.3088 291.128 67.2363 291.288 67.2166H291.392C291.462 67.212 291.532 67.2223 291.598 67.247C291.663 67.2716 291.723 67.31 291.772 67.3595C291.822 67.409 291.86 67.4685 291.885 67.5341C291.909 67.5996 291.92 67.6697 291.915 67.7395C291.895 67.8991 291.823 68.0475 291.709 68.1612C291.596 68.2749 291.447 68.3473 291.288 68.3671Z" fill="#63737A"/>
<path d="M285.223 75.4269L280.047 75.5838C279.921 75.5855 279.796 75.5601 279.68 75.5093C279.564 75.4585 279.461 75.3835 279.377 75.2894C279.292 75.1952 279.229 75.084 279.192 74.9634C279.154 74.8428 279.143 74.7155 279.158 74.5901C279.186 74.3221 279.305 74.0717 279.495 73.8812C279.686 73.6907 279.936 73.5717 280.204 73.5442L285.38 73.335C285.506 73.3333 285.632 73.3587 285.747 73.4095C285.863 73.4603 285.966 73.5353 286.051 73.6294C286.135 73.7236 286.198 73.8348 286.236 73.9554C286.273 74.076 286.285 74.2033 286.269 74.3287C286.262 74.6089 286.151 74.8764 285.958 75.0794C285.764 75.2823 285.503 75.4062 285.223 75.4269Z" fill="#63737A"/>
<path d="M283.864 93.4164L278.74 93.3641C278.616 93.3574 278.495 93.3264 278.384 93.2728C278.272 93.2192 278.172 93.1441 278.089 93.0518C278.007 92.9595 277.943 92.8518 277.902 92.7349C277.862 92.618 277.844 92.4942 277.851 92.3705C277.88 92.1081 278.001 91.8645 278.193 91.6827C278.384 91.5009 278.633 91.3925 278.897 91.3769L284.02 91.4292C284.146 91.4315 284.269 91.4597 284.383 91.5118C284.496 91.5639 284.598 91.639 284.681 91.7322C284.765 91.8255 284.828 91.9349 284.867 92.0538C284.907 92.1726 284.921 92.2982 284.909 92.4228C284.89 92.6889 284.772 92.9381 284.579 93.1218C284.385 93.3056 284.13 93.4106 283.864 93.4164Z" fill="#63737A"/>
<path d="M282.766 107.954L277.642 107.693C277.515 107.685 277.39 107.65 277.276 107.593C277.161 107.535 277.06 107.455 276.977 107.358C276.894 107.26 276.832 107.147 276.793 107.025C276.755 106.903 276.741 106.775 276.753 106.647C276.764 106.392 276.874 106.151 277.06 105.975C277.245 105.799 277.491 105.703 277.747 105.706L282.871 105.915C283 105.919 283.127 105.95 283.243 106.006C283.36 106.062 283.463 106.142 283.547 106.241C283.631 106.339 283.693 106.454 283.729 106.578C283.766 106.702 283.776 106.833 283.759 106.961C283.759 107.224 283.655 107.477 283.468 107.663C283.282 107.85 283.029 107.954 282.766 107.954Z" fill="#63737A"/>
<path d="M294.686 86.984L279.42 87.0363C279.266 87.037 279.114 87.0056 278.974 86.944C278.833 86.8823 278.707 86.792 278.604 86.6786C278.501 86.5653 278.422 86.4316 278.373 86.286C278.325 86.1404 278.307 85.9863 278.322 85.8336L278.792 79.192C278.812 78.926 278.93 78.6767 279.123 78.493C279.316 78.3092 279.571 78.2042 279.838 78.1984L295.157 77.78C295.31 77.7793 295.462 77.8108 295.602 77.8724C295.743 77.934 295.869 78.0244 295.972 78.1378C296.076 78.2511 296.154 78.3848 296.203 78.5304C296.252 78.676 296.269 78.8301 296.255 78.9828L295.732 85.9381C295.732 86.2155 295.622 86.4816 295.426 86.6777C295.229 86.8738 294.963 86.984 294.686 86.984Z" fill="#B0D7C0"/>
<path d="M283.498 102.359L278.27 102.15C278.12 102.145 277.973 102.109 277.838 102.045C277.703 101.981 277.583 101.889 277.485 101.776C277.387 101.663 277.313 101.531 277.268 101.389C277.223 101.246 277.208 101.096 277.224 100.947L277.538 96.9725C277.544 96.8351 277.578 96.7003 277.637 96.576C277.696 96.4516 277.779 96.3401 277.881 96.2478C277.983 96.1555 278.102 96.0842 278.231 96.0381C278.361 95.9919 278.498 95.9718 278.636 95.9788L283.916 96.0834C284.22 96.0997 284.506 96.2349 284.711 96.4599C284.917 96.685 285.025 96.9817 285.014 97.2862L284.7 101.365C284.653 101.648 284.505 101.904 284.284 102.086C284.063 102.269 283.784 102.365 283.498 102.359Z" fill="#FFE38E"/>
<path d="M293.431 102.673L287.837 102.464C287.688 102.459 287.541 102.423 287.406 102.359C287.271 102.295 287.15 102.203 287.052 102.09C286.954 101.977 286.88 101.845 286.835 101.703C286.791 101.56 286.776 101.41 286.792 101.261L287.105 97.1295C287.112 96.9921 287.146 96.8574 287.204 96.733C287.263 96.6087 287.346 96.4972 287.448 96.4049C287.55 96.3126 287.669 96.2413 287.799 96.1951C287.928 96.149 288.066 96.1289 288.203 96.1359L293.85 96.2405C294.154 96.2567 294.439 96.392 294.645 96.617C294.85 96.842 294.959 97.1388 294.948 97.4433L294.634 101.679C294.588 101.963 294.441 102.22 294.22 102.403C293.998 102.586 293.718 102.682 293.431 102.673Z" fill="#F4C2C9"/>
<path d="M168.268 48.7561L151.276 49.5405C150.964 49.5532 150.652 49.4956 150.365 49.3719C150.077 49.2481 149.821 49.0614 149.615 48.8255C149.41 48.5897 149.26 48.3106 149.176 48.009C149.092 47.7073 149.078 47.3908 149.133 47.0827L151.956 18.8431C152.032 18.1269 152.338 17.4545 152.828 16.9267C153.318 16.3988 153.966 16.0438 154.675 15.9146L171.98 13.6659C173.496 13.4567 174.542 14.5549 174.385 16.0715L171.196 45.9322C171.105 46.6672 170.765 47.3487 170.232 47.8628C169.699 48.3768 169.005 48.6922 168.268 48.7561Z" fill="#22272E"/>
<path d="M167.013 48.181L150.021 48.9655C149.709 48.9782 149.397 48.9205 149.11 48.7968C148.822 48.673 148.566 48.4863 148.361 48.2505C148.155 48.0146 148.005 47.7356 147.921 47.4339C147.838 47.1323 147.823 46.8157 147.878 46.5076L150.701 18.2681C150.777 17.5518 151.084 16.8795 151.574 16.3516C152.064 15.8237 152.711 15.4687 153.42 15.3395L170.725 13.0908C172.241 12.8816 173.287 13.9798 173.13 15.4964L169.941 45.3571C169.86 46.0959 169.523 46.7829 168.988 47.2987C168.453 47.8146 167.754 48.1268 167.013 48.181Z" fill="#22272E"/>
<path d="M167.797 22.6085L154.57 24.0205C154.471 24.0312 154.371 24.0197 154.278 23.9867C154.184 23.9537 154.099 23.9001 154.029 23.8298C153.958 23.7596 153.905 23.6745 153.872 23.5808C153.839 23.487 153.827 23.3871 153.838 23.2883L154.152 20.046C154.162 19.8967 154.225 19.756 154.331 19.6502C154.437 19.5444 154.578 19.4806 154.727 19.4708L168.007 17.9019C168.105 17.8912 168.205 17.9027 168.299 17.9357C168.393 17.9687 168.478 18.0223 168.548 18.0925C168.618 18.1628 168.672 18.2479 168.705 18.3416C168.738 18.4353 168.749 18.5353 168.739 18.634L168.373 22.0332C168.371 22.1854 168.31 22.3309 168.203 22.4385C168.095 22.5461 167.95 22.6071 167.797 22.6085Z" fill="#F4C2C9"/>
<path d="M155.511 31.6033L153.786 31.7602C153.687 31.771 153.587 31.7594 153.493 31.7265C153.4 31.6935 153.315 31.6399 153.244 31.5696C153.174 31.4994 153.121 31.4142 153.088 31.3205C153.055 31.2268 153.043 31.1269 153.054 31.0281L153.263 29.1455C153.273 28.9961 153.337 28.8555 153.442 28.7496C153.548 28.6438 153.689 28.58 153.838 28.5702L155.563 28.4133C155.662 28.4026 155.762 28.4141 155.856 28.4471C155.949 28.4801 156.035 28.5337 156.105 28.604C156.175 28.6742 156.229 28.7593 156.262 28.8531C156.295 28.9468 156.306 29.0467 156.295 29.1455L156.086 31.0281C156.076 31.1774 156.013 31.3181 155.907 31.4239C155.801 31.5298 155.66 31.5935 155.511 31.6033Z" fill="#B0D7C0"/>
<path d="M166.961 30.6097L165.079 30.7665C164.98 30.7773 164.88 30.7658 164.786 30.7328C164.693 30.6998 164.607 30.6462 164.537 30.5759C164.467 30.5057 164.413 30.4205 164.38 30.3268C164.347 30.2331 164.336 30.1332 164.347 30.0344L164.556 28.0472C164.566 27.8978 164.629 27.7572 164.735 27.6513C164.841 27.5455 164.982 27.4818 165.131 27.4719L167.013 27.2628C167.112 27.252 167.212 27.2635 167.305 27.2965C167.399 27.3295 167.484 27.3831 167.554 27.4534C167.625 27.5236 167.678 27.6088 167.711 27.7025C167.744 27.7962 167.756 27.8961 167.745 27.9949L167.536 29.9821C167.528 30.1372 167.466 30.2846 167.361 30.3991C167.256 30.5136 167.114 30.588 166.961 30.6097Z" fill="#B0D7C0"/>
<path d="M161.157 31.0803L159.38 31.2372C159.281 31.248 159.181 31.2364 159.088 31.2034C158.994 31.1704 158.909 31.1168 158.839 31.0466C158.768 30.9763 158.715 30.8912 158.682 30.7975C158.649 30.7038 158.637 30.6038 158.648 30.5051L158.857 28.5701C158.867 28.4208 158.931 28.2801 159.036 28.1743C159.142 28.0685 159.283 28.0047 159.432 27.9949L161.21 27.838C161.309 27.8273 161.408 27.8388 161.502 27.8718C161.596 27.9048 161.681 27.9584 161.751 28.0286C161.821 28.0989 161.875 28.184 161.908 28.2777C161.941 28.3714 161.952 28.4714 161.942 28.5701L161.733 30.5051C161.731 30.6572 161.67 30.8027 161.563 30.9103C161.455 31.0179 161.31 31.079 161.157 31.0803Z" fill="#B0D7C0"/>
<path d="M154.832 38.0358L153.106 38.1404C153.008 38.1474 152.91 38.1332 152.818 38.0989C152.726 38.0646 152.643 38.0109 152.573 37.9414C152.504 37.872 152.45 37.7885 152.416 37.6965C152.381 37.6045 152.367 37.5062 152.374 37.4082L152.583 35.5256C152.605 35.3718 152.679 35.2303 152.794 35.1254C152.908 35.0204 153.056 34.9585 153.211 34.9503L154.936 34.7935C155.035 34.7827 155.135 34.7942 155.228 34.8272C155.322 34.8602 155.407 34.9138 155.477 34.9841C155.548 35.0543 155.601 35.1395 155.634 35.2332C155.667 35.3269 155.679 35.4268 155.668 35.5256L155.459 37.4082C155.448 37.571 155.378 37.7243 155.263 37.8397C155.148 37.9551 154.994 38.0248 154.832 38.0358Z" fill="#B0D7C0"/>
<path d="M166.281 37.2513L164.399 37.4082C164.301 37.4152 164.203 37.4011 164.111 37.3668C164.019 37.3324 163.935 37.2787 163.866 37.2093C163.796 37.1399 163.743 37.0563 163.708 36.9643C163.674 36.8723 163.66 36.774 163.667 36.6761L163.876 34.7412C163.898 34.5874 163.972 34.4459 164.087 34.3409C164.201 34.236 164.348 34.1741 164.503 34.1659L166.386 34.009C166.484 33.9983 166.584 34.0098 166.678 34.0428C166.772 34.0758 166.857 34.1294 166.927 34.1996C166.997 34.2699 167.051 34.355 167.084 34.4487C167.117 34.5425 167.128 34.6424 167.118 34.7412L166.908 36.7284C166.859 36.8627 166.774 36.9817 166.664 37.0734C166.554 37.1652 166.422 37.2265 166.281 37.2513Z" fill="#B0D7C0"/>
<path d="M160.478 37.6695L158.7 37.7741C158.602 37.7811 158.504 37.767 158.412 37.7327C158.32 37.6984 158.236 37.6447 158.167 37.5752C158.098 37.5058 158.044 37.4222 158.01 37.3302C157.975 37.2382 157.961 37.1399 157.968 37.042L158.177 35.1071C158.199 34.9533 158.273 34.8118 158.388 34.7068C158.502 34.6019 158.65 34.54 158.805 34.5318L160.582 34.3749C160.681 34.3642 160.781 34.3757 160.875 34.4087C160.968 34.4417 161.053 34.4953 161.124 34.5656C161.194 34.6358 161.248 34.7209 161.281 34.8147C161.313 34.9084 161.325 35.0083 161.314 35.1071L161.105 37.042C161.077 37.198 161.002 37.3417 160.889 37.4538C160.777 37.566 160.634 37.6412 160.478 37.6695Z" fill="#B0D7C0"/>
<path d="M154.152 44.4679L152.479 44.5725C152.383 44.5779 152.288 44.5623 152.2 44.5267C152.111 44.491 152.032 44.4363 151.967 44.3663C151.902 44.2964 151.853 44.213 151.824 44.1221C151.795 44.0312 151.787 43.935 151.799 43.8404L152.008 41.9577C152.03 41.8039 152.104 41.6624 152.219 41.5575C152.333 41.4525 152.481 41.3907 152.636 41.3825L154.309 41.2779C154.405 41.2673 154.503 41.2794 154.594 41.3133C154.685 41.3472 154.766 41.4019 154.833 41.473C154.899 41.5442 154.947 41.6298 154.974 41.723C155.001 41.8163 155.006 41.9146 154.988 42.01L154.779 43.8927C154.766 44.0499 154.694 44.1964 154.578 44.303C154.462 44.4096 154.31 44.4685 154.152 44.4679Z" fill="#B0D7C0"/>
<path d="M165.549 43.8405L163.667 43.9451C163.572 43.9505 163.477 43.9348 163.388 43.8992C163.3 43.8636 163.22 43.8088 163.155 43.7389C163.09 43.669 163.041 43.5856 163.012 43.4946C162.983 43.4037 162.975 43.3075 162.987 43.2129L163.196 41.278C163.218 41.1242 163.293 40.9827 163.407 40.8778C163.521 40.7728 163.669 40.7109 163.824 40.7027L165.706 40.5981C165.803 40.5875 165.9 40.5997 165.991 40.6335C166.082 40.6674 166.164 40.7221 166.23 40.7933C166.296 40.8644 166.344 40.9501 166.372 41.0433C166.399 41.1365 166.403 41.2348 166.386 41.3303L166.177 43.3175C166.144 43.4613 166.064 43.5903 165.951 43.6848C165.838 43.7792 165.697 43.8339 165.549 43.8405Z" fill="#FFE779"/>
<path d="M159.798 44.1543L158.021 44.2589C157.925 44.2643 157.83 44.2487 157.742 44.213C157.653 44.1774 157.574 44.1227 157.509 44.0527C157.444 43.9828 157.395 43.8994 157.366 43.8085C157.337 43.7176 157.329 43.6214 157.341 43.5268L157.55 41.6441C157.572 41.4903 157.646 41.3488 157.761 41.2439C157.875 41.139 158.022 41.0771 158.178 41.0689L159.955 40.9643C160.052 40.9537 160.149 40.9658 160.24 40.9997C160.331 41.0336 160.413 41.0883 160.479 41.1594C160.545 41.2306 160.594 41.3162 160.621 41.4094C160.648 41.5027 160.652 41.601 160.635 41.6964L160.426 43.6314C160.393 43.7752 160.313 43.9042 160.2 43.9986C160.087 44.0931 159.946 44.1478 159.798 44.1543Z" fill="#FFE779"/>
<path d="M184.737 48.4424L266.611 39.9705C266.965 39.9349 267.323 39.9776 267.659 40.0956C267.995 40.2137 268.301 40.4042 268.556 40.6536C268.81 40.9031 269.006 41.2054 269.131 41.5392C269.256 41.873 269.306 42.2301 269.277 42.5853L262.271 122.283C262.191 123.227 261.749 124.102 261.037 124.726C260.326 125.35 259.4 125.674 258.455 125.63L178.933 121.342C178.29 121.304 177.687 121.014 177.256 120.534C176.826 120.054 176.602 119.424 176.633 118.78L181.443 51.8939C181.504 51.0248 181.866 50.2044 182.468 49.5743C183.069 48.9441 183.872 48.5438 184.737 48.4424Z" fill="#F8AB5D"/>
<path d="M181.757 47.5534L264.572 38.977C264.931 38.9382 265.295 38.9805 265.636 39.1008C265.977 39.2211 266.287 39.4163 266.543 39.6722C266.799 39.928 266.994 40.238 267.114 40.5792C267.235 40.9205 267.277 41.2843 267.238 41.644L260.18 122.231C260.109 123.188 259.662 124.077 258.937 124.704C258.212 125.332 257.267 125.646 256.311 125.578L175.849 121.238C175.525 121.222 175.207 121.141 174.914 121C174.621 120.859 174.36 120.661 174.146 120.417C173.931 120.173 173.768 119.889 173.665 119.581C173.563 119.272 173.523 118.947 173.548 118.623L178.411 50.9526C178.502 50.0912 178.883 49.2863 179.491 48.669C180.098 48.0517 180.897 47.6585 181.757 47.5534Z" fill="#FFE38E"/>
<path d="M190.331 64.9156L186.567 65.1248L186.096 72.1324L189.808 72.0278L190.331 64.9156Z" fill="#6DAFA7"/>
<path d="M186.096 72.1322L185.835 75.5837L189.547 75.4791L189.808 72.0276L186.096 72.1322Z" fill="#B0D7C0"/>
<path d="M198.435 55.3978L194.67 55.6592L194.043 64.7064L197.755 64.5495L198.435 55.3978Z" fill="#6DAFA7"/>
<path d="M194.043 64.7063L193.259 75.3746L196.971 75.27L197.755 64.5494L194.043 64.7063Z" fill="#B0D7C0"/>
<path d="M201.885 58.6923L201.467 64.3402L205.179 64.131L205.597 58.4308L201.885 58.6923Z" fill="#6DAFA7"/>
<path d="M201.467 64.3404L200.683 75.2178L204.395 75.1132L205.179 64.1312L201.467 64.3404Z" fill="#B0D7C0"/>
<path d="M212.603 63.7126L208.891 63.9218L208.63 67.8963L212.342 67.6871L212.603 63.7126Z" fill="#6DAFA7"/>
<path d="M208.63 67.8963L208.107 75.0085L211.819 74.9039L212.342 67.6871L208.63 67.8963Z" fill="#B0D7C0"/>
<path d="M220.498 57.3849L220.027 63.3466L219.766 67.2687L216.054 67.4779L216.315 63.5034L216.786 57.6464L220.498 57.3849Z" fill="#6DAFA7"/>
<path d="M216.054 67.4781L215.479 74.7995L219.191 74.7472L219.766 67.2689L216.054 67.4781Z" fill="#B0D7C0"/>
<path d="M250.351 53.0967L243.711 63.6081L237.908 55.7115C240.156 53.8234 242.93 52.6731 245.855 52.4168C247.385 52.3063 248.921 52.5385 250.351 53.0967Z" fill="#22272E"/>
<path d="M255.527 62.7714L243.711 63.6081L250.351 53.0967C254.011 54.561 256.154 58.2217 255.527 62.7714Z" fill="#F4C2C9"/>
<path d="M255.527 62.7714C255.527 62.9283 255.475 63.0852 255.475 63.2421C254.377 69.4652 248.573 74.6425 242.456 75.1131L243.711 63.6081L255.527 62.7714Z" fill="#B0D7C0"/>
<path d="M243.711 63.6082L242.456 75.1132C242.127 75.1567 241.795 75.1742 241.463 75.1655C235.241 75.1655 231.425 70.0929 232.732 63.9743C233.487 60.7341 235.31 57.8423 237.908 55.7639L243.711 63.6082Z" fill="white"/>
<path d="M253.854 84.0555L251.135 110.569L182.802 109.314L182.907 107.275L197.703 97.0771C198.033 96.8426 198.43 96.7211 198.836 96.7305C199.241 96.7399 199.632 96.8798 199.951 97.1294L205.493 101.208C205.698 101.361 205.932 101.471 206.18 101.533C206.429 101.594 206.687 101.606 206.939 101.567C207.192 101.528 207.435 101.439 207.653 101.306C207.872 101.173 208.061 100.997 208.211 100.79L213.701 93.4687C213.884 93.2233 214.124 93.0249 214.399 92.8899C214.674 92.7549 214.977 92.6872 215.283 92.6923C215.589 92.6974 215.89 92.7752 216.16 92.9193C216.431 93.0633 216.663 93.2696 216.838 93.521L221.7 100.267C221.852 100.481 222.044 100.661 222.267 100.799C222.49 100.936 222.738 101.027 222.997 101.066C223.256 101.105 223.519 101.091 223.773 101.026C224.026 100.961 224.264 100.845 224.471 100.685C224.801 100.436 225.2 100.297 225.613 100.287C226.026 100.278 226.431 100.399 226.772 100.633L230.222 103.091C230.437 103.242 230.68 103.349 230.937 103.405C231.194 103.461 231.46 103.464 231.718 103.415C231.977 103.367 232.223 103.266 232.442 103.121C232.661 102.975 232.848 102.787 232.993 102.568L240.731 90.6448C240.876 90.4254 241.064 90.2374 241.283 90.0919C241.502 89.9464 241.748 89.8463 242.006 89.7975C242.264 89.7488 242.53 89.7523 242.787 89.8081C243.044 89.8638 243.287 89.9704 243.502 90.1218L245.75 91.743C245.955 91.8961 246.189 92.0068 246.437 92.0687C246.686 92.1307 246.944 92.1425 247.197 92.1036C247.45 92.0646 247.693 91.9757 247.911 91.842C248.13 91.7082 248.319 91.5324 248.469 91.3246L253.854 84.0555Z" fill="#6DAFA7"/>
<path d="M204.134 92.4752H201.153C201.085 92.4734 201.016 92.4865 200.953 92.5136C200.89 92.5406 200.834 92.5811 200.787 92.6321L200.108 93.312C200.01 93.4078 199.879 93.4615 199.742 93.4615C199.605 93.4615 199.474 93.4078 199.376 93.312L198.853 92.6321C198.807 92.5811 198.75 92.5406 198.687 92.5136C198.624 92.4865 198.556 92.4734 198.487 92.4752H195.612C195.551 92.4785 195.491 92.4681 195.435 92.4448C195.379 92.4215 195.329 92.3859 195.289 92.3407C195.249 92.2955 195.219 92.2418 195.203 92.1836C195.186 92.1254 195.183 92.0642 195.193 92.0046L195.612 86.3567C195.621 86.2212 195.679 86.0937 195.775 85.9977C195.871 85.9017 195.999 85.8434 196.134 85.8337L204.656 85.52C204.781 85.52 204.901 85.5695 204.989 85.6578C205.077 85.7461 205.127 85.8658 205.127 85.9906L204.656 91.9C204.664 91.9729 204.656 92.0466 204.633 92.1162C204.61 92.1858 204.572 92.2498 204.523 92.3041C204.474 92.3583 204.414 92.4016 204.346 92.4311C204.279 92.4606 204.207 92.4756 204.134 92.4752Z" fill="white"/>
<path d="M232.052 95.2992L229.072 95.247C229.003 95.2451 228.935 95.2582 228.872 95.2853C228.809 95.3123 228.752 95.3528 228.706 95.4038L228.026 96.0837C227.979 96.1353 227.92 96.1756 227.854 96.2014C227.789 96.2273 227.718 96.2381 227.648 96.2331C227.578 96.2281 227.509 96.2073 227.448 96.1724C227.387 96.1375 227.335 96.0893 227.295 96.0314L226.772 95.3515C226.726 95.3005 226.669 95.26 226.606 95.233C226.543 95.2059 226.474 95.1928 226.406 95.1947L223.582 95.1424C223.321 95.1424 223.164 94.9332 223.164 94.6194L223.582 88.9192C223.589 88.7913 223.64 88.6697 223.725 88.5745C223.811 88.4793 223.927 88.4164 224.053 88.3963L232.575 88.1871C232.641 88.1883 232.706 88.203 232.766 88.2304C232.826 88.2578 232.88 88.2972 232.924 88.3463C232.968 88.3953 233.002 88.4529 233.023 88.5155C233.043 88.5781 233.051 88.6443 233.046 88.71L232.575 94.7763C232.58 94.8462 232.569 94.9162 232.545 94.9818C232.52 95.0473 232.482 95.1068 232.432 95.1563C232.383 95.2059 232.323 95.2442 232.258 95.2689C232.192 95.2935 232.122 95.3039 232.052 95.2992Z" fill="#F4C2C9"/>
<path d="M88.8514 246.171C88.6423 246.851 88.1717 249.571 87.8057 252.081C83.8975 252.665 79.904 252.177 76.2514 250.669C76.5128 248.054 76.7742 245.335 76.7742 245.335C76.7742 243.87 89.2697 244.916 88.8514 246.171Z" fill="#22272E"/>
<path d="M87.8055 252.028C87.4918 254.225 87.1782 256.16 87.1782 256.16C87.1782 256.16 85.7665 259.454 82.2113 259.454C78.6562 259.454 75.7806 256.473 75.8329 255.218C75.8852 254.643 76.0421 252.656 76.2512 250.616C79.902 252.131 83.8974 252.62 87.8055 252.028Z" fill="#B28D93"/>
<path d="M75.8854 254.225C76.3972 254.793 76.9381 255.334 77.5062 255.846C78.0813 256.369 79.8588 254.748 82.3684 255.062C84.8779 255.375 85.6622 256.369 85.6622 256.369C86.2421 256.252 86.793 256.021 87.2829 255.689C87.3311 256.996 87.5961 258.287 88.0671 259.507C88.8514 261.546 92.8248 267.508 92.8248 268.659C92.8248 269.809 92.5634 270.698 91.7269 271.064C90.8904 271.43 85.3485 271.482 80.6954 271.587C76.0423 271.692 72.4348 271.953 71.912 270.123C71.3891 268.292 73.5327 262.592 74.4215 259.088C75.3103 255.585 75.1535 254.277 75.8854 254.225Z" fill="#22272E"/>
<path d="M76.6696 263.899C76.6696 263.899 82.2637 260.919 87.5965 263.899" stroke="white" stroke-width="1.8" stroke-linecap="round" stroke-linejoin="round"/>
<path d="M77.7152 260.971C80.6204 260.145 83.698 260.145 86.6032 260.971" stroke="white" stroke-width="1.8" stroke-linecap="round" stroke-linejoin="round"/>
<path d="M143.12 249.78C137.16 251.819 130.991 250.564 131.043 250.616C130.834 247.688 130.572 244.602 130.572 244.602C131.357 242.772 142.597 241.935 142.702 242.72C142.702 243.138 142.911 246.59 143.12 249.78Z" fill="#22272E"/>
<path d="M143.434 255.323C143.434 255.323 142.65 257.781 139.251 259.036C135.853 260.291 131.514 256.892 131.461 255.898C131.409 255.48 131.252 253.074 131.043 250.617C131.043 250.564 137.16 251.819 143.12 249.78C143.277 252.656 143.434 255.323 143.434 255.323Z" fill="#B28D93"/>
<path d="M131.357 255.166C130.991 255.166 130.729 255.689 130.52 258.984C130.311 262.278 129.265 269.547 130.52 270.646C131.775 271.744 156.818 271.43 159.694 271.221C162.569 271.012 164.138 269.129 163.249 267.874C162.36 266.619 156.191 264.318 150.753 260.657C145.316 256.997 144.009 256.212 143.382 255.323C143.382 255.323 143.695 252.342 142.075 252.813C140.454 253.284 139.356 257.153 137.265 257.676C135.173 258.199 134.912 254.957 131.357 255.166Z" fill="#22272E"/>
<path d="M151.956 260.762C151.956 260.762 150.544 260.343 147.355 263.743" stroke="white" stroke-width="1.8" stroke-linecap="round" stroke-linejoin="round"/>
<path d="M148.505 258.513C148.505 258.513 145.996 258.409 143.12 262.121" stroke="white" stroke-width="1.8" stroke-linecap="round" stroke-linejoin="round"/>
<path d="M78.238 251.349L78.5517 249.257" stroke="#63737A" stroke-width="1.8" stroke-linecap="round" stroke-linejoin="round"/>
<path d="M81.8454 252.133L82.1591 250.041" stroke="#63737A" stroke-width="1.8" stroke-linecap="round" stroke-linejoin="round"/>
<path d="M85.8189 252.29L86.1849 250.407" stroke="#63737A" stroke-width="1.8" stroke-linecap="round" stroke-linejoin="round"/>
<path d="M133.396 250.878L133.239 248.682" stroke="#63737A" stroke-width="1.8" stroke-linecap="round" stroke-linejoin="round"/>
<path d="M137.735 250.826L137.578 248.42" stroke="#63737A" stroke-width="1.8" stroke-linecap="round" stroke-linejoin="round"/>
<path d="M141.656 250.198L141.499 247.95" stroke="#63737A" stroke-width="1.8" stroke-linecap="round" stroke-linejoin="round"/>
<path d="M74.7351 129.082C73.8405 133.208 73.3502 137.412 73.2712 141.633C73.1144 148.797 78.7086 171.232 80.7476 178.815C82.7866 186.398 82.3683 187.601 82.0546 189.065C81.7409 190.529 78.604 202.139 77.5584 214.167C76.5127 226.195 72.7484 235.869 73.1667 239.582C73.7418 244.603 75.8854 246.067 76.7742 246.642C77.663 247.217 84.9824 249.571 89.9492 248.42C89.9492 248.42 95.2297 245.073 96.2231 240.367C97.2165 235.66 96.6414 229.96 100.04 214.585C103.438 199.21 105.007 192.882 105.477 186.764C105.738 183.103 105.791 172.644 105.843 164.643C105.895 159.204 105.895 154.864 105.948 154.445C106.104 153.399 108.666 154.602 110.026 151.255C110.601 149.739 110.914 146.862 110.967 143.777C111.071 139.855 110.81 135.567 110.287 133.213C109.45 128.873 75.5717 124.48 74.7351 129.082Z" fill="#22272E"/>
<path d="M146.466 240.523C145.577 242.72 143.957 245.23 142.493 245.805C141.029 246.381 134.441 247.27 131.095 246.956C131.095 246.956 125.501 245.335 124.926 241.099C124.351 236.863 125.344 232.156 123.462 222.638C121.58 213.121 119.959 196.282 119.489 191.313C119.018 186.345 108.771 171.546 103.961 162.603C99.1509 153.661 93.975 137.292 98.2621 133.475C102.549 129.657 117.868 127.931 122.416 131.017C122.416 131.017 127.697 143.882 132.977 159.256C137.84 173.376 138.833 178.135 139.513 182.214C139.557 182.584 139.627 182.951 139.722 183.312C139.931 184.567 140.192 187.81 140.558 191.993C141.395 202.609 142.388 219.082 142.807 222.848C143.382 228.077 147.355 238.327 146.466 240.523Z" fill="#22272E"/>
<path d="M103.02 155.23C106.422 154.003 109.919 153.059 113.476 152.406" stroke="#63737A" stroke-width="1.8" stroke-linecap="round" stroke-linejoin="round"/>
<path d="M102.739 193.034C103.513 189.242 101.112 185.549 97.3769 184.786C93.6417 184.024 89.9864 186.48 89.2125 190.273C88.4387 194.066 90.8394 197.759 94.5746 198.521C98.3099 199.284 101.965 196.827 102.739 193.034Z" stroke="#63737A" stroke-width="1.80036" stroke-linecap="round" stroke-linejoin="round"/>
<path d="M140.558 191.941C139.92 192.742 139.109 193.389 138.185 193.833C137.262 194.277 136.25 194.506 135.226 194.503C133.381 194.51 131.61 193.784 130.301 192.485C128.992 191.185 128.253 189.419 128.246 187.574C128.239 185.73 128.965 183.958 130.264 182.648C131.563 181.339 133.329 180.6 135.173 180.593C136.758 180.594 138.293 181.149 139.513 182.162" stroke="#63737A" stroke-width="1.8" stroke-linecap="round" stroke-linejoin="round"/>
<path d="M75.9376 153.818C77.7876 152.114 79.2633 150.044 80.2713 147.739C81.2793 145.435 81.7976 142.946 81.7932 140.43C79.827 140.319 77.8706 140.075 75.9376 139.698" stroke="#63737A" stroke-width="1.8" stroke-linecap="round" stroke-linejoin="round"/>
<path d="M105.843 164.643C105.895 159.204 105.895 154.864 105.947 154.445C106.104 153.399 108.666 154.602 110.025 151.255C110.601 149.739 110.914 146.862 110.967 143.777" stroke="#63737A" stroke-width="1.8" stroke-linecap="round" stroke-linejoin="round"/>
<path d="M121.266 69.2037C121.266 69.2037 125.553 69.4129 132.455 83.2189C139.356 97.0248 141.813 101.993 141.813 101.993C141.813 101.993 146.362 100.895 153.786 99.6919C161.21 98.4891 171.666 96.9725 171.666 96.9725C171.666 96.9725 174.49 97.0248 175.692 101.052C175.998 102.071 176.044 103.151 175.825 104.193C175.606 105.234 175.129 106.204 174.437 107.013C174.177 107.341 173.834 107.594 173.444 107.745C170.255 109.105 151.642 116.949 145.316 118.309C138.363 119.773 134.964 119.564 128.795 111.092C122.626 102.62 117.763 96.0312 115.515 92.632C113.267 89.0759 111.646 69.7266 121.266 69.2037Z" fill="#5686AE"/>
<path d="M133.03 115.904C133.03 115.904 132.664 113.132 138.049 113.132C143.434 113.132 146.205 117.159 144.898 118.309" stroke="#22272E" stroke-width="1.8" stroke-linecap="round" stroke-linejoin="round"/>
<path d="M141.813 101.941C141.813 101.941 139.565 102.987 139.094 104.555" stroke="#22272E" stroke-width="1.8" stroke-linecap="round" stroke-linejoin="round"/>
<path d="M171.928 97.391C171.928 97.391 174.228 96.5543 174.803 96.2405C175.378 95.9267 176.633 93.7303 177.679 92.3706C178.724 91.0109 181.704 90.2265 182.541 90.3834C182.768 90.414 182.987 90.4899 183.185 90.6067C183.382 90.7234 183.555 90.8787 183.691 91.0632C183.691 91.0632 186.305 90.1219 188.083 89.3898C189.86 88.6576 193.154 87.0365 193.625 88.3439C193.886 89.1283 191.847 90.2788 190.435 91.0632C188.71 92.0569 187.56 92.789 187.56 92.789C187.834 92.9507 188.069 93.1701 188.25 93.432C188.43 93.6939 188.552 93.992 188.606 94.3055C188.815 95.4037 189.39 96.6065 188.344 98.28C188.03 98.7507 189.233 100.058 188.292 101.261C186.671 103.196 182.75 104.189 180.659 104.817C178.567 105.444 173.653 105.758 173.653 105.758C173.653 105.758 172.084 105.392 171.405 101.993C170.725 98.5938 171.928 97.391 171.928 97.391Z" fill="#B28D93"/>
<path d="M183.691 91.0633C183.691 91.0633 184.057 92.0046 184.475 93.4166C184.894 94.8286 185.207 95.9268 184.109 95.9791C183.012 96.0314 182.018 94.3579 181.6 93.5212" stroke="#896068" stroke-width="1.8" stroke-linecap="round" stroke-linejoin="round"/>
<path d="M182.332 94.7239C182.332 94.7239 183.534 97.1295 180.763 99.2213" stroke="#896068" stroke-width="1.8" stroke-linecap="round" stroke-linejoin="round"/>
<path d="M187.612 92.7889L184.685 94.1486" stroke="#896068" stroke-width="1.8" stroke-linecap="round" stroke-linejoin="round"/>
<path d="M183.221 95.6652C183.221 95.6652 182.698 96.502 183.221 96.9726C183.743 97.4433 186.619 96.3974 188.71 95.1946" stroke="#896068" stroke-width="1.8" stroke-linecap="round" stroke-linejoin="round"/>
<path d="M183.691 97.0773C183.446 97.2069 183.261 97.4259 183.173 97.6889C183.085 97.9519 183.102 98.2385 183.221 98.4892C183.639 99.4306 185.887 99.0645 188.344 98.2801" stroke="#896068" stroke-width="1.8" stroke-linecap="round" stroke-linejoin="round"/>
<path d="M184.162 99.0645C184.162 99.0645 182.855 99.2213 183.534 100.529C183.953 101.313 186.462 101.052 186.985 101.261" stroke="#896068" stroke-width="1.8" stroke-linecap="round" stroke-linejoin="round"/>
<path d="M168.895 97.8617C168.477 98.5938 167.954 100.006 168.32 102.516C168.423 103.599 168.767 104.646 169.328 105.578C169.889 106.51 170.652 107.305 171.562 107.902" stroke="#22272E" stroke-width="1.8" stroke-linecap="round" stroke-linejoin="round"/>
<path d="M104.327 50.0636C104.327 50.0636 102.654 58.4832 101.713 60.7842C100.772 63.0852 105.895 66.6936 111.019 66.9028C116.143 67.1119 115.62 64.1311 115.62 64.1311L117.136 55.7638C117.136 55.8161 106.157 48.1287 104.327 50.0636Z" fill="#B28D93"/>
<path d="M106.627 52.5739C105.895 58.9539 110.496 62.0393 115.62 64.4449V64.1311L116.456 59.686C112.64 58.4309 109.294 55.7116 106.627 52.5739Z" fill="#896068"/>
<path d="M82.3683 66.9549C83.5185 63.5557 87.9102 61.5162 91.4654 61.83C95.1251 62.1437 102.131 62.2483 108.875 64.3401C120.377 67.8962 123.148 69.988 123.828 70.6156C127.645 74.2763 127.279 79.715 125.083 94.7238C123.671 104.608 122.469 107.118 122.782 111.981C123.096 116.845 123.985 125.473 124.56 127.251C125.135 129.03 123.671 132.115 122.416 133.213C121.162 134.311 111.019 136.612 101.608 136.403C92.1973 136.194 77.4015 133.632 75.0488 132.063C72.6961 130.494 71.023 127.774 71.5459 125.421C72.1959 121.824 73.0335 118.263 74.0554 114.753C75.5193 109.785 75.6239 103.3 77.9243 92.8934C79.7019 85.206 79.9633 74.0671 82.3683 66.9549Z" fill="#FFE38E"/>
<path d="M124.71 55.7373C125.976 55.1041 126.75 54.0882 126.44 53.4683C126.13 52.8484 124.853 52.8592 123.587 53.4924C122.322 54.1256 121.548 55.1415 121.858 55.7614C122.168 56.3813 123.445 56.3705 124.71 55.7373Z" fill="#F8AB5D"/>
<path d="M133.335 61.6055C134.6 60.9722 135.375 59.9563 135.065 59.3364C134.754 58.7165 133.477 58.7273 132.212 59.3606C130.947 59.9938 130.172 61.0097 130.482 61.6296C130.792 62.2495 132.07 62.2387 133.335 61.6055Z" fill="#F8AB5D"/>
<path d="M114.15 61.0318C115.416 60.3986 116.19 59.3827 115.88 58.7628C115.57 58.1429 114.293 58.1537 113.027 58.787C111.762 59.4202 110.988 60.4361 111.298 61.056C111.608 61.6759 112.885 61.6651 114.15 61.0318Z" fill="#F8AB5D"/>
<path d="M122.823 66.876C124.089 66.2428 124.863 65.2269 124.553 64.607C124.243 63.9871 122.966 63.9979 121.7 64.6311C120.435 65.2644 119.661 66.2802 119.971 66.9001C120.281 67.5201 121.558 67.5092 122.823 66.876Z" fill="#F8AB5D"/>
<path d="M132.655 71.6381C133.92 71.0049 134.695 69.989 134.385 69.3691C134.075 68.7492 132.797 68.76 131.532 69.3932C130.267 70.0264 129.492 71.0423 129.802 71.6622C130.113 72.2821 131.39 72.2713 132.655 71.6381Z" fill="#F8AB5D"/>
<path d="M141.28 77.5064C142.545 76.8731 143.319 75.8573 143.009 75.2374C142.699 74.6175 141.422 74.6283 140.157 75.2615C138.891 75.8947 138.117 76.9106 138.427 77.5305C138.737 78.1504 140.014 78.1396 141.28 77.5064Z" fill="#F8AB5D"/>
<path d="M122.1 76.9304C123.365 76.2972 124.139 75.2813 123.829 74.6614C123.519 74.0415 122.242 74.0523 120.977 74.6855C119.711 75.3188 118.937 76.3346 119.247 76.9545C119.557 77.5744 120.834 77.5636 122.1 76.9304Z" fill="#F8AB5D"/>
<path d="M130.778 82.7745C132.043 82.1413 132.818 81.1254 132.508 80.5055C132.198 79.8856 130.92 79.8964 129.655 80.5296C128.39 81.1629 127.615 82.1787 127.926 82.7986C128.236 83.4185 129.513 83.4077 130.778 82.7745Z" fill="#F8AB5D"/>
<path d="M103.649 66.3001C104.914 65.6669 105.688 64.651 105.378 64.0311C105.068 63.4112 103.791 63.422 102.526 64.0552C101.26 64.6884 100.486 65.7043 100.796 66.3242C101.106 66.9441 102.383 66.9333 103.649 66.3001Z" fill="#F8AB5D"/>
<path d="M112.273 72.1682C113.539 71.535 114.313 70.5191 114.003 69.8992C113.693 69.2793 112.416 69.2901 111.151 69.9233C109.885 70.5565 109.111 71.5724 109.421 72.1923C109.731 72.8122 111.008 72.8014 112.273 72.1682Z" fill="#F8AB5D"/>
<path d="M93.0699 71.5462C94.3352 70.913 95.1096 69.8971 94.7995 69.2772C94.4894 68.6573 93.2123 68.6681 91.947 69.3014C90.6817 69.9346 89.9073 70.9505 90.2174 71.5704C90.5274 72.1903 91.8046 72.1795 93.0699 71.5462Z" fill="#F8AB5D"/>
<path d="M101.743 77.3904C103.008 76.7571 103.783 75.7413 103.473 75.1214C103.163 74.5015 101.885 74.5122 100.62 75.1455C99.3547 75.7787 98.5804 76.7946 98.8904 77.4145C99.2005 78.0344 100.478 78.0236 101.743 77.3904Z" fill="#F8AB5D"/>
<path d="M111.569 82.1525C112.835 81.5192 113.609 80.5033 113.299 79.8834C112.989 79.2635 111.712 79.2743 110.446 79.9076C109.181 80.5408 108.407 81.5567 108.717 82.1766C109.027 82.7965 110.304 82.7857 111.569 82.1525Z" fill="#F8AB5D"/>
<path d="M120.22 88.0738C121.486 87.4405 122.26 86.4247 121.95 85.8048C121.64 85.1848 120.363 85.1957 119.098 85.8289C117.832 86.4621 117.058 87.478 117.368 88.0979C117.678 88.7178 118.955 88.707 120.22 88.0738Z" fill="#F8AB5D"/>
<path d="M101.017 87.4517C102.282 86.8185 103.057 85.8026 102.747 85.1827C102.436 84.5628 101.159 84.5736 99.894 85.2068C98.6287 85.8401 97.8543 86.8559 98.1644 87.4758C98.4745 88.0957 99.7516 88.0849 101.017 87.4517Z" fill="#F8AB5D"/>
<path d="M109.69 93.2958C110.955 92.6626 111.73 91.6467 111.42 91.0268C111.11 90.4069 109.833 90.4177 108.567 91.0509C107.302 91.6842 106.527 92.7 106.838 93.3199C107.148 93.9399 108.425 93.9291 109.69 93.2958Z" fill="#F8AB5D"/>
<path d="M140.816 87.9532C142.082 87.3199 142.856 86.3041 142.546 85.6842C142.236 85.0643 140.959 85.0751 139.694 85.7083C138.428 86.3415 137.654 87.3574 137.964 87.9773C138.274 88.5972 139.551 88.5864 140.816 87.9532Z" fill="#F8AB5D"/>
<path d="M149.446 93.8191C150.711 93.1858 151.486 92.17 151.175 91.5501C150.865 90.9301 149.588 90.941 148.323 91.5742C147.058 92.2074 146.283 93.2233 146.593 93.8432C146.903 94.4631 148.181 94.4523 149.446 93.8191Z" fill="#F8AB5D"/>
<path d="M130.238 93.1993C131.503 92.5661 132.277 91.5502 131.967 90.9303C131.657 90.3104 130.38 90.3212 129.115 90.9544C127.849 91.5877 127.075 92.6035 127.385 93.2235C127.695 93.8434 128.972 93.8326 130.238 93.1993Z" fill="#F8AB5D"/>
<path d="M138.915 99.0464C140.181 98.4131 140.955 97.3973 140.645 96.7774C140.335 96.1574 139.058 96.1683 137.793 96.8015C136.527 97.4347 135.753 98.4506 136.063 99.0705C136.373 99.6904 137.65 99.6796 138.915 99.0464Z" fill="#F8AB5D"/>
<path d="M148.766 103.852C150.031 103.218 150.806 102.203 150.496 101.583C150.185 100.963 148.908 100.973 147.643 101.607C146.378 102.24 145.603 103.256 145.913 103.876C146.223 104.496 147.501 104.485 148.766 103.852Z" fill="#F8AB5D"/>
<path d="M157.391 109.72C158.656 109.087 159.43 108.071 159.12 107.451C158.81 106.831 157.533 106.842 156.268 107.475C155.002 108.108 154.228 109.124 154.538 109.744C154.848 110.364 156.125 110.353 157.391 109.72Z" fill="#F8AB5D"/>
<path d="M138.187 109.098C139.452 108.465 140.227 107.449 139.917 106.829C139.607 106.209 138.33 106.22 137.064 106.853C135.799 107.486 135.025 108.502 135.335 109.122C135.645 109.742 136.922 109.731 138.187 109.098Z" fill="#F8AB5D"/>
<path d="M146.86 114.942C148.126 114.309 148.9 113.293 148.59 112.673C148.28 112.053 147.003 112.064 145.737 112.697C144.472 113.33 143.698 114.346 144.008 114.966C144.318 115.586 145.595 115.575 146.86 114.942Z" fill="#F8AB5D"/>
<path d="M119.731 98.4675C120.996 97.8343 121.771 96.8184 121.46 96.1985C121.15 95.5786 119.873 95.5894 118.608 96.2226C117.343 96.8559 116.568 97.8717 116.878 98.4916C117.188 99.1115 118.466 99.1007 119.731 98.4675Z" fill="#F8AB5D"/>
<path d="M128.361 104.336C129.626 103.703 130.401 102.687 130.09 102.067C129.78 101.447 128.503 101.458 127.238 102.091C125.973 102.724 125.198 103.74 125.508 104.36C125.818 104.98 127.095 104.969 128.361 104.336Z" fill="#F8AB5D"/>
<path d="M109.176 103.762C110.441 103.129 111.216 102.113 110.906 101.493C110.596 100.873 109.319 100.884 108.053 101.517C106.788 102.15 106.014 103.166 106.324 103.786C106.634 104.406 107.911 104.395 109.176 103.762Z" fill="#F8AB5D"/>
<path d="M117.854 109.609C119.119 108.976 119.894 107.96 119.584 107.34C119.273 106.72 117.996 106.731 116.731 107.364C115.466 107.997 114.691 109.013 115.001 109.633C115.311 110.253 116.589 110.242 117.854 109.609Z" fill="#F8AB5D"/>
<path d="M127.681 114.368C128.946 113.735 129.721 112.719 129.41 112.099C129.1 111.479 127.823 111.49 126.558 112.124C125.293 112.757 124.518 113.773 124.828 114.393C125.138 115.012 126.416 115.002 127.681 114.368Z" fill="#F8AB5D"/>
<path d="M136.313 120.239C137.578 119.606 138.352 118.59 138.042 117.97C137.732 117.35 136.455 117.361 135.19 117.994C133.924 118.627 133.15 119.643 133.46 120.263C133.77 120.883 135.047 120.872 136.313 120.239Z" fill="#F8AB5D"/>
<path d="M125.799 125.505C127.064 124.872 127.838 123.856 127.528 123.236C127.218 122.616 125.941 122.627 124.676 123.26C123.41 123.893 122.636 124.909 122.946 125.529C123.256 126.149 124.533 126.138 125.799 125.505Z" fill="#F8AB5D"/>
<path d="M82.4568 76.8685C83.7222 76.2352 84.4965 75.2194 84.1865 74.5995C83.8764 73.9796 82.5993 73.9903 81.3339 74.6236C80.0686 75.2568 79.2942 76.2727 79.6043 76.8926C79.9144 77.5125 81.1915 77.5017 82.4568 76.8685Z" fill="#F8AB5D"/>
<path d="M91.0886 82.7389C92.3539 82.1057 93.1283 81.0898 92.8182 80.4699C92.5081 79.85 91.231 79.8608 89.9657 80.494C88.7004 81.1273 87.926 82.1432 88.2361 82.7631C88.5462 83.383 89.8233 83.3722 91.0886 82.7389Z" fill="#F8AB5D"/>
<path d="M71.95 82.1419C73.2154 81.5086 73.9897 80.4928 73.6797 79.8729C73.3696 79.253 72.0925 79.2638 70.8272 79.897C69.5618 80.5302 68.7875 81.5461 69.0975 82.166C69.4076 82.7859 70.6847 82.7751 71.95 82.1419Z" fill="#F8AB5D"/>
<path d="M80.5823 88.0147C81.8476 87.3815 82.622 86.3656 82.3119 85.7457C82.0018 85.1258 80.7247 85.1366 79.4594 85.7698C78.1941 86.403 77.4197 87.4189 77.7298 88.0388C78.0398 88.6587 79.317 88.6479 80.5823 88.0147Z" fill="#F8AB5D"/>
<path d="M90.4086 92.7717C91.6739 92.1384 92.4483 91.1225 92.1382 90.5026C91.8281 89.8827 90.551 89.8935 89.2857 90.5268C88.0204 91.16 87.246 92.1759 87.5561 92.7958C87.8661 93.4157 89.1432 93.4049 90.4086 92.7717Z" fill="#F8AB5D"/>
<path d="M99.0818 98.621C100.347 97.9878 101.121 96.9719 100.811 96.352C100.501 95.7321 99.2242 95.7429 97.9589 96.3761C96.6935 97.0094 95.9192 98.0253 96.2293 98.6452C96.5393 99.2651 97.8164 99.2543 99.0818 98.621Z" fill="#F8AB5D"/>
<path d="M79.9023 98.0422C81.1677 97.4089 81.9421 96.393 81.632 95.7731C81.3219 95.1532 80.0448 95.164 78.7795 95.7973C77.5141 96.4305 76.7398 97.4464 77.0498 98.0663C77.3599 98.6862 78.637 98.6754 79.9023 98.0422Z" fill="#F8AB5D"/>
<path d="M88.527 103.91C89.7924 103.277 90.5667 102.261 90.2567 101.641C89.9466 101.021 88.6695 101.032 87.4041 101.666C86.1388 102.299 85.3644 103.315 85.6745 103.935C85.9846 104.554 87.2617 104.544 88.527 103.91Z" fill="#F8AB5D"/>
<path d="M61.3976 87.4358C62.6629 86.8026 63.4373 85.7867 63.1272 85.1668C62.8172 84.5469 61.54 84.5577 60.2747 85.191C59.0094 85.8242 58.235 86.8401 58.5451 87.46C58.8552 88.0799 60.1323 88.0691 61.3976 87.4358Z" fill="#F8AB5D"/>
<path d="M70.0731 93.2782C71.3384 92.645 72.1128 91.6291 71.8027 91.0092C71.4926 90.3893 70.2155 90.4001 68.9502 91.0333C67.6849 91.6665 66.9105 92.6824 67.2206 93.3023C67.5307 93.9222 68.8078 93.9114 70.0731 93.2782Z" fill="#F8AB5D"/>
<path d="M50.8673 92.6632C52.1326 92.03 52.907 91.0141 52.5969 90.3942C52.2868 89.7743 51.0097 89.7851 49.7444 90.4183C48.4791 91.0515 47.7047 92.0674 48.0148 92.6873C48.3248 93.3072 49.602 93.2964 50.8673 92.6632Z" fill="#F8AB5D"/>
<path d="M59.5208 98.5774C60.7861 97.9442 61.5605 96.9283 61.2504 96.3084C60.9403 95.6885 59.6632 95.6993 58.3979 96.3326C57.1326 96.9658 56.3582 97.9817 56.6683 98.6016C56.9784 99.2215 58.2555 99.2107 59.5208 98.5774Z" fill="#F8AB5D"/>
<path d="M69.3471 103.334C70.6124 102.701 71.3868 101.685 71.0767 101.065C70.7666 100.445 69.4895 100.456 68.2242 101.089C66.9589 101.723 66.1845 102.739 66.4946 103.358C66.8046 103.978 68.0817 103.968 69.3471 103.334Z" fill="#F8AB5D"/>
<path d="M78.0201 109.184C79.2855 108.551 80.0598 107.535 79.7498 106.915C79.4397 106.295 78.1626 106.306 76.8972 106.939C75.6319 107.572 74.8576 108.588 75.1676 109.208C75.4777 109.828 76.7548 109.817 78.0201 109.184Z" fill="#F8AB5D"/>
<path d="M58.8167 108.556C60.082 107.923 60.8564 106.907 60.5463 106.287C60.2362 105.668 58.9591 105.678 57.6938 106.312C56.4285 106.945 55.6541 107.961 55.9642 108.581C56.2742 109.2 57.5514 109.19 58.8167 108.556Z" fill="#F8AB5D"/>
<path d="M67.4415 114.43C68.7068 113.797 69.4812 112.781 69.1711 112.161C68.861 111.541 67.5839 111.552 66.3186 112.185C65.0532 112.818 64.2789 113.834 64.5889 114.454C64.899 115.074 66.1761 115.063 67.4415 114.43Z" fill="#F8AB5D"/>
<path d="M88.0662 114.355C89.3315 113.722 90.1059 112.706 89.7958 112.086C89.4857 111.467 88.2086 111.477 86.9433 112.111C85.678 112.744 84.9036 113.76 85.2136 114.38C85.5237 114.999 86.8008 114.989 88.0662 114.355Z" fill="#F8AB5D"/>
<path d="M115.193 130.835C116.458 130.201 117.232 129.186 116.922 128.566C116.612 127.946 115.335 127.957 114.07 128.59C112.804 129.223 112.03 130.239 112.34 130.859C112.65 131.479 113.927 131.468 115.193 130.835Z" fill="#F8AB5D"/>
<path d="M95.9845 130.215C97.2498 129.582 98.0242 128.566 97.7141 127.946C97.404 127.326 96.1269 127.337 94.8616 127.97C93.5963 128.603 92.8219 129.619 93.132 130.239C93.442 130.859 94.7191 130.848 95.9845 130.215Z" fill="#F8AB5D"/>
<path d="M104.638 136.129C105.903 135.496 106.678 134.48 106.368 133.86C106.058 133.24 104.78 133.251 103.515 133.884C102.25 134.517 101.475 135.533 101.785 136.153C102.096 136.773 103.373 136.762 104.638 136.129Z" fill="#F8AB5D"/>
<path d="M77.4897 119.606C78.755 118.973 79.5294 117.957 79.2193 117.337C78.9093 116.717 77.6321 116.728 76.3668 117.361C75.1015 117.995 74.3271 119.01 74.6372 119.63C74.9473 120.25 76.2244 120.239 77.4897 119.606Z" fill="#F8AB5D"/>
<path d="M86.1605 125.446C87.4258 124.812 88.2002 123.796 87.8901 123.177C87.5801 122.557 86.303 122.567 85.0376 123.201C83.7723 123.834 82.9979 124.85 83.308 125.47C83.6181 126.09 84.8952 126.079 86.1605 125.446Z" fill="#F8AB5D"/>
<path d="M66.9782 124.877C68.2435 124.244 69.0179 123.228 68.7078 122.608C68.3977 121.988 67.1206 121.999 65.8553 122.632C64.59 123.265 63.8156 124.281 64.1257 124.901C64.4358 125.521 65.7129 125.51 66.9782 124.877Z" fill="#F8AB5D"/>
<path d="M75.6029 130.745C76.8682 130.112 77.6426 129.096 77.3325 128.476C77.0225 127.856 75.7453 127.867 74.48 128.5C73.2147 129.133 72.4403 130.149 72.7504 130.769C73.0605 131.389 74.3376 131.378 75.6029 130.745Z" fill="#F8AB5D"/>
<path d="M85.4345 135.502C86.6998 134.869 87.4742 133.853 87.1641 133.233C86.854 132.613 85.5769 132.624 84.3116 133.257C83.0463 133.89 82.2719 134.906 82.582 135.526C82.892 136.146 84.1692 136.135 85.4345 135.502Z" fill="#F8AB5D"/>
<path d="M94.1077 141.351C95.373 140.718 96.1474 139.702 95.8373 139.082C95.5272 138.462 94.2501 138.473 92.9848 139.106C91.7195 139.74 90.9451 140.755 91.2552 141.375C91.5652 141.995 92.8424 141.984 94.1077 141.351Z" fill="#F8AB5D"/>
<path d="M74.923 140.778C76.1883 140.144 76.9627 139.129 76.6526 138.509C76.3425 137.889 75.0654 137.9 73.8001 138.533C72.5348 139.166 71.7604 140.182 72.0705 140.802C72.3805 141.422 73.6576 141.411 74.923 140.778Z" fill="#F8AB5D"/>
<path d="M83.5576 146.643C84.8229 146.01 85.5973 144.994 85.2872 144.374C84.9771 143.755 83.7 143.765 82.4347 144.399C81.1693 145.032 80.395 146.048 80.705 146.668C81.0151 147.288 82.2922 147.277 83.5576 146.643Z" fill="#F8AB5D"/>
<path d="M96.7458 105.288C102.56 106.515 108.476 107.197 114.417 107.327C114.804 107.337 115.174 107.485 115.462 107.744C115.749 108.003 115.935 108.356 115.986 108.739C116.273 110.851 117.204 112.823 118.652 114.387C118.788 114.525 118.894 114.688 118.966 114.868C119.038 115.047 119.073 115.239 119.07 115.433C119.123 117.629 119.227 125.055 117.763 126.206C116.09 127.461 98.3143 128.611 87.2828 125.526C86.9316 125.436 86.6192 125.235 86.3928 124.952C86.1664 124.668 86.0383 124.319 86.028 123.957C86.0803 121.813 86.1848 117.315 86.5508 114.492C86.602 114.211 86.7186 113.946 86.8912 113.719C87.0638 113.492 87.2875 113.309 87.5442 113.184C89.2695 112.4 93.2429 110.308 94.6546 106.386C94.8231 105.99 95.1233 105.664 95.5044 105.464C95.8856 105.264 96.3241 105.201 96.7458 105.288V105.288Z" stroke="#F8AB5D" stroke-width="1.8" stroke-linecap="round" stroke-linejoin="round"/>
<path d="M101.033 59.529C101.087 59.4104 101.168 59.3063 101.27 59.2252C101.372 59.1442 101.492 59.0887 101.62 59.0631C101.747 59.0376 101.879 59.0428 102.005 59.0783C102.13 59.1139 102.245 59.1787 102.34 59.2675C103.334 60.3134 105.477 61.8823 109.346 62.6144C115.254 63.7126 115.829 62.8236 115.829 62.8236C115.829 62.8236 116.77 63.1374 116.875 63.9218C116.905 65.19 116.765 66.4566 116.456 67.6871C116.143 68.6807 111.751 68.7853 108.248 68.0532C105.153 67.4857 102.296 66.0113 100.04 63.8172C99.8614 63.6451 99.7406 63.4222 99.6938 63.1788C99.647 62.9354 99.6765 62.6835 99.7783 62.4575C100.092 61.6731 100.615 60.5226 101.033 59.529Z" fill="#5686AE"/>
<path d="M126.808 40.1275C126.859 42.369 126.505 44.6013 125.762 46.7168C124.717 49.4361 122.991 57.019 119.593 59.4768C116.195 61.9347 108.771 61.4641 105.529 55.1363C102.288 48.8086 103.333 42.1671 105.006 36.8329C106.679 31.4988 113.581 29.5639 119.593 31.7603C125.606 33.9567 126.808 37.7743 126.808 40.1275Z" fill="#B28D93"/>
<path d="M104.85 43.7881C105.206 44.2558 105.505 44.765 105.739 45.3046C106.209 46.4028 107.202 45.7753 107.568 43.7881C107.934 41.8009 108.771 40.3889 109.398 40.4935C110.204 40.6862 111.051 40.5997 111.802 40.2482C112.552 39.8968 113.161 39.3011 113.529 38.5585C114.836 36.153 115.411 36.519 115.411 36.519C115.411 36.519 116.456 34.0088 119.175 37.6172C121.894 41.2256 123.619 44.0496 126.86 43.4743C130.102 42.8991 132.978 37.6172 130.52 32.5446C128.063 27.4719 120.325 26.2691 114.574 27.7857C108.823 29.3022 105.843 28.0472 102.392 30.9757C98.9418 33.9042 99.7783 36.9897 99.5692 40.4412C99.3601 43.8927 97.5825 45.723 99.9352 48.8084C102.288 51.8939 101.66 54.7701 102.968 56.4959C102.968 56.4959 104.379 51.9462 104.222 48.6516C104.065 45.3569 104.85 43.7881 104.85 43.7881Z" fill="#22272E"/>
<path d="M120.377 46.6645C120.34 47.9793 119.798 49.2291 118.863 50.1542C117.928 51.0794 116.673 51.6089 115.358 51.6325C114.703 51.6273 114.056 51.491 113.455 51.2316C112.854 50.9722 112.31 50.595 111.857 50.1222C111.404 49.6494 111.05 49.0906 110.816 48.4788C110.583 47.8669 110.474 47.2145 110.496 46.5599C110.492 45.8832 110.621 45.2124 110.877 44.5858C111.132 43.9592 111.508 43.3892 111.984 42.9083C112.46 42.4274 113.026 42.0451 113.65 41.7833C114.274 41.5215 114.943 41.3854 115.62 41.3826C116.281 41.4092 116.931 41.5678 117.531 41.8492C118.13 42.1306 118.667 42.5291 119.111 43.0212C119.554 43.5134 119.894 44.0892 120.112 44.7149C120.329 45.3405 120.42 46.0034 120.377 46.6645V46.6645Z" stroke="#22272E" stroke-width="1.8" stroke-linecap="round" stroke-linejoin="round"/>
<path d="M128.441 49.7617C129.168 47.2661 128.341 44.8304 126.595 44.3215C124.848 43.8127 122.843 45.4233 122.117 47.919C121.39 50.4146 122.217 52.8503 123.963 53.3591C125.71 53.868 127.715 52.2574 128.441 49.7617Z" stroke="#22272E" stroke-width="1.8" stroke-linecap="round" stroke-linejoin="round"/>
<path d="M122.207 47.7627C122.207 47.7627 122.155 46.7168 120.325 47.2921" stroke="#22272E" stroke-width="1.8" stroke-linecap="round" stroke-linejoin="round"/>
<path d="M110.914 44.4156L104.85 43.3174" stroke="#22272E" stroke-width="1.8" stroke-linecap="round" stroke-linejoin="round"/>
<path d="M105.372 44.7294C105.372 44.7294 104.902 41.9577 102.654 41.9054C100.406 41.8532 99.0463 48.7562 104.64 49.6975" fill="#B28D93"/>
<path d="M102.288 44.0498C102.548 43.983 102.823 43.9974 103.075 44.0908C103.327 44.1842 103.545 44.3523 103.699 44.5727C103.848 44.8448 103.92 45.152 103.909 45.4617C103.909 45.6186 103.856 45.7232 103.856 45.8801C103.856 46.037 103.804 46.0893 103.804 46.1939C103.763 46.365 103.746 46.5409 103.752 46.7168C103.741 46.7818 103.744 46.8484 103.762 46.9118C103.78 46.9751 103.812 47.0336 103.856 47.0829C104.138 47.3882 104.475 47.6367 104.85 47.815C104.601 47.9045 104.336 47.9368 104.074 47.9096C103.811 47.8825 103.558 47.7965 103.333 47.6581C103.082 47.4662 102.914 47.1856 102.863 46.8737C102.826 46.594 102.844 46.3099 102.915 46.037C102.967 45.9324 102.967 45.7755 103.02 45.6709C103.072 45.5663 103.072 45.514 103.072 45.4094C103.125 45.2749 103.125 45.1256 103.072 44.9911C103.015 44.7875 102.916 44.5984 102.781 44.4361C102.646 44.2738 102.478 44.1421 102.288 44.0498Z" fill="#22272E"/>
<path d="M121.475 46.9258C121.511 47.516 121.634 48.0977 121.841 48.6515C121.932 48.8939 122.055 49.1226 122.207 49.3314C122.427 49.59 122.587 49.8934 122.678 50.2204C122.762 50.5702 122.768 50.9342 122.695 51.2866C122.623 51.639 122.474 51.9713 122.26 52.2599C122.069 52.5379 121.819 52.77 121.528 52.9397C121.251 53.1284 120.92 53.2203 120.587 53.2012C121.049 52.8608 121.396 52.3861 121.58 51.8415C121.783 51.4002 121.838 50.9048 121.737 50.4296C121.645 50.1881 121.522 49.9596 121.371 49.7497C121.212 49.4383 121.106 49.1025 121.057 48.7561C121.034 48.1199 121.178 47.4886 121.475 46.9258Z" fill="#22272E"/>
<path d="M116.247 55.2408C115.516 55.214 114.806 54.9847 114.196 54.5785C113.587 54.1723 113.103 53.605 112.797 52.9398" stroke="#22272E" stroke-width="1.8" stroke-linecap="round" stroke-linejoin="round"/>
<path d="M114.104 47.6579C114.004 47.634 113.91 47.5906 113.827 47.5303C113.744 47.4701 113.674 47.394 113.621 47.3066C113.567 47.2191 113.532 47.122 113.516 47.0208C113.5 46.9196 113.504 46.8162 113.528 46.7166L113.738 45.9322C113.762 45.8325 113.805 45.7386 113.865 45.6557C113.925 45.5729 114.001 45.5027 114.089 45.4493C114.176 45.3959 114.273 45.3602 114.375 45.3443C114.476 45.3285 114.579 45.3328 114.679 45.3569C114.778 45.3809 114.872 45.4242 114.955 45.4845C115.038 45.5448 115.108 45.6208 115.161 45.7083C115.215 45.7957 115.251 45.8928 115.266 45.994C115.282 46.0953 115.278 46.1987 115.254 46.2982L115.045 47.0827C115.021 47.1823 114.977 47.2762 114.917 47.3591C114.857 47.442 114.781 47.5121 114.693 47.5656C114.606 47.619 114.509 47.6546 114.408 47.6705C114.306 47.6863 114.203 47.6821 114.104 47.6579Z" fill="#22272E"/>
<path d="M122.416 49.8021C122.317 49.7781 122.223 49.7348 122.14 49.6745C122.057 49.6142 121.987 49.5382 121.934 49.4507C121.88 49.3633 121.845 49.2662 121.829 49.165C121.813 49.0637 121.817 48.9603 121.841 48.8608L122.05 48.0763C122.074 47.9767 122.118 47.8828 122.178 47.7999C122.238 47.717 122.314 47.6469 122.402 47.5935C122.489 47.54 122.586 47.5044 122.687 47.4885C122.789 47.4727 122.892 47.4769 122.991 47.5011C123.091 47.525 123.185 47.5684 123.268 47.6287C123.351 47.6889 123.421 47.765 123.474 47.8524C123.528 47.9399 123.563 48.037 123.579 48.1382C123.595 48.2394 123.591 48.3428 123.567 48.4424L123.357 49.2268C123.334 49.3265 123.29 49.4204 123.23 49.5033C123.17 49.5861 123.094 49.6563 123.006 49.7097C122.919 49.7631 122.822 49.7988 122.72 49.8147C122.619 49.8305 122.516 49.8262 122.416 49.8021Z" fill="#22272E"/>
<path d="M116.195 44.0498C115.62 44.1543 115.358 43.3699 114.522 43.4222C113.215 43.4745 112.483 43.736 112.378 43.1607C112.326 42.7424 113.319 41.9579 114.574 41.9056C116.404 41.9056 117.241 43.8929 116.195 44.0498Z" fill="#22272E"/>
<path d="M122.416 45.6185C122.782 45.9323 123.305 45.357 123.828 45.7231C124.612 46.1937 124.874 46.6121 125.135 46.246C125.397 45.88 125.135 44.991 124.403 44.5203C123.201 43.6836 121.632 45.0432 122.416 45.6185Z" fill="#22272E"/>
<path d="M56.5409 133.056C56.1887 133.799 55.9591 134.594 55.8612 135.41C55.8612 136.299 56.5932 144.509 56.384 146.13C56.1749 147.751 55.6521 150.941 55.3384 151.412C55.0247 151.883 53.1426 150.418 53.0903 145.503C53.038 140.587 51.365 133.841 52.7766 133.056C54.1882 132.272 56.1226 132.429 56.5409 133.056Z" fill="#B28D93"/>
<path d="M22.2962 157.322L34.8439 137.554C34.9828 137.336 35.1639 137.147 35.3765 137C35.5892 136.852 35.8292 136.748 36.0824 136.695C36.3355 136.641 36.5969 136.639 36.8511 136.688C37.1052 136.736 37.3471 136.835 37.5625 136.979L67.102 155.753C67.3203 155.892 67.5088 156.073 67.6562 156.286C67.8037 156.498 67.9073 156.738 67.9608 156.992C68.0144 157.245 68.0169 157.506 67.9682 157.76C67.9194 158.015 67.8205 158.257 67.6771 158.472L55.1293 178.24C54.9904 178.458 54.8094 178.647 54.5967 178.794C54.384 178.942 54.1441 179.045 53.8909 179.099C53.6377 179.152 53.3763 179.155 53.1222 179.106C52.868 179.057 52.6261 178.958 52.4107 178.815L22.8713 160.041C22.4401 159.752 22.1388 159.306 22.0314 158.798C21.9239 158.29 22.0189 157.761 22.2962 157.322Z" fill="#22272E"/>
<path d="M56.9592 172.435L63.233 162.603C63.2981 162.498 63.3881 162.41 63.4951 162.347C63.602 162.285 63.7227 162.249 63.8465 162.244C63.9704 162.239 64.0936 162.264 64.2054 162.318C64.3172 162.371 64.4142 162.451 64.4878 162.551L65.4812 163.858C65.579 163.984 65.6363 164.136 65.6457 164.295C65.655 164.453 65.6159 164.611 65.5335 164.747L59.887 173.638C59.8115 173.771 59.6927 173.875 59.5501 173.932C59.4075 173.989 59.2496 173.996 59.1027 173.951L57.482 173.638C57.3601 173.605 57.2472 173.546 57.1516 173.463C57.056 173.381 56.9802 173.278 56.9299 173.163C56.8796 173.047 56.8561 172.921 56.8612 172.795C56.8663 172.669 56.8998 172.546 56.9592 172.435Z" fill="#6DAFA7"/>
<path d="M55.1293 132.533C55.1293 132.533 54.8156 141.633 54.7633 143.568C54.7111 145.503 54.8156 149.32 54.3451 151.15C53.8745 152.981 53.0903 157.583 51.6787 157.897C50.2671 158.21 51.7833 152.249 51.7833 151.098C51.6684 149.777 51.4588 148.467 51.1559 147.176C51.1559 147.176 50.6331 150.052 50.2671 151.307C49.9011 152.562 47.4961 156.485 46.555 156.328C45.614 156.171 46.7642 153.242 47.4961 151.464C48.1758 149.843 48.4372 146.444 48.4372 146.444C48.0295 147.483 47.5581 148.496 47.0256 149.477C46.3982 150.523 44.2546 153.765 43.3658 153.608C42.477 153.451 43.9409 150.157 44.8297 148.64C45.3331 147.849 45.6545 146.956 45.7708 146.026C45.7708 146.026 44.3592 147.437 43.4704 148.117C42.5816 148.797 39.4447 150.314 39.1833 149.529C38.9218 148.745 40.3335 147.908 41.6405 146.705C42.9476 145.503 44.3592 143.097 44.6729 142.679C44.9866 142.26 44.0978 138.6 45.5094 136.142C46.921 133.684 47.7575 132.69 48.1235 131.017C48.4895 129.343 54.9725 131.331 55.1293 132.533Z" fill="#B28D93"/>
<path d="M87.8056 61.83C87.8056 61.83 81.8454 61.2547 74.6828 70.2495C67.5201 79.2443 60.462 86.7749 58.4753 90.331C56.4886 93.887 52.0969 107.222 49.901 117.734C47.7051 128.245 47.496 130.128 47.5483 131.278C47.6006 132.324 52.8811 133.788 56.3317 133.736C56.635 133.742 56.9328 133.655 57.1852 133.487C57.4375 133.319 57.6323 133.077 57.7433 132.795C59.1027 129.605 63.8603 118.727 65.7425 114.753C67.9384 110.099 70.5002 103.196 70.8139 102.725C71.1276 102.254 85.4006 87.7162 88.067 83.8986C90.7334 80.0811 93.2952 73.9102 92.7201 68.4715C92.0927 62.5621 89.0603 61.7777 87.8056 61.83Z" fill="#5686AE"/>
<path d="M59.2073 89.1284C59.2073 89.1284 60.828 86.8797 62.867 88.9192C65.0106 91.0633 64.0695 95.7176 61.0894 98.6461C58.6322 101.052 55.1292 100.058 55.4429 97.8094" stroke="#22272E" stroke-width="1.8" stroke-linecap="round" stroke-linejoin="round"/>
<path d="M48.2804 128.768C49.692 129.448 53.9269 131.331 58.0572 130.808" stroke="#22272E" stroke-width="1.8" stroke-linecap="round" stroke-linejoin="round"/>
<path d="M185.155 143.62L193.938 114.857C194.066 114.474 194.312 114.141 194.641 113.907C194.97 113.672 195.364 113.547 195.768 113.55L247.737 115.014C247.939 115.016 248.138 115.065 248.318 115.157C248.499 115.248 248.656 115.38 248.777 115.541C248.898 115.703 248.981 115.891 249.018 116.09C249.055 116.288 249.046 116.493 248.992 116.688L238.797 151.778C238.673 152.206 238.398 152.575 238.023 152.816C237.648 153.057 237.198 153.152 236.758 153.085L186.305 145.293C186.109 145.283 185.918 145.228 185.747 145.132C185.576 145.036 185.429 144.902 185.318 144.74C185.207 144.578 185.135 144.393 185.106 144.199C185.078 144.005 185.095 143.807 185.155 143.62Z" fill="#22272E"/>
<path d="M184.684 145.084L154.465 147.908L206.277 160.668C207.53 160.983 208.841 160.983 210.094 160.668L238.221 153.399L184.684 145.084Z" fill="#63737A"/>
<path d="M206.329 160.668L154.518 147.908C154.521 148.386 154.682 148.85 154.974 149.228C155.267 149.606 155.676 149.877 156.138 150L204.97 162.969C207.031 163.51 209.202 163.474 211.244 162.865L236.862 155.334C237.291 155.211 237.667 154.949 237.932 154.59C238.197 154.23 238.335 153.793 238.326 153.347L210.198 160.616C208.935 160.972 207.601 160.99 206.329 160.668Z" fill="#22272E"/>
<path d="M219.295 119.93L215.635 132.376C215.582 132.528 215.483 132.66 215.352 132.753C215.221 132.847 215.064 132.898 214.903 132.899L194.357 131.121C194.253 131.113 194.152 131.083 194.062 131.031C193.972 130.98 193.894 130.91 193.834 130.825C193.774 130.74 193.733 130.643 193.715 130.54C193.697 130.438 193.702 130.333 193.729 130.232L197.18 118.832C197.222 118.684 197.311 118.553 197.434 118.459C197.556 118.364 197.705 118.312 197.859 118.309L218.615 119.041C218.723 119.044 218.828 119.072 218.923 119.12C219.018 119.169 219.101 119.239 219.167 119.324C219.232 119.409 219.277 119.508 219.299 119.613C219.321 119.717 219.32 119.826 219.295 119.93Z" fill="white"/>
<path d="M215.374 122.179L213.074 129.657L197.075 128.507L197.65 126.833L203.558 124.219L206.904 126.833L215.374 122.179Z" fill="#F4C2C9"/>
<path d="M203.401 137.449L201.885 142.156C201.832 142.315 201.723 142.449 201.58 142.535C201.436 142.622 201.266 142.654 201.101 142.627L191.22 141.319C191.118 141.31 191.02 141.277 190.933 141.224C190.846 141.171 190.772 141.1 190.717 141.014C190.662 140.928 190.626 140.832 190.614 140.73C190.601 140.629 190.612 140.527 190.645 140.43L191.952 136.037C192.005 135.886 192.104 135.754 192.235 135.66C192.366 135.567 192.523 135.516 192.684 135.514L202.774 136.56C202.882 136.556 202.99 136.579 203.086 136.627C203.183 136.675 203.267 136.746 203.329 136.834C203.392 136.923 203.431 137.025 203.444 137.133C203.456 137.24 203.442 137.349 203.401 137.449Z" fill="#FFE38E"/>
<path d="M218.877 139.018L217.204 144.195C217.15 144.354 217.042 144.489 216.898 144.575C216.755 144.661 216.585 144.693 216.42 144.666L207.009 143.411C206.904 143.398 206.803 143.361 206.714 143.303C206.625 143.246 206.55 143.169 206.495 143.079C206.44 142.988 206.406 142.887 206.395 142.781C206.384 142.676 206.398 142.569 206.434 142.47L208.002 137.606C208.05 137.454 208.149 137.324 208.283 137.238C208.417 137.152 208.577 137.116 208.734 137.135L218.25 138.077C218.359 138.083 218.466 138.114 218.562 138.168C218.657 138.223 218.738 138.299 218.799 138.39C218.86 138.482 218.899 138.586 218.912 138.695C218.926 138.804 218.914 138.915 218.877 139.018Z" fill="#6DAFA7"/>
<path d="M236.653 140.796L234.875 146.549C234.822 146.707 234.713 146.842 234.57 146.928C234.426 147.014 234.256 147.047 234.091 147.019L222.746 145.503C222.641 145.489 222.54 145.453 222.451 145.395C222.362 145.338 222.287 145.261 222.232 145.17C222.177 145.08 222.142 144.978 222.132 144.873C222.121 144.767 222.135 144.661 222.171 144.561L223.896 139.175C223.944 139.023 224.043 138.893 224.177 138.807C224.311 138.721 224.47 138.685 224.628 138.704L235.973 139.855C236.086 139.857 236.196 139.885 236.296 139.938C236.396 139.99 236.482 140.065 236.548 140.156C236.613 140.247 236.657 140.353 236.676 140.464C236.694 140.575 236.686 140.689 236.653 140.796Z" fill="#F4C2C9"/>
<path d="M230.536 122.44C230.33 123.22 229.867 123.908 229.222 124.392C228.577 124.876 227.787 125.128 226.981 125.108C225.465 125.003 224.68 123.696 225.099 122.231C225.33 121.533 225.77 120.923 226.359 120.484C226.948 120.044 227.658 119.796 228.392 119.773C228.725 119.76 229.056 119.825 229.359 119.963C229.662 120.1 229.928 120.307 230.136 120.567C230.345 120.826 230.489 121.13 230.559 121.456C230.628 121.781 230.62 122.119 230.536 122.44Z" fill="#FFE779"/>
<path d="M234.248 120.715L241.881 120.976" stroke="#63737A" stroke-width="1.8" stroke-linecap="round" stroke-linejoin="round"/>
<path d="M222.328 130.651L238.692 131.801" stroke="#63737A" stroke-width="1.8" stroke-linecap="round" stroke-linejoin="round"/>
<path d="M233.359 123.8L240.992 124.114" stroke="#63737A" stroke-width="1.8" stroke-linecap="round" stroke-linejoin="round"/>
<path d="M275.237 45.6708L235.503 48.7563C235.265 48.7716 235.027 48.7362 234.805 48.6523C234.582 48.5683 234.38 48.4379 234.212 48.2696C234.044 48.1013 233.913 47.8991 233.829 47.6764C233.745 47.4537 233.71 47.2157 233.725 46.9782L235.398 24.0205C235.446 23.3549 235.721 22.726 236.178 22.24C236.636 21.7541 237.246 21.4409 237.908 21.3535L278.27 15.8624C278.515 15.8318 278.764 15.8559 279 15.9329C279.235 16.0099 279.45 16.1379 279.63 16.3078C279.81 16.4777 279.95 16.6853 280.04 16.9157C280.13 17.1461 280.168 17.3936 280.152 17.6405L277.904 43.0561C277.828 43.7324 277.522 44.3619 277.036 44.8383C276.55 45.3147 275.915 45.6088 275.237 45.6708Z" fill="#6DAFA7"/>
<path d="M273.93 44.8341L234.196 47.9195C233.958 47.9349 233.72 47.8994 233.498 47.8155C233.275 47.7316 233.073 47.6012 232.905 47.4329C232.737 47.2646 232.606 47.0624 232.522 46.8397C232.438 46.617 232.403 46.379 232.418 46.1415L234.091 23.1838C234.138 22.5182 234.414 21.8892 234.871 21.4033C235.328 20.9174 235.939 20.6042 236.601 20.5167L276.963 15.0257C277.208 14.9951 277.457 15.0191 277.692 15.0961C277.928 15.1731 278.143 15.3012 278.323 15.4711C278.502 15.641 278.643 15.8486 278.733 16.079C278.823 16.3094 278.861 16.5569 278.845 16.8038L276.597 42.2193C276.539 42.9024 276.238 43.5422 275.749 44.0221C275.26 44.502 274.614 44.7901 273.93 44.8341Z" fill="#B0D7C0"/>
<path d="M247.475 29.4593C247.402 30.2406 247.068 30.9745 246.527 31.5434C245.987 32.1124 245.271 32.4834 244.495 32.597C244.155 32.6416 243.809 32.6074 243.484 32.497C243.16 32.3867 242.865 32.2031 242.622 31.9605C242.38 31.7178 242.196 31.4227 242.086 31.0978C241.975 30.773 241.941 30.4271 241.986 30.0869C242.048 29.3101 242.371 28.5772 242.903 28.0074C243.434 27.4377 244.143 27.0647 244.913 26.9491C246.482 26.74 247.58 27.8905 247.475 29.4593Z" fill="#22272E"/>
<path d="M246.691 39.4476L241.254 39.9706C240.981 39.9999 240.705 39.9669 240.447 39.874C240.189 39.7811 239.956 39.6308 239.764 39.4343C239.573 39.2378 239.429 39.0004 239.343 38.74C239.256 38.4795 239.231 38.2029 239.267 37.931C239.401 36.5444 239.993 35.2418 240.949 34.2287C241.905 33.2156 243.171 32.5495 244.548 32.3354C247.266 32.0216 249.357 34.1135 249.096 36.9897C249.03 37.6101 248.756 38.19 248.32 38.6359C247.883 39.0818 247.31 39.3677 246.691 39.4476Z" fill="#22272E"/>
<path d="M253.906 26.6354L270.845 24.6481" stroke="#63737A" stroke-width="1.8" stroke-linecap="round" stroke-linejoin="round"/>
<path d="M253.488 31.2894L270.427 29.4591" stroke="#63737A" stroke-width="1.8" stroke-linecap="round" stroke-linejoin="round"/>
<path d="M253.122 35.9438L263.317 34.9502" stroke="#63737A" stroke-width="1.8" stroke-linecap="round" stroke-linejoin="round"/>
</g>
<defs>
<clipPath id="clip0_2117_21279">
<rect width="555" height="327" fill="white" transform="translate(0.286804 0.299927)"/>
</clipPath>
</defs>
</svg>
