<svg width="1178" height="338" viewBox="0 0 1178 338" fill="none" xmlns="http://www.w3.org/2000/svg">
<g clip-path="url(#clip0_3838_30727)">
<rect width="1178" height="338" fill="#D1C8D5"/>
<g clip-path="url(#clip1_3838_30727)">
<mask id="mask0_3838_30727" style="mask-type:alpha" maskUnits="userSpaceOnUse" x="0" y="0" width="1178" height="338">
<rect width="1178" height="338" fill="#D1C8D5"/>
</mask>
<g mask="url(#mask0_3838_30727)">
<path d="M640.59 40.67L640.8 47.26C640.809 47.4881 640.873 47.7106 640.986 47.909C641.099 48.1073 641.258 48.2757 641.45 48.4L647 52C647.221 52.1421 647.397 52.343 647.51 52.5801C647.623 52.8171 647.667 53.0809 647.638 53.3418C647.609 53.6026 647.507 53.8502 647.345 54.0566C647.183 54.263 646.966 54.42 646.72 54.51L640.52 56.75C640.301 56.8307 640.105 56.9641 639.95 57.1385C639.794 57.313 639.685 57.523 639.63 57.75L638 64.06C637.932 64.313 637.796 64.5423 637.606 64.7221C637.415 64.9019 637.179 65.0252 636.922 65.0782C636.666 65.1311 636.4 65.1116 636.154 65.0219C635.908 64.9321 635.692 64.7757 635.53 64.57L631.48 59.36C631.338 59.1799 631.155 59.0366 630.946 58.9426C630.737 58.8486 630.509 58.8065 630.28 58.82L623.7 59.21C623.437 59.2257 623.175 59.1673 622.943 59.0417C622.712 58.916 622.52 58.728 622.39 58.499C622.26 58.27 622.197 58.0092 622.207 57.746C622.218 57.4828 622.302 57.2278 622.45 57.01L626.15 51.55C626.277 51.359 626.356 51.1408 626.382 50.913C626.408 50.6853 626.38 50.4547 626.3 50.24L623.9 44.1C623.804 43.8553 623.778 43.5887 623.826 43.3303C623.874 43.0718 623.993 42.8318 624.169 42.6374C624.346 42.4429 624.574 42.3017 624.827 42.2297C625.079 42.1578 625.347 42.1579 625.6 42.23L631.94 44.06C632.158 44.1231 632.389 44.1324 632.612 44.0872C632.835 44.0419 633.043 43.9434 633.22 43.8L638.32 39.62C638.525 39.466 638.768 39.3704 639.023 39.3434C639.278 39.3165 639.536 39.3591 639.769 39.4668C640.001 39.5745 640.201 39.7432 640.345 39.955C640.49 40.1669 640.574 40.414 640.59 40.67Z" fill="#9F96A5" stroke="#9F96A5" stroke-miterlimit="10"/>
<path d="M785 104L789.84 108.48C790.009 108.633 790.213 108.744 790.434 108.803C790.655 108.863 790.886 108.868 791.11 108.82L797.54 107.37C797.802 107.305 798.076 107.317 798.332 107.403C798.587 107.49 798.812 107.647 798.98 107.858C799.149 108.068 799.253 108.323 799.281 108.591C799.31 108.859 799.261 109.129 799.14 109.37L796.38 115.37C796.283 115.577 796.238 115.804 796.248 116.032C796.259 116.261 796.325 116.483 796.44 116.68L799.81 122.35C799.944 122.576 800.013 122.836 800.007 123.099C800.002 123.362 799.923 123.619 799.779 123.839C799.636 124.06 799.433 124.236 799.195 124.347C798.956 124.459 798.691 124.501 798.43 124.47L791.89 123.7C791.662 123.672 791.431 123.699 791.216 123.781C791.002 123.863 790.811 123.997 790.66 124.17L786.31 129.12C786.138 129.321 785.914 129.469 785.662 129.547C785.41 129.626 785.14 129.631 784.885 129.563C784.63 129.495 784.4 129.357 784.22 129.163C784.04 128.97 783.919 128.729 783.87 128.47L782.58 122C782.532 121.779 782.431 121.573 782.287 121.399C782.143 121.225 781.958 121.088 781.75 121L775.75 118.39C775.506 118.289 775.296 118.122 775.143 117.906C774.991 117.691 774.902 117.437 774.887 117.174C774.873 116.911 774.933 116.649 775.061 116.418C775.189 116.187 775.379 115.997 775.61 115.87L781.37 112.65C781.569 112.536 781.738 112.376 781.862 112.182C781.985 111.989 782.06 111.769 782.08 111.54L782.69 104.98C782.709 104.721 782.799 104.473 782.95 104.262C783.101 104.051 783.307 103.886 783.546 103.784C783.784 103.683 784.047 103.65 784.303 103.688C784.56 103.726 784.801 103.834 785 104Z" fill="#9F96A5" stroke="#9F96A5" stroke-miterlimit="10"/>
<path d="M308.81 60.81H284.13C280.93 60.7187 277.891 59.3833 275.66 57.0875C273.429 54.7917 272.181 51.7164 272.181 48.515C272.181 45.3135 273.429 42.2382 275.66 39.9424C277.891 37.6466 280.93 36.3112 284.13 36.22H308.81" stroke="#9F96A5" stroke-miterlimit="10"/>
<path d="M308.52 276.68H303.14C298.888 276.68 294.811 274.991 291.805 271.985C288.799 268.979 287.11 264.901 287.11 260.65C287.11 256.399 288.799 252.321 291.805 249.315C294.811 246.309 298.888 244.62 303.14 244.62H308.81" stroke="#9F96A5" stroke-miterlimit="10"/>
<path d="M834.94 32.93H841.86C843.504 32.8832 845.141 33.1665 846.674 33.7633C848.206 34.3601 849.604 35.2582 850.783 36.4045C851.963 37.5509 852.9 38.9221 853.54 40.4372C854.181 41.9522 854.511 43.5803 854.511 45.2251C854.511 46.8698 854.181 48.4979 853.54 50.013C852.9 51.528 851.963 52.8993 850.783 54.0456C849.604 55.1919 848.206 56.09 846.674 56.6868C845.141 57.2836 843.504 57.567 841.86 57.5201H834.94" stroke="#9F96A5" stroke-miterlimit="10"/>
<path d="M803.38 334.16H340.38C332.013 334.149 323.992 330.821 318.075 324.905C312.159 318.988 308.831 310.967 308.82 302.6V18.7C308.828 10.3322 312.156 2.30942 318.073 -3.60751C323.989 -9.52443 332.012 -12.852 340.38 -12.86H803.38C811.748 -12.852 819.771 -9.52443 825.688 -3.60751C831.604 2.30942 834.932 10.3322 834.94 18.7V302.6C834.932 310.968 831.604 318.991 825.688 324.908C819.771 330.824 811.748 334.152 803.38 334.16Z" stroke="#9F96A5" stroke-width="2" stroke-linecap="round" stroke-linejoin="round"/>
<path d="M803.39 9.53003H340.37C335.305 9.53003 331.2 13.6356 331.2 18.7V302.6C331.2 307.664 335.305 311.77 340.37 311.77H803.39C808.454 311.77 812.56 307.664 812.56 302.6V18.7C812.56 13.6356 808.454 9.53003 803.39 9.53003Z" stroke="#9F96A5" stroke-width="2" stroke-miterlimit="10"/>
<path d="M786.16 213.54V246.96H701.58V127.81" stroke="#9F96A5" stroke-linecap="round" stroke-linejoin="round"/>
<path d="M786.16 129.23V147.9" stroke="#9F96A5" stroke-linecap="round" stroke-linejoin="round"/>
<path d="M716.47 112.51H781.35" stroke="#9F96A5" stroke-linecap="round" stroke-linejoin="round"/>
<path d="M747.92 128.45H765.41" stroke="#9F96A5" stroke-linecap="round" stroke-linejoin="round"/>
<path d="M747.92 136.64H762.07" stroke="#9F96A5" stroke-linecap="round" stroke-linejoin="round"/>
<path d="M716.1 177.27H729" stroke="#9F96A5" stroke-linecap="round" stroke-linejoin="round"/>
<path d="M716.1 188.53H723.05" stroke="#9F96A5" stroke-linecap="round" stroke-linejoin="round"/>
<path d="M801.48 147.9H758.51V213.54H801.48V147.9Z" stroke="#9F96A5" stroke-linecap="round" stroke-linejoin="round"/>
<path d="M774.26 159.18H786.16" stroke="#9F96A5" stroke-linecap="round" stroke-linejoin="round"/>
<path d="M779.34 167.98H786.16" stroke="#9F96A5" stroke-linecap="round" stroke-linejoin="round"/>
<path d="M545.83 199.55C548.37 205.48 533.12 216.55 524.49 211.41C519.56 218.72 504.72 213.7 508.26 209.41C499.01 210.22 488.59 205.41 492.8 197.46C481.33 193.01 486.8 182.83 498.19 182.59C488.35 168.59 496.19 158.02 512.29 159.06C512.12 142.06 533.07 142.79 534.72 160.36C547 156 557.19 168.64 549 178.59C560.23 184 555.55 195.92 545.83 199.55Z" stroke="#9F96A5" stroke-linecap="round" stroke-linejoin="round"/>
<path d="M509.49 168.23H537.8C537.8 168.23 542.1 184.01 535.8 200.32L506.13 199.86C506.13 199.86 514.13 182.47 509.49 168.23Z" stroke="#9F96A5" stroke-linecap="round" stroke-linejoin="round"/>
<path d="M515.87 176.23H530.28" stroke="#9F96A5" stroke-linecap="round" stroke-linejoin="round"/>
<path d="M516.79 182.48H527.68" stroke="#9F96A5" stroke-linecap="round" stroke-linejoin="round"/>
<path d="M516.08 188.45H531.19" stroke="#9F96A5" stroke-linecap="round" stroke-linejoin="round"/>
<path d="M708.25 121.69C705.07 128.87 693.47 131.49 686.86 126.92C683.79 134.54 669.77 136.21 662.64 132.56C664.76 122.92 659.03 117.09 651.76 116.95C649.63 110.74 651.26 103.89 656.66 101.61C652 91.89 659.92 86.61 668.17 91.07C667.92 81.44 679.92 71.07 692.66 81.68C702.21 74.43 715.35 84.95 709.47 99.4C720.66 102.18 717.8 123.16 708.25 121.69Z" fill="#9F96A5" stroke="#9F96A5" stroke-miterlimit="10"/>
<path d="M414.11 35.22H458.93C456.93 49 459.93 71.59 468.88 89.34H419.51C419.51 89.34 404.94 77.54 414.11 35.22Z" stroke="#9F96A5" stroke-width="2" stroke-linecap="round" stroke-linejoin="round"/>
<path d="M579.89 70.15L617.25 70.23C617.25 70.23 622.68 88.62 610.75 108.49L570.32 106.85C570.32 106.85 582.65 89 579.89 70.15Z" stroke="#9F96A5" stroke-linecap="round" stroke-linejoin="round"/>
<path d="M586.71 79.1H611.11" stroke="#9F96A5" stroke-linecap="round" stroke-linejoin="round"/>
<path d="M587.06 87.28H606.53" stroke="#9F96A5" stroke-linecap="round" stroke-linejoin="round"/>
<path d="M586.71 97.99H595.91" stroke="#9F96A5" stroke-linecap="round" stroke-linejoin="round"/>
<path d="M597.99 97.99H604.11" stroke="#9F96A5" stroke-linecap="round" stroke-linejoin="round"/>
<path d="M480.28 22.47L554.41 23.47C554.41 23.47 559.91 54.03 548.56 93.76H472.56C472.56 93.76 485.22 59.34 480.28 22.47Z" stroke="#9F96A5" stroke-linecap="round" stroke-linejoin="round"/>
<path d="M521.4 50.5L542.86 51.16" stroke="#9F96A5" stroke-linecap="round" stroke-linejoin="round"/>
<path d="M530.59 44.8201L543.74 45.2301" stroke="#9F96A5" stroke-linecap="round" stroke-linejoin="round"/>
<path d="M540.56 39.5L544.73 39.63" stroke="#9F96A5" stroke-linecap="round" stroke-linejoin="round"/>
<path d="M537.36 32.73L544.73 32.96" stroke="#9F96A5" stroke-linecap="round" stroke-linejoin="round"/>
<path d="M540.57 63.12H519.76V82.45H540.57V63.12Z" fill="#9F96A5" stroke="#9F96A5" stroke-miterlimit="10"/>
<path d="M632.24 129.8H650.63" stroke="#9F96A5" stroke-linecap="round" stroke-linejoin="round"/>
<path d="M628.28 137.9H646.67" stroke="#9F96A5" stroke-linecap="round" stroke-linejoin="round"/>
<path d="M625.52 146.61H643.91" stroke="#9F96A5" stroke-linecap="round" stroke-linejoin="round"/>
<path d="M659.33 150.38C662.69 161.05 646.49 168.16 638.98 157.3C631.27 170.53 600.98 162.23 614.47 146.73C604.94 145.85 606.54 127.37 617.47 128.93C611.75 112.25 634.87 106.14 641.19 120.75C644.189 118.316 647.928 116.976 651.79 116.95C659.06 117.09 664.79 122.95 662.67 132.56C662.53 133.22 662.35 133.89 662.13 134.56C671.58 138.33 666.24 149.79 659.33 150.38Z" stroke="#9F96A5" stroke-linecap="round" stroke-linejoin="round"/>
<path d="M674.4 95.1801H694.14" stroke="#F9F9F9" stroke-linecap="round" stroke-linejoin="round"/>
<path d="M673.91 103.38H690.14" stroke="#F9F9F9" stroke-linecap="round" stroke-linejoin="round"/>
<path d="M673.35 114.37H685.3" stroke="#F9F9F9" stroke-linecap="round" stroke-linejoin="round"/>
<path d="M738.45 131.24H714.23V164.55H738.45V131.24Z" fill="#EDEDED" stroke="#9F96A5" stroke-linecap="round" stroke-linejoin="round"/>
<path d="M608.79 67.54L622.81 82.45L627.52 76.46L614.08 63.12L608.79 67.54Z" fill="#9F96A5" stroke="#9F96A5" stroke-miterlimit="10"/>
<path d="M572.64 75.1L586.71 60.1L592.13 65.12L578.31 81.46L572.64 75.1Z" fill="#9F96A5" stroke="#9F96A5" stroke-miterlimit="10"/>
<path d="M750.68 152.39L756.13 157.08C756.13 157.08 769.45 142.91 769.2 142.91C768.95 142.91 763.14 138.57 763.14 138.57L750.68 152.39Z" fill="#9F96A5" stroke="#9F96A5" stroke-miterlimit="10"/>
<path d="M789.61 144.36L795.59 139.24L809.85 154.35L803.27 159.99L789.61 144.36Z" fill="#9F96A5" stroke="#9F96A5" stroke-miterlimit="10"/>
<path d="M791.77 70.46C788.809 78.3989 783.19 85.0674 775.869 89.332C768.547 93.5967 759.975 95.1943 751.608 93.8534C743.242 92.5124 735.598 88.3156 729.977 81.9764C724.355 75.6371 721.101 67.5466 720.77 59.08C722.683 63.1081 725.556 66.6048 729.136 69.2628C732.716 71.9209 736.894 73.659 741.304 74.3245C745.713 74.99 750.218 74.5625 754.423 73.0796C758.629 71.5966 762.405 69.1036 765.422 65.8195C768.438 62.5354 770.602 58.5608 771.723 54.2449C772.844 49.929 772.888 45.4038 771.851 41.0669C770.814 36.73 768.728 32.7142 765.776 29.3722C762.823 26.0302 759.096 23.4643 754.92 21.9C754.22 21.64 753.53 21.41 752.83 21.22C759.093 20.4331 765.452 21.2756 771.294 23.6659C777.136 26.0563 782.262 29.9137 786.177 34.865C790.091 39.8164 792.662 45.6941 793.64 51.9297C794.618 58.1654 793.971 64.5479 791.76 70.46H791.77Z" fill="#EDEDED" stroke="#9F96A5" stroke-linecap="round" stroke-linejoin="round"/>
<path d="M411.14 23.0001L416.14 27.3101C416.312 27.4585 416.518 27.5625 416.739 27.6131C416.96 27.6636 417.191 27.6592 417.41 27.6001L423.79 25.9401C424.045 25.8727 424.313 25.8781 424.565 25.9556C424.817 26.033 425.042 26.1795 425.215 26.3783C425.387 26.5771 425.501 26.8204 425.543 27.0805C425.584 27.3407 425.552 27.6073 425.45 27.8501L422.89 33.9301C422.803 34.1402 422.768 34.3684 422.789 34.5949C422.81 34.8214 422.886 35.0394 423.01 35.2301L426.56 40.7901C426.7 41.0111 426.776 41.2667 426.779 41.5283C426.782 41.7899 426.712 42.0472 426.577 42.2713C426.442 42.4955 426.247 42.6777 426.015 42.7976C425.782 42.9174 425.521 42.9702 425.26 42.9501L418.69 42.4001C418.462 42.3788 418.232 42.4142 418.021 42.5032C417.81 42.5922 417.624 42.7319 417.48 42.9101L413.3 48.0001C413.132 48.2019 412.911 48.3532 412.662 48.437C412.413 48.5208 412.146 48.5339 411.89 48.4748C411.634 48.4158 411.399 48.2868 411.212 48.1024C411.025 47.9179 410.893 47.6852 410.83 47.4301L409.33 41.0101C409.278 40.7862 409.173 40.5783 409.023 40.4042C408.873 40.23 408.684 40.0947 408.47 40.0101L402.33 37.6101C402.085 37.5147 401.871 37.3525 401.713 37.1419C401.555 36.9314 401.459 36.6807 401.436 36.4185C401.413 36.1562 401.464 35.8928 401.583 35.658C401.702 35.4233 401.885 35.2265 402.11 35.0901L407.75 31.6801C407.947 31.5614 408.112 31.3964 408.23 31.1995C408.349 31.0025 408.417 30.7796 408.43 30.5501L408.81 23.9701C408.828 23.7085 408.918 23.4571 409.071 23.2441C409.224 23.031 409.433 22.8648 409.675 22.7641C409.917 22.6633 410.182 22.632 410.441 22.6737C410.7 22.7154 410.942 22.8284 411.14 23.0001Z" fill="#9F96A5" stroke="#9F96A5" stroke-miterlimit="10"/>
<path d="M348.66 394.2L355 368.86H416.37L410 394.2H348.66ZM422.65 394.2L489.65 127.04C489.847 126.259 489.888 125.447 489.771 124.651C489.655 123.854 489.382 123.088 488.969 122.397C488.557 121.706 488.012 121.102 487.366 120.622C486.72 120.141 485.986 119.792 485.205 119.595C484.424 119.398 483.612 119.357 482.816 119.473C482.019 119.59 481.253 119.863 480.562 120.276C479.871 120.688 479.267 121.233 478.787 121.879C478.306 122.525 477.957 123.259 477.76 124.04L471.23 150.1H409.85L415.63 127C415.827 126.219 415.868 125.407 415.751 124.611C415.635 123.814 415.362 123.048 414.949 122.357C414.537 121.666 413.992 121.062 413.346 120.582C412.7 120.101 411.966 119.752 411.185 119.555C410.404 119.358 409.592 119.317 408.796 119.433C407.999 119.55 407.233 119.823 406.542 120.236C405.851 120.648 405.247 121.193 404.767 121.839C404.286 122.485 403.937 123.219 403.74 124L336 394.2H422.65ZM468.9 159.3L458.61 200.3H397.26L407.55 159.3H468.9ZM456.31 209.5L437.41 285H376L395 209.5H456.31ZM418.69 359.68H357.32L373.74 294.17H435.11L418.69 359.68Z" fill="#EDEDED" stroke="#9F96A5" stroke-width="2" stroke-linecap="round" stroke-linejoin="round"/>
<path d="M880.63 246.86C881.46 252.17 875.51 257.52 871.13 259.71C871.13 259.71 866.02 248.28 866.39 248.28C866.76 248.28 875.41 243.37 880.63 246.86Z" fill="#FCC71F"/>
<path d="M848.59 339.45C826.69 355.1 798.78 344.45 798.78 344.45V336.28C776.42 336.63 752.78 329.5 752.78 329.5C751.29 312.5 754.1 291.7 755.83 281.11C756.53 276.84 757.06 274.24 757.06 274.24C770.39 269.9 847.34 271.44 847.34 271.44C847.63 273.96 847.85 276.92 848.04 280.18C849.38 302.79 848.59 339.45 848.59 339.45Z" fill="#A7CAF0"/>
<path d="M899.66 262.8H894.51V267.95H899.66V262.8Z" stroke="white" stroke-width="0.75" stroke-linecap="round" stroke-linejoin="round"/>
<path d="M874.57 262.8H869.42V267.95H874.57V262.8Z" stroke="white" stroke-width="0.75" stroke-linecap="round" stroke-linejoin="round"/>
<path d="M849.49 262.8H844.34V267.95H849.49V262.8Z" stroke="white" stroke-width="0.75" stroke-linecap="round" stroke-linejoin="round"/>
<path d="M824.4 262.8H819.25V267.95H824.4V262.8Z" stroke="white" stroke-width="0.75" stroke-linecap="round" stroke-linejoin="round"/>
<path d="M799.32 262.8H794.17V267.95H799.32V262.8Z" stroke="white" stroke-width="0.75" stroke-linecap="round" stroke-linejoin="round"/>
<path d="M774.24 262.8H769.09V267.95H774.24V262.8Z" stroke="white" stroke-width="0.75" stroke-linecap="round" stroke-linejoin="round"/>
<path d="M749.15 262.8H744V267.95H749.15V262.8Z" stroke="white" stroke-width="0.75" stroke-linecap="round" stroke-linejoin="round"/>
<path d="M899.66 294.63H894.51V299.78H899.66V294.63Z" stroke="white" stroke-width="0.75" stroke-linecap="round" stroke-linejoin="round"/>
<path d="M874.57 294.63H869.42V299.78H874.57V294.63Z" stroke="white" stroke-width="0.75" stroke-linecap="round" stroke-linejoin="round"/>
<path d="M849.49 294.63H844.34V299.78H849.49V294.63Z" stroke="white" stroke-width="0.75" stroke-linecap="round" stroke-linejoin="round"/>
<path d="M824.4 294.63H819.25V299.78H824.4V294.63Z" stroke="white" stroke-width="0.75" stroke-linecap="round" stroke-linejoin="round"/>
<path d="M799.32 294.63H794.17V299.78H799.32V294.63Z" stroke="white" stroke-width="0.75" stroke-linecap="round" stroke-linejoin="round"/>
<path d="M774.24 294.63H769.09V299.78H774.24V294.63Z" stroke="white" stroke-width="0.75" stroke-linecap="round" stroke-linejoin="round"/>
<path d="M749.15 294.63H744V299.78H749.15V294.63Z" stroke="white" stroke-width="0.75" stroke-linecap="round" stroke-linejoin="round"/>
<path d="M899.66 326.45H894.51V331.6H899.66V326.45Z" stroke="white" stroke-width="0.75" stroke-linecap="round" stroke-linejoin="round"/>
<path d="M874.57 326.45H869.42V331.6H874.57V326.45Z" stroke="white" stroke-width="0.75" stroke-linecap="round" stroke-linejoin="round"/>
<path d="M849.49 326.45H844.34V331.6H849.49V326.45Z" stroke="white" stroke-width="0.75" stroke-linecap="round" stroke-linejoin="round"/>
<path d="M824.4 326.45H819.25V331.6H824.4V326.45Z" stroke="white" stroke-width="0.75" stroke-linecap="round" stroke-linejoin="round"/>
<path d="M799.32 326.45H794.17V331.6H799.32V326.45Z" stroke="white" stroke-width="0.75" stroke-linecap="round" stroke-linejoin="round"/>
<path d="M774.24 326.45H769.09V331.6H774.24V326.45Z" stroke="white" stroke-width="0.75" stroke-linecap="round" stroke-linejoin="round"/>
<path d="M749.15 326.45H744V331.6H749.15V326.45Z" stroke="white" stroke-width="0.75" stroke-linecap="round" stroke-linejoin="round"/>
<path d="M737.03 244.31H726.74V254.6H737.03V244.31Z" stroke="white" stroke-width="0.75" stroke-linecap="round" stroke-linejoin="round"/>
<path d="M762.72 244.31H752.43V254.6H762.72V244.31Z" stroke="white" stroke-width="0.75" stroke-linecap="round" stroke-linejoin="round"/>
<path d="M788.42 244.31H778.13V254.6H788.42V244.31Z" stroke="white" stroke-width="0.75" stroke-linecap="round" stroke-linejoin="round"/>
<path d="M814.12 244.31H803.83V254.6H814.12V244.31Z" stroke="white" stroke-width="0.75" stroke-linecap="round" stroke-linejoin="round"/>
<path d="M839.82 244.31H829.53V254.6H839.82V244.31Z" stroke="white" stroke-width="0.75" stroke-linecap="round" stroke-linejoin="round"/>
<path d="M865.52 244.31H855.23V254.6H865.52V244.31Z" stroke="white" stroke-width="0.75" stroke-linecap="round" stroke-linejoin="round"/>
<path d="M891.22 244.31H880.93V254.6H891.22V244.31Z" stroke="white" stroke-width="0.75" stroke-linecap="round" stroke-linejoin="round"/>
<path d="M916.92 244.31H906.63V254.6H916.92V244.31Z" stroke="white" stroke-width="0.75" stroke-linecap="round" stroke-linejoin="round"/>
<path d="M737.03 276.14H726.74V286.43H737.03V276.14Z" stroke="white" stroke-width="0.75" stroke-linecap="round" stroke-linejoin="round"/>
<path d="M762.72 276.14H752.43V286.43H762.72V276.14Z" stroke="white" stroke-width="0.75" stroke-linecap="round" stroke-linejoin="round"/>
<path d="M788.42 276.14H778.13V286.43H788.42V276.14Z" stroke="white" stroke-width="0.75" stroke-linecap="round" stroke-linejoin="round"/>
<path d="M814.12 276.14H803.83V286.43H814.12V276.14Z" stroke="white" stroke-width="0.75" stroke-linecap="round" stroke-linejoin="round"/>
<path d="M839.82 276.14H829.53V286.43H839.82V276.14Z" stroke="white" stroke-width="0.75" stroke-linecap="round" stroke-linejoin="round"/>
<path d="M865.52 276.14H855.23V286.43H865.52V276.14Z" stroke="white" stroke-width="0.75" stroke-linecap="round" stroke-linejoin="round"/>
<path d="M891.22 276.14H880.93V286.43H891.22V276.14Z" stroke="white" stroke-width="0.75" stroke-linecap="round" stroke-linejoin="round"/>
<path d="M916.92 276.14H906.63V286.43H916.92V276.14Z" stroke="white" stroke-width="0.75" stroke-linecap="round" stroke-linejoin="round"/>
<path d="M737.03 307.97H726.74V318.26H737.03V307.97Z" stroke="white" stroke-width="0.75" stroke-linecap="round" stroke-linejoin="round"/>
<path d="M762.72 307.97H752.43V318.26H762.72V307.97Z" stroke="white" stroke-width="0.75" stroke-linecap="round" stroke-linejoin="round"/>
<path d="M788.42 307.97H778.13V318.26H788.42V307.97Z" stroke="white" stroke-width="0.75" stroke-linecap="round" stroke-linejoin="round"/>
<path d="M814.12 307.97H803.83V318.26H814.12V307.97Z" stroke="white" stroke-width="0.75" stroke-linecap="round" stroke-linejoin="round"/>
<path d="M839.82 307.97H829.53V318.26H839.82V307.97Z" stroke="white" stroke-width="0.75" stroke-linecap="round" stroke-linejoin="round"/>
<path d="M865.52 307.97H855.23V318.26H865.52V307.97Z" stroke="white" stroke-width="0.75" stroke-linecap="round" stroke-linejoin="round"/>
<path d="M891.22 307.97H880.93V318.26H891.22V307.97Z" stroke="white" stroke-width="0.75" stroke-linecap="round" stroke-linejoin="round"/>
<path d="M916.92 307.97H906.63V318.26H916.92V307.97Z" stroke="white" stroke-width="0.75" stroke-linecap="round" stroke-linejoin="round"/>
<path d="M848.07 280.22C835.225 282.896 822.18 284.505 809.07 285.03C802.33 285.36 795.48 285.45 788.83 285.27C776.53 284.93 764.91 283.66 755.83 281.15C756.53 276.88 757.06 274.28 757.06 274.28C761.78 272.75 774.44 271.94 788.84 271.55C795.42 271.37 802.36 271.28 809.08 271.24C829.25 271.11 847.34 271.48 847.34 271.48C847.66 274 847.88 277 848.07 280.22Z" fill="#683F1D"/>
<path d="M809.11 271.24V285C802.37 285.33 795.52 285.42 788.87 285.24V271.55C795.45 271.37 802.39 271.28 809.11 271.24Z" fill="white"/>
<path d="M798.78 336.32L798.99 314.21" stroke="#4BBAC2" stroke-width="0.75" stroke-linecap="round" stroke-linejoin="round"/>
<path d="M880.63 246.86C880.63 246.86 877.63 247.42 873.18 248.74C865.9 250.842 858.886 253.778 852.28 257.49C851.06 258.19 845.74 263.84 840.43 268.67C836.5 272.25 832.56 275.38 830.31 275.67C818.91 277.365 807.395 278.164 795.87 278.06C793.737 278.06 791.677 278.003 789.69 277.89C778.742 277.557 767.84 276.337 757.09 274.24C757.71 274.24 756.77 265.48 755.88 256.96C755.66 254.78 755.44 252.61 755.24 250.61C754.93 250.82 736.01 237.61 734.38 236.42L734.27 236.34C734.27 236.34 734.36 235.85 734.56 234.96C735.67 229.96 740.06 212.27 748.81 198.67C750.696 195.684 752.884 192.899 755.34 190.36C768.15 177.36 783.24 173.16 798.51 171.98C813.78 170.8 815.59 170.43 815.59 170.43C829.29 175.18 844.59 178.02 855.59 191.22C858.006 194.288 860.113 197.588 861.88 201.07C871.33 218.67 880.63 246.86 880.63 246.86Z" fill="#FED81D"/>
<path d="M763.2 210.3C760.95 219.64 756.73 235.37 756.9 251.85C756.9 251.44 736.01 237.6 734.38 236.46L734.56 235C741.08 231.93 745.22 234 748.81 235.51C756.9 238.82 752.92 212.1 763.06 210.32L763.2 210.3Z" fill="#FCC71F"/>
<path d="M840.43 268.67C836.5 272.25 832.56 275.38 830.31 275.67C818.91 277.365 807.395 278.164 795.87 278.06C793.737 278.06 791.677 278.003 789.69 277.89C793.53 272.08 801.69 262.53 813.36 264.76C829.83 267.93 832.88 240.87 829.83 229.36C826.78 217.85 834.5 213.17 834.5 213.17C834.756 220.234 835.636 227.261 837.13 234.17C837.13 234.37 837.22 234.58 837.27 234.79C839.1 243.55 840 259 840.43 268.67Z" fill="#FCC71F"/>
<path d="M861.9 201.11C848.07 197.74 834.49 198.85 828.54 204.65C816.42 216.51 792.88 232.54 779.29 215.33C770.49 204.18 760.84 197.18 748.81 198.71C750.696 195.723 752.884 192.939 755.34 190.4C768.15 177.4 783.24 173.2 798.51 172.02C813.78 170.84 815.59 170.47 815.59 170.47C829.29 175.22 844.59 178.06 855.59 191.26C858.013 194.327 860.127 197.627 861.9 201.11Z" fill="#FFE05C"/>
<path d="M837.93 237.72C837.69 236.72 837.48 235.79 837.27 234.83C837.27 234.62 837.17 234.41 837.13 234.21C835.637 227.301 834.756 220.274 834.5 213.21V213.21C834.41 210.356 834.463 207.499 834.66 204.65" stroke="#F7AD2B" stroke-width="0.75" stroke-linecap="round" stroke-linejoin="round"/>
<path d="M840.74 185.15C838.709 187.684 837.252 190.628 836.47 193.78" stroke="#F7AD2B" stroke-width="0.75" stroke-linecap="round" stroke-linejoin="round"/>
<path d="M799.62 191C798.13 198 798.77 207.69 798.77 207.69" stroke="#F7AD2B" stroke-width="0.75" stroke-linecap="round" stroke-linejoin="round"/>
<path d="M756.9 249.77C756.9 230.71 764.9 203.51 764.9 203.51" stroke="#F7AD2B" stroke-width="0.75" stroke-linecap="round" stroke-linejoin="round"/>
<path d="M789.54 172C784.33 172 783.1 186.05 785.36 192.93C787.23 198.63 795.36 188.63 801.5 182.65L789.54 172Z" fill="white"/>
<path d="M798.09 182.11C804.38 188.33 810.41 195.42 812.93 194.41C815.45 193.4 821.8 175.17 819.99 170.91C819.413 169.626 818.577 168.474 817.534 167.528C816.491 166.581 815.264 165.86 813.93 165.41L798.09 182.11Z" fill="white"/>
<path d="M799.62 182.44C810.62 180.16 813.93 165.44 813.93 165.44C798.57 165.44 789.54 172.05 789.54 172.05C789.54 172.05 787.73 184.91 799.62 182.44Z" fill="white"/>
<path d="M756.9 249.77C753.97 239.28 747.39 236.32 742.09 235.77C739.499 235.509 736.883 235.743 734.38 236.46C727.59 262.4 724.86 271.18 733.91 273.89C742.96 276.6 752.26 271.16 756.91 267.09C757.37 258.05 756.9 249.77 756.9 249.77Z" fill="#FEBD9D"/>
<path d="M874.17 275.65C867.67 287.98 859.86 288.48 850.34 286.42C839.93 283.21 846.59 265.51 852.28 257.49C858.887 253.778 865.9 250.842 873.18 248.74C875.74 256.73 879.3 265.94 874.17 275.65Z" fill="#FEBD9D"/>
<path d="M813.53 205.56C809.264 203.028 804.3 201.926 799.363 202.416C794.427 202.905 789.776 204.96 786.09 208.28L787.7 201.44L779.7 199.31C771.76 223.66 777.94 244.95 800.23 244.15L822.7 230.91C822.7 230.91 827.91 213.51 813.53 205.56ZM805.16 232.87H805.06C802.967 232.855 800.932 232.185 799.24 230.952C797.549 229.719 796.287 227.987 795.632 225.999C794.977 224.012 794.962 221.868 795.59 219.872C796.217 217.875 797.456 216.126 799.13 214.87H799.24C801.332 214.887 803.366 215.559 805.056 216.792C806.746 218.026 808.006 219.758 808.66 221.745C809.313 223.733 809.327 225.875 808.699 227.871C808.072 229.866 806.834 231.615 805.16 232.87Z" fill="#F4F4F4" stroke="#DDDDDD" stroke-linecap="round" stroke-linejoin="round"/>
<path d="M805.16 232.87C803.892 233.821 802.417 234.457 800.855 234.725C799.294 234.994 797.691 234.888 796.178 234.415C794.666 233.943 793.287 233.118 792.156 232.008C791.025 230.898 790.174 229.536 789.673 228.032C789.172 226.529 789.035 224.928 789.274 223.362C789.513 221.796 790.121 220.308 791.048 219.023C791.974 217.738 793.193 216.691 794.603 215.969C796.014 215.247 797.575 214.87 799.16 214.87C797.486 216.126 796.247 217.875 795.62 219.872C794.992 221.868 795.007 224.012 795.662 225.999C796.317 227.987 797.579 229.719 799.27 230.952C800.962 232.185 802.997 232.856 805.09 232.87H805.16Z" fill="#DDDDDD" stroke="#DDDDDD" stroke-linecap="round" stroke-linejoin="round"/>
<path d="M786.09 208.28C780.46 214.28 776.24 223.45 780.09 234.21" stroke="#DDDDDD" stroke-linecap="round" stroke-linejoin="round"/>
<path d="M816.37 226C817.08 212.25 804.45 200 788.37 206.52" stroke="#DDDDDD" stroke-linecap="round" stroke-linejoin="round"/>
<path d="M854.23 287.11C852.09 287.11 847.93 285.82 846.68 285.4L846.41 285.31C842.804 284.035 839.371 282.315 836.19 280.19C834.128 278.835 832.164 277.338 830.31 275.71C822.858 269.043 817.064 260.73 813.39 251.43C810.445 251.185 807.603 250.231 805.106 248.65C802.609 247.069 800.531 244.907 799.05 242.35C798.05 240.11 800.13 235.05 800.13 235.05C797.47 231.8 801.19 228.11 803.52 229.1C800.37 224.24 797.95 220.75 801.52 218.84C804.15 217.43 820.52 227.84 824.52 232.84C828.52 237.84 852.33 257.52 852.33 257.52C861.52 264.77 871.69 287.06 854.23 287.11Z" fill="#FEBD9D"/>
<path d="M852.27 257.5C859.27 263.92 860.42 269.38 860.42 269.38" stroke="#EF8A66" stroke-width="0.75" stroke-linecap="round" stroke-linejoin="round"/>
<path d="M799.05 242.35C798.05 240.11 800.13 235.05 800.13 235.05C797.47 231.8 801.19 228.11 803.52 229.1C800.37 224.24 797.95 220.75 801.52 218.84C802.65 218.23 806.34 219.84 810.52 222.21" stroke="#EF8A66" stroke-width="0.75" stroke-linecap="round" stroke-linejoin="round"/>
<path d="M820.75 129C820.75 129 819.91 139.32 820.57 141.66C820.57 141.66 812.39 147.31 809.17 145.96C809.044 145.907 808.926 145.837 808.82 145.75C805.82 143.47 804.17 128.75 804.17 128.75C804.17 128.75 792.67 127.2 790.47 122.21C790.47 122.21 781.17 123.6 783.47 116.13C782.629 116.493 781.726 116.694 780.81 116.72C780.256 116.772 779.703 116.609 779.265 116.265C778.828 115.92 778.54 115.421 778.46 114.87C777.82 111.65 786.8 110.87 786.8 110.87C784.69 106.24 790.86 103.16 796.94 109.04C794.74 105.77 797.61 103.32 803.48 105.45C809.92 107.79 815.81 114.14 814.36 118.45C814.36 118.45 820.03 118.26 823.1 122C826.69 126.37 822.91 128.57 820.75 129Z" fill="#7F542D"/>
<path d="M808.82 145.78C805.82 143.5 804.17 128.78 804.17 128.78C804.17 128.78 792.67 127.23 790.47 122.24C790.47 122.24 781.17 123.63 783.47 116.16C782.629 116.523 781.726 116.724 780.81 116.75C782.268 115.838 783.908 115.255 785.614 115.043C787.321 114.831 789.053 114.993 790.69 115.52C798.53 118.34 802.6 119.42 804.91 117.46C807.22 115.5 812.91 118.01 810.72 123.88C808.53 129.75 814.83 124.58 815.99 131.72C816.8 136.8 811.75 142.79 808.82 145.78Z" fill="#704725"/>
<path d="M811.42 123.69C814.601 123.641 817.676 124.828 820 127" stroke="#A56F42" stroke-width="0.75" stroke-linecap="round" stroke-linejoin="round"/>
<path d="M811.84 126.61C814.95 128.92 816.11 133.33 816.07 136.19" stroke="#A56F42" stroke-width="0.75" stroke-linecap="round" stroke-linejoin="round"/>
<path d="M816.8 154.13C816.8 154.13 815.8 163.33 816.8 166.92C816.8 166.92 813.41 184.24 800.67 185.12C794.16 185.56 790.97 181.5 789.43 177.41C788.513 174.908 788.01 172.274 787.94 169.61C787.94 169.61 780.33 170.31 775.53 161.35C774.05 158.57 773.34 154.61 773.44 149.82C773.505 147.315 773.752 144.819 774.18 142.35C775.886 133.179 779.017 124.332 783.46 116.13C783.61 119.84 787.54 121.24 792.46 119.02C792.46 119.02 791.8 125.31 800.46 122.87C800.46 122.87 800.12 126.73 805.65 125.02C812.17 123.02 806.29 134.5 811.86 142.02C811.86 142.02 817.46 135.92 822.32 139.73C828.43 144.5 822.06 152.87 816.8 154.13Z" fill="#FEBD9D"/>
<path d="M813.62 145.84C815.62 143.04 820.26 141.06 822.49 145.06" stroke="#EF8A66" stroke-width="0.75" stroke-linecap="round" stroke-linejoin="round"/>
<path d="M812.93 148.25C817.57 150.99 819 144.32 814.62 144.73" stroke="#EF8A66" stroke-width="0.75" stroke-linecap="round" stroke-linejoin="round"/>
<path d="M781.89 151.91C783.618 152.405 785.467 152.248 787.087 151.47C788.707 150.693 789.986 149.348 790.68 147.69" stroke="#EF8A66" stroke-width="0.75" stroke-linecap="round" stroke-linejoin="round"/>
<path d="M816.8 154.13C814.816 154.435 812.788 154.054 811.05 153.05" stroke="#EF8A66" stroke-width="0.75" stroke-linecap="round" stroke-linejoin="round"/>
<path d="M801.379 153.485C804.565 152.322 806.575 149.811 805.868 147.876C805.162 145.94 802.007 145.314 798.822 146.477C795.636 147.639 793.626 150.151 794.333 152.086C795.039 154.021 798.194 154.647 801.379 153.485Z" fill="#F4AF90"/>
<path d="M778.67 148C778.1 149.57 775.93 150.27 773.44 149.87C773.505 147.365 773.752 144.869 774.18 142.4C777.37 143.51 779.37 146 778.67 148Z" fill="#F4AF90"/>
<path d="M779.29 143.09C778.466 143.335 777.61 143.46 776.75 143.46C775.022 143.465 773.329 142.973 771.873 142.042C770.417 141.111 769.26 139.781 768.54 138.21" stroke="#683F1D" stroke-linecap="round" stroke-linejoin="round"/>
<path d="M785.6 132.71C785.704 133.281 785.758 133.86 785.76 134.44C785.764 135.024 785.707 135.608 785.59 136.18" stroke="#683F1D" stroke-linecap="round" stroke-linejoin="round"/>
<path d="M779.68 136.62C780.47 136.62 781.11 135.98 781.11 135.19C781.11 134.4 780.47 133.76 779.68 133.76C778.89 133.76 778.25 134.4 778.25 135.19C778.25 135.98 778.89 136.62 779.68 136.62Z" fill="#683F1D"/>
<path d="M789.75 138.54C789.748 138.825 789.831 139.105 789.988 139.343C790.145 139.581 790.369 139.767 790.632 139.878C790.895 139.988 791.185 140.018 791.465 139.964C791.745 139.909 792.002 139.773 792.205 139.572C792.407 139.371 792.545 139.114 792.602 138.835C792.658 138.555 792.63 138.265 792.521 138.001C792.413 137.738 792.228 137.512 791.991 137.353C791.754 137.195 791.475 137.11 791.19 137.11C791.001 137.109 790.814 137.145 790.64 137.216C790.465 137.287 790.306 137.392 790.172 137.525C790.039 137.658 789.932 137.816 789.86 137.99C789.787 138.165 789.75 138.351 789.75 138.54Z" fill="#683F1D"/>
<path d="M789.75 133.76C788.05 134.94 786.62 135.97 785.43 136.88C781.79 139.65 780.34 141.35 780.06 142.82C779.85 143.95 780.34 144.96 781.06 146.2" stroke="#EF8A66" stroke-width="0.75" stroke-linecap="round" stroke-linejoin="round"/>
<path d="M792.16 126.32C792.88 124.91 796.97 127.5 797.95 129.49C798.93 131.48 790.94 128.69 792.16 126.32Z" fill="#7F542D"/>
<path d="M780.41 124.24C779.41 125.29 785.81 126.67 786.58 125.04C787.35 123.41 782.1 122.53 780.41 124.24Z" fill="#7F542D"/>
<path d="M790.68 143.37C790.68 143.521 790.62 143.666 790.513 143.773C790.406 143.88 790.261 143.94 790.11 143.94C789.96 143.937 789.816 143.877 789.71 143.77C789.603 143.664 789.543 143.52 789.54 143.37C789.54 143.295 789.555 143.221 789.583 143.152C789.612 143.083 789.654 143.02 789.707 142.967C789.76 142.914 789.823 142.872 789.892 142.843C789.961 142.815 790.035 142.8 790.11 142.8C790.185 142.799 790.26 142.813 790.33 142.841C790.4 142.869 790.463 142.911 790.516 142.964C790.569 143.017 790.611 143.081 790.639 143.15C790.668 143.22 790.681 143.295 790.68 143.37Z" fill="#F4AF90"/>
<path d="M777.37 141.82C777.37 141.933 777.336 142.044 777.273 142.138C777.21 142.232 777.12 142.305 777.016 142.348C776.911 142.39 776.796 142.401 776.685 142.378C776.574 142.355 776.473 142.3 776.393 142.219C776.314 142.139 776.261 142.036 776.24 141.925C776.219 141.814 776.232 141.699 776.276 141.595C776.321 141.491 776.396 141.403 776.491 141.341C776.586 141.28 776.697 141.248 776.81 141.25C776.884 141.25 776.958 141.265 777.027 141.294C777.095 141.322 777.157 141.365 777.21 141.418C777.262 141.471 777.303 141.534 777.33 141.603C777.358 141.672 777.371 141.746 777.37 141.82Z" fill="#F4AF90"/>
<path d="M779.38 139.41C779.38 139.561 779.32 139.706 779.213 139.813C779.106 139.92 778.961 139.98 778.81 139.98C778.659 139.98 778.514 139.92 778.407 139.813C778.3 139.706 778.24 139.561 778.24 139.41C778.24 139.259 778.3 139.114 778.407 139.007C778.514 138.9 778.659 138.84 778.81 138.84C778.961 138.84 779.106 138.9 779.213 139.007C779.32 139.114 779.38 139.259 779.38 139.41Z" fill="#F4AF90"/>
<path d="M793.31 143.37C793.625 143.37 793.88 143.115 793.88 142.8C793.88 142.485 793.625 142.23 793.31 142.23C792.995 142.23 792.74 142.485 792.74 142.8C792.74 143.115 792.995 143.37 793.31 143.37Z" fill="#F4AF90"/>
<path d="M799.17 144.71C799.168 144.86 799.107 145.004 799 145.11C798.894 145.217 798.75 145.277 798.6 145.28C798.449 145.28 798.304 145.22 798.197 145.113C798.09 145.006 798.03 144.861 798.03 144.71C798.029 144.635 798.043 144.56 798.071 144.49C798.099 144.42 798.141 144.357 798.194 144.304C798.247 144.251 798.311 144.209 798.38 144.181C798.45 144.152 798.525 144.139 798.6 144.14C798.751 144.14 798.896 144.2 799.003 144.307C799.11 144.414 799.17 144.559 799.17 144.71Z" fill="#F4AF90"/>
<path d="M796.48 145.23C796.48 145.304 796.465 145.378 796.436 145.447C796.408 145.515 796.365 145.577 796.312 145.63C796.259 145.682 796.196 145.723 796.127 145.75C796.058 145.778 795.984 145.791 795.91 145.79C795.797 145.79 795.686 145.756 795.592 145.693C795.498 145.63 795.425 145.541 795.382 145.436C795.34 145.331 795.329 145.216 795.352 145.105C795.375 144.994 795.43 144.893 795.511 144.813C795.591 144.734 795.694 144.681 795.805 144.66C795.916 144.639 796.031 144.652 796.135 144.696C796.239 144.741 796.327 144.816 796.389 144.911C796.45 145.006 796.482 145.117 796.48 145.23Z" fill="#F4AF90"/>
<path d="M793.31 146.2C793.321 146.281 793.314 146.362 793.291 146.44C793.267 146.518 793.227 146.59 793.174 146.651C793.12 146.712 793.054 146.761 792.981 146.794C792.907 146.828 792.826 146.845 792.745 146.845C792.664 146.845 792.584 146.828 792.51 146.794C792.436 146.761 792.37 146.712 792.316 146.651C792.263 146.59 792.223 146.518 792.199 146.44C792.176 146.362 792.169 146.281 792.18 146.2C792.169 146.12 792.176 146.038 792.199 145.96C792.223 145.882 792.263 145.81 792.316 145.749C792.37 145.688 792.436 145.639 792.51 145.606C792.584 145.572 792.664 145.555 792.745 145.555C792.826 145.555 792.907 145.572 792.981 145.606C793.054 145.639 793.12 145.688 793.174 145.749C793.227 145.81 793.267 145.882 793.291 145.96C793.314 146.038 793.321 146.12 793.31 146.2Z" fill="#F4AF90"/>
<path d="M767.72 134.44C767.702 132.65 768.217 130.896 769.201 129.4C770.185 127.905 771.592 126.737 773.243 126.046C774.894 125.354 776.714 125.171 778.47 125.519C780.226 125.867 781.838 126.731 783.1 128" stroke="#683F1D" stroke-linecap="round" stroke-linejoin="round"/>
<path d="M794.78 150.27C799.762 150.27 803.8 146.232 803.8 141.25C803.8 136.268 799.762 132.23 794.78 132.23C789.798 132.23 785.76 136.268 785.76 141.25C785.76 146.232 789.798 150.27 794.78 150.27Z" stroke="#683F1D" stroke-linecap="round" stroke-linejoin="round"/>
<path d="M803.8 141.25L811.84 141.98" stroke="#683F1D" stroke-linecap="round" stroke-linejoin="round"/>
<path d="M799.64 165.1C799.64 165.1 799.38 175.1 789.43 177.41C788.513 174.908 788.01 172.274 787.94 169.61C791.21 169.46 797.81 167.15 799.64 165.1Z" fill="#F4A789"/>
<path d="M799.94 111.2C805.05 112.3 810.15 116.13 810.15 119.6" stroke="#A56F42" stroke-width="0.75" stroke-linecap="round" stroke-linejoin="round"/>
<path d="M790.68 113.24C797.25 114.1 805.74 117.4 808.68 121.57" stroke="#A56F42" stroke-width="0.75" stroke-linecap="round" stroke-linejoin="round"/>
<path d="M748.79 260C748.19 271.32 732.11 288.25 715.35 252.91C706.63 234.53 705.64 210.32 702.55 190.99C701.394 185.281 699.406 179.772 696.65 174.64C693.39 168.99 685.11 156.7 687.74 155.82C690.37 154.94 698.03 163.82 698.03 163.82C698.03 163.82 689.12 145.57 692.51 144.77C695.9 143.97 703.93 160.25 703.93 160.25C700.67 145.95 699.78 138.81 702.72 138.55C705.21 138.33 709.01 152.87 711.3 159.08C712.14 161.36 713.41 160.46 713.3 158.57C713.19 156.68 710.09 138.46 715.3 142.86C718.9 145.92 721.82 168.38 721.82 168.38C721.82 168.38 724 166.8 725.82 161.67C727.33 157.47 731.72 158.24 730.82 166.25C729.92 174.26 723.67 185.25 723.67 185.25C723.42 190.77 729.06 207.25 731.44 212.1C733.82 216.95 743 237.72 743 237.72C743 237.72 749.41 248.2 748.79 260Z" fill="#FEBD9D"/>
<path d="M693.28 169C689.76 163.2 685.81 156.41 687.74 155.76C690.38 154.88 698.03 163.76 698.03 163.76C698.03 163.76 689.12 145.51 692.51 144.71C695.9 143.91 703.93 160.19 703.93 160.19C700.67 145.89 699.78 138.75 702.72 138.49C705.21 138.27 709.01 152.81 711.3 159.02C712.14 161.3 713.41 160.4 713.3 158.51C713.19 156.62 710.09 138.4 715.3 142.8C718.9 145.86 721.82 168.32 721.82 168.32C721.82 168.32 724 166.74 725.82 161.61C727.33 157.41 731.72 158.18 730.82 166.19C730.37 170.32 728.47 175.24 726.75 179.04" stroke="#EF8A66" stroke-width="0.75" stroke-linecap="round" stroke-linejoin="round"/>
<path d="M701 163.62C704.3 161.24 710.25 160.98 710.25 160.98" stroke="#EF8A66" stroke-width="0.75" stroke-linecap="round" stroke-linejoin="round"/>
<path d="M721.74 168.32C721.74 168.32 714.93 167.32 712.89 174.08" stroke="#EF8A66" stroke-width="0.75" stroke-linecap="round" stroke-linejoin="round"/>
<path d="M749.13 255C747.681 249.046 745.627 243.256 743 237.72" stroke="#EF8A66" stroke-width="0.75" stroke-linecap="round" stroke-linejoin="round"/>
<path d="M722.82 162.3C722.82 162.3 729.6 166.3 729.6 166.04C729.6 165.78 738.88 148.91 738.88 148.91L729.77 144.71L722.82 162.3Z" stroke="#DDDDDD" stroke-linecap="round" stroke-linejoin="round"/>
<path d="M710.27 149.57L721.74 146.75L717.31 122.42L705.1 125.07L710.27 149.57Z" stroke="#DDDDDD" stroke-linecap="round" stroke-linejoin="round"/>
<path d="M689.63 123.46L702.31 120.97L707.41 143.8L697.01 145.56L689.63 123.46Z" stroke="#DDDDDD" stroke-linecap="round" stroke-linejoin="round"/>
<path d="M670.46 146.74L681.06 138.49L692.89 157.14L684.39 163.76L670.46 146.74Z" stroke="#DDDDDD" stroke-linecap="round" stroke-linejoin="round"/>
<path d="M585.44 292.37C579.32 303.92 573.62 330.15 571.31 341.97C571.31 341.97 591.31 349.85 623.07 348.76C654.83 347.67 661.25 342.1 661.25 342.1C661.25 342.1 665.06 304.47 655 288.57L585.44 292.37Z" fill="#FED81D"/>
<path d="M712.23 233.56H707.08V238.71H712.23V233.56Z" stroke="white" stroke-width="0.75" stroke-linecap="round" stroke-linejoin="round"/>
<path d="M687.15 233.56H682V238.71H687.15V233.56Z" stroke="white" stroke-width="0.75" stroke-linecap="round" stroke-linejoin="round"/>
<path d="M662.06 233.56H656.91V238.71H662.06V233.56Z" stroke="white" stroke-width="0.75" stroke-linecap="round" stroke-linejoin="round"/>
<path d="M636.98 233.56H631.83V238.71H636.98V233.56Z" stroke="white" stroke-width="0.75" stroke-linecap="round" stroke-linejoin="round"/>
<path d="M611.9 233.56H606.75V238.71H611.9V233.56Z" stroke="white" stroke-width="0.75" stroke-linecap="round" stroke-linejoin="round"/>
<path d="M586.81 233.56H581.66V238.71H586.81V233.56Z" stroke="white" stroke-width="0.75" stroke-linecap="round" stroke-linejoin="round"/>
<path d="M561.73 233.56H556.58V238.71H561.73V233.56Z" stroke="white" stroke-width="0.75" stroke-linecap="round" stroke-linejoin="round"/>
<path d="M712.23 265.38H707.08V270.53H712.23V265.38Z" stroke="white" stroke-width="0.75" stroke-linecap="round" stroke-linejoin="round"/>
<path d="M687.15 265.38H682V270.53H687.15V265.38Z" stroke="white" stroke-width="0.75" stroke-linecap="round" stroke-linejoin="round"/>
<path d="M662.06 265.38H656.91V270.53H662.06V265.38Z" stroke="white" stroke-width="0.75" stroke-linecap="round" stroke-linejoin="round"/>
<path d="M636.98 265.38H631.83V270.53H636.98V265.38Z" stroke="white" stroke-width="0.75" stroke-linecap="round" stroke-linejoin="round"/>
<path d="M611.9 265.38H606.75V270.53H611.9V265.38Z" stroke="white" stroke-width="0.75" stroke-linecap="round" stroke-linejoin="round"/>
<path d="M586.81 265.38H581.66V270.53H586.81V265.38Z" stroke="white" stroke-width="0.75" stroke-linecap="round" stroke-linejoin="round"/>
<path d="M561.73 265.38H556.58V270.53H561.73V265.38Z" stroke="white" stroke-width="0.75" stroke-linecap="round" stroke-linejoin="round"/>
<path d="M712.23 297.21H707.08V302.36H712.23V297.21Z" stroke="white" stroke-width="0.75" stroke-linecap="round" stroke-linejoin="round"/>
<path d="M687.15 297.21H682V302.36H687.15V297.21Z" stroke="white" stroke-width="0.75" stroke-linecap="round" stroke-linejoin="round"/>
<path d="M662.06 297.21H656.91V302.36H662.06V297.21Z" stroke="white" stroke-width="0.75" stroke-linecap="round" stroke-linejoin="round"/>
<path d="M636.98 297.21H631.83V302.36H636.98V297.21Z" stroke="white" stroke-width="0.75" stroke-linecap="round" stroke-linejoin="round"/>
<path d="M611.9 297.21H606.75V302.36H611.9V297.21Z" stroke="white" stroke-width="0.75" stroke-linecap="round" stroke-linejoin="round"/>
<path d="M586.81 297.21H581.66V302.36H586.81V297.21Z" stroke="white" stroke-width="0.75" stroke-linecap="round" stroke-linejoin="round"/>
<path d="M561.73 297.21H556.58V302.36H561.73V297.21Z" stroke="white" stroke-width="0.75" stroke-linecap="round" stroke-linejoin="round"/>
<path d="M712.23 329.04H707.08V334.19H712.23V329.04Z" stroke="white" stroke-width="0.75" stroke-linecap="round" stroke-linejoin="round"/>
<path d="M687.15 329.04H682V334.19H687.15V329.04Z" stroke="white" stroke-width="0.75" stroke-linecap="round" stroke-linejoin="round"/>
<path d="M662.06 329.04H656.91V334.19H662.06V329.04Z" stroke="white" stroke-width="0.75" stroke-linecap="round" stroke-linejoin="round"/>
<path d="M636.98 329.04H631.83V334.19H636.98V329.04Z" stroke="white" stroke-width="0.75" stroke-linecap="round" stroke-linejoin="round"/>
<path d="M611.9 329.04H606.75V334.19H611.9V329.04Z" stroke="white" stroke-width="0.75" stroke-linecap="round" stroke-linejoin="round"/>
<path d="M586.81 329.04H581.66V334.19H586.81V329.04Z" stroke="white" stroke-width="0.75" stroke-linecap="round" stroke-linejoin="round"/>
<path d="M561.73 329.04H556.58V334.19H561.73V329.04Z" stroke="white" stroke-width="0.75" stroke-linecap="round" stroke-linejoin="round"/>
<path d="M549.6 215.07H539.31V225.36H549.6V215.07Z" stroke="white" stroke-width="0.75" stroke-linecap="round" stroke-linejoin="round"/>
<path d="M575.3 215.07H565.01V225.36H575.3V215.07Z" stroke="white" stroke-width="0.75" stroke-linecap="round" stroke-linejoin="round"/>
<path d="M601 215.07H590.71V225.36H601V215.07Z" stroke="white" stroke-width="0.75" stroke-linecap="round" stroke-linejoin="round"/>
<path d="M626.7 215.07H616.41V225.36H626.7V215.07Z" stroke="white" stroke-width="0.75" stroke-linecap="round" stroke-linejoin="round"/>
<path d="M652.4 215.07H642.11V225.36H652.4V215.07Z" stroke="white" stroke-width="0.75" stroke-linecap="round" stroke-linejoin="round"/>
<path d="M678.09 215.07H667.8V225.36H678.09V215.07Z" stroke="white" stroke-width="0.75" stroke-linecap="round" stroke-linejoin="round"/>
<path d="M703.79 215.07H693.5V225.36H703.79V215.07Z" stroke="white" stroke-width="0.75" stroke-linecap="round" stroke-linejoin="round"/>
<path d="M729.49 215.07H719.2V225.36H729.49V215.07Z" stroke="white" stroke-width="0.75" stroke-linecap="round" stroke-linejoin="round"/>
<path d="M549.6 246.9H539.31V257.19H549.6V246.9Z" stroke="white" stroke-width="0.75" stroke-linecap="round" stroke-linejoin="round"/>
<path d="M575.3 246.9H565.01V257.19H575.3V246.9Z" stroke="white" stroke-width="0.75" stroke-linecap="round" stroke-linejoin="round"/>
<path d="M601 246.9H590.71V257.19H601V246.9Z" stroke="white" stroke-width="0.75" stroke-linecap="round" stroke-linejoin="round"/>
<path d="M626.7 246.9H616.41V257.19H626.7V246.9Z" stroke="white" stroke-width="0.75" stroke-linecap="round" stroke-linejoin="round"/>
<path d="M652.4 246.9H642.11V257.19H652.4V246.9Z" stroke="white" stroke-width="0.75" stroke-linecap="round" stroke-linejoin="round"/>
<path d="M678.09 246.9H667.8V257.19H678.09V246.9Z" stroke="white" stroke-width="0.75" stroke-linecap="round" stroke-linejoin="round"/>
<path d="M703.79 246.9H693.5V257.19H703.79V246.9Z" stroke="white" stroke-width="0.75" stroke-linecap="round" stroke-linejoin="round"/>
<path d="M729.49 246.9H719.2V257.19H729.49V246.9Z" stroke="white" stroke-width="0.75" stroke-linecap="round" stroke-linejoin="round"/>
<path d="M549.6 278.72H539.31V289.01H549.6V278.72Z" stroke="white" stroke-width="0.75" stroke-linecap="round" stroke-linejoin="round"/>
<path d="M575.3 278.72H565.01V289.01H575.3V278.72Z" stroke="white" stroke-width="0.75" stroke-linecap="round" stroke-linejoin="round"/>
<path d="M601 278.72H590.71V289.01H601V278.72Z" stroke="white" stroke-width="0.75" stroke-linecap="round" stroke-linejoin="round"/>
<path d="M626.7 278.72H616.41V289.01H626.7V278.72Z" stroke="white" stroke-width="0.75" stroke-linecap="round" stroke-linejoin="round"/>
<path d="M652.4 278.72H642.11V289.01H652.4V278.72Z" stroke="white" stroke-width="0.75" stroke-linecap="round" stroke-linejoin="round"/>
<path d="M678.09 278.72H667.8V289.01H678.09V278.72Z" stroke="white" stroke-width="0.75" stroke-linecap="round" stroke-linejoin="round"/>
<path d="M703.79 278.72H693.5V289.01H703.79V278.72Z" stroke="white" stroke-width="0.75" stroke-linecap="round" stroke-linejoin="round"/>
<path d="M729.49 278.72H719.2V289.01H729.49V278.72Z" stroke="white" stroke-width="0.75" stroke-linecap="round" stroke-linejoin="round"/>
<path d="M549.6 310.55H539.31V320.84H549.6V310.55Z" stroke="white" stroke-width="0.75" stroke-linecap="round" stroke-linejoin="round"/>
<path d="M575.3 310.55H565.01V320.84H575.3V310.55Z" stroke="white" stroke-width="0.75" stroke-linecap="round" stroke-linejoin="round"/>
<path d="M601 310.55H590.71V320.84H601V310.55Z" stroke="white" stroke-width="0.75" stroke-linecap="round" stroke-linejoin="round"/>
<path d="M626.7 310.55H616.41V320.84H626.7V310.55Z" stroke="white" stroke-width="0.75" stroke-linecap="round" stroke-linejoin="round"/>
<path d="M652.4 310.55H642.11V320.84H652.4V310.55Z" stroke="white" stroke-width="0.75" stroke-linecap="round" stroke-linejoin="round"/>
<path d="M678.09 310.55H667.8V320.84H678.09V310.55Z" stroke="white" stroke-width="0.75" stroke-linecap="round" stroke-linejoin="round"/>
<path d="M703.79 310.55H693.5V320.84H703.79V310.55Z" stroke="white" stroke-width="0.75" stroke-linecap="round" stroke-linejoin="round"/>
<path d="M729.49 310.55H719.2V320.84H729.49V310.55Z" stroke="white" stroke-width="0.75" stroke-linecap="round" stroke-linejoin="round"/>
<path d="M593.79 284C593.79 284 581.2 294.46 580.54 295.67C572.29 308.84 547.85 319.37 536.26 305.44C521.48 287.66 553.18 273 553.18 273C553.18 273 556.18 266.93 556.28 266.52L589.2 273L593.79 284Z" fill="#FEBD9D"/>
<path d="M668.38 229.77C667.51 236.28 661.98 275.9 659.23 284.95C656.48 294 650.29 296.76 646.76 296.76C644.63 296.76 636.19 297.04 626.16 297.41C619.58 297.64 612.31 297.93 605.71 298.19C589.04 298.85 580.54 295.66 580.54 295.66L580.92 294.95L588.16 281.63C582.981 282.688 577.652 282.78 572.44 281.9C571.09 281.665 569.755 281.355 568.44 280.97C562.51 279.25 558.04 274.24 555.34 270.33C554.205 268.703 553.202 266.987 552.34 265.2C556.778 254.545 561.847 244.163 567.52 234.11C572.05 226.2 575.61 221.17 577.28 219.5C580.59 216.2 590.63 213.22 599.38 211.42L615.24 207.14C615.24 207.14 625.73 180.99 625.73 180.66C625.73 180.33 658.5 171.73 658.5 171.73C664.63 184.216 668.255 197.781 669.17 211.66C669.519 217.708 669.255 223.776 668.38 229.77Z" fill="#C3DCF8"/>
<path d="M626.16 297.41C619.58 297.64 612.31 297.93 605.71 298.19C589.04 298.85 580.54 295.66 580.54 295.66L580.92 294.95L588.16 281.63C593.186 271.612 597.61 261.304 601.41 250.76C601.49 250.52 601.59 250.29 601.67 250.06C603.076 252.706 603.766 255.675 603.67 258.67C603.46 266.47 588.79 286.99 599.95 291.59C610.74 296 619.09 288.5 626.16 297.41Z" fill="#A7CAF0"/>
<path d="M669.12 211.66C663.94 216.08 658.01 222.5 656.68 229.59C654.19 242.77 636.23 255.37 617.76 240.15C602.37 227.47 590.34 224.04 567.47 234.15C572 226.24 575.56 221.21 577.23 219.54C580.54 216.24 590.58 213.26 599.33 211.46L615.19 207.18C615.19 207.18 618.4 151.5 618.4 151.18C618.4 150.86 654.47 159 654.47 159C662 174.62 668.5 201.21 669.12 211.66Z" fill="#D0E5F7"/>
<path d="M640.19 207.14C642.693 206.907 645.159 206.366 647.53 205.53" stroke="#83ADDF" stroke-width="0.75" stroke-linecap="round" stroke-linejoin="round"/>
<path d="M588.16 281.63C593.186 271.612 597.61 261.304 601.41 250.76C601.49 250.52 601.59 250.29 601.67 250.06C602.337 248.173 603.003 246.247 603.67 244.28" stroke="#83ADDF" stroke-width="0.75" stroke-linecap="round" stroke-linejoin="round"/>
<path d="M536.28 305.46C525.33 294.01 521.35 274.35 518.92 264.95C515.92 253.48 510.29 221.24 509.61 216.38C508.93 211.52 512.32 196.28 512.32 196.28C515.59 195.07 521.54 197.39 527.32 200.45L525.95 206.33C525.706 210.036 524.827 213.672 523.35 217.08C525.082 218.402 526.528 220.062 527.6 221.96L538.87 218.96C536.52 225.13 533.87 232.64 533.93 234.96C534.06 239.18 537.84 248.83 542.02 255.03C546.2 261.23 553.18 273 553.18 273C574.49 296.12 559.58 324.31 536.28 305.46Z" fill="#FEBD9D"/>
<path d="M512.29 196.25C512.29 196.25 508.92 211.5 509.59 216.35" stroke="#EF8A66" stroke-width="0.75" stroke-linecap="round" stroke-linejoin="round"/>
<path d="M515.4 174.59C515.4 174.59 519.62 201.9 521.07 211.52C509.27 212.89 504.39 195.25 513.36 189.08C505.25 183.83 505.03 168.15 515.22 166.19C512.79 158.12 525.22 147.94 534.04 153.7C536.9 143.26 552.66 142.81 558.19 151.51L518.63 162L519.41 173.33C518 173.76 516.63 174.18 515.4 174.59Z" fill="#DDDDDD"/>
<path d="M522.26 214.68L522.84 223.17L567.48 211.42C567.48 211.42 569.84 191.66 562.28 153.48C562.1 152.48 561.91 151.57 561.7 150.59L558.19 151.51L555.05 152.35L518.63 162L519.41 173.33" fill="#EDEDED"/>
<path d="M522.26 214.68L522.84 223.17L567.48 211.42C567.48 211.42 569.84 191.66 562.28 153.48C562.1 152.48 561.91 151.57 561.7 150.59L558.19 151.51L555.05 152.35L518.63 162L519.41 173.33" stroke="#DDDDDD" stroke-linecap="round" stroke-linejoin="round"/>
<path d="M554.38 203.78C554.38 203.78 521.54 215.33 521.54 214.78C521.54 214.69 521.35 213.47 521.07 211.5C519.62 201.88 515.4 174.57 515.4 174.57C516.63 174.16 517.97 173.74 519.4 173.3C531.05 169.77 548.05 165.5 548.05 165.5L554.38 203.78Z" fill="#DDDDDD"/>
<path d="M523.3 182.02L540.86 177.69" stroke="white" stroke-linecap="round" stroke-linejoin="round"/>
<path d="M524.53 188.99L544.72 184.42" stroke="white" stroke-linecap="round" stroke-linejoin="round"/>
<path d="M528.39 195.92L540.86 192.92" stroke="white" stroke-linecap="round" stroke-linejoin="round"/>
<path d="M511.6 216.89C514.86 209.89 522.22 202.15 525 204.09C527.78 206.03 523.3 217.09 523.3 217.09C526.885 219.897 529.229 223.996 529.83 228.51C529.83 228.51 514.37 234.88 511.6 216.89Z" fill="#FEBD9D"/>
<path d="M511.6 216.89C514.86 209.89 522.22 202.15 525 204.09C527.78 206.03 523.3 217.09 523.3 217.09C526.885 219.897 529.229 223.996 529.83 228.51" stroke="#EF8A66" stroke-width="0.75" stroke-linecap="round" stroke-linejoin="round"/>
<path d="M597.67 80.24C594.32 69.47 592.25 62.05 590.27 57.04C587.52 50.04 590.83 45.97 595.74 56.51C597.91 61.18 600.51 66.91 600.51 66.91C600.51 66.91 608.73 65.51 612.51 68.6C616.29 71.69 619.09 78.91 620.23 91.02C620.23 91.02 628.6 108.08 631.44 114.33C634.28 120.58 647.85 148.05 654.44 159.02C660.53 176.36 623.72 190.17 618.37 151.14C618.37 151.14 611.95 131.48 610.49 124.14C609.03 116.8 603.01 96.44 603.01 96.44C603.01 96.44 592.86 86.04 591.64 84.44C590.42 82.84 585.64 70.55 587.64 69.73C589.64 68.91 592.84 71.36 595.28 79L597.67 80.24Z" fill="#FEBD9D"/>
<path d="M591.67 84.44C590.46 82.81 585.67 70.55 587.67 69.73C589.67 68.91 592.87 71.36 595.31 79L597.65 80.24C594.3 69.47 592.23 62.05 590.25 57.04C587.5 50.04 590.81 45.97 595.72 56.51C597.89 61.18 600.49 66.91 600.49 66.91C600.49 66.91 606.39 65.91 610.49 67.47" stroke="#EF8A66" stroke-width="0.75" stroke-linecap="round" stroke-linejoin="round"/>
<path d="M600.51 66.91L602.58 71.68" stroke="#EF8A66" stroke-width="0.75" stroke-linecap="round" stroke-linejoin="round"/>
<path d="M605.58 66.62L607.67 71.24" stroke="#EF8A66" stroke-width="0.75" stroke-linecap="round" stroke-linejoin="round"/>
<path d="M610.32 67.37L612.41 72" stroke="#EF8A66" stroke-width="0.75" stroke-linecap="round" stroke-linejoin="round"/>
<path d="M646.93 157.37C653.63 155.27 658.93 156.23 660.82 164.21C662.71 172.19 653.91 179.21 644.93 177.4L646.93 157.37Z" fill="#B57724"/>
<path d="M651.71 165.52C651.579 167.878 651.121 170.207 650.35 172.44C648.315 177.985 644.805 182.871 640.2 186.57L636.2 193.25C636.2 193.25 606.35 199.36 606.78 152.61C603.96 149.17 604.86 141.61 613.08 135.61C625.34 126.73 645.65 137.17 642.53 151.36C642.5 151.36 652.43 151.11 651.71 165.52Z" fill="#BF8228"/>
<path d="M609.32 150.5C607.57 144.5 613.13 137.7 615.06 136.73" stroke="#9B621F" stroke-width="0.75" stroke-linecap="round" stroke-linejoin="round"/>
<path d="M650.35 172.44C648.315 177.985 644.805 182.871 640.2 186.57L636.2 193.25C636.2 193.25 606.35 199.36 606.78 152.61L616.78 138.85C616.54 139.43 612.53 158.46 619.78 175.33C625.84 189.51 645.15 180.13 650.35 172.44Z" fill="#B57724"/>
<path d="M640.19 186.59C638.374 192.138 637.466 197.943 637.5 203.78C628.04 208.59 618.45 209.7 608.67 205.55C608.67 205.55 609.2 202.64 609.56 199.47C609.82 197.511 609.924 195.535 609.87 193.56C601.65 193.67 596.11 187.28 595.92 177.89C595.882 174.779 596.331 171.682 597.25 168.71C597.705 167.194 598.252 165.708 598.89 164.26C598.89 164.26 596.96 161.96 597.23 160.21C597.5 158.46 603.03 155.78 603.03 155.78C607.91 146.28 616.77 138.78 616.77 138.78C616.77 138.78 610.09 146.94 611.87 160.1C611.87 160.1 618.94 155.32 620.43 163.66C621.69 170.71 616.11 174.26 614.09 175.29C613.875 175.405 613.655 175.508 613.43 175.6C613.43 175.6 615.19 188.12 626.83 189.84C629.16 190.259 631.553 190.186 633.853 189.626C636.154 189.066 638.312 188.032 640.19 186.59Z" fill="#FEBD9D"/>
<path d="M607.33 156.56C608.12 156.56 608.76 155.92 608.76 155.13C608.76 154.34 608.12 153.7 607.33 153.7C606.54 153.7 605.9 154.34 605.9 155.13C605.9 155.92 606.54 156.56 607.33 156.56Z" fill="#683F1D"/>
<path d="M631.26 151.74C640.67 148.74 643.26 166.19 639.65 172.74C636.57 178.31 623.12 177.29 621.94 167.34C620.76 157.39 629.1 152.43 631.26 151.74Z" fill="#B57724"/>
<path d="M630.08 156.16C631.87 153.16 634.74 154.04 636.24 156.27C637.74 158.5 639.15 164.93 634.18 165.47C628.08 166.13 628.06 159.54 630.08 156.16Z" fill="#BF8228"/>
<path d="M609.6 166.19C612.09 162.93 615.73 162.75 617.05 164.56" stroke="#EF8A66" stroke-width="0.75" stroke-linecap="round" stroke-linejoin="round"/>
<path d="M610.05 165.65C615.42 164.33 614.7 173.26 608.54 170.12" stroke="#EF8A66" stroke-width="0.75" stroke-linecap="round" stroke-linejoin="round"/>
<path d="M614.1 175.33C612.17 176.003 610.09 176.114 608.1 175.65" stroke="#EF8A66" stroke-width="0.75" stroke-linecap="round" stroke-linejoin="round"/>
<path d="M629.57 152.54C629.57 152.54 620.87 163.33 627.5 168.7C634.13 174.07 638.82 167.05 638.82 167.05" stroke="#9B621F" stroke-width="0.75" stroke-linecap="round" stroke-linejoin="round"/>
<path d="M624.45 153.7C621.813 149.854 620.142 145.429 619.58 140.8" stroke="#9B621F" stroke-width="0.75" stroke-linecap="round" stroke-linejoin="round"/>
<path d="M609.67 147.62C610.91 145.94 614.44 149.35 614.44 152.2C614.44 153.64 607.74 150.24 609.67 147.62Z" fill="#BF8228"/>
<path d="M616.78 138.82C616.78 138.82 632.31 130.31 640.65 152.54" stroke="#9B621F" stroke-width="0.75" stroke-linecap="round" stroke-linejoin="round"/>
<path d="M622.36 140.32C625.81 142.5 631.01 149.32 631.01 149.32" stroke="#9B621F" stroke-width="0.75" stroke-linecap="round" stroke-linejoin="round"/>
<path d="M631.3 154.79C630.8 157.17 628.39 164.05 636.88 163.41" stroke="#9B621F" stroke-width="0.75" stroke-linecap="round" stroke-linejoin="round"/>
<path d="M650.69 171.38C650.69 171.38 659.76 167.15 657.48 160.2" stroke="#9B621F" stroke-width="0.75" stroke-linecap="round" stroke-linejoin="round"/>
<path d="M651.68 162.29C653.19 161.82 654.84 158.72 654.84 158.72" stroke="#9B621F" stroke-width="0.75" stroke-linecap="round" stroke-linejoin="round"/>
<path d="M618.05 172.31C620.41 174.31 625.49 184.7 643.79 178.42" stroke="#9B621F" stroke-width="0.75" stroke-linecap="round" stroke-linejoin="round"/>
<path d="M639.18 155.67C649.07 157.79 647.4 168.16 644.93 172.31" stroke="#9B621F" stroke-width="0.75" stroke-linecap="round" stroke-linejoin="round"/>
<path d="M600.33 168.19C600.74 169.88 602.86 170.82 605.07 170.28C607.28 169.74 608.72 167.94 608.31 166.28C607.9 164.62 605.77 163.65 603.57 164.19C601.37 164.73 599.92 166.5 600.33 168.19Z" fill="#F4AF90"/>
<path d="M621.17 183.91C627.17 187.61 637.83 186.98 644.5 182.41" stroke="#9B621F" stroke-width="0.75" stroke-linecap="round" stroke-linejoin="round"/>
<path d="M617.05 141.38C616.05 147.03 617.37 155.62 618.8 157.8" stroke="#9B621F" stroke-width="0.75" stroke-linecap="round" stroke-linejoin="round"/>
<path d="M619.58 170.08C623.12 173.7 631.74 177.55 639.3 173.3" stroke="#9B621F" stroke-width="0.75" stroke-linecap="round" stroke-linejoin="round"/>
<path d="M602.29 171.1C601.637 172.151 600.72 173.012 599.63 173.598C598.541 174.184 597.317 174.474 596.08 174.44C596.222 173.093 596.453 171.757 596.77 170.44C596.86 170.08 596.96 169.7 597.07 169.32C598.541 170.518 600.393 171.15 602.29 171.1Z" fill="white" stroke="#EF8A66" stroke-width="0.75" stroke-linecap="round" stroke-linejoin="round"/>
<path d="M598.9 164.26C598.9 164.26 596.79 161.57 597.24 160.21C597.69 158.85 601.17 156.49 603.04 155.78" stroke="#EF8A66" stroke-width="0.75" stroke-linecap="round" stroke-linejoin="round"/>
<path d="M617 191.27C616.966 193.313 616.187 195.274 614.81 196.784C613.433 198.293 611.552 199.249 609.52 199.47C609.78 197.511 609.884 195.535 609.83 193.56C613.32 194.08 617 191.27 617 191.27Z" fill="#F4A789"/>
<path d="M399.19 65.72C398.623 65.6846 398.059 65.6145 397.5 65.51L375.9 94.51L375.27 94.36L360.2 90.62C355.5 92.62 353.48 88.04 354.94 84.68C354.38 85.26 350.72 84.9 352.37 81.1C348.9 82 345.88 74.28 350.7 71.93C346.56 72.41 348.19 63.22 352.59 64.93C349.1 62.65 354.2 52.7 360.2 56C357.97 53.72 361.33 48.52 365.2 50.17C362.6 45.92 372.2 38.57 377.55 45.23C377.95 42.23 381.86 41.18 383.55 44.44C383.42 40.65 390.49 39.73 389.96 45.88C392.29 42.88 398.04 47.79 395.11 51.76C398.43 47.95 405.98 53.33 401.88 57.85C406.51 59.52 406.1 66.09 399.19 65.72Z" fill="#604730"/>
<path d="M399.19 65.72C398.623 65.6846 398.059 65.6145 397.5 65.51L375.9 94.51L375.27 94.36L371.82 88.59C362.07 89.33 359.38 82.67 363.23 77.53C360.23 76.09 361.32 65.94 367.53 66.53C365.84 63.18 370.04 53.81 379.03 58.12C380.03 54.25 386.03 52.64 389.76 58.12C391.31 54.74 400.72 54.58 399.19 65.72Z" fill="#473526"/>
<path d="M390.67 112.21C389.28 126.21 368.24 123.31 369.15 113.95C369.168 109.388 368.783 104.834 368 100.34C363 100.09 360.08 98.03 360.25 92.75C360.42 87.47 366.85 83.27 373.78 87.97C374.453 86.2423 374.67 84.3704 374.409 82.5347C374.148 80.6991 373.418 78.9617 372.29 77.49C368.4 72 374.09 65 379.37 65C384.65 65 395.37 65.25 395.21 59.39C399.218 66.112 402.318 73.3347 404.43 80.87C404.52 81.18 404.6 81.49 404.68 81.8C405.14 83.58 405.54 85.42 405.85 87.28C405.91 87.62 405.96 87.97 406.02 88.28C406.08 88.59 406.1 88.77 406.13 89.02C408.36 104.12 405.45 113.4 390.67 112.21Z" fill="#B25E47"/>
<path d="M386.9 79C386.898 79.2856 386.981 79.5654 387.139 79.8037C387.296 80.0421 387.521 80.2282 387.784 80.3384C388.048 80.4486 388.338 80.478 388.619 80.4227C388.899 80.3675 389.156 80.2302 389.358 80.0282C389.56 79.8262 389.698 79.5687 389.753 79.2884C389.808 79.0082 389.779 78.7178 389.669 78.4543C389.558 78.1907 389.372 77.966 389.134 77.8085C388.896 77.651 388.616 77.568 388.33 77.57C387.952 77.5726 387.59 77.7241 387.322 77.9917C387.054 78.2593 386.903 78.6215 386.9 79Z" fill="#683F1D"/>
<path d="M396.55 76.1C396.534 76.2985 396.558 76.4983 396.623 76.6868C396.688 76.8752 396.791 77.0482 396.925 77.1948C397.06 77.3414 397.224 77.4585 397.406 77.5385C397.589 77.6186 397.786 77.6599 397.985 77.6599C398.184 77.6599 398.381 77.6186 398.564 77.5385C398.746 77.4585 398.91 77.3414 399.045 77.1948C399.18 77.0482 399.283 76.8752 399.347 76.6868C399.412 76.4983 399.437 76.2985 399.42 76.1C399.39 75.7401 399.226 75.4047 398.96 75.1601C398.694 74.9156 398.346 74.7799 397.985 74.7799C397.624 74.7799 397.276 74.9156 397.01 75.1601C396.744 75.4047 396.58 75.7401 396.55 76.1Z" fill="#683F1D"/>
<path d="M371.82 95.9999C367.72 98.1699 365.55 92.7199 370.47 91.8999C369.892 91.5026 369.237 91.2313 368.547 91.1036C367.858 90.9759 367.149 90.9947 366.467 91.1588C365.785 91.3229 365.146 91.6286 364.59 92.0561C364.034 92.4835 363.574 93.0232 363.24 93.6399" stroke="#934735" stroke-width="0.75" stroke-linecap="round" stroke-linejoin="round"/>
<path d="M393.18 68.49C392.78 71.84 392.7 75.58 393.18 76.1C393.66 76.62 399.64 80.71 400.4 81.22C401.16 81.73 399.6 83.95 397.19 84.8" stroke="#934735" stroke-width="0.75" stroke-linecap="round" stroke-linejoin="round"/>
<path d="M391.92 99.77C394.75 101.48 401.33 94.59 398.78 91.89C394.42 87.28 389.81 98.49 391.92 99.77Z" fill="white" stroke="#934735" stroke-width="0.75" stroke-linecap="round" stroke-linejoin="round"/>
<path d="M379.38 71.19C382.53 66.12 387.62 64.9 388.25 66.79C389.45 70.38 376.8 75.34 379.38 71.19Z" fill="#604730"/>
<path d="M395.37 70.4099C395.37 68.4699 400.37 70.7399 400.91 72.1699C401.45 73.5999 395.33 73.1099 395.37 70.4099Z" fill="#604730"/>
<path d="M391.05 89.0799C390.55 91.1899 387.62 92.3099 384.51 91.5799C381.4 90.8499 379.27 88.5799 379.76 86.4299C380.25 84.2799 383.19 83.1999 386.3 83.9299C389.41 84.6599 391.54 86.9999 391.05 89.0799Z" fill="#A0503D"/>
<path d="M406 88.2699C405.364 88.3981 404.706 88.3544 404.092 88.1435C403.479 87.9326 402.933 87.562 402.51 87.0699C401.28 85.4199 402.16 82.7099 404.41 80.8199C404.5 81.1299 404.58 81.4399 404.66 81.7499C405.12 83.5299 405.52 85.3699 405.83 87.2299C405.91 87.5699 406 87.9199 406 88.2699Z" fill="#A0503D"/>
<path d="M424.31 358.27H424.36C424.36 358.27 428.53 349.44 422.01 344.95C417.12 341.58 406.31 342.24 404.55 339.12C404.09 338.31 408.32 330.82 414 321.49C421.54 309.16 431.64 293.62 436.86 286.13C446 273 451.08 258.74 435.31 242C426.19 234.27 412.74 243.75 404.63 265.5C401.71 273.35 391.09 301.28 386.57 313.1C382.57 323.57 379.81 330.4 378.62 332.39C378.43 332.72 378.2 333.12 377.97 333.55C375.19 338.78 369.97 351.27 372.51 356.67" fill="#B25E47"/>
<path d="M424.36 358.26C424.36 358.26 376.19 362.33 372.51 356.69C368.98 351.28 376.12 336.69 378.62 332.41C379.81 330.41 382.54 323.59 386.57 313.12C395.25 311.72 405.85 312.44 414 321.48C408.32 330.81 404.09 338.3 404.55 339.11C406.31 342.23 417.12 341.57 422.01 344.94C428.53 349.43 424.36 358.26 424.36 358.26Z" fill="#683F1D"/>
<path d="M405.36 340C401.66 338.471 398.074 336.68 394.63 334.64C390.14 331.91 383.77 331.72 378 333.54C378.22 333.12 378.44 332.76 378.62 332.45C379.81 330.45 382.54 323.63 386.57 313.16C395.25 311.76 405.85 312.48 414 321.52C408.32 330.85 404.09 338.34 404.55 339.15C404.752 339.491 405.029 339.782 405.36 340Z" fill="white"/>
<path d="M407.3 343.68C412.59 336.33 420.81 332.68 420.92 337.06C421.03 341.44 408.66 345.75 408.66 345.75" stroke="#683F1D" stroke-width="0.75" stroke-linecap="round" stroke-linejoin="round"/>
<path d="M407.3 341.62C406.87 335.47 413.98 326.14 417.09 327.2C421.35 328.66 411.87 339.2 405.96 343.99" stroke="#683F1D" stroke-width="0.75" stroke-linecap="round" stroke-linejoin="round"/>
<path d="M491.73 43.9399C494.31 34.9399 495.02 24.8399 497.73 24.4599C500.44 24.0799 499.46 31.7899 499.46 31.7899L502.05 34.8599L492.94 45.9999L491.73 43.9399Z" fill="#B25E47"/>
<path d="M493.3 37.5099C494.76 30.6999 495.67 24.7499 497.76 24.5099C500.51 24.1299 499.49 31.8399 499.49 31.8399" stroke="#934735" stroke-width="0.75" stroke-linecap="round" stroke-linejoin="round"/>
<path d="M527.15 39.6599C525.248 41.0993 523.243 42.3961 521.15 43.5399C521.15 43.5399 515.51 55.7099 508.4 57.9999C508.4 57.9999 502.6 75.3099 495.4 92.1599C488.2 109.01 469.17 125.36 469.17 125.36C443.06 141.26 421.63 110 452.87 90.9999C456.091 88.8903 459.105 86.4795 461.87 83.7999C479.21 66.6499 506.57 20.1299 509.3 15.9299C512.03 11.7299 514.59 12.6499 512.4 19.0299C510.29 25.2199 508.68 30.0299 508.59 30.3399C509.02 29.8999 520.19 18.6899 522.59 16.6599C524.83 14.7999 528.25 16.4799 524.23 22.4999C528.23 17.2999 532.06 17.8799 528.23 25.2399C525.86 29.7899 520.34 36.8399 520 37.2399C520.53 36.9699 529.46 32.2999 532 32.8299C534.54 33.3599 531.11 36.7999 527.15 39.6599Z" fill="#B25E47"/>
<path d="M497.62 34.75C503.76 25.03 508.26 17.48 509.29 15.9C512.03 11.71 514.58 12.6199 512.39 18.9999C510.28 25.1899 508.67 29.9999 508.58 30.3099C509.01 29.8699 520.18 18.6599 522.58 16.6299C524.82 14.7699 528.24 16.45 524.22 22.47C528.22 17.27 532.05 17.8499 528.22 25.2099C525.85 29.7599 520.33 36.81 519.99 37.21C520.52 36.94 529.45 32.27 531.99 32.8C534.53 33.33 530.99 36.8 527.05 39.61C525.148 41.0493 523.143 42.3462 521.05 43.49" stroke="#934735" stroke-width="0.75" stroke-linecap="round" stroke-linejoin="round"/>
<path d="M524.25 22.47C519.96 28.47 513.76 35.58 513.76 35.58" stroke="#934735" stroke-width="0.75" stroke-linecap="round" stroke-linejoin="round"/>
<path d="M305.16 298.48C304.49 301.86 308.56 308.07 319.05 310.83L321.73 291.9C315.72 292.58 310 294.852 305.16 298.48Z" fill="#83ADDF"/>
<path d="M315.71 291.9C315.34 312.14 314.21 320.21 314.21 321.52C314.21 321.52 300.71 356.22 296.77 384.17C296.77 384.17 304.65 398.05 327.91 392.24C327.91 392.24 344.98 344.24 348.54 331.65C352.1 319.06 352.67 301.36 352.67 301.36L315.71 291.9Z" fill="#B25E47"/>
<path d="M296.73 167.42C297.259 169.002 298.103 170.462 299.209 171.711C300.316 172.96 301.663 173.973 303.17 174.69L308.53 166.55C304.603 165.595 300.475 165.899 296.73 167.42Z" fill="#F7AD2B"/>
<path d="M305.05 163.84C295.87 177.03 286.16 192.44 290.27 204.89C294.38 217.34 316.76 219.97 330.47 204.89L335.47 170.35L305.05 163.84Z" fill="#B25E47"/>
<path d="M327.88 195.31C322.14 209.31 312.37 247.67 305.16 298.48C305.16 298.48 337.53 296.48 353.4 308.36C353.85 307.61 361.79 261.36 362.69 259.69C363.59 258.02 369.13 257.75 370.48 258.64C371.83 259.53 402.13 278.09 405.48 279.16C424.09 285 445 253.63 435.32 242C431.19 237 419.74 226.13 402.67 196.93L327.88 195.31Z" fill="#A7CAF0"/>
<path d="M436.42 185.04H431.27V190.19H436.42V185.04Z" stroke="white" stroke-width="0.75" stroke-linecap="round" stroke-linejoin="round"/>
<path d="M411.33 185.04H406.18V190.19H411.33V185.04Z" stroke="white" stroke-width="0.75" stroke-linecap="round" stroke-linejoin="round"/>
<path d="M386.25 185.04H381.1V190.19H386.25V185.04Z" stroke="white" stroke-width="0.75" stroke-linecap="round" stroke-linejoin="round"/>
<path d="M361.17 185.04H356.02V190.19H361.17V185.04Z" stroke="white" stroke-width="0.75" stroke-linecap="round" stroke-linejoin="round"/>
<path d="M336.08 185.04H330.93V190.19H336.08V185.04Z" stroke="white" stroke-width="0.75" stroke-linecap="round" stroke-linejoin="round"/>
<path d="M311 185.04H305.85V190.19H311V185.04Z" stroke="white" stroke-width="0.75" stroke-linecap="round" stroke-linejoin="round"/>
<path d="M285.91 185.04H280.76V190.19H285.91V185.04Z" stroke="white" stroke-width="0.75" stroke-linecap="round" stroke-linejoin="round"/>
<path d="M436.42 216.87H431.27V222.02H436.42V216.87Z" stroke="white" stroke-width="0.75" stroke-linecap="round" stroke-linejoin="round"/>
<path d="M411.33 216.87H406.18V222.02H411.33V216.87Z" stroke="white" stroke-width="0.75" stroke-linecap="round" stroke-linejoin="round"/>
<path d="M386.25 216.87H381.1V222.02H386.25V216.87Z" stroke="white" stroke-width="0.75" stroke-linecap="round" stroke-linejoin="round"/>
<path d="M361.17 216.87H356.02V222.02H361.17V216.87Z" stroke="white" stroke-width="0.75" stroke-linecap="round" stroke-linejoin="round"/>
<path d="M336.08 216.87H330.93V222.02H336.08V216.87Z" stroke="white" stroke-width="0.75" stroke-linecap="round" stroke-linejoin="round"/>
<path d="M311 216.87H305.85V222.02H311V216.87Z" stroke="white" stroke-width="0.75" stroke-linecap="round" stroke-linejoin="round"/>
<path d="M285.91 216.87H280.76V222.02H285.91V216.87Z" stroke="white" stroke-width="0.75" stroke-linecap="round" stroke-linejoin="round"/>
<path d="M436.42 248.69H431.27V253.84H436.42V248.69Z" stroke="white" stroke-width="0.75" stroke-linecap="round" stroke-linejoin="round"/>
<path d="M411.33 248.69H406.18V253.84H411.33V248.69Z" stroke="white" stroke-width="0.75" stroke-linecap="round" stroke-linejoin="round"/>
<path d="M386.25 248.69H381.1V253.84H386.25V248.69Z" stroke="white" stroke-width="0.75" stroke-linecap="round" stroke-linejoin="round"/>
<path d="M361.17 248.69H356.02V253.84H361.17V248.69Z" stroke="white" stroke-width="0.75" stroke-linecap="round" stroke-linejoin="round"/>
<path d="M336.08 248.69H330.93V253.84H336.08V248.69Z" stroke="white" stroke-width="0.75" stroke-linecap="round" stroke-linejoin="round"/>
<path d="M311 248.69H305.85V253.84H311V248.69Z" stroke="white" stroke-width="0.75" stroke-linecap="round" stroke-linejoin="round"/>
<path d="M285.91 248.69H280.76V253.84H285.91V248.69Z" stroke="white" stroke-width="0.75" stroke-linecap="round" stroke-linejoin="round"/>
<path d="M436.42 280.52H431.27V285.67H436.42V280.52Z" stroke="white" stroke-width="0.75" stroke-linecap="round" stroke-linejoin="round"/>
<path d="M411.33 280.52H406.18V285.67H411.33V280.52Z" stroke="white" stroke-width="0.75" stroke-linecap="round" stroke-linejoin="round"/>
<path d="M386.25 280.52H381.1V285.67H386.25V280.52Z" stroke="white" stroke-width="0.75" stroke-linecap="round" stroke-linejoin="round"/>
<path d="M361.17 280.52H356.02V285.67H361.17V280.52Z" stroke="white" stroke-width="0.75" stroke-linecap="round" stroke-linejoin="round"/>
<path d="M336.08 280.52H330.93V285.67H336.08V280.52Z" stroke="white" stroke-width="0.75" stroke-linecap="round" stroke-linejoin="round"/>
<path d="M311 280.52H305.85V285.67H311V280.52Z" stroke="white" stroke-width="0.75" stroke-linecap="round" stroke-linejoin="round"/>
<path d="M285.91 280.52H280.76V285.67H285.91V280.52Z" stroke="white" stroke-width="0.75" stroke-linecap="round" stroke-linejoin="round"/>
<path d="M436.42 312.35H431.27V317.5H436.42V312.35Z" stroke="white" stroke-width="0.75" stroke-linecap="round" stroke-linejoin="round"/>
<path d="M411.33 312.35H406.18V317.5H411.33V312.35Z" stroke="white" stroke-width="0.75" stroke-linecap="round" stroke-linejoin="round"/>
<path d="M386.25 312.35H381.1V317.5H386.25V312.35Z" stroke="white" stroke-width="0.75" stroke-linecap="round" stroke-linejoin="round"/>
<path d="M361.17 312.35H356.02V317.5H361.17V312.35Z" stroke="white" stroke-width="0.75" stroke-linecap="round" stroke-linejoin="round"/>
<path d="M336.08 312.35H330.93V317.5H336.08V312.35Z" stroke="white" stroke-width="0.75" stroke-linecap="round" stroke-linejoin="round"/>
<path d="M311 312.35H305.85V317.5H311V312.35Z" stroke="white" stroke-width="0.75" stroke-linecap="round" stroke-linejoin="round"/>
<path d="M285.91 312.35H280.76V317.5H285.91V312.35Z" stroke="white" stroke-width="0.75" stroke-linecap="round" stroke-linejoin="round"/>
<path d="M273.79 166.55H263.5V176.84H273.79V166.55Z" stroke="white" stroke-width="0.75" stroke-linecap="round" stroke-linejoin="round"/>
<path d="M299.48 166.55H289.19V176.84H299.48V166.55Z" stroke="white" stroke-width="0.75" stroke-linecap="round" stroke-linejoin="round"/>
<path d="M325.18 166.55H314.89V176.84H325.18V166.55Z" stroke="white" stroke-width="0.75" stroke-linecap="round" stroke-linejoin="round"/>
<path d="M350.88 166.55H340.59V176.84H350.88V166.55Z" stroke="white" stroke-width="0.75" stroke-linecap="round" stroke-linejoin="round"/>
<path d="M376.58 166.55H366.29V176.84H376.58V166.55Z" stroke="white" stroke-width="0.75" stroke-linecap="round" stroke-linejoin="round"/>
<path d="M402.28 166.55H391.99V176.84H402.28V166.55Z" stroke="white" stroke-width="0.75" stroke-linecap="round" stroke-linejoin="round"/>
<path d="M427.98 166.55H417.69V176.84H427.98V166.55Z" stroke="white" stroke-width="0.75" stroke-linecap="round" stroke-linejoin="round"/>
<path d="M453.68 166.55H443.39V176.84H453.68V166.55Z" stroke="white" stroke-width="0.75" stroke-linecap="round" stroke-linejoin="round"/>
<path d="M273.79 198.38H263.5V208.67H273.79V198.38Z" stroke="white" stroke-width="0.75" stroke-linecap="round" stroke-linejoin="round"/>
<path d="M299.48 198.38H289.19V208.67H299.48V198.38Z" stroke="white" stroke-width="0.75" stroke-linecap="round" stroke-linejoin="round"/>
<path d="M325.18 198.38H314.89V208.67H325.18V198.38Z" stroke="white" stroke-width="0.75" stroke-linecap="round" stroke-linejoin="round"/>
<path d="M350.88 198.38H340.59V208.67H350.88V198.38Z" stroke="white" stroke-width="0.75" stroke-linecap="round" stroke-linejoin="round"/>
<path d="M376.58 198.38H366.29V208.67H376.58V198.38Z" stroke="white" stroke-width="0.75" stroke-linecap="round" stroke-linejoin="round"/>
<path d="M402.28 198.38H391.99V208.67H402.28V198.38Z" stroke="white" stroke-width="0.75" stroke-linecap="round" stroke-linejoin="round"/>
<path d="M427.98 198.38H417.69V208.67H427.98V198.38Z" stroke="white" stroke-width="0.75" stroke-linecap="round" stroke-linejoin="round"/>
<path d="M453.68 198.38H443.39V208.67H453.68V198.38Z" stroke="white" stroke-width="0.75" stroke-linecap="round" stroke-linejoin="round"/>
<path d="M273.79 230.21H263.5V240.5H273.79V230.21Z" stroke="white" stroke-width="0.75" stroke-linecap="round" stroke-linejoin="round"/>
<path d="M299.48 230.21H289.19V240.5H299.48V230.21Z" stroke="white" stroke-width="0.75" stroke-linecap="round" stroke-linejoin="round"/>
<path d="M325.18 230.21H314.89V240.5H325.18V230.21Z" stroke="white" stroke-width="0.75" stroke-linecap="round" stroke-linejoin="round"/>
<path d="M350.88 230.21H340.59V240.5H350.88V230.21Z" stroke="white" stroke-width="0.75" stroke-linecap="round" stroke-linejoin="round"/>
<path d="M376.58 230.21H366.29V240.5H376.58V230.21Z" stroke="white" stroke-width="0.75" stroke-linecap="round" stroke-linejoin="round"/>
<path d="M402.28 230.21H391.99V240.5H402.28V230.21Z" stroke="white" stroke-width="0.75" stroke-linecap="round" stroke-linejoin="round"/>
<path d="M427.98 230.21H417.69V240.5H427.98V230.21Z" stroke="white" stroke-width="0.75" stroke-linecap="round" stroke-linejoin="round"/>
<path d="M453.68 230.21H443.39V240.5H453.68V230.21Z" stroke="white" stroke-width="0.75" stroke-linecap="round" stroke-linejoin="round"/>
<path d="M273.79 262.03H263.5V272.32H273.79V262.03Z" stroke="white" stroke-width="0.75" stroke-linecap="round" stroke-linejoin="round"/>
<path d="M299.48 262.03H289.19V272.32H299.48V262.03Z" stroke="white" stroke-width="0.75" stroke-linecap="round" stroke-linejoin="round"/>
<path d="M325.18 262.03H314.89V272.32H325.18V262.03Z" stroke="white" stroke-width="0.75" stroke-linecap="round" stroke-linejoin="round"/>
<path d="M350.88 262.03H340.59V272.32H350.88V262.03Z" stroke="white" stroke-width="0.75" stroke-linecap="round" stroke-linejoin="round"/>
<path d="M376.58 262.03H366.29V272.32H376.58V262.03Z" stroke="white" stroke-width="0.75" stroke-linecap="round" stroke-linejoin="round"/>
<path d="M402.28 262.03H391.99V272.32H402.28V262.03Z" stroke="white" stroke-width="0.75" stroke-linecap="round" stroke-linejoin="round"/>
<path d="M427.98 262.03H417.69V272.32H427.98V262.03Z" stroke="white" stroke-width="0.75" stroke-linecap="round" stroke-linejoin="round"/>
<path d="M453.68 262.03H443.39V272.32H453.68V262.03Z" stroke="white" stroke-width="0.75" stroke-linecap="round" stroke-linejoin="round"/>
<path d="M273.79 293.86H263.5V304.15H273.79V293.86Z" stroke="white" stroke-width="0.75" stroke-linecap="round" stroke-linejoin="round"/>
<path d="M299.48 293.86H289.19V304.15H299.48V293.86Z" stroke="white" stroke-width="0.75" stroke-linecap="round" stroke-linejoin="round"/>
<path d="M325.18 293.86H314.89V304.15H325.18V293.86Z" stroke="white" stroke-width="0.75" stroke-linecap="round" stroke-linejoin="round"/>
<path d="M350.88 293.86H340.59V304.15H350.88V293.86Z" stroke="white" stroke-width="0.75" stroke-linecap="round" stroke-linejoin="round"/>
<path d="M376.58 293.86H366.29V304.15H376.58V293.86Z" stroke="white" stroke-width="0.75" stroke-linecap="round" stroke-linejoin="round"/>
<path d="M402.28 293.86H391.99V304.15H402.28V293.86Z" stroke="white" stroke-width="0.75" stroke-linecap="round" stroke-linejoin="round"/>
<path d="M427.98 293.86H417.69V304.15H427.98V293.86Z" stroke="white" stroke-width="0.75" stroke-linecap="round" stroke-linejoin="round"/>
<path d="M453.68 293.86H443.39V304.15H453.68V293.86Z" stroke="white" stroke-width="0.75" stroke-linecap="round" stroke-linejoin="round"/>
<path d="M360.23 120.29C368.02 110.06 378.85 104.61 396.55 113.97C396.55 114 372.72 125.22 360.23 120.29Z" fill="white"/>
<path d="M469.85 133.37C469.85 133.37 428.66 148.37 426.17 151.37C423.68 154.37 416.87 177.17 413.53 188.95C410.19 200.73 407.16 203.58 407.16 203.58C407.16 203.58 378.36 199.36 357.72 200.99C337.08 202.62 326.92 202.11 324.52 201.08C322.12 200.05 321.68 196.18 323.06 191.97C323.19 191.57 323.34 191.11 323.5 190.59C325.14 185.59 328.5 175.45 328.5 175.45C320.806 172.686 312.943 170.415 304.96 168.65C302.231 168.061 299.469 167.633 296.69 167.37C303.514 158.119 310.803 149.221 318.53 140.71C321.34 137.71 324.32 134.79 327.31 132.13C336.31 124.13 345.31 118.13 349.83 117.13C355.83 115.75 364.1 117.24 376.21 115.96C399.85 113.46 432.88 104.21 452.83 90.8999C455.364 94.5592 457.701 98.3513 459.83 102.26C463.821 109.537 466.945 117.256 469.14 125.26C469.14 125.26 470.19 130.44 469.85 133.37Z" fill="#FED81D"/>
<path d="M339.84 138.84L328.47 175.5C320.776 172.736 312.913 170.465 304.93 168.7C307.99 164.03 313.01 160.97 318.93 162.87C328.51 166 329.7 139.56 339.84 138.84Z" fill="#FCC71F"/>
<path d="M459.77 102.33C442.44 103.26 413.88 117.82 401.23 135.48C386.39 156.2 365.04 153.48 355.15 138.84C347.79 127.99 339.84 129.37 327.28 132.18C336.28 124.18 345.28 118.18 349.8 117.18C355.8 115.8 364.07 117.29 376.18 116.01C399.82 113.51 432.85 104.26 452.8 90.95C455.324 94.6165 457.651 98.4152 459.77 102.33Z" fill="#FFE05C"/>
<path d="M341.36 133.92L339.84 138.84L328.47 175.5" stroke="#F7AD2B" stroke-width="0.75" stroke-linecap="round" stroke-linejoin="round"/>
<path d="M375 225.52C382.854 226.412 390.795 226.17 398.58 224.8" stroke="#83ADDF" stroke-width="0.75" stroke-linecap="round" stroke-linejoin="round"/>
</g>
</g>
</g>
<defs>
<clipPath id="clip0_3838_30727">
<rect width="1178" height="338" fill="white"/>
</clipPath>
<clipPath id="clip1_3838_30727">
<rect width="800" height="344" fill="white" transform="translate(173)"/>
</clipPath>
</defs>
</svg>
