<svg width="393" height="250" viewBox="0 0 393 250" fill="none" xmlns="http://www.w3.org/2000/svg">
<g clip-path="url(#clip0_2620_19252)">
<path fill-rule="evenodd" clip-rule="evenodd" d="M-0.195704 135.716C-1.2503 105.387 14.411 72.4646 48.7022 53.6915C80.9816 36.0198 128.035 49.9974 168.08 43.5914C202.67 38.0581 230.261 18.0683 265.731 18.9735C308.338 20.0609 359.239 24.3527 382.752 49.07C406.273 73.7956 376.692 106.075 376.785 135.716C376.878 165.456 407.467 198.094 383.296 222.636C359.157 247.145 306.954 246.547 264.467 249.754C229.53 252.392 196.91 244.957 162.727 239.289C124.853 233.01 83.0382 233.174 54.3081 214.909C22.4608 194.663 0.847028 165.703 -0.195704 135.716Z" fill="#E1DCE2"/>
<path d="M198.984 191.975L199.79 210.057C199.79 211.833 199.082 213.536 197.824 214.792C196.565 216.048 194.858 216.754 193.078 216.754H7.11327C5.33316 216.754 3.62596 216.048 2.36724 214.792C1.10851 213.536 0.401367 211.833 0.401367 210.057V104.827C0.401367 103.051 1.10851 101.347 2.36724 100.091C3.62596 98.8354 5.33316 98.1299 7.11327 98.1299H193.033C194.813 98.1299 196.52 98.8354 197.779 100.091C199.038 101.347 199.745 103.051 199.745 104.827V175.992" stroke="#9B82A4" stroke-width="1.8" stroke-linecap="round" stroke-linejoin="round"/>
<path d="M240.643 176.439V72.816C240.643 71.0399 241.35 69.3365 242.608 68.0806C243.867 66.8247 245.574 66.1191 247.355 66.1191H302.84C304.62 66.1191 306.327 66.8247 307.586 68.0806C308.844 69.3365 309.551 71.0399 309.551 72.816V226.532C309.551 228.308 308.844 230.011 307.586 231.267C306.327 232.523 304.62 233.228 302.84 233.228H247.355C245.574 233.228 243.867 232.523 242.608 231.267C241.35 230.011 240.643 228.308 240.643 226.532V193.092" stroke="#9B82A4" stroke-width="1.8" stroke-linecap="round" stroke-linejoin="round"/>
<path d="M42.0598 66.744H1.83319V62.7705H42.0598C42.1658 62.7699 42.2708 62.7903 42.3688 62.8305C42.4667 62.8707 42.5558 62.9298 42.6307 63.0046C42.7056 63.0793 42.7649 63.1681 42.8052 63.2659C42.8454 63.3637 42.8659 63.4684 42.8653 63.5741V65.8957C42.8741 66.0056 42.8597 66.116 42.8229 66.2199C42.7862 66.3239 42.7279 66.4189 42.652 66.4989C42.576 66.5789 42.484 66.642 42.382 66.6843C42.28 66.7265 42.1702 66.7468 42.0598 66.744V66.744Z" stroke="#9B82A4" stroke-width="1.8" stroke-linecap="round" stroke-linejoin="round"/>
<path d="M35.9297 98.1308H26.8463C26.373 98.1321 25.9158 97.9601 25.5611 97.6474C25.2065 97.3347 24.9792 96.9031 24.9222 96.4343L24.2063 90.0053C24.1767 89.7355 24.2045 89.4625 24.2877 89.2041C24.3709 88.9457 24.5077 88.7077 24.6892 88.5056C24.8707 88.3034 25.0928 88.1417 25.3411 88.0308C25.5894 87.92 25.8583 87.8626 26.1304 87.8623H36.6457C36.9175 87.8633 37.186 87.9212 37.434 88.0322C37.682 88.1433 37.9038 88.3051 38.0851 88.507C38.2665 88.709 38.4034 88.9468 38.4868 89.2049C38.5703 89.4629 38.5985 89.7356 38.5697 90.0053L37.8538 96.4343C37.8035 96.9058 37.5782 97.3415 37.2221 97.6555C36.8659 97.9695 36.4049 98.1391 35.9297 98.1308V98.1308Z" stroke="#9B82A4" stroke-width="1.8" stroke-linecap="round" stroke-linejoin="round"/>
<path d="M30.3365 87.9065C30.3365 87.9065 26.7568 87.5493 26.0409 82.7276C26.0409 82.7276 29.2626 83.6651 30.2918 85.9421C30.2918 85.9421 30.7392 80.8524 33.1555 80.3613C33.1555 80.3613 34.2294 84.1562 32.5291 86.0314C32.5291 86.0314 33.8267 83.8884 37.1379 83.933C36.825 84.8733 36.2863 85.7229 35.5688 86.4077C34.8512 87.0925 33.9766 87.5918 33.0213 87.8618" fill="#9B82A4"/>
<path d="M280.288 66.1191H271.204C270.731 66.1204 270.274 65.9484 269.919 65.6357C269.564 65.323 269.337 64.8913 269.28 64.4226L268.564 57.9936C268.535 57.7238 268.562 57.4508 268.645 57.1924C268.729 56.934 268.865 56.696 269.047 56.4938C269.228 56.2917 269.451 56.1299 269.699 56.0191C269.947 55.9083 270.216 55.8509 270.488 55.8506H281.003C281.275 55.8516 281.544 55.9094 281.792 56.0205C282.04 56.1316 282.262 56.2933 282.443 56.4953C282.624 56.6973 282.761 56.9351 282.845 57.1931C282.928 57.4512 282.956 57.7239 282.928 57.9936L282.212 64.4226C282.155 64.8913 281.927 65.323 281.573 65.6357C281.218 65.9484 280.761 66.1204 280.288 66.1191V66.1191Z" stroke="#9B82A4" stroke-width="1.8" stroke-linecap="round" stroke-linejoin="round"/>
<path d="M274.65 55.8957C274.65 55.8957 271.07 55.5386 270.354 50.7168C270.354 50.7168 273.576 51.6544 274.605 53.9313C274.605 53.9313 275.052 48.8417 277.469 48.3506C277.469 48.3506 278.542 52.1455 276.842 54.0206C276.842 54.0206 278.14 51.8776 281.451 51.9222C281.138 52.8625 280.599 53.7121 279.882 54.397C279.164 55.0818 278.29 55.581 277.334 55.8511" fill="#9B82A4"/>
<path d="M191.646 120.319H151.285C150.788 120.316 150.312 120.117 149.96 119.766C149.608 119.415 149.409 118.94 149.406 118.444V106.211C149.409 105.715 149.608 105.24 149.96 104.889C150.312 104.538 150.788 104.339 151.285 104.336H191.646C192.143 104.339 192.619 104.538 192.971 104.889C193.322 105.24 193.522 105.715 193.525 106.211V118.444C193.522 118.94 193.322 119.415 192.971 119.766C192.619 120.117 192.143 120.316 191.646 120.319V120.319Z" stroke="#9B82A4" stroke-width="1.8" stroke-linecap="round" stroke-linejoin="round"/>
<path d="M176.074 108.667H166.767C166.59 108.662 166.422 108.59 166.297 108.465C166.172 108.341 166.1 108.173 166.096 107.997C166.1 107.821 166.172 107.653 166.297 107.528C166.422 107.404 166.59 107.332 166.767 107.327H176.074C176.251 107.332 176.419 107.404 176.544 107.528C176.669 107.653 176.741 107.821 176.745 107.997V107.997C176.747 108.085 176.731 108.173 176.698 108.255C176.665 108.337 176.615 108.412 176.553 108.474C176.49 108.537 176.415 108.586 176.333 108.619C176.251 108.652 176.163 108.668 176.074 108.667V108.667Z" fill="#9B82A4"/>
<path d="M191.646 140.812H151.285C150.788 140.809 150.312 140.61 149.96 140.259C149.608 139.908 149.409 139.433 149.406 138.937V126.704C149.409 126.208 149.608 125.733 149.96 125.382C150.312 125.031 150.788 124.833 151.285 124.829H191.646C192.143 124.833 192.619 125.031 192.971 125.382C193.322 125.733 193.522 126.208 193.525 126.704V138.937C193.522 139.433 193.322 139.908 192.971 140.259C192.619 140.61 192.143 140.809 191.646 140.812V140.812Z" stroke="#9B82A4" stroke-width="1.8" stroke-linecap="round" stroke-linejoin="round"/>
<path d="M176.074 129.115H166.767C166.59 129.11 166.422 129.038 166.297 128.914C166.172 128.789 166.1 128.621 166.096 128.445V128.445C166.1 128.269 166.172 128.101 166.297 127.977C166.422 127.852 166.59 127.78 166.767 127.775H176.074C176.251 127.78 176.419 127.852 176.544 127.977C176.669 128.101 176.741 128.269 176.745 128.445V128.445C176.747 128.534 176.731 128.621 176.698 128.704C176.665 128.786 176.615 128.86 176.553 128.923C176.49 128.985 176.415 129.035 176.333 129.068C176.251 129.101 176.163 129.117 176.074 129.115Z" fill="#9B82A4"/>
<path d="M140.188 120.319H99.827C99.3296 120.316 98.8536 120.117 98.502 119.766C98.1503 119.415 97.9511 118.94 97.9476 118.444V106.211C97.9511 105.715 98.1503 105.24 98.502 104.889C98.8536 104.538 99.3296 104.339 99.827 104.336H140.188C140.685 104.339 141.161 104.538 141.513 104.889C141.865 105.24 142.064 105.715 142.067 106.211V118.444C142.064 118.94 141.865 119.415 141.513 119.766C141.161 120.117 140.685 120.316 140.188 120.319V120.319Z" stroke="#9B82A4" stroke-width="1.8" stroke-linecap="round" stroke-linejoin="round"/>
<path d="M124.661 108.667H115.354C115.177 108.662 115.009 108.59 114.884 108.465C114.759 108.341 114.687 108.173 114.683 107.997V107.997C114.687 107.821 114.759 107.653 114.884 107.528C115.009 107.404 115.177 107.332 115.354 107.327H124.661C124.838 107.332 125.006 107.404 125.131 107.528C125.256 107.653 125.328 107.821 125.332 107.997V107.997C125.328 108.173 125.256 108.341 125.131 108.465C125.006 108.59 124.838 108.662 124.661 108.667Z" fill="#9B82A4"/>
<path d="M140.188 140.812H99.827C99.3296 140.809 98.8536 140.61 98.502 140.259C98.1503 139.908 97.9511 139.433 97.9476 138.937V126.704C97.9511 126.208 98.1503 125.733 98.502 125.382C98.8536 125.031 99.3296 124.833 99.827 124.829H140.188C140.685 124.833 141.161 125.031 141.513 125.382C141.865 125.733 142.064 126.208 142.067 126.704V138.937C142.064 139.433 141.865 139.908 141.513 140.259C141.161 140.61 140.685 140.809 140.188 140.812V140.812Z" stroke="#9B82A4" stroke-width="1.8" stroke-linecap="round" stroke-linejoin="round"/>
<path d="M124.661 129.115H115.354C115.177 129.11 115.009 129.038 114.884 128.914C114.759 128.789 114.687 128.621 114.683 128.445V128.445C114.687 128.269 114.759 128.101 114.884 127.977C115.009 127.852 115.177 127.78 115.354 127.775H124.661C124.838 127.78 125.006 127.852 125.131 127.977C125.256 128.101 125.328 128.269 125.332 128.445V128.445C125.328 128.621 125.256 128.789 125.131 128.914C125.006 129.038 124.838 129.11 124.661 129.115Z" fill="#9B82A4"/>
<path d="M191.646 160.813H151.285C150.788 160.81 150.312 160.611 149.96 160.26C149.608 159.909 149.409 159.434 149.406 158.938V146.705C149.409 146.209 149.608 145.734 149.96 145.383C150.312 145.032 150.788 144.834 151.285 144.83H191.646C192.143 144.834 192.619 145.032 192.971 145.383C193.322 145.734 193.522 146.209 193.525 146.705V158.938C193.522 159.434 193.322 159.909 192.971 160.26C192.619 160.611 192.143 160.81 191.646 160.813V160.813Z" stroke="#9B82A4" stroke-width="1.8" stroke-linecap="round" stroke-linejoin="round"/>
<path d="M176.074 149.161H166.767C166.59 149.156 166.422 149.084 166.297 148.959C166.172 148.835 166.1 148.667 166.096 148.491V148.491C166.1 148.315 166.172 148.147 166.297 148.022C166.422 147.898 166.59 147.826 166.767 147.821H176.074C176.251 147.826 176.419 147.898 176.544 148.022C176.669 148.147 176.741 148.315 176.745 148.491V148.491C176.747 148.579 176.731 148.667 176.698 148.749C176.665 148.831 176.616 148.906 176.553 148.969C176.49 149.031 176.415 149.08 176.333 149.113C176.251 149.146 176.163 149.162 176.074 149.161V149.161Z" fill="#9B82A4"/>
<path d="M140.188 160.813H99.8269C99.3296 160.81 98.8536 160.611 98.5019 160.26C98.1502 159.909 97.9511 159.434 97.9476 158.938V146.705C97.9511 146.209 98.1502 145.734 98.5019 145.383C98.8536 145.032 99.3296 144.834 99.8269 144.83H140.188C140.685 144.834 141.161 145.032 141.513 145.383C141.865 145.734 142.064 146.209 142.067 146.705V158.938C142.064 159.434 141.865 159.909 141.513 160.26C141.161 160.611 140.685 160.81 140.188 160.813V160.813Z" stroke="#9B82A4" stroke-width="1.8" stroke-linecap="round" stroke-linejoin="round"/>
<path d="M124.661 149.161H115.354C115.177 149.156 115.009 149.084 114.884 148.96C114.759 148.835 114.687 148.667 114.683 148.491V148.491C114.687 148.315 114.759 148.147 114.884 148.022C115.009 147.898 115.177 147.826 115.354 147.821H124.661C124.838 147.826 125.006 147.898 125.131 148.022C125.255 148.147 125.328 148.315 125.332 148.491V148.491C125.328 148.667 125.255 148.835 125.131 148.96C125.006 149.084 124.838 149.156 124.661 149.161Z" fill="#9B82A4"/>
<path d="M321.722 112.908H250.173C249.629 112.902 249.109 112.684 248.724 112.3C248.34 111.916 248.121 111.397 248.115 110.854V75.2715C248.121 74.7286 248.34 74.2096 248.724 73.8257C249.109 73.4418 249.629 73.2236 250.173 73.2178H321.722C322.266 73.2236 322.787 73.4418 323.171 73.8257C323.556 74.2096 323.775 74.7286 323.781 75.2715V110.854C323.785 111.125 323.734 111.394 323.633 111.645C323.531 111.896 323.379 112.124 323.187 112.316C322.995 112.507 322.767 112.658 322.515 112.76C322.263 112.862 321.994 112.912 321.722 112.908V112.908Z" stroke="#9B82A4" stroke-width="1.8" stroke-linecap="round" stroke-linejoin="round"/>
<path d="M321.722 157.108H250.173C249.629 157.102 249.109 156.884 248.724 156.5C248.34 156.116 248.121 155.597 248.115 155.054V119.472C248.121 118.929 248.34 118.41 248.724 118.026C249.109 117.642 249.629 117.424 250.173 117.418H321.722C322.266 117.424 322.787 117.642 323.171 118.026C323.556 118.41 323.775 118.929 323.781 119.472V155.054C323.781 155.324 323.728 155.592 323.625 155.841C323.522 156.09 323.37 156.317 323.179 156.508C322.988 156.699 322.761 156.85 322.511 156.953C322.261 157.056 321.993 157.109 321.722 157.108V157.108Z" stroke="#9B82A4" stroke-width="1.8" stroke-linecap="round" stroke-linejoin="round"/>
<path d="M266.282 90.4512H261.852V112.908H266.282V90.4512Z" stroke="#9B82A4" stroke-width="1.8" stroke-linecap="round" stroke-linejoin="round"/>
<path d="M270.846 96.6123H266.237V112.953H270.846V96.6123Z" stroke="#9B82A4" stroke-width="1.8" stroke-linecap="round" stroke-linejoin="round"/>
<path d="M25.8619 40.3145H21.432V62.7713H25.8619V40.3145Z" stroke="#9B82A4" stroke-width="1.8" stroke-linecap="round" stroke-linejoin="round"/>
<path d="M30.426 46.4307H25.8171V62.771H30.426V46.4307Z" stroke="#9B82A4" stroke-width="1.8" stroke-linecap="round" stroke-linejoin="round"/>
<path d="M16.8231 49.6455H12.3932V62.7714H16.8231V49.6455Z" stroke="#9B82A4" stroke-width="1.8" stroke-linecap="round" stroke-linejoin="round"/>
<path d="M21.432 36.4746H16.8231V62.7264H21.432V36.4746Z" stroke="#9B82A4" stroke-width="1.8" stroke-linecap="round" stroke-linejoin="round"/>
<path d="M263.508 137.598L264 130.946C264.01 130.842 263.997 130.737 263.963 130.638C263.928 130.539 263.873 130.448 263.801 130.372C263.73 130.296 263.642 130.237 263.545 130.197C263.448 130.157 263.344 130.138 263.239 130.142H259.436C259.332 130.143 259.23 130.164 259.135 130.205C259.04 130.246 258.954 130.306 258.883 130.381C258.812 130.456 258.757 130.545 258.721 130.642C258.685 130.739 258.67 130.842 258.675 130.946L259.167 137.598C259.167 137.598 255.14 140.187 255.185 142.33C255.23 143.982 256.214 151.885 256.662 155.367C256.719 155.836 256.946 156.267 257.301 156.58C257.655 156.893 258.112 157.065 258.586 157.063H264.134C264.607 157.065 265.065 156.893 265.419 156.58C265.774 156.267 266.001 155.836 266.058 155.367C266.506 151.885 267.49 143.982 267.535 142.33C267.535 140.187 263.508 137.598 263.508 137.598Z" fill="#9B82A4"/>
<path d="M285.075 93.4426L285.568 86.7904C285.577 86.6863 285.564 86.5813 285.53 86.4825C285.496 86.3836 285.441 86.2932 285.369 86.2172C285.297 86.1412 285.21 86.0813 285.113 86.0416C285.016 86.0018 284.912 85.9832 284.807 85.9868H280.959C280.855 85.9872 280.753 86.0087 280.658 86.0498C280.563 86.0909 280.477 86.1509 280.406 86.226C280.335 86.3011 280.28 86.3899 280.244 86.4869C280.208 86.5839 280.193 86.6872 280.198 86.7904L280.69 93.4426C280.69 93.4426 276.663 96.0321 276.708 98.1751C276.753 99.827 277.737 107.729 278.184 111.212C278.241 111.68 278.469 112.112 278.823 112.425C279.178 112.737 279.635 112.909 280.109 112.908H285.657C286.13 112.909 286.588 112.737 286.942 112.425C287.297 112.112 287.524 111.68 287.581 111.212C288.029 107.729 289.013 99.827 289.058 98.1751C289.103 96.0321 285.075 93.4426 285.075 93.4426Z" fill="#9B82A4"/>
<path d="M6.48682 173.895L321.051 177.332" stroke="#9B82A4" stroke-width="1.8" stroke-linecap="round" stroke-linejoin="round"/>
<path d="M253.664 94.7815L236.302 93.71C236.017 93.6914 235.737 93.6163 235.481 93.4892C235.225 93.362 234.996 93.1853 234.809 92.9693C234.622 92.7533 234.479 92.5024 234.39 92.231C234.301 91.9596 234.266 91.6732 234.289 91.3885L236.929 55.8504C236.979 55.2557 237.241 54.6988 237.668 54.2809C238.095 53.863 238.659 53.612 239.255 53.5735L257.02 52.502C257.327 52.486 257.635 52.5355 257.922 52.6471C258.209 52.7587 258.469 52.93 258.685 53.1495C258.901 53.369 259.067 53.6318 259.174 53.9204C259.28 54.209 259.324 54.5168 259.302 54.8235L256.348 92.5046C256.279 93.1554 255.962 93.7549 255.462 94.1787C254.963 94.6026 254.319 94.8184 253.664 94.7815V94.7815Z" fill="#22272E"/>
<path d="M252.456 94.7815L235.094 93.71C234.809 93.6914 234.529 93.6163 234.273 93.4892C234.017 93.362 233.788 93.1853 233.601 92.9693C233.414 92.7533 233.271 92.5024 233.182 92.231C233.093 91.9596 233.058 91.6732 233.081 91.3885L235.721 55.8504C235.771 55.2557 236.033 54.6988 236.46 54.2809C236.887 53.863 237.451 53.612 238.048 53.5735L255.812 52.502C256.119 52.486 256.427 52.5355 256.714 52.6471C257.001 52.7587 257.261 52.93 257.477 53.1495C257.693 53.369 257.86 53.6318 257.966 53.9204C258.072 54.209 258.116 54.5168 258.094 54.8235L255.14 92.5046C255.071 93.1554 254.754 93.7549 254.254 94.1787C253.755 94.6026 253.111 94.8184 252.456 94.7815V94.7815Z" fill="#22272E"/>
<path d="M247.131 56.6543L243.82 56.8329C243.76 56.8368 243.7 56.828 243.644 56.8069C243.588 56.7859 243.537 56.7531 243.494 56.7109C243.452 56.6686 243.419 56.6178 243.398 56.5618C243.377 56.5059 243.368 56.4461 243.372 56.3864V56.3864C243.373 56.2565 243.426 56.1323 243.518 56.0404C243.61 55.9486 243.734 55.8965 243.864 55.8953L247.176 55.7167C247.235 55.7128 247.295 55.7216 247.351 55.7427C247.407 55.7637 247.458 55.7965 247.501 55.8387C247.543 55.881 247.576 55.9318 247.597 55.9878C247.618 56.0437 247.627 56.1035 247.623 56.1632V56.1632C247.622 56.2931 247.57 56.4173 247.478 56.5092C247.386 56.601 247.261 56.6531 247.131 56.6543V56.6543Z" fill="#63737A"/>
<path d="M249.055 56.5652H248.965C248.906 56.5691 248.846 56.5603 248.79 56.5392C248.733 56.5182 248.683 56.4854 248.64 56.4431C248.598 56.4009 248.565 56.3501 248.544 56.2941C248.523 56.2382 248.514 56.1783 248.518 56.1187V56.1187C248.535 55.9825 248.597 55.8558 248.694 55.7587C248.791 55.6617 248.918 55.5998 249.055 55.5829H249.144C249.204 55.579 249.264 55.5878 249.32 55.6089C249.376 55.6299 249.427 55.6627 249.47 55.705C249.512 55.7472 249.545 55.798 249.566 55.854C249.587 55.9099 249.596 55.9698 249.592 56.0294V56.0294C249.575 56.1656 249.513 56.2923 249.416 56.3894C249.318 56.4864 249.191 56.5483 249.055 56.5652V56.5652Z" fill="#63737A"/>
<path d="M243.864 62.5925L239.435 62.7265C239.326 62.728 239.219 62.7063 239.12 62.6629C239.021 62.6196 238.933 62.5555 238.861 62.4751C238.789 62.3948 238.735 62.2999 238.702 62.1969C238.67 62.0939 238.66 61.9853 238.674 61.8782V61.8782C238.697 61.6494 238.799 61.4357 238.962 61.273C239.125 61.1104 239.339 61.0088 239.569 60.9853L243.999 60.8067C244.107 60.8052 244.214 60.8269 244.313 60.8703C244.412 60.9136 244.501 60.9777 244.573 61.058C244.645 61.1384 244.699 61.2333 244.731 61.3363C244.763 61.4393 244.773 61.548 244.759 61.655V61.655C244.753 61.8942 244.658 62.1226 244.493 62.2959C244.328 62.4692 244.104 62.5749 243.864 62.5925Z" fill="#63737A"/>
<path d="M242.701 77.9502L238.316 77.9055C238.21 77.8998 238.106 77.8733 238.011 77.8276C237.915 77.7818 237.83 77.7177 237.759 77.6389C237.688 77.5601 237.634 77.4682 237.599 77.3684C237.564 77.2685 237.549 77.1628 237.555 77.0573V77.0573C237.58 76.8333 237.684 76.6253 237.847 76.47C238.011 76.3148 238.225 76.2224 238.45 76.209L242.835 76.2536C242.942 76.2556 243.048 76.2796 243.145 76.3242C243.242 76.3687 243.329 76.4327 243.401 76.5123C243.472 76.5919 243.526 76.6854 243.56 76.7868C243.593 76.8883 243.606 76.9955 243.596 77.1019V77.1019C243.579 77.329 243.478 77.5418 243.313 77.6987C243.147 77.8555 242.929 77.9452 242.701 77.9502V77.9502Z" fill="#63737A"/>
<path d="M241.761 90.3622L237.376 90.139C237.267 90.1317 237.16 90.1026 237.063 90.0535C236.965 90.0044 236.878 89.9362 236.807 89.8529C236.736 89.7696 236.682 89.673 236.65 89.5688C236.617 89.4646 236.605 89.3548 236.616 89.2461C236.625 89.0281 236.719 88.8224 236.878 88.6724C237.036 88.5224 237.247 88.4399 237.466 88.4424L241.851 88.621C241.962 88.6244 242.07 88.651 242.17 88.6988C242.27 88.7467 242.358 88.8149 242.43 88.8991C242.501 88.9832 242.555 89.0814 242.586 89.1873C242.617 89.2932 242.626 89.4045 242.612 89.5139V89.5139C242.612 89.7389 242.522 89.9547 242.363 90.1137C242.203 90.2728 241.987 90.3622 241.761 90.3622V90.3622Z" fill="#63737A"/>
<path d="M251.963 72.4592L238.898 72.5039C238.766 72.5045 238.636 72.4776 238.516 72.425C238.396 72.3724 238.288 72.2953 238.199 72.1985C238.111 72.1018 238.044 71.9876 238.002 71.8633C237.96 71.739 237.945 71.6075 237.958 71.477L238.361 65.807C238.377 65.5799 238.478 65.3671 238.644 65.2102C238.809 65.0534 239.027 64.9637 239.256 64.9587L252.366 64.6016C252.497 64.601 252.627 64.6278 252.748 64.6804C252.868 64.733 252.976 64.8102 253.064 64.907C253.153 65.0037 253.22 65.1179 253.262 65.2422C253.303 65.3664 253.318 65.498 253.306 65.6284L252.858 71.5663C252.858 71.8031 252.764 72.0303 252.596 72.1977C252.428 72.3652 252.201 72.4592 251.963 72.4592Z" fill="#B0D7C0"/>
<path d="M242.388 85.5847L237.913 85.4061C237.785 85.4019 237.66 85.3714 237.544 85.3166C237.428 85.2617 237.325 85.1837 237.241 85.0873C237.157 84.9909 237.094 84.8783 237.056 84.7565C237.018 84.6347 237.005 84.5062 237.018 84.3792L237.287 80.9862C237.293 80.8688 237.321 80.7538 237.372 80.6477C237.422 80.5415 237.493 80.4463 237.58 80.3675C237.668 80.2887 237.77 80.2279 237.88 80.1885C237.991 80.1491 238.109 80.1319 238.226 80.1379L242.746 80.2272C243.006 80.2411 243.251 80.3565 243.426 80.5486C243.602 80.7407 243.695 80.9941 243.685 81.254L243.417 84.7364C243.376 84.9776 243.25 85.196 243.061 85.3518C242.872 85.5076 242.633 85.5902 242.388 85.5847Z" fill="#FFE38E"/>
<path d="M250.889 85.8524L246.102 85.6738C245.974 85.6696 245.848 85.6392 245.732 85.5843C245.617 85.5295 245.514 85.4514 245.43 85.355C245.346 85.2587 245.283 85.1461 245.244 85.0242C245.206 84.9024 245.193 84.774 245.207 84.647L245.475 81.1199C245.481 81.0026 245.51 80.8876 245.56 80.7815C245.611 80.6753 245.681 80.5801 245.769 80.5013C245.856 80.4225 245.958 80.3617 246.069 80.3223C246.18 80.2829 246.297 80.2657 246.415 80.2717L251.247 80.361C251.508 80.3749 251.752 80.4903 251.928 80.6824C252.104 80.8745 252.197 81.1279 252.187 81.3878L251.919 85.0041C251.88 85.2461 251.754 85.4657 251.564 85.6218C251.375 85.7779 251.135 85.8599 250.889 85.8524Z" fill="#F4C2C9"/>
<path d="M143.768 39.8229L129.225 40.4926C128.958 40.5035 128.691 40.4542 128.445 40.3486C128.199 40.243 127.98 40.0836 127.804 39.8822C127.628 39.6808 127.499 39.4426 127.428 39.1851C127.356 38.9276 127.343 38.6573 127.391 38.3943L129.807 14.2855C129.872 13.674 130.134 13.1 130.554 12.6494C130.973 12.1987 131.527 11.8956 132.134 11.7854L146.945 9.86559C148.242 9.687 149.137 10.6246 149.003 11.9193L146.273 37.4121C146.196 38.0395 145.905 38.6214 145.448 39.0602C144.992 39.4991 144.399 39.7684 143.768 39.8229V39.8229Z" fill="#22272E"/>
<path d="M142.694 39.3317L128.151 40.0014C127.884 40.0122 127.617 39.963 127.371 39.8574C127.125 39.7517 126.906 39.5924 126.73 39.391C126.554 39.1896 126.425 38.9514 126.354 38.6939C126.282 38.4364 126.27 38.1661 126.317 37.9031L128.733 13.7943C128.798 13.1828 129.06 12.6088 129.48 12.1582C129.899 11.7075 130.453 11.4044 131.06 11.2941L145.871 9.37437C147.168 9.19579 148.063 10.1333 147.929 11.4281L145.199 36.9208C145.13 37.5515 144.841 38.1381 144.384 38.5785C143.926 39.0189 143.328 39.2854 142.694 39.3317V39.3317Z" fill="#22272E"/>
<path d="M143.365 17.5L132.044 18.7054C131.96 18.7146 131.874 18.7047 131.794 18.6766C131.714 18.6484 131.641 18.6026 131.581 18.5427C131.521 18.4827 131.475 18.41 131.447 18.33C131.418 18.25 131.409 18.1647 131.418 18.0804L131.686 15.3123C131.695 15.1848 131.749 15.0647 131.84 14.9744C131.93 14.884 132.051 14.8296 132.178 14.8212L143.544 13.4818C143.628 13.4727 143.714 13.4825 143.794 13.5107C143.874 13.5388 143.947 13.5846 144.007 13.6446C144.067 13.7046 144.113 13.7772 144.141 13.8572C144.17 13.9373 144.18 14.0226 144.17 14.1069L143.857 17.0089C143.856 17.1388 143.804 17.263 143.712 17.3548C143.62 17.4467 143.495 17.4988 143.365 17.5Z" fill="#F4C2C9"/>
<path d="M132.85 25.1789L131.373 25.3128C131.289 25.322 131.203 25.3121 131.123 25.284C131.043 25.2558 130.97 25.2101 130.91 25.1501C130.85 25.0901 130.804 25.0174 130.776 24.9374C130.747 24.8574 130.737 24.7721 130.747 24.6878L130.926 23.0805C130.934 22.953 130.989 22.8329 131.079 22.7426C131.17 22.6522 131.29 22.5978 131.418 22.5894L132.894 22.4555C132.979 22.4463 133.064 22.4562 133.145 22.4843C133.225 22.5125 133.298 22.5582 133.358 22.6182C133.418 22.6782 133.464 22.7509 133.492 22.8309C133.52 22.9109 133.53 22.9962 133.521 23.0805L133.342 24.6878C133.334 24.8153 133.279 24.9354 133.188 25.0257C133.098 25.1161 132.977 25.1705 132.85 25.1789V25.1789Z" fill="#B0D7C0"/>
<path d="M142.649 24.3314L141.038 24.4653C140.953 24.4745 140.868 24.4646 140.788 24.4365C140.708 24.4083 140.635 24.3625 140.575 24.3026C140.515 24.2426 140.469 24.1699 140.44 24.0899C140.412 24.0099 140.402 23.9246 140.412 23.8403L140.591 22.1437C140.599 22.0162 140.653 21.8961 140.744 21.8058C140.835 21.7154 140.955 21.661 141.083 21.6526L142.694 21.474C142.778 21.4649 142.864 21.4747 142.944 21.5029C143.024 21.531 143.097 21.5768 143.157 21.6368C143.217 21.6968 143.263 21.7694 143.291 21.8494C143.319 21.9294 143.329 22.0148 143.32 22.0991L143.141 23.7956C143.134 23.928 143.081 24.0539 142.991 24.1516C142.901 24.2494 142.78 24.3129 142.649 24.3314V24.3314Z" fill="#B0D7C0"/>
<path d="M137.682 24.7323L136.161 24.8662C136.076 24.8754 135.991 24.8656 135.91 24.8374C135.83 24.8092 135.757 24.7635 135.697 24.7035C135.637 24.6435 135.591 24.5709 135.563 24.4908C135.535 24.4108 135.525 24.3255 135.534 24.2412L135.713 22.5893C135.722 22.4618 135.776 22.3417 135.867 22.2514C135.957 22.161 136.078 22.1066 136.205 22.0982L137.727 21.9643C137.811 21.9551 137.897 21.9649 137.977 21.9931C138.057 22.0213 138.13 22.067 138.19 22.127C138.25 22.187 138.296 22.2597 138.324 22.3397C138.353 22.4197 138.362 22.505 138.353 22.5893L138.174 24.2412C138.173 24.3711 138.121 24.4953 138.029 24.5872C137.937 24.679 137.812 24.7311 137.682 24.7323Z" fill="#B0D7C0"/>
<path d="M132.268 30.6708L130.791 30.7601C130.708 30.766 130.623 30.754 130.545 30.7247C130.466 30.6954 130.395 30.6495 130.335 30.5903C130.276 30.531 130.23 30.4597 130.2 30.3811C130.171 30.3026 130.159 30.2187 130.165 30.135L130.344 28.5278C130.362 28.3965 130.426 28.2757 130.524 28.1861C130.622 28.0965 130.748 28.0437 130.881 28.0367L132.358 27.9027C132.442 27.8936 132.528 27.9034 132.608 27.9316C132.688 27.9597 132.761 28.0055 132.821 28.0655C132.881 28.1255 132.927 28.1981 132.955 28.2781C132.983 28.3582 132.993 28.4435 132.984 28.5278L132.805 30.135C132.796 30.274 132.736 30.4049 132.637 30.5034C132.538 30.6019 132.407 30.6614 132.268 30.6708V30.6708Z" fill="#B0D7C0"/>
<path d="M142.067 30.0009L140.456 30.1348C140.372 30.1408 140.288 30.1287 140.21 30.0994C140.131 30.0701 140.059 30.0243 140 29.965C139.941 29.9057 139.895 29.8344 139.865 29.7558C139.836 29.6773 139.824 29.5934 139.83 29.5098L140.009 27.8579C140.027 27.7266 140.091 27.6058 140.189 27.5162C140.287 27.4266 140.413 27.3738 140.546 27.3668L142.157 27.2328C142.241 27.2236 142.327 27.2335 142.407 27.2617C142.487 27.2898 142.56 27.3356 142.62 27.3956C142.68 27.4555 142.726 27.5282 142.754 27.6082C142.782 27.6882 142.792 27.7735 142.783 27.8579L142.604 29.5544C142.561 29.6691 142.489 29.7707 142.395 29.849C142.301 29.9273 142.188 29.9797 142.067 30.0009V30.0009Z" fill="#B0D7C0"/>
<path d="M137.1 30.358L135.579 30.4473C135.495 30.4533 135.411 30.4412 135.332 30.4119C135.254 30.3826 135.182 30.3368 135.123 30.2775C135.063 30.2182 135.017 30.1469 134.988 30.0683C134.959 29.9898 134.947 29.9059 134.953 29.8223L135.132 28.1704C135.15 28.0391 135.214 27.9183 135.312 27.8287C135.41 27.7391 135.536 27.6863 135.668 27.6793L137.19 27.5453C137.274 27.5361 137.36 27.546 137.44 27.5742C137.52 27.6023 137.593 27.6481 137.653 27.7081C137.713 27.768 137.759 27.8407 137.787 27.9207C137.816 28.0007 137.826 28.086 137.816 28.1704L137.637 29.8223C137.613 29.9555 137.549 30.0781 137.453 30.1739C137.357 30.2696 137.234 30.3338 137.1 30.358V30.358Z" fill="#B0D7C0"/>
<path d="M131.686 36.1621L130.254 36.2514C130.173 36.2561 130.091 36.2427 130.016 36.2123C129.94 36.1818 129.872 36.1351 129.816 36.0754C129.761 36.0157 129.719 35.9445 129.694 35.8669C129.669 35.7893 129.662 35.7071 129.673 35.6264L129.852 34.0191C129.87 33.8878 129.934 33.767 130.032 33.6774C130.13 33.5878 130.256 33.535 130.389 33.528L131.82 33.4387C131.903 33.4297 131.987 33.44 132.064 33.469C132.142 33.4979 132.212 33.5446 132.269 33.6053C132.325 33.6661 132.367 33.7392 132.39 33.8188C132.413 33.8984 132.417 33.9823 132.402 34.0638L132.223 35.671C132.212 35.8052 132.15 35.9303 132.051 36.0213C131.951 36.1123 131.821 36.1626 131.686 36.1621V36.1621Z" fill="#B0D7C0"/>
<path d="M141.441 35.6267L139.83 35.716C139.748 35.7206 139.667 35.7073 139.591 35.6768C139.515 35.6464 139.447 35.5997 139.392 35.54C139.336 35.4803 139.295 35.4091 139.27 35.3315C139.245 35.2538 139.238 35.1717 139.248 35.0909L139.427 33.439C139.446 33.3077 139.509 33.187 139.607 33.0974C139.705 33.0078 139.832 32.9549 139.964 32.9479L141.575 32.8586C141.658 32.8496 141.741 32.8599 141.819 32.8889C141.897 32.9178 141.967 32.9645 142.023 33.0252C142.08 33.086 142.121 33.1591 142.145 33.2387C142.168 33.3183 142.172 33.4022 142.157 33.4837L141.978 35.1802C141.95 35.303 141.882 35.4131 141.785 35.4938C141.688 35.5744 141.567 35.6211 141.441 35.6267Z" fill="#FFE779"/>
<path d="M136.519 35.8945L134.997 35.9838C134.916 35.9885 134.834 35.9751 134.759 35.9447C134.683 35.9143 134.615 35.8675 134.559 35.8078C134.504 35.7481 134.462 35.6769 134.437 35.5993C134.412 35.5217 134.405 35.4396 134.416 35.3588L134.595 33.7515C134.613 33.6202 134.677 33.4994 134.775 33.4099C134.873 33.3203 134.999 33.2674 135.132 33.2604L136.653 33.1711C136.736 33.1621 136.819 33.1724 136.897 33.2014C136.975 33.2303 137.045 33.277 137.101 33.3377C137.158 33.3985 137.199 33.4716 137.223 33.5512C137.246 33.6308 137.25 33.7147 137.235 33.7962L137.056 35.4481C137.027 35.5708 136.96 35.681 136.863 35.7616C136.766 35.8423 136.645 35.889 136.519 35.8945Z" fill="#FFE779"/>
<path d="M157.863 39.5546L227.935 32.3219C228.238 32.2915 228.544 32.328 228.832 32.4288C229.12 32.5295 229.382 32.6922 229.599 32.9051C229.817 33.1181 229.985 33.3762 230.092 33.6611C230.199 33.9461 230.241 34.251 230.217 34.5542L224.221 102.594C224.152 103.4 223.774 104.147 223.165 104.68C222.556 105.213 221.763 105.489 220.954 105.452L152.896 101.791C152.345 101.759 151.829 101.511 151.46 101.101C151.092 100.691 150.9 100.153 150.927 99.6032L155.044 42.5012C155.096 41.7593 155.406 41.0589 155.921 40.5209C156.435 39.9829 157.122 39.6411 157.863 39.5546Z" fill="#F8AB5D"/>
<path d="M155.312 38.7958L226.19 31.4738C226.498 31.4407 226.809 31.4768 227.101 31.5795C227.393 31.6822 227.658 31.8489 227.877 32.0673C228.096 32.2858 228.263 32.5504 228.366 32.8417C228.469 33.133 228.505 33.4437 228.472 33.7508L222.431 102.55C222.37 103.366 221.988 104.126 221.367 104.661C220.747 105.197 219.938 105.465 219.12 105.407L150.256 101.702C149.978 101.688 149.706 101.619 149.456 101.499C149.205 101.379 148.982 101.209 148.798 101.001C148.615 100.793 148.475 100.55 148.387 100.287C148.299 100.024 148.265 99.7459 148.287 99.4694L152.448 41.6977C152.527 40.9623 152.853 40.2751 153.373 39.7481C153.893 39.2211 154.576 38.8854 155.312 38.7958Z" fill="#FFE38E"/>
<path d="M162.65 53.6191L159.429 53.7977L159.026 59.7803L162.203 59.691L162.65 53.6191Z" fill="#6DAFA7"/>
<path d="M159.026 59.7797L158.802 62.7264L161.979 62.6371L162.203 59.6904L159.026 59.7797Z" fill="#B0D7C0"/>
<path d="M169.586 45.4932L166.364 45.7164L165.827 53.4401L169.004 53.3062L169.586 45.4932Z" fill="#6DAFA7"/>
<path d="M165.827 53.4396L165.156 62.5473L168.333 62.4581L169.004 53.3057L165.827 53.4396Z" fill="#B0D7C0"/>
<path d="M172.539 48.3053L172.181 53.127L175.358 52.9484L175.716 48.082L172.539 48.3053Z" fill="#6DAFA7"/>
<path d="M172.181 53.1278L171.51 62.4141L174.687 62.3249L175.358 52.9492L172.181 53.1278Z" fill="#B0D7C0"/>
<path d="M181.712 52.5918L178.535 52.7704L178.311 56.1635L181.488 55.9849L181.712 52.5918Z" fill="#6DAFA7"/>
<path d="M178.311 56.163L177.864 62.2348L181.041 62.1455L181.488 55.9844L178.311 56.163Z" fill="#B0D7C0"/>
<path d="M188.469 47.1895L188.066 52.2791L187.842 55.6275L184.666 55.8061L184.889 52.413L185.292 47.4127L188.469 47.1895Z" fill="#6DAFA7"/>
<path d="M184.665 55.8065L184.173 62.0569L187.35 62.0123L187.842 55.6279L184.665 55.8065Z" fill="#B0D7C0"/>
<path d="M214.019 43.5281L208.336 52.5019L203.369 45.7604C205.293 44.1485 207.668 43.1665 210.171 42.9477C211.481 42.8533 212.795 43.0516 214.019 43.5281V43.5281Z" fill="#22272E"/>
<path d="M218.449 51.7878L208.336 52.5021L214.019 43.5283C217.151 44.7784 218.986 47.9036 218.449 51.7878Z" fill="#F4C2C9"/>
<path d="M218.449 51.7881C218.449 51.922 218.404 52.056 218.404 52.1899C217.464 57.5027 212.497 61.9227 207.262 62.3245L208.336 52.5024L218.449 51.7881Z" fill="#B0D7C0"/>
<path d="M208.336 52.5025L207.262 62.3246C206.98 62.3617 206.696 62.3767 206.412 62.3693C201.087 62.3693 197.821 58.0386 198.939 52.8151C199.586 50.0488 201.146 47.58 203.369 45.8057L208.336 52.5025Z" fill="white"/>
<path d="M217.017 69.959L214.69 92.5944L156.207 91.5229L156.297 89.7817L168.96 81.0758C169.242 80.8756 169.582 80.7719 169.929 80.7799C170.276 80.7879 170.611 80.9074 170.884 81.1204L175.627 84.6028C175.803 84.733 176.003 84.827 176.215 84.8795C176.428 84.9321 176.649 84.942 176.865 84.9088C177.081 84.8756 177.289 84.7999 177.476 84.686C177.663 84.5722 177.825 84.4225 177.954 84.2456L182.652 77.9952C182.809 77.7857 183.013 77.6163 183.249 77.5011C183.484 77.3858 183.744 77.328 184.006 77.3324C184.268 77.3367 184.525 77.4031 184.757 77.5261C184.988 77.6491 185.187 77.8252 185.337 78.0399L189.498 83.7992C189.628 83.9815 189.793 84.1358 189.983 84.253C190.174 84.3702 190.386 84.4477 190.608 84.4811C190.829 84.5144 191.055 84.5029 191.272 84.4471C191.489 84.3913 191.692 84.2924 191.87 84.1564C192.151 83.9435 192.493 83.8246 192.847 83.8166C193.2 83.8086 193.547 83.9118 193.838 84.1117L196.792 86.2101C196.976 86.3393 197.184 86.4304 197.404 86.4779C197.624 86.5255 197.851 86.5285 198.072 86.4869C198.293 86.4453 198.504 86.3598 198.691 86.2356C198.878 86.1113 199.039 85.9509 199.163 85.7636L205.786 75.5844C205.91 75.3971 206.07 75.2366 206.258 75.1124C206.445 74.9881 206.656 74.9027 206.877 74.8611C207.098 74.8194 207.325 74.8225 207.545 74.87C207.765 74.9176 207.973 75.0087 208.157 75.1379L210.081 76.5219C210.257 76.6527 210.457 76.7472 210.669 76.8C210.882 76.8529 211.103 76.863 211.32 76.8298C211.536 76.7965 211.744 76.7206 211.931 76.6064C212.118 76.4923 212.28 76.3421 212.408 76.1648L217.017 69.959Z" fill="#6DAFA7"/>
<path d="M174.463 77.1469H171.913C171.854 77.1453 171.796 77.1565 171.742 77.1796C171.688 77.2027 171.639 77.2372 171.6 77.2808L171.018 77.8612C170.934 77.943 170.822 77.9888 170.705 77.9888C170.588 77.9888 170.475 77.943 170.392 77.8612L169.944 77.2808C169.905 77.2372 169.856 77.2027 169.802 77.1796C169.748 77.1565 169.69 77.1453 169.631 77.1469H167.17C167.118 77.1496 167.067 77.1408 167.019 77.1209C166.971 77.101 166.928 77.0706 166.894 77.032C166.86 76.9934 166.834 76.9475 166.82 76.8979C166.806 76.8482 166.803 76.796 166.812 76.7451L167.17 71.9233C167.178 71.8077 167.228 71.6988 167.31 71.6168C167.392 71.5348 167.501 71.4852 167.617 71.4769L174.911 71.209C175.018 71.209 175.12 71.2513 175.196 71.3267C175.271 71.402 175.314 71.5042 175.314 71.6108L174.911 76.6558C174.917 76.718 174.91 76.7809 174.891 76.8404C174.871 76.8998 174.839 76.9544 174.797 77.0008C174.755 77.0471 174.703 77.084 174.646 77.1092C174.588 77.1344 174.526 77.1472 174.463 77.1469V77.1469Z" fill="white"/>
<path d="M198.358 79.5582L195.807 79.5135C195.748 79.5119 195.69 79.5231 195.636 79.5462C195.582 79.5693 195.533 79.6039 195.494 79.6475L194.912 80.2278C194.871 80.2719 194.821 80.3063 194.765 80.3284C194.709 80.3504 194.649 80.3597 194.588 80.3554C194.528 80.3511 194.47 80.3334 194.418 80.3036C194.365 80.2738 194.32 80.2327 194.286 80.1832L193.838 79.6028C193.799 79.5592 193.751 79.5247 193.697 79.5016C193.642 79.4784 193.584 79.4673 193.525 79.4689L191.109 79.4242C190.885 79.4242 190.751 79.2456 190.751 78.9778L191.109 74.1114C191.115 74.0022 191.158 73.8983 191.231 73.8171C191.304 73.7358 191.403 73.6821 191.512 73.6649L198.805 73.4863C198.862 73.4873 198.917 73.4999 198.969 73.5233C199.02 73.5467 199.066 73.5803 199.104 73.6222C199.142 73.6641 199.17 73.7133 199.188 73.7667C199.206 73.8201 199.213 73.8767 199.208 73.9328L198.805 79.1117C198.809 79.1713 198.8 79.2312 198.779 79.2871C198.758 79.3431 198.725 79.3939 198.683 79.4362C198.641 79.4784 198.59 79.5112 198.534 79.5322C198.478 79.5533 198.418 79.5621 198.358 79.5582V79.5582Z" fill="#F4C2C9"/>
<path d="M75.7985 208.361C75.6196 208.941 75.2168 211.263 74.9036 213.406C71.5587 213.905 68.1409 213.488 65.0148 212.2C65.2385 209.968 65.4622 207.646 65.4622 207.646C65.4622 206.396 76.1565 207.289 75.7985 208.361Z" fill="#22272E"/>
<path d="M74.9034 213.361C74.635 215.236 74.3665 216.888 74.3665 216.888C74.3665 216.888 73.1583 219.7 70.1156 219.7C67.0729 219.7 64.6119 217.156 64.6566 216.084C64.7014 215.593 64.8356 213.896 65.0146 212.155C68.1392 213.449 71.5586 213.866 74.9034 213.361Z" fill="#B28D93"/>
<path d="M64.7014 215.236C65.1394 215.721 65.6024 216.183 66.0886 216.62C66.5808 217.067 68.1021 215.683 70.2499 215.951C72.3977 216.219 73.0689 217.067 73.0689 217.067C73.5653 216.967 74.0368 216.77 74.4561 216.486C74.4973 217.602 74.7241 218.704 75.1272 219.746C75.7984 221.487 79.1991 226.576 79.1991 227.559C79.1991 228.541 78.9754 229.3 78.2595 229.612C77.5435 229.925 72.8005 229.969 68.8181 230.059C64.8357 230.148 61.7482 230.371 61.3008 228.809C60.8533 227.246 62.6879 222.38 63.4486 219.388C64.2092 216.397 64.075 215.281 64.7014 215.236Z" fill="#22272E"/>
<path d="M65.3727 223.496C65.3727 223.496 70.1605 220.951 74.7246 223.496" stroke="white" stroke-width="1.8" stroke-linecap="round" stroke-linejoin="round"/>
<path d="M66.2675 220.995C68.7539 220.291 71.3879 220.291 73.8743 220.995" stroke="white" stroke-width="1.8" stroke-linecap="round" stroke-linejoin="round"/>
<path d="M122.245 211.441C117.144 213.183 111.864 212.111 111.908 212.156C111.729 209.656 111.506 207.022 111.506 207.022C112.177 205.459 121.797 204.745 121.887 205.414C121.887 205.771 122.066 208.718 122.245 211.441Z" fill="#22272E"/>
<path d="M122.513 216.174C122.513 216.174 121.842 218.272 118.934 219.344C116.025 220.415 112.311 217.513 112.266 216.665C112.222 216.308 112.087 214.254 111.909 212.156C111.909 212.111 117.144 213.183 122.245 211.441C122.379 213.897 122.513 216.174 122.513 216.174Z" fill="#B28D93"/>
<path d="M112.177 216.04C111.864 216.04 111.64 216.487 111.461 219.299C111.282 222.112 110.387 228.318 111.461 229.255C112.535 230.193 133.968 229.925 136.429 229.747C138.89 229.568 140.233 227.961 139.472 226.889C138.711 225.818 133.431 223.853 128.778 220.728C124.124 217.603 123.005 216.933 122.468 216.174C122.468 216.174 122.737 213.629 121.35 214.031C119.963 214.433 119.023 217.737 117.233 218.183C115.443 218.63 115.22 215.862 112.177 216.04Z" fill="#22272E"/>
<path d="M129.807 220.818C129.807 220.818 128.599 220.46 125.869 223.363" stroke="white" stroke-width="1.8" stroke-linecap="round" stroke-linejoin="round"/>
<path d="M126.854 218.898C126.854 218.898 124.706 218.808 122.245 221.978" stroke="white" stroke-width="1.8" stroke-linecap="round" stroke-linejoin="round"/>
<path d="M66.715 212.781L66.9834 210.995" stroke="#63737A" stroke-width="1.8" stroke-linecap="round" stroke-linejoin="round"/>
<path d="M69.8024 213.451L70.0708 211.665" stroke="#63737A" stroke-width="1.8" stroke-linecap="round" stroke-linejoin="round"/>
<path d="M73.2031 213.585L73.5164 211.978" stroke="#63737A" stroke-width="1.8" stroke-linecap="round" stroke-linejoin="round"/>
<path d="M113.922 212.379L113.788 210.504" stroke="#63737A" stroke-width="1.8" stroke-linecap="round" stroke-linejoin="round"/>
<path d="M117.636 212.334L117.502 210.28" stroke="#63737A" stroke-width="1.8" stroke-linecap="round" stroke-linejoin="round"/>
<path d="M120.992 211.799L120.858 209.879" stroke="#63737A" stroke-width="1.8" stroke-linecap="round" stroke-linejoin="round"/>
<path d="M63.717 108.399C62.9513 111.921 62.5317 115.51 62.4641 119.114C62.3299 125.23 67.1177 144.383 68.8628 150.857C70.6079 157.331 70.2499 158.357 69.9814 159.607C69.713 160.858 67.0282 170.769 66.1333 181.037C65.2384 191.306 62.0167 199.566 62.3746 202.735C62.8668 207.021 64.7014 208.271 65.4621 208.763C66.2228 209.254 72.4872 211.263 76.7381 210.28C76.7381 210.28 81.2574 207.423 82.1076 203.405C82.9578 199.387 82.4656 194.521 85.3741 181.395C88.2825 168.269 89.6249 162.867 90.0276 157.643C90.2514 154.518 90.2961 145.589 90.3409 138.758C90.3856 134.115 90.3856 130.409 90.4304 130.052C90.5646 129.159 92.7571 130.186 93.9205 127.329C94.4127 126.034 94.6812 123.578 94.726 120.944C94.8155 117.596 94.5917 113.935 94.1443 111.926C93.4283 108.22 64.4329 104.47 63.717 108.399Z" fill="#22272E"/>
<path d="M125.109 203.539C124.348 205.414 122.961 207.557 121.708 208.048C120.455 208.539 114.817 209.298 111.953 209.03C111.953 209.03 107.165 207.646 106.673 204.03C106.181 200.414 107.031 196.396 105.42 188.27C103.81 180.145 102.422 165.769 102.02 161.527C101.617 157.286 92.8468 144.651 88.7301 137.017C84.6135 129.382 80.1837 115.408 83.8528 112.149C87.522 108.89 100.633 107.417 104.525 110.051C104.525 110.051 109.045 121.034 113.564 134.159C117.726 146.214 118.576 150.277 119.157 153.759C119.195 154.075 119.255 154.388 119.336 154.696C119.515 155.768 119.739 158.536 120.052 162.108C120.768 171.171 121.618 185.234 121.976 188.449C122.469 192.913 125.869 201.664 125.109 203.539Z" fill="#22272E"/>
<path d="M87.9246 130.722C90.8364 129.675 93.8295 128.869 96.8738 128.312" stroke="#63737A" stroke-width="1.8" stroke-linecap="round" stroke-linejoin="round"/>
<path d="M87.6843 162.996C88.3466 159.758 86.2919 156.606 83.0951 155.955C79.8983 155.304 76.7699 157.401 76.1076 160.639C75.4453 163.877 77.4999 167.03 80.6967 167.681C83.8936 168.332 87.022 166.234 87.6843 162.996Z" stroke="#63737A" stroke-width="1.80036" stroke-linecap="round" stroke-linejoin="round"/>
<path d="M120.052 162.063C119.506 162.747 118.812 163.3 118.021 163.678C117.231 164.057 116.365 164.253 115.488 164.251C113.91 164.257 112.394 163.637 111.273 162.527C110.153 161.418 109.52 159.91 109.515 158.335C109.509 156.76 110.13 155.248 111.242 154.13C112.354 153.012 113.865 152.381 115.443 152.375C116.8 152.376 118.114 152.849 119.157 153.714" stroke="#63737A" stroke-width="1.8" stroke-linecap="round" stroke-linejoin="round"/>
<path d="M64.7463 129.516C66.3295 128.061 67.5926 126.294 68.4553 124.327C69.318 122.359 69.7615 120.234 69.7578 118.087C68.075 117.992 66.4006 117.784 64.7463 117.462" stroke="#63737A" stroke-width="1.8" stroke-linecap="round" stroke-linejoin="round"/>
<path d="M90.3408 138.758C90.3856 134.115 90.3856 130.409 90.4303 130.052C90.5646 129.159 92.7571 130.186 93.9205 127.329C94.4127 126.034 94.6812 123.578 94.7259 120.944" stroke="#63737A" stroke-width="1.8" stroke-linecap="round" stroke-linejoin="round"/>
<path d="M103.541 57.2793C103.541 57.2793 107.21 57.4579 113.117 69.2444C119.023 81.0309 121.126 85.2722 121.126 85.2722C121.126 85.2722 125.019 84.3347 131.373 83.3078C137.727 82.281 146.676 80.9862 146.676 80.9862C146.676 80.9862 149.092 81.0309 150.122 84.4686C150.384 85.3388 150.423 86.2608 150.235 87.1501C150.048 88.0393 149.639 88.8673 149.048 89.5582C148.825 89.8383 148.532 90.0541 148.197 90.1833C145.468 91.3441 129.538 98.0409 124.124 99.2017C118.173 100.452 115.264 100.273 109.984 93.0406C104.704 85.808 100.543 80.1826 98.6189 77.2806C96.6948 74.2447 95.3077 57.7258 103.541 57.2793Z" fill="#5686AE"/>
<path d="M113.609 97.1485C113.609 97.1485 113.296 94.7822 117.904 94.7822C122.513 94.7822 124.885 98.22 123.766 99.2022" stroke="#22272E" stroke-width="1.8" stroke-linecap="round" stroke-linejoin="round"/>
<path d="M121.126 85.2275C121.126 85.2275 119.202 86.1205 118.799 87.4598" stroke="#22272E" stroke-width="1.8" stroke-linecap="round" stroke-linejoin="round"/>
<path d="M146.9 81.3434C146.9 81.3434 148.869 80.6291 149.361 80.3612C149.853 80.0933 150.927 78.2182 151.822 77.0574C152.717 75.8966 155.267 75.2269 155.983 75.3609C156.178 75.387 156.365 75.4518 156.534 75.5515C156.703 75.6512 156.851 75.7837 156.968 75.9413C156.968 75.9413 159.205 75.1376 160.726 74.5126C162.248 73.8876 165.067 72.5035 165.469 73.6197C165.693 74.2894 163.948 75.2716 162.74 75.9413C161.263 76.7895 160.279 77.4146 160.279 77.4146C160.513 77.5526 160.715 77.74 160.869 77.9636C161.024 78.1871 161.128 78.4416 161.174 78.7093C161.353 79.6469 161.845 80.6737 160.95 82.1024C160.682 82.5042 161.711 83.6204 160.905 84.6472C159.518 86.2991 156.162 87.1474 154.372 87.6831C152.582 88.2189 148.376 88.4867 148.376 88.4867C148.376 88.4867 147.034 88.1742 146.452 85.2722C145.871 82.3703 146.9 81.3434 146.9 81.3434Z" fill="#B28D93"/>
<path d="M156.968 75.9414C156.968 75.9414 157.281 76.745 157.639 77.9505C157.997 79.1559 158.265 80.0935 157.326 80.1381C156.386 80.1828 155.536 78.7541 155.178 78.0398" stroke="#896068" stroke-width="1.8" stroke-linecap="round" stroke-linejoin="round"/>
<path d="M155.804 79.0664C155.804 79.0664 156.833 81.1201 154.462 82.9059" stroke="#896068" stroke-width="1.8" stroke-linecap="round" stroke-linejoin="round"/>
<path d="M160.324 77.415L157.818 78.5758" stroke="#896068" stroke-width="1.8" stroke-linecap="round" stroke-linejoin="round"/>
<path d="M156.565 79.8706C156.565 79.8706 156.118 80.5849 156.565 80.9867C157.012 81.3885 159.473 80.4956 161.263 79.4688" stroke="#896068" stroke-width="1.8" stroke-linecap="round" stroke-linejoin="round"/>
<path d="M156.968 81.0762C156.758 81.1868 156.599 81.3738 156.524 81.5983C156.449 81.8229 156.464 82.0676 156.565 82.2816C156.923 83.0852 158.847 82.7727 160.95 82.103" stroke="#896068" stroke-width="1.8" stroke-linecap="round" stroke-linejoin="round"/>
<path d="M157.37 82.7725C157.37 82.7725 156.252 82.9064 156.834 84.0225C157.191 84.6922 159.339 84.469 159.787 84.6476" stroke="#896068" stroke-width="1.8" stroke-linecap="round" stroke-linejoin="round"/>
<path d="M144.305 81.7451C143.947 82.3702 143.499 83.5756 143.812 85.7186C143.9 86.6435 144.195 87.5369 144.675 88.3329C145.155 89.1288 145.808 89.8069 146.587 90.3171" stroke="#22272E" stroke-width="1.8" stroke-linecap="round" stroke-linejoin="round"/>
<path d="M89.0431 40.9396C89.0431 40.9396 87.6113 48.1275 86.8058 50.092C86.0004 52.0564 90.3855 55.1369 94.7706 55.3155C99.1558 55.4941 98.7083 52.9493 98.7083 52.9493L100.006 45.806C100.006 45.8506 90.6093 39.2877 89.0431 40.9396Z" fill="#B28D93"/>
<path d="M91.0121 43.082C90.3856 48.5288 94.3233 51.1629 98.7084 53.2166V52.9487L99.4243 49.1539C96.1578 48.0824 93.2941 45.7608 91.0121 43.082Z" fill="#896068"/>
<path d="M70.2499 55.3594C71.2343 52.4574 74.9929 50.7162 78.0357 50.9841C81.1679 51.252 87.1639 51.3412 92.9361 53.1271C102.78 56.163 105.152 57.9488 105.733 58.4846C109 61.6098 108.687 66.2529 106.807 79.0663C105.599 87.5044 104.57 89.6474 104.839 93.7994C105.107 97.9515 105.868 105.318 106.36 106.836C106.852 108.354 105.599 110.988 104.525 111.926C103.451 112.863 94.7707 114.828 86.7164 114.649C78.6621 114.47 65.999 112.283 63.9854 110.943C61.9719 109.604 60.54 107.282 60.9875 105.273C61.5438 102.202 62.2607 99.1621 63.1353 96.1656C64.3881 91.9243 64.4776 86.3882 66.4465 77.5037C67.9678 70.9408 68.1915 61.4312 70.2499 55.3594Z" fill="#FFE38E"/>
<path d="M106.488 45.7834C107.571 45.2428 108.234 44.3755 107.969 43.8462C107.703 43.317 106.61 43.3262 105.527 43.8668C104.444 44.4075 103.782 45.2747 104.047 45.804C104.312 46.3332 105.406 46.324 106.488 45.7834Z" fill="#F8AB5D"/>
<path d="M113.87 50.7931C114.953 50.2525 115.616 49.3852 115.35 48.856C115.085 48.3268 113.992 48.336 112.909 48.8766C111.826 49.4172 111.163 50.2845 111.429 50.8137C111.694 51.3429 112.787 51.3337 113.87 50.7931Z" fill="#F8AB5D"/>
<path d="M97.4507 50.3039C98.5336 49.7633 99.1964 48.896 98.931 48.3668C98.6656 47.8375 97.5726 47.8467 96.4896 48.3874C95.4067 48.928 94.7439 49.7952 95.0093 50.3245C95.2747 50.8537 96.3677 50.8445 97.4507 50.3039Z" fill="#F8AB5D"/>
<path d="M104.874 55.2921C105.957 54.7515 106.619 53.8843 106.354 53.355C106.089 52.8258 104.995 52.835 103.913 53.3756C102.83 53.9162 102.167 54.7835 102.432 55.3127C102.698 55.842 103.791 55.8327 104.874 55.2921Z" fill="#F8AB5D"/>
<path d="M113.288 59.3576C114.371 58.817 115.034 57.9497 114.768 57.4205C114.503 56.8912 113.41 56.9004 112.327 57.4411C111.244 57.9817 110.581 58.8489 110.847 59.3782C111.112 59.9074 112.205 59.8982 113.288 59.3576Z" fill="#F8AB5D"/>
<path d="M120.67 64.3673C121.753 63.8267 122.415 62.9595 122.15 62.4302C121.884 61.901 120.791 61.9102 119.709 62.4508C118.626 62.9914 117.963 63.8587 118.228 64.3879C118.494 64.9172 119.587 64.9079 120.67 64.3673Z" fill="#F8AB5D"/>
<path d="M104.254 63.8761C105.337 63.3355 106 62.4682 105.735 61.939C105.469 61.4098 104.376 61.419 103.293 61.9596C102.21 62.5002 101.548 63.3675 101.813 63.8967C102.078 64.426 103.171 64.4167 104.254 63.8761Z" fill="#F8AB5D"/>
<path d="M111.682 68.8654C112.765 68.3248 113.427 67.4575 113.162 66.9283C112.897 66.399 111.804 66.4083 110.721 66.9489C109.638 67.4895 108.975 68.3568 109.24 68.886C109.506 69.4152 110.599 69.406 111.682 68.8654Z" fill="#F8AB5D"/>
<path d="M88.4628 54.8009C89.5457 54.2603 90.2085 53.3931 89.9431 52.8638C89.6777 52.3346 88.5847 52.3438 87.5018 52.8844C86.4188 53.425 85.7561 54.2923 86.0215 54.8215C86.2868 55.3508 87.3799 55.3415 88.4628 54.8009Z" fill="#F8AB5D"/>
<path d="M95.8444 59.8107C96.9273 59.2701 97.5901 58.4028 97.3247 57.8736C97.0593 57.3444 95.9663 57.3536 94.8834 57.8942C93.8004 58.4348 93.1377 59.3021 93.4031 59.8313C93.6684 60.3605 94.7615 60.3513 95.8444 59.8107Z" fill="#F8AB5D"/>
<path d="M79.409 59.2794C80.4919 58.7388 81.1547 57.8716 80.8893 57.3423C80.6239 56.8131 79.5309 56.8223 78.4479 57.3629C77.365 57.9035 76.7023 58.7708 76.9676 59.3C77.233 59.8293 78.326 59.8201 79.409 59.2794Z" fill="#F8AB5D"/>
<path d="M86.8318 64.2687C87.9147 63.7281 88.5775 62.8608 88.3121 62.3316C88.0467 61.8024 86.9537 61.8116 85.8707 62.3522C84.7878 62.8928 84.1251 63.7601 84.3904 64.2893C84.6558 64.8185 85.7488 64.8093 86.8318 64.2687Z" fill="#F8AB5D"/>
<path d="M95.2418 68.3341C96.3247 67.7935 96.9875 66.9263 96.7221 66.397C96.4567 65.8678 95.3637 65.877 94.2808 66.4176C93.1978 66.9582 92.5351 67.8255 92.8005 68.3547C93.0658 68.884 94.1589 68.8748 95.2418 68.3341Z" fill="#F8AB5D"/>
<path d="M102.646 73.3898C103.729 72.8492 104.392 71.9819 104.126 71.4527C103.861 70.9235 102.768 70.9327 101.685 71.4733C100.602 72.0139 99.9392 72.8812 100.205 73.4104C100.47 73.9396 101.563 73.9304 102.646 73.3898Z" fill="#F8AB5D"/>
<path d="M86.2105 72.8585C87.2934 72.3179 87.9562 71.4507 87.6908 70.9214C87.4254 70.3922 86.3324 70.4014 85.2495 70.942C84.1665 71.4827 83.5038 72.3499 83.7691 72.8791C84.0345 73.4084 85.1276 73.3991 86.2105 72.8585Z" fill="#F8AB5D"/>
<path d="M93.6334 77.8478C94.7163 77.3072 95.3791 76.4399 95.1137 75.9107C94.8483 75.3815 93.7553 75.3907 92.6724 75.9313C91.5894 76.4719 90.9267 77.3392 91.1921 77.8684C91.4574 78.3976 92.5505 78.3884 93.6334 77.8478Z" fill="#F8AB5D"/>
<path d="M120.273 73.2863C121.356 72.7457 122.019 71.8784 121.753 71.3492C121.488 70.82 120.395 70.8292 119.312 71.3698C118.229 71.9104 117.566 72.7777 117.832 73.3069C118.097 73.8361 119.19 73.8269 120.273 73.2863Z" fill="#F8AB5D"/>
<path d="M127.659 78.2941C128.742 77.7535 129.404 76.8862 129.139 76.357C128.874 75.8278 127.781 75.837 126.698 76.3776C125.615 76.9182 124.952 77.7855 125.217 78.3147C125.483 78.8439 126.576 78.8347 127.659 78.2941Z" fill="#F8AB5D"/>
<path d="M111.219 77.7658C112.302 77.2252 112.965 76.3579 112.699 75.8287C112.434 75.2994 111.341 75.3087 110.258 75.8493C109.175 76.3899 108.512 77.2571 108.778 77.7864C109.043 78.3156 110.136 78.3064 111.219 77.7658Z" fill="#F8AB5D"/>
<path d="M118.646 82.757C119.729 82.2164 120.392 81.3491 120.127 80.8199C119.861 80.2907 118.768 80.2999 117.685 80.8405C116.602 81.3811 115.939 82.2484 116.205 82.7776C116.47 83.3068 117.563 83.2976 118.646 82.757Z" fill="#F8AB5D"/>
<path d="M127.077 86.8595C128.16 86.3189 128.822 85.4517 128.557 84.9224C128.292 84.3932 127.199 84.4024 126.116 84.943C125.033 85.4836 124.37 86.3509 124.635 86.8801C124.901 87.4094 125.994 87.4001 127.077 86.8595Z" fill="#F8AB5D"/>
<path d="M134.458 91.8693C135.541 91.3287 136.204 90.4614 135.939 89.9322C135.673 89.403 134.58 89.4122 133.497 89.9528C132.414 90.4934 131.751 91.3607 132.017 91.8899C132.282 92.4191 133.375 92.4099 134.458 91.8693Z" fill="#F8AB5D"/>
<path d="M118.023 91.338C119.106 90.7974 119.768 89.9302 119.503 89.401C119.238 88.8717 118.145 88.8809 117.062 89.4215C115.979 89.9621 115.316 90.8294 115.581 91.3587C115.847 91.8879 116.94 91.8787 118.023 91.338Z" fill="#F8AB5D"/>
<path d="M125.446 96.3283C126.529 95.7877 127.191 94.9204 126.926 94.3912C126.661 93.8619 125.568 93.8712 124.485 94.4118C123.402 94.9524 122.739 95.8196 123.004 96.3489C123.27 96.8781 124.363 96.8689 125.446 96.3283Z" fill="#F8AB5D"/>
<path d="M102.227 82.2628C103.31 81.7222 103.973 80.855 103.707 80.3257C103.442 79.7965 102.349 79.8057 101.266 80.3463C100.183 80.8869 99.5201 81.7542 99.7855 82.2834C100.051 82.8127 101.144 82.8034 102.227 82.2628Z" fill="#F8AB5D"/>
<path d="M109.613 87.2726C110.696 86.732 111.359 85.8647 111.093 85.3355C110.828 84.8063 109.735 84.8155 108.652 85.3561C107.569 85.8967 106.906 86.764 107.172 87.2932C107.437 87.8224 108.53 87.8132 109.613 87.2726Z" fill="#F8AB5D"/>
<path d="M93.1935 86.7834C94.2764 86.2427 94.9392 85.3755 94.6738 84.8462C94.4084 84.317 93.3154 84.3262 92.2325 84.8668C91.1496 85.4075 90.4868 86.2747 90.7522 86.804C91.0176 87.3332 92.1106 87.324 93.1935 86.7834Z" fill="#F8AB5D"/>
<path d="M100.62 91.7746C101.703 91.234 102.366 90.3667 102.101 89.8375C101.835 89.3082 100.742 89.3175 99.6594 89.8581C98.5765 90.3987 97.9137 91.2659 98.1791 91.7952C98.4445 92.3244 99.5375 92.3152 100.62 91.7746Z" fill="#F8AB5D"/>
<path d="M109.031 95.838C110.114 95.2974 110.777 94.4302 110.511 93.9009C110.246 93.3717 109.153 93.3809 108.07 93.9215C106.987 94.4621 106.324 95.3294 106.59 95.8586C106.855 96.3879 107.948 96.3786 109.031 95.838Z" fill="#F8AB5D"/>
<path d="M116.418 100.85C117.501 100.309 118.164 99.4419 117.899 98.9126C117.633 98.3834 116.54 98.3926 115.457 98.9332C114.374 99.4739 113.712 100.341 113.977 100.87C114.242 101.4 115.335 101.39 116.418 100.85Z" fill="#F8AB5D"/>
<path d="M107.42 105.345C108.503 104.804 109.166 103.937 108.9 103.408C108.635 102.879 107.542 102.888 106.459 103.428C105.376 103.969 104.713 104.836 104.979 105.365C105.244 105.895 106.337 105.885 107.42 105.345Z" fill="#F8AB5D"/>
<path d="M70.3257 63.8234C71.4086 63.2828 72.0714 62.4155 71.806 61.8863C71.5406 61.3571 70.4476 61.3663 69.3647 61.9069C68.2818 62.4475 67.619 63.3148 67.8844 63.844C68.1498 64.3732 69.2428 64.364 70.3257 63.8234Z" fill="#F8AB5D"/>
<path d="M77.7132 68.8351C78.7962 68.2945 79.4589 67.4272 79.1935 66.898C78.9282 66.3688 77.8351 66.378 76.7522 66.9186C75.6693 67.4592 75.0065 68.3265 75.2719 68.8557C75.5373 69.3849 76.6303 69.3757 77.7132 68.8351Z" fill="#F8AB5D"/>
<path d="M61.3334 68.3253C62.4163 67.7847 63.0791 66.9175 62.8137 66.3882C62.5483 65.859 61.4553 65.8682 60.3724 66.4088C59.2894 66.9494 58.6267 67.8167 58.8921 68.3459C59.1575 68.8752 60.2505 68.8659 61.3334 68.3253Z" fill="#F8AB5D"/>
<path d="M68.7213 73.339C69.8042 72.7984 70.467 71.9312 70.2016 71.4019C69.9362 70.8727 68.8432 70.8819 67.7603 71.4225C66.6773 71.9631 66.0146 72.8304 66.28 73.3596C66.5453 73.8889 67.6384 73.8796 68.7213 73.339Z" fill="#F8AB5D"/>
<path d="M77.1312 77.4006C78.2141 76.8599 78.8769 75.9927 78.6115 75.4634C78.3461 74.9342 77.2531 74.9434 76.1702 75.484C75.0872 76.0246 74.4245 76.8919 74.6899 77.4211C74.9552 77.9504 76.0483 77.9412 77.1312 77.4006Z" fill="#F8AB5D"/>
<path d="M84.5542 82.3937C85.6372 81.8531 86.3 80.9858 86.0346 80.4566C85.7692 79.9274 84.6761 79.9366 83.5932 80.4772C82.5103 81.0178 81.8475 81.8851 82.1129 82.4143C82.3783 82.9435 83.4713 82.9343 84.5542 82.3937Z" fill="#F8AB5D"/>
<path d="M68.1394 81.8996C69.2223 81.359 69.8851 80.4917 69.6197 79.9625C69.3543 79.4332 68.2613 79.4425 67.1784 79.9831C66.0954 80.5237 65.4327 81.3909 65.698 81.9202C65.9634 82.4494 67.0564 82.4402 68.1394 81.8996Z" fill="#F8AB5D"/>
<path d="M75.521 86.9093C76.6039 86.3687 77.2667 85.5014 77.0013 84.9722C76.7359 84.443 75.6429 84.4522 74.5599 84.9928C73.477 85.5334 72.8143 86.4007 73.0796 86.9299C73.345 87.4592 74.438 87.4499 75.521 86.9093Z" fill="#F8AB5D"/>
<path d="M52.302 72.8449C53.3849 72.3043 54.0477 71.437 53.7823 70.9078C53.5169 70.3785 52.4239 70.3878 51.3409 70.9284C50.258 71.469 49.5953 72.3362 49.8606 72.8655C50.126 73.3947 51.219 73.3855 52.302 72.8449Z" fill="#F8AB5D"/>
<path d="M59.727 77.8332C60.8099 77.2926 61.4726 76.4253 61.2073 75.8961C60.9419 75.3668 59.8489 75.3761 58.7659 75.9167C57.683 76.4573 57.0202 77.3245 57.2856 77.8538C57.551 78.383 58.644 78.3738 59.727 77.8332Z" fill="#F8AB5D"/>
<path d="M43.2896 77.3078C44.3725 76.7672 45.0353 75.8999 44.7699 75.3707C44.5045 74.8414 43.4115 74.8507 42.3286 75.3913C41.2456 75.9319 40.5829 76.7991 40.8483 77.3284C41.1136 77.8576 42.2067 77.8484 43.2896 77.3078Z" fill="#F8AB5D"/>
<path d="M50.6958 82.3566C51.7787 81.816 52.4415 80.9487 52.1761 80.4195C51.9107 79.8903 50.8177 79.8995 49.7347 80.4401C48.6518 80.9807 47.9891 81.848 48.2544 82.3772C48.5198 82.9064 49.6128 82.8972 50.6958 82.3566Z" fill="#F8AB5D"/>
<path d="M59.1056 86.4181C60.1885 85.8775 60.8513 85.0102 60.5859 84.481C60.3205 83.9518 59.2275 83.961 58.1445 84.5016C57.0616 85.0422 56.3988 85.9095 56.6642 86.4387C56.9296 86.968 58.0226 86.9587 59.1056 86.4181Z" fill="#F8AB5D"/>
<path d="M66.5285 91.4123C67.6114 90.8716 68.2742 90.0044 68.0088 89.4752C67.7434 88.9459 66.6504 88.9552 65.5674 89.4958C64.4845 90.0364 63.8218 90.9036 64.0871 91.4329C64.3525 91.9621 65.4455 91.9529 66.5285 91.4123Z" fill="#F8AB5D"/>
<path d="M50.0932 90.8761C51.1761 90.3355 51.8389 89.4682 51.5735 88.939C51.3081 88.4098 50.2151 88.419 49.1321 88.9596C48.0492 89.5002 47.3865 90.3675 47.6518 90.8967C47.9172 91.426 49.0102 91.4167 50.0932 90.8761Z" fill="#F8AB5D"/>
<path d="M57.4747 95.8908C58.5576 95.3502 59.2204 94.4829 58.955 93.9537C58.6896 93.4244 57.5966 93.4337 56.5137 93.9743C55.4307 94.5149 54.768 95.3821 55.0334 95.9114C55.2988 96.4406 56.3918 96.4314 57.4747 95.8908Z" fill="#F8AB5D"/>
<path d="M75.1265 95.8263C76.2094 95.2857 76.8721 94.4184 76.6068 93.8892C76.3414 93.36 75.2484 93.3692 74.1654 93.9098C73.0825 94.4504 72.4197 95.3177 72.6851 95.8469C72.9505 96.3762 74.0435 96.3669 75.1265 95.8263Z" fill="#F8AB5D"/>
<path d="M98.3429 109.896C99.4258 109.355 100.089 108.488 99.8232 107.959C99.5578 107.429 98.4648 107.439 97.3818 107.979C96.2989 108.52 95.6362 109.387 95.9015 109.916C96.1669 110.445 97.2599 110.436 98.3429 109.896Z" fill="#F8AB5D"/>
<path d="M81.9034 109.366C82.9864 108.826 83.6491 107.958 83.3837 107.429C83.1184 106.9 82.0253 106.909 80.9424 107.45C79.8595 107.99 79.1967 108.858 79.4621 109.387C79.7275 109.916 80.8205 109.907 81.9034 109.366Z" fill="#F8AB5D"/>
<path d="M89.3096 114.415C90.3925 113.875 91.0553 113.007 90.7899 112.478C90.5245 111.949 89.4315 111.958 88.3486 112.499C87.2656 113.039 86.6029 113.907 86.8683 114.436C87.1337 114.965 88.2267 114.956 89.3096 114.415Z" fill="#F8AB5D"/>
<path d="M66.0746 100.31C67.1575 99.7691 67.8202 98.9018 67.5548 98.3726C67.2895 97.8434 66.1965 97.8526 65.1135 98.3932C64.0306 98.9338 63.3678 99.8011 63.6332 100.33C63.8986 100.86 64.9916 100.85 66.0746 100.31Z" fill="#F8AB5D"/>
<path d="M73.4955 105.295C74.5784 104.754 75.2412 103.887 74.9758 103.358C74.7104 102.829 73.6174 102.838 72.5344 103.379C71.4515 103.919 70.7887 104.786 71.0541 105.316C71.3195 105.845 72.4125 105.836 73.4955 105.295Z" fill="#F8AB5D"/>
<path d="M57.0782 104.809C58.1612 104.268 58.8239 103.401 58.5585 102.872C58.2932 102.342 57.2001 102.352 56.1172 102.892C55.0343 103.433 54.3715 104.3 54.6369 104.829C54.9023 105.359 55.9953 105.349 57.0782 104.809Z" fill="#F8AB5D"/>
<path d="M64.4597 109.819C65.5426 109.278 66.2054 108.411 65.94 107.881C65.6746 107.352 64.5816 107.361 63.4987 107.902C62.4157 108.443 61.753 109.31 62.0184 109.839C62.2837 110.368 63.3768 110.359 64.4597 109.819Z" fill="#F8AB5D"/>
<path d="M72.8742 113.88C73.9571 113.339 74.6199 112.472 74.3545 111.943C74.0891 111.414 72.9961 111.423 71.9132 111.964C70.8302 112.504 70.1675 113.371 70.4329 113.901C70.6982 114.43 71.7913 114.421 72.8742 113.88Z" fill="#F8AB5D"/>
<path d="M80.2971 118.874C81.38 118.334 82.0428 117.466 81.7774 116.937C81.512 116.408 80.419 116.417 79.3361 116.958C78.2531 117.498 77.5904 118.366 77.8558 118.895C78.1211 119.424 79.2142 119.415 80.2971 118.874Z" fill="#F8AB5D"/>
<path d="M63.8778 118.384C64.9607 117.843 65.6235 116.976 65.3581 116.447C65.0927 115.918 63.9997 115.927 62.9168 116.467C61.8338 117.008 61.1711 117.875 61.4364 118.405C61.7018 118.934 62.7949 118.925 63.8778 118.384Z" fill="#F8AB5D"/>
<path d="M71.2678 123.392C72.3507 122.851 73.0135 121.984 72.7481 121.455C72.4827 120.925 71.3897 120.935 70.3068 121.475C69.2238 122.016 68.5611 122.883 68.8265 123.412C69.0918 123.942 70.1849 123.932 71.2678 123.392Z" fill="#F8AB5D"/>
<path d="M82.5551 88.085C87.5313 89.1326 92.5946 89.7155 97.6792 89.8262C98.0101 89.835 98.327 89.9612 98.573 90.1822C98.819 90.4031 98.9781 90.7043 99.0216 91.0317C99.2678 92.8346 100.065 94.5182 101.304 95.8534C101.42 95.9711 101.511 96.1107 101.572 96.264C101.634 96.4173 101.664 96.5812 101.662 96.7463C101.706 98.6214 101.796 104.961 100.543 105.943C99.1111 107.015 83.8974 107.997 74.456 105.363C74.1555 105.286 73.8881 105.114 73.6943 104.873C73.5006 104.631 73.391 104.333 73.3821 104.024C73.4269 102.193 73.5164 98.3536 73.8296 95.9427C73.8734 95.7031 73.9732 95.4771 74.1209 95.2832C74.2686 95.0893 74.4601 94.9328 74.6798 94.8266C76.1564 94.1569 79.5571 92.371 80.7652 89.0226C80.9095 88.6844 81.1664 88.4063 81.4926 88.2354C81.8188 88.0645 82.1941 88.0114 82.5551 88.085V88.085Z" stroke="#F8AB5D" stroke-width="1.8" stroke-linecap="round" stroke-linejoin="round"/>
<path d="M86.2243 49.0197C86.2704 48.9185 86.3399 48.8296 86.4272 48.7604C86.5145 48.6913 86.617 48.6438 86.7263 48.622C86.8356 48.6002 86.9485 48.6046 87.0557 48.635C87.163 48.6653 87.2614 48.7207 87.343 48.7965C88.1931 49.6894 90.0277 51.0288 93.3389 51.6538C98.3952 52.5914 98.8874 51.8324 98.8874 51.8324C98.8874 51.8324 99.6929 52.1003 99.7823 52.77C99.8088 53.8527 99.6884 54.934 99.4244 55.9845C99.1559 56.8328 95.3972 56.9221 92.3993 56.297C89.7502 55.8125 87.3051 54.5539 85.3741 52.6807C85.2215 52.5338 85.1181 52.3434 85.0781 52.1356C85.038 51.9279 85.0633 51.7128 85.1504 51.5199C85.4189 50.8502 85.8664 49.868 86.2243 49.0197Z" fill="#5686AE"/>
<path d="M108.284 32.4569C108.328 34.3705 108.025 36.2762 107.389 38.0823C106.494 40.4038 105.017 46.8775 102.109 48.9758C99.2005 51.0742 92.8466 50.6724 90.0723 45.2702C87.2981 39.8681 88.193 34.1981 89.6249 29.6442C91.0568 25.0903 96.9632 23.4384 102.109 25.3136C107.255 27.1887 108.284 30.4478 108.284 32.4569Z" fill="#B28D93"/>
<path d="M89.4908 35.582C89.7959 35.9813 90.0513 36.4161 90.2515 36.8767C90.6542 37.8143 91.5044 37.2785 91.8176 35.582C92.1308 33.8855 92.8468 32.68 93.3837 32.7693C94.0734 32.9338 94.7985 32.86 95.4406 32.56C96.0828 32.2599 96.6038 31.7513 96.9187 31.1174C98.0373 29.0637 98.5295 29.3762 98.5295 29.3762C98.5295 29.3762 99.4244 27.2332 101.751 30.3138C104.078 33.3943 105.555 35.8052 108.329 35.3141C111.103 34.823 113.564 30.3138 111.461 25.9831C109.358 21.6525 102.736 20.6256 97.8136 21.9204C92.8915 23.2151 90.341 22.1436 87.3878 24.6438C84.4345 27.1439 85.1505 29.778 84.9715 32.7247C84.7925 35.6713 83.2711 37.2339 85.2847 39.868C87.2983 42.5021 86.7613 44.9576 87.88 46.4309C87.88 46.4309 89.0881 42.5467 88.9539 39.7341C88.8196 36.9214 89.4908 35.582 89.4908 35.582Z" fill="#22272E"/>
<path d="M102.78 38.0376C102.748 39.16 102.284 40.227 101.484 41.0169C100.684 41.8067 99.6097 42.2587 98.4845 42.2789C97.9241 42.2745 97.3702 42.1581 96.8556 41.9366C96.341 41.7152 95.8761 41.3931 95.4882 40.9895C95.1003 40.5858 94.7974 40.1088 94.5973 39.5865C94.3972 39.0641 94.304 38.5071 94.3231 37.9483C94.3196 37.3706 94.4303 36.7979 94.6488 36.263C94.8674 35.728 95.1896 35.2414 95.5969 34.8308C96.0042 34.4203 96.4887 34.0939 97.0226 33.8704C97.5564 33.6469 98.1293 33.5307 98.7082 33.5283C99.2746 33.551 99.8307 33.6864 100.344 33.9266C100.857 34.1669 101.317 34.5071 101.696 34.9272C102.075 35.3474 102.367 35.839 102.553 36.3731C102.739 36.9073 102.816 37.4732 102.78 38.0376V38.0376Z" stroke="#22272E" stroke-width="1.8" stroke-linecap="round" stroke-linejoin="round"/>
<path d="M109.682 40.6812C110.304 38.5506 109.596 36.4713 108.102 36.0368C106.607 35.6024 104.891 36.9774 104.269 39.108C103.647 41.2386 104.354 43.318 105.849 43.7524C107.344 44.1868 109.06 42.8118 109.682 40.6812Z" stroke="#22272E" stroke-width="1.8" stroke-linecap="round" stroke-linejoin="round"/>
<path d="M104.346 38.975C104.346 38.975 104.302 38.0821 102.735 38.5732" stroke="#22272E" stroke-width="1.8" stroke-linecap="round" stroke-linejoin="round"/>
<path d="M94.6812 36.1172L89.4907 35.1797" stroke="#22272E" stroke-width="1.8" stroke-linecap="round" stroke-linejoin="round"/>
<path d="M89.9381 36.3857C89.9381 36.3857 89.5354 34.0195 87.6114 33.9749C85.6873 33.9302 84.5239 39.8235 89.3117 40.6271" fill="#B28D93"/>
<path d="M87.2982 35.8048C87.5211 35.7479 87.7562 35.7601 87.9721 35.8398C88.1879 35.9196 88.3743 36.0631 88.5063 36.2513C88.6334 36.4836 88.6952 36.7458 88.6853 37.0103C88.6853 37.1442 88.6405 37.2335 88.6405 37.3674C88.6405 37.5014 88.5958 37.546 88.5958 37.6353C88.5609 37.7814 88.5458 37.9316 88.551 38.0818C88.5415 38.1372 88.5446 38.1941 88.5601 38.2482C88.5756 38.3023 88.6031 38.3522 88.6405 38.3943C88.8813 38.6549 89.1699 38.8671 89.4907 39.0193C89.2782 39.0957 89.0512 39.1233 88.8266 39.1001C88.6019 39.0769 88.3854 39.0035 88.1931 38.8854C87.9782 38.7216 87.8341 38.482 87.7904 38.2157C87.7591 37.9769 87.7743 37.7344 87.8351 37.5014C87.8799 37.4121 87.8799 37.2781 87.9246 37.1888C87.9693 37.0995 87.9693 37.0549 87.9693 36.9656C88.0143 36.8508 88.0143 36.7233 87.9693 36.6084C87.9209 36.4347 87.8361 36.2732 87.7204 36.1346C87.6046 35.9961 87.4607 35.8837 87.2982 35.8048V35.8048Z" fill="#22272E"/>
<path d="M103.72 38.2607C103.75 38.7646 103.856 39.2612 104.033 39.7341C104.11 39.9409 104.216 40.1362 104.346 40.3144C104.534 40.5353 104.672 40.7943 104.749 41.0734C104.821 41.3721 104.826 41.6828 104.764 41.9837C104.702 42.2846 104.575 42.5682 104.391 42.8146C104.228 43.0519 104.014 43.2501 103.765 43.395C103.528 43.556 103.245 43.6345 102.959 43.6182C103.355 43.3276 103.652 42.9223 103.809 42.4574C103.983 42.0807 104.031 41.6577 103.944 41.252C103.865 41.0459 103.759 40.8508 103.63 40.6716C103.494 40.4058 103.403 40.1191 103.362 39.8233C103.342 39.2802 103.465 38.7413 103.72 38.2607V38.2607Z" fill="#22272E"/>
<path d="M99.2454 45.3589C98.6192 45.3361 98.0116 45.1404 97.4902 44.7936C96.9688 44.4468 96.5541 43.9625 96.2921 43.3945" stroke="#22272E" stroke-width="1.8" stroke-linecap="round" stroke-linejoin="round"/>
<path d="M97.4108 38.8855C97.3255 38.8651 97.2451 38.8281 97.1742 38.7766C97.1034 38.7251 97.0433 38.6602 96.9976 38.5856C96.9519 38.5109 96.9214 38.428 96.9078 38.3416C96.8942 38.2551 96.8979 38.1669 96.9186 38.0819L97.0975 37.4122C97.118 37.3271 97.1551 37.2469 97.2067 37.1762C97.2583 37.1055 97.3234 37.0456 97.3982 36.9999C97.473 36.9543 97.5561 36.9239 97.6427 36.9103C97.7293 36.8968 97.8178 36.9005 97.903 36.9211C97.9882 36.9415 98.0686 36.9785 98.1395 37.03C98.2104 37.0815 98.2704 37.1464 98.3162 37.221C98.3619 37.2957 98.3924 37.3786 98.406 37.465C98.4195 37.5515 98.4158 37.6397 98.3952 37.7247L98.2162 38.3944C98.1957 38.4795 98.1586 38.5597 98.107 38.6304C98.0555 38.7011 97.9904 38.761 97.9156 38.8067C97.8408 38.8523 97.7577 38.8827 97.671 38.8962C97.5844 38.9098 97.496 38.9061 97.4108 38.8855V38.8855Z" fill="#22272E"/>
<path d="M104.525 40.7156C104.44 40.6951 104.36 40.6581 104.289 40.6067C104.218 40.5552 104.158 40.4903 104.112 40.4156C104.066 40.341 104.036 40.2581 104.022 40.1717C104.009 40.0852 104.012 39.997 104.033 39.912L104.212 39.2423C104.233 39.1572 104.27 39.077 104.321 39.0063C104.373 38.9355 104.438 38.8756 104.513 38.83C104.587 38.7844 104.671 38.754 104.757 38.7404C104.844 38.7269 104.932 38.7305 105.017 38.7512V38.7512C105.103 38.7716 105.183 38.8086 105.254 38.8601C105.325 38.9115 105.385 38.9765 105.431 39.0511C105.476 39.1258 105.507 39.2087 105.52 39.2951C105.534 39.3815 105.53 39.4698 105.51 39.5548L105.331 40.2245C105.31 40.3095 105.273 40.3897 105.222 40.4605C105.17 40.5312 105.105 40.5911 105.03 40.6367C104.955 40.6823 104.872 40.7128 104.786 40.7263C104.699 40.7399 104.61 40.7362 104.525 40.7156V40.7156Z" fill="#22272E"/>
<path d="M99.2007 35.8051C98.7085 35.8944 98.4848 35.2247 97.7688 35.2693C96.6502 35.314 96.0237 35.5372 95.9342 35.0461C95.8895 34.6889 96.7397 34.0193 97.8136 33.9746C99.3797 33.9746 100.096 35.6711 99.2007 35.8051Z" fill="#22272E"/>
<path d="M104.525 37.1444C104.839 37.4123 105.286 36.9212 105.734 37.2337C106.405 37.6355 106.628 37.9927 106.852 37.6802C107.076 37.3676 106.852 36.6087 106.226 36.2068C105.197 35.4925 103.854 36.6533 104.525 37.1444Z" fill="#22272E"/>
<path d="M48.1454 111.792C47.844 112.426 47.6475 113.105 47.5637 113.801C47.5637 114.56 48.1902 121.57 48.0112 122.954C47.8322 124.338 47.3847 127.061 47.1163 127.463C46.8478 127.865 45.2369 126.615 45.1922 122.418C45.1474 118.221 43.7156 112.462 44.9237 111.792C46.1319 111.123 47.7875 111.257 48.1454 111.792Z" fill="#B28D93"/>
<path d="M18.8369 132.508L29.5759 115.632C29.6948 115.445 29.8498 115.284 30.0318 115.158C30.2138 115.032 30.4192 114.944 30.6358 114.898C30.8525 114.853 31.0762 114.85 31.2937 114.892C31.5113 114.934 31.7183 115.018 31.9027 115.141L57.1842 131.168C57.3711 131.287 57.5323 131.442 57.6586 131.623C57.7848 131.805 57.8734 132.01 57.9192 132.226C57.9651 132.442 57.9672 132.665 57.9255 132.882C57.8838 133.099 57.7991 133.306 57.6764 133.49L46.9373 150.366C46.8184 150.553 46.6635 150.714 46.4815 150.839C46.2994 150.965 46.0941 151.054 45.8774 151.1C45.6607 151.145 45.437 151.147 45.2195 151.106C45.002 151.064 44.7949 150.98 44.6105 150.857L19.3291 134.829C18.9601 134.583 18.7021 134.202 18.6102 133.768C18.5183 133.335 18.5996 132.882 18.8369 132.508V132.508Z" fill="#22272E"/>
<path d="M48.5034 145.411L53.8729 137.017C53.9286 136.927 54.0056 136.852 54.0972 136.799C54.1887 136.745 54.292 136.715 54.398 136.711C54.504 136.706 54.6094 136.728 54.7051 136.773C54.8008 136.819 54.8838 136.887 54.9468 136.973L55.797 138.089C55.8807 138.196 55.9298 138.326 55.9378 138.461C55.9458 138.597 55.9123 138.732 55.8417 138.848L51.0091 146.438C50.9446 146.552 50.8428 146.641 50.7208 146.689C50.5987 146.738 50.4637 146.744 50.338 146.705L48.9508 146.438C48.8465 146.41 48.7498 146.359 48.668 146.289C48.5862 146.219 48.5214 146.131 48.4783 146.032C48.4353 145.933 48.4152 145.826 48.4195 145.718C48.4239 145.611 48.4525 145.506 48.5034 145.411V145.411Z" fill="#6DAFA7"/>
<path d="M46.9372 111.345C46.9372 111.345 46.6687 119.114 46.624 120.765C46.5793 122.417 46.6687 125.677 46.266 127.239C45.8633 128.802 45.1921 132.731 43.984 132.998C42.7758 133.266 44.0735 128.177 44.0735 127.194C43.9752 126.067 43.7958 124.948 43.5365 123.846C43.5365 123.846 43.0891 126.302 42.7758 127.373C42.4626 128.445 40.4043 131.793 39.5989 131.659C38.7934 131.525 39.7779 129.025 40.4043 127.507C40.986 126.123 41.2097 123.221 41.2097 123.221C40.8608 124.108 40.4573 124.973 40.0016 125.81C39.4646 126.703 37.6301 129.471 36.8694 129.337C36.1087 129.204 37.3616 126.391 38.1223 125.096C38.5531 124.421 38.8282 123.658 38.9277 122.864C38.9277 122.864 37.7195 124.069 36.9589 124.65C36.1982 125.23 33.5134 126.525 33.2897 125.855C33.066 125.185 34.2741 124.471 35.3927 123.444C36.5114 122.417 37.7195 120.364 37.988 120.007C38.2565 119.649 37.4958 116.524 38.704 114.426C39.9121 112.327 40.628 111.479 40.9413 110.05C41.2545 108.622 46.803 110.318 46.9372 111.345Z" fill="#B28D93"/>
<path d="M74.9035 50.9839C74.9035 50.9839 69.8024 50.4927 63.6722 58.1718C57.542 65.8509 51.5013 72.2799 49.801 75.3158C48.1006 78.3517 44.3419 89.7364 42.4626 98.7102C40.5833 107.684 40.4043 109.291 40.449 110.273C40.4938 111.166 45.0131 112.416 47.9664 112.372C48.2259 112.377 48.4808 112.303 48.6968 112.159C48.9128 112.015 49.0795 111.809 49.1745 111.568C50.3379 108.845 54.4098 99.5585 56.0207 96.1654C57.9 92.1919 60.0925 86.2987 60.361 85.8969C60.6295 85.4951 72.8452 73.0835 75.1272 69.8244C77.4092 66.5652 79.6018 61.297 79.1096 56.6539C78.5727 51.6089 75.9774 50.9392 74.9035 50.9839Z" fill="#5686AE"/>
<path d="M50.4274 74.2896C50.4274 74.2896 51.8145 72.3698 53.5596 74.111C55.3942 75.9415 54.5888 79.915 52.0383 82.4151C49.9352 84.4688 46.9372 83.6206 47.2057 81.7008" stroke="#22272E" stroke-width="1.8" stroke-linecap="round" stroke-linejoin="round"/>
<path d="M41.0756 108.131C42.2838 108.711 45.9082 110.319 49.4431 109.872" stroke="#22272E" stroke-width="1.8" stroke-linecap="round" stroke-linejoin="round"/>
<path d="M158.221 120.81L165.738 96.2549C165.847 95.9277 166.058 95.6435 166.339 95.443C166.621 95.2425 166.958 95.136 167.304 95.1387L211.782 96.3888C211.955 96.3906 212.125 96.4321 212.279 96.5102C212.434 96.5882 212.568 96.7006 212.672 96.8388C212.776 96.9769 212.846 97.137 212.878 97.3067C212.91 97.4765 212.902 97.6512 212.855 97.8175L204.13 127.775C204.025 128.141 203.789 128.456 203.468 128.661C203.147 128.866 202.762 128.948 202.385 128.891L159.205 122.239C159.037 122.23 158.874 122.182 158.727 122.101C158.581 122.019 158.455 121.904 158.36 121.766C158.265 121.628 158.203 121.47 158.179 121.304C158.155 121.139 158.169 120.969 158.221 120.81V120.81Z" fill="#22272E"/>
<path d="M157.818 122.061L131.955 124.471L176.298 135.365C177.37 135.633 178.492 135.633 179.564 135.365L203.638 129.159L157.818 122.061Z" fill="#63737A"/>
<path d="M176.343 135.365L131.999 124.472C132.002 124.88 132.14 125.276 132.39 125.599C132.641 125.921 132.991 126.153 133.386 126.258L175.179 137.33C176.943 137.791 178.801 137.761 180.549 137.24L202.474 130.811C202.841 130.706 203.163 130.483 203.39 130.176C203.616 129.869 203.735 129.496 203.727 129.115L179.654 135.321C178.573 135.625 177.431 135.64 176.343 135.365V135.365Z" fill="#22272E"/>
<path d="M187.44 100.586L184.307 111.212C184.262 111.341 184.177 111.454 184.065 111.534C183.953 111.613 183.819 111.657 183.681 111.658L166.096 110.14C166.007 110.134 165.921 110.107 165.844 110.064C165.766 110.02 165.7 109.959 165.648 109.887C165.597 109.814 165.562 109.732 165.547 109.644C165.531 109.557 165.536 109.467 165.559 109.381L168.512 99.6486C168.548 99.5219 168.625 99.4102 168.729 99.3298C168.834 99.2494 168.962 99.2047 169.094 99.2021L186.858 99.8272C186.95 99.83 187.039 99.8531 187.121 99.8949C187.203 99.9367 187.274 99.9961 187.33 100.069C187.385 100.141 187.424 100.226 187.443 100.315C187.462 100.405 187.461 100.497 187.44 100.586V100.586Z" fill="white"/>
<path d="M184.084 102.506L182.115 108.89L168.423 107.908L168.915 106.479L173.971 104.247L176.835 106.479L184.084 102.506Z" fill="#F4C2C9"/>
<path d="M173.837 115.543L172.539 119.561C172.493 119.696 172.401 119.811 172.278 119.885C172.155 119.958 172.009 119.986 171.868 119.962L163.411 118.846C163.324 118.838 163.24 118.81 163.166 118.765C163.091 118.72 163.028 118.659 162.981 118.586C162.933 118.513 162.903 118.43 162.892 118.344C162.882 118.257 162.891 118.17 162.919 118.087L164.037 114.337C164.083 114.208 164.168 114.095 164.28 114.015C164.392 113.935 164.526 113.892 164.664 113.891L173.3 114.784C173.392 114.78 173.484 114.799 173.567 114.84C173.65 114.881 173.722 114.942 173.775 115.017C173.828 115.093 173.862 115.18 173.873 115.272C173.884 115.364 173.871 115.457 173.837 115.543V115.543Z" fill="#FFE38E"/>
<path d="M187.082 116.882L185.65 121.302C185.604 121.438 185.511 121.553 185.388 121.626C185.265 121.7 185.12 121.727 184.979 121.704L176.924 120.632C176.834 120.621 176.748 120.59 176.672 120.541C176.596 120.491 176.532 120.426 176.485 120.349C176.437 120.272 176.408 120.185 176.399 120.095C176.39 120.005 176.401 119.914 176.432 119.829L177.775 115.677C177.815 115.547 177.9 115.436 178.015 115.363C178.129 115.289 178.266 115.258 178.401 115.275L186.545 116.079C186.639 116.084 186.73 116.11 186.812 116.157C186.893 116.203 186.963 116.268 187.015 116.346C187.067 116.424 187.1 116.513 187.112 116.606C187.124 116.699 187.113 116.794 187.082 116.882V116.882Z" fill="#6DAFA7"/>
<path d="M202.295 118.4L200.774 123.311C200.728 123.446 200.635 123.561 200.512 123.635C200.389 123.708 200.244 123.736 200.103 123.712L190.393 122.418C190.303 122.406 190.217 122.375 190.14 122.326C190.064 122.277 190 122.211 189.953 122.134C189.906 122.057 189.876 121.97 189.867 121.88C189.858 121.79 189.87 121.699 189.901 121.614L191.377 117.016C191.418 116.886 191.503 116.775 191.618 116.702C191.732 116.628 191.869 116.597 192.004 116.614L201.714 117.596C201.81 117.598 201.904 117.622 201.99 117.667C202.075 117.711 202.149 117.775 202.205 117.853C202.262 117.931 202.299 118.021 202.315 118.116C202.33 118.211 202.324 118.308 202.295 118.4Z" fill="#F4C2C9"/>
<path d="M197.06 102.729C196.884 103.395 196.488 103.982 195.936 104.395C195.383 104.808 194.707 105.023 194.017 105.006C192.72 104.916 192.049 103.8 192.407 102.55C192.604 101.954 192.981 101.433 193.485 101.058C193.989 100.683 194.597 100.471 195.226 100.452C195.51 100.44 195.793 100.496 196.052 100.613C196.312 100.731 196.54 100.907 196.718 101.129C196.896 101.35 197.02 101.61 197.08 101.888C197.139 102.166 197.132 102.454 197.06 102.729V102.729Z" fill="#FFE779"/>
<path d="M200.237 101.256L206.77 101.479" stroke="#63737A" stroke-width="1.8" stroke-linecap="round" stroke-linejoin="round"/>
<path d="M190.035 109.738L204.041 110.72" stroke="#63737A" stroke-width="1.8" stroke-linecap="round" stroke-linejoin="round"/>
<path d="M199.476 103.89L206.009 104.158" stroke="#63737A" stroke-width="1.8" stroke-linecap="round" stroke-linejoin="round"/>
<path d="M235.318 37.1896L201.311 39.8237C201.108 39.8368 200.904 39.8066 200.714 39.7349C200.523 39.6633 200.35 39.5519 200.206 39.4082C200.062 39.2646 199.951 39.0919 199.879 38.9018C199.807 38.7117 199.777 38.5085 199.79 38.3057L201.222 18.7062C201.262 18.138 201.498 17.601 201.889 17.1862C202.28 16.7713 202.803 16.504 203.369 16.4293L237.913 11.7415C238.123 11.7153 238.337 11.7359 238.538 11.8016C238.739 11.8673 238.923 11.9766 239.077 12.1217C239.231 12.2668 239.351 12.444 239.428 12.6407C239.506 12.8374 239.538 13.0487 239.524 13.2594L237.6 34.9573C237.536 35.5347 237.273 36.0721 236.857 36.4789C236.442 36.8856 235.898 37.1366 235.318 37.1896V37.1896Z" fill="#6DAFA7"/>
<path d="M234.199 36.4748L200.192 39.1089C199.989 39.122 199.786 39.0917 199.595 39.0201C199.404 38.9484 199.231 38.8371 199.087 38.6934C198.943 38.5497 198.832 38.3771 198.76 38.187C198.688 37.9968 198.658 37.7936 198.671 37.5909L200.103 17.9914C200.143 17.4231 200.379 16.8862 200.77 16.4713C201.162 16.0565 201.685 15.7891 202.251 15.7144L236.795 11.0266C237.005 11.0005 237.218 11.021 237.419 11.0868C237.621 11.1525 237.805 11.2618 237.959 11.4069C238.113 11.5519 238.232 11.7291 238.31 11.9258C238.387 12.1225 238.42 12.3338 238.406 12.5446L236.481 34.2425C236.432 34.8256 236.175 35.3718 235.756 35.7815C235.337 36.1912 234.785 36.4372 234.199 36.4748V36.4748Z" fill="#B0D7C0"/>
<path d="M211.558 23.3486C211.495 24.0155 211.209 24.6421 210.747 25.1278C210.284 25.6135 209.672 25.9303 209.007 26.0273C208.716 26.0654 208.42 26.0362 208.142 25.9419C207.864 25.8477 207.612 25.691 207.404 25.4838C207.197 25.2767 207.039 25.0247 206.945 24.7474C206.851 24.47 206.821 24.1747 206.859 23.8843C206.913 23.2211 207.189 22.5954 207.644 22.1091C208.099 21.6227 208.706 21.3042 209.365 21.2056C210.708 21.027 211.647 22.0092 211.558 23.3486Z" fill="#22272E"/>
<path d="M210.886 31.8758L206.233 32.3222C206 32.3473 205.763 32.3192 205.543 32.2398C205.322 32.1605 205.122 32.0321 204.958 31.8644C204.794 31.6967 204.671 31.494 204.597 31.2716C204.523 31.0493 204.501 30.8132 204.533 30.5811V30.5811C204.648 29.3972 205.154 28.2852 205.972 27.4203C206.791 26.5554 207.874 25.9867 209.052 25.8039V25.8039C211.379 25.5361 213.168 27.3219 212.945 29.7774C212.888 30.3071 212.654 30.8021 212.28 31.1828C211.907 31.5635 211.416 31.8076 210.886 31.8758V31.8758Z" fill="#22272E"/>
<path d="M217.062 20.9378L231.559 19.2412" stroke="#63737A" stroke-width="1.8" stroke-linecap="round" stroke-linejoin="round"/>
<path d="M216.704 24.9112L231.201 23.3486" stroke="#63737A" stroke-width="1.8" stroke-linecap="round" stroke-linejoin="round"/>
<path d="M216.39 28.8854L225.116 28.0371" stroke="#63737A" stroke-width="1.8" stroke-linecap="round" stroke-linejoin="round"/>
</g>
<defs>
<clipPath id="clip0_2620_19252">
<rect width="393" height="250" fill="white"/>
</clipPath>
</defs>
</svg>
