<svg width="65" height="74" viewBox="0 0 65 74" fill="none" xmlns="http://www.w3.org/2000/svg">
<ellipse cx="32.5" cy="38" rx="25" ry="26" fill="white"/>
<path d="M1.5 37C1.5 54.125 15.375 68 32.5 68C49.625 68 63.5 54.125 63.5 37C63.5 19.875 49.625 6 32.5 6C15.375 6 1.5 19.875 1.5 37ZM19.375 40.625C18.25 41.875 16.25 41.875 15.125 40.75L13.75 39.375C12.5 38.125 12.5 36.25 13.75 35.125L30.375 18.5C31.5 17.375 33.375 17.375 34.625 18.5L51.125 35.125C52.375 36.25 52.375 38.125 51.125 39.375L49.75 40.75C48.625 41.875 46.625 41.875 45.5 40.625L36.5 31.25V54C36.5 55.75 35.125 57 33.5 57H31.5C29.75 57 28.5 55.75 28.5 54V31.25L19.375 40.625Z" fill="#004986"/>
</svg>
